<svg
                xmlns="http://www.w3.org/2000/svg"
                width="26.492"
                height="18.38"
                viewbox="0 0 26.492 18.38"
              >
                <g id="iconHome" transform="translate(-1973.272 -163.503)">
                  <path
                    id="Path_11546"
                    data-name="Path 11546"
                    d="M2041.328,169.956h-15.9c0-.511-.031-1,.018-1.482a.774.774,0,0,1,.37-.447q3.6-2.242,7.229-4.449a.773.773,0,0,1,.668,0q3.631,2.2,7.226,4.454a1.028,1.028,0,0,1,.373.657A8.651,8.651,0,0,1,2041.328,169.956Z"
                    transform="translate(-41.58 0)"
                    fill="#9a9a9a"
                  ></path>
                  <path
                    id="Path_11547"
                    data-name="Path 11547"
                    d="M2041.544,241.808v2.512h-15.821v-2.512Z"
                    transform="translate(-41.822 -62.437)"
                    fill="#9a9a9a"
                  ></path>
                  <path
                    id="Path_11548"
                    data-name="Path 11548"
                    d="M1977.22,204.782v-2.59h-3.948v-3.958h3.911v-2.7l5.308,4.638Z"
                    transform="translate(0 -25.541)"
                    fill="#9a9a9a"
                  ></path>
                  <path
                    id="Path_11549"
                    data-name="Path 11549"
                    d="M2032.132,202.239h2.569v6.555h-2.569Z"
                    transform="translate(-46.932 -30.887)"
                    fill="#9a9a9a"
                  ></path>
                  <path
                    id="Path_11550"
                    data-name="Path 11550"
                    d="M2087.05,208.826h-2.584v-6.554h2.584Z"
                    transform="translate(-88.661 -30.913)"
                    fill="#9a9a9a"
                  ></path>
                  <path
                    id="Path_11551"
                    data-name="Path 11551"
                    d="M2061.1,202.253V208.8h-2.523v-6.548Z"
                    transform="translate(-68.018 -30.898)"
                    fill="#9a9a9a"
                  ></path>
                </g>
              </svg>