<svg style="margin-right:10px" xmlns="http://www.w3.org/2000/svg" width="23.005" height="18.954" viewBox="0 0 23.005 18.954">
                            <g id="接続済icon" transform="translate(-149.702 113.561)">
                              <path id="Path_10605" data-name="Path 10605" d="M184.328-57.4a2.306,2.306,0,0,1,2.326-2.3,2.312,2.312,0,0,1,2.3,2.321,2.322,2.322,0,0,1-2.341,2.313A2.316,2.316,0,0,1,184.328-57.4Z" transform="translate(-25.501 -39.547)" fill="#8d8d8d"/>
                              <path id="Path_10604" data-name="Path 10604" d="M184.413-75.091,182.8-73.438a4.587,4.587,0,0,0-6.509-.026l-1.618-1.647A6.692,6.692,0,0,1,184.413-75.091Z" transform="translate(-18.39 -26.786)" fill="#8d8d8d"/>
                              <path id="Path_10603" data-name="Path 10603" d="M178.533-91.245l-1.617,1.7a8.961,8.961,0,0,0-6.524-2.762,8.972,8.972,0,0,0-6.479,2.716l-1.637-1.655A11.259,11.259,0,0,1,178.533-91.245Z" transform="translate(-9.261 -13.889)" fill="#8d8d8d"/>
                              <path id="Path_10602" data-name="Path 10602" d="M172.707-108.319l-1.679,1.626a13.47,13.47,0,0,0-9.782-4.286,13.547,13.547,0,0,0-9.909,4.116l-1.634-1.648A15.819,15.819,0,0,1,172.707-108.319Z" transform="translate(0 -0.186)" fill="#8d8d8d"/>
                            </g>
                          </svg>