<svg xmlns="http://www.w3.org/2000/svg" width="55.664" height="46.13"><g fill="#a8a8a8"><path data-name="Path 6112" d="M6.14 42.54v-9.268l-3.732-22.8a1.2 1.2 0 01.987-1.374l3.3-.539A3.583 3.583 0 019.722 6.89h7.174l27.389-4.484a1.283 1.283 0 01.194-.016 1.2 1.2 0 011.179 1l.573 3.5h2.426l-.635-3.882A3.6 3.6 0 0043.899.046L3.005 6.738a3.6 3.6 0 00-2.962 4.121l5.178 31.642a3.587 3.587 0 002.112 2.706A3.569 3.569 0 016.14 42.54z"/><path data-name="Path 6113" d="M52.077 46.131H9.727a3.594 3.594 0 01-3.587-3.589V10.479a3.591 3.591 0 013.587-3.587h42.35a3.591 3.591 0 013.587 3.587v32.062a3.594 3.594 0 01-3.587 3.59zM9.727 9.285a1.2 1.2 0 00-1.195 1.195v32.062a1.2 1.2 0 001.195 1.195h42.35a1.2 1.2 0 001.195-1.195V10.479a1.2 1.2 0 00-1.195-1.195z"/><path data-name="Path 6114" d="M12.36 34.884l8.494-8.494 4.067 4.067 13.4-13.4 11.006 11.006v11.843H12.36z"/><circle data-name="Ellipse 1723" cx="4.665" cy="4.665" transform="translate(12.839 13.59)" r="4.665"/></g></svg>