<svg xmlns="http://www.w3.org/2000/svg" width="23.005" height="18.78" viewBox="0 0 23.005 18.78">
                <g id="Group_6578" data-name="Group 6578" transform="translate(-149.702 113.376)">
                  <path id="Path_10602" data-name="Path 10602" d="M172.707-108.459l-1.679,1.581a13.65,13.65,0,0,0-9.782-4.168,13.743,13.743,0,0,0-9.909,4l-1.634-1.6A16.13,16.13,0,0,1,172.707-108.459Z" transform="translate(0 0)" fill="#fff"/>
                  <path id="Path_10603" data-name="Path 10603" d="M178.533-91.339l-1.617,1.655a9.085,9.085,0,0,0-6.524-2.687,9.1,9.1,0,0,0-6.479,2.642l-1.637-1.61A11.478,11.478,0,0,1,178.533-91.339Z" transform="translate(-9.261 -13.745)" fill="#fff"/>
                  <path id="Path_10604" data-name="Path 10604" d="M184.413-75.169,182.8-73.578a4.712,4.712,0,0,0-6.509-.025l-1.618-1.586A6.87,6.87,0,0,1,184.413-75.169Z" transform="translate(-18.39 -26.64)" fill="#fff"/>
                  <path id="Path_10605" data-name="Path 10605" d="M184.328-57.4a2.306,2.306,0,0,1,2.326-2.3,2.312,2.312,0,0,1,2.3,2.321,2.322,2.322,0,0,1-2.341,2.313A2.316,2.316,0,0,1,184.328-57.4Z" transform="translate(-25.501 -39.535)" fill="#fff"/>
                </g>
              </svg>