<svg class="icon" xmlns="http://www.w3.org/2000/svg" width="28.977" height="28.975"><defs><radialGradient id="a" cx="1.087" cy="-.281" r="1.554" gradientTransform="matrix(0 1 -1.758 0 .592 -1.368)" gradientUnits="objectBoundingBox"><stop offset="0" stop-color="#635b57"/><stop offset=".59" stop-color="#b4b3b2"/><stop offset=".598" stop-color="#635b57"/><stop offset="1" stop-color="#b4b3b2"/></radialGradient><radialGradient id="b" cx=".214" cy="0" r=".994" gradientTransform="matrix(0 1 -1.916 0 .214 -.213)" gradientUnits="objectBoundingBox"><stop offset="0" stop-color="#73481a"/><stop offset=".59" stop-color="#ffd460"/><stop offset=".6" stop-color="#73481a"/><stop offset="1" stop-color="#ffd460"/></radialGradient></defs><path d="M72.443 128.986L77.428 124l-4.277-4.277-.006-.005-.094.094-3.392 3.388-1.593 1.6-3.393 3.392a1.129 1.129 0 000 1.593l3.393 3.393 1.593 1.593 3.393 3.393.094.094 4.283-4.282z" transform="translate(-64.345 -114.498)" fill="url(#a)"/><path d="M99.005 126.706l-3.392 3.394-1.593 1.593-3.393 3.393-1.593 1.593-3.392 3.393a1.129 1.129 0 01-1.593 0l-3.393-3.393-.094-.094 5.687-5.687-4.985-4.985 4.985-4.985-5.687-5.687.094-.094 3.393-3.393a1.129 1.129 0 011.593 0l3.392 3.393 1.593 1.593 3.393 3.393 1.593 1.593 3.393 3.392a1.129 1.129 0 01-.001 1.588z" transform="translate(-70.357 -111.422)" fill="url(#b)"/></svg>