<svg class="icon" xmlns="http://www.w3.org/2000/svg" width="31" height="31"><g transform="translate(0 .428)"><circle cx="15.5" cy="15.5" r="15.5" transform="translate(0 -.428)" fill="#fff"/><path d="M14.507 15.64v-4.154h10.17l2.172-3.679H11.11v7.833a4.21 4.21 0 01-.172 1.289 1.86 1.86 0 01-.572.867 2.443 2.443 0 01-1.061.486 7.587 7.587 0 01-1.625.148H5.802l-2.2 3.636h4.082q6.822.001 6.823-6.426z" fill="#00a5a8"/><path d="M26.098 14.414a4.357 4.357 0 00-3.053-.962h-3.61a1.414 1.414 0 01-.874-.222.922.922 0 01-.286-.771 1.572 1.572 0 01.026-.29H15.01v.036a5.32 5.32 0 00.245 1.66 3.3 3.3 0 00.751 1.279 3.453 3.453 0 001.274.825 5.076 5.076 0 001.829.3h3.609a1.363 1.363 0 01.882.233.971.971 0 01.277.782 1 1 0 01-.277.793 1.322 1.322 0 01-.882.243h-8.084a4.991 4.991 0 01-3.06 3.636h10.882a6.379 6.379 0 002.131-.317 3.731 3.731 0 001.462-.909 3.529 3.529 0 00.833-1.459 6.746 6.746 0 00.261-1.945 3.761 3.761 0 00-1.045-2.912z" fill="#3e3a39"/></g></svg>