<svg xmlns="http://www.w3.org/2000/svg" width="294.213" height="244.047"><g data-name="Group 5903"><g data-name="Group 5901"><g data-name="Group 5899" fill="#3c3c3c" stroke="#5c5c5c" stroke-miterlimit="10"><path data-name="長方形 2951" d="M57.894.5h36.742v21.967H57.894z"/><path data-name="長方形 2952" d="M57.894 22.468h36.742v21.967H57.894z"/><path data-name="長方形 2953" d="M57.894 44.435h36.742v21.967H57.894z"/><path data-name="長方形 2954" d="M57.894 66.402h36.742v21.967H57.894z"/><path data-name="長方形 2955" d="M57.894 88.369h36.742v21.967H57.894z"/><path data-name="長方形 2956" d="M57.894 110.337h36.742v21.967H57.894z"/><path data-name="長方形 2957" d="M57.894 132.304h36.742v21.967H57.894z"/><path data-name="長方形 2958" d="M57.894 154.271h36.742v21.967H57.894z"/><path data-name="長方形 2959" d="M57.894 176.238h36.742v21.967H57.894z"/><path data-name="長方形 2960" d="M57.894 198.206h36.742v21.967H57.894z"/><path data-name="長方形 2961" d="M94.634.5h36.742v21.967H94.634z"/><path data-name="長方形 2962" d="M94.634 22.468h36.742v21.967H94.634z"/><path data-name="長方形 2963" d="M94.634 44.435h36.742v21.967H94.634z"/><path data-name="長方形 2964" d="M94.634 66.402h36.742v21.967H94.634z"/><path data-name="長方形 2965" d="M94.634 88.369h36.742v21.967H94.634z"/><path data-name="長方形 2966" d="M94.634 110.337h36.742v21.967H94.634z"/><path data-name="長方形 2967" d="M94.634 132.304h36.742v21.967H94.634z"/><path data-name="長方形 2968" d="M94.634 154.271h36.742v21.967H94.634z"/><path data-name="長方形 2969" d="M94.634 176.238h36.742v21.967H94.634z"/><path data-name="長方形 2970" d="M94.634 198.206h36.742v21.967H94.634z"/><path data-name="長方形 2971" d="M131.376.5h36.742v21.967h-36.742z"/><path data-name="長方形 2972" d="M131.376 22.468h36.742v21.967h-36.742z"/><path data-name="長方形 2973" d="M131.376 44.435h36.742v21.967h-36.742z"/><path data-name="長方形 2974" d="M131.376 66.402h36.742v21.967h-36.742z"/><path data-name="長方形 2975" d="M131.376 88.369h36.742v21.967h-36.742z"/><path data-name="長方形 2976" d="M131.376 110.337h36.742v21.967h-36.742z"/><path data-name="長方形 2977" d="M131.376 132.304h36.742v21.967h-36.742z"/><path data-name="長方形 2978" d="M131.376 154.271h36.742v21.967h-36.742z"/><path data-name="長方形 2979" d="M131.376 176.238h36.742v21.967h-36.742z"/><path data-name="長方形 2980" d="M131.376 198.206h36.742v21.967h-36.742z"/><path data-name="長方形 2981" d="M168.118.5h36.742v21.967h-36.742z"/><path data-name="長方形 2982" d="M168.118 22.468h36.742v21.967h-36.742z"/><path data-name="長方形 2983" d="M168.118 44.435h36.742v21.967h-36.742z"/><path data-name="長方形 2984" d="M168.118 66.402h36.742v21.967h-36.742z"/><path data-name="長方形 2985" d="M168.118 88.369h36.742v21.967h-36.742z"/><path data-name="長方形 2986" d="M168.118 110.337h36.742v21.967h-36.742z"/><path data-name="長方形 2987" d="M168.118 132.304h36.742v21.967h-36.742z"/><path data-name="長方形 2988" d="M168.118 154.271h36.742v21.967h-36.742z"/><path data-name="長方形 2989" d="M168.118 176.238h36.742v21.967h-36.742z"/><path data-name="長方形 2990" d="M168.118 198.206h36.742v21.967h-36.742z"/><path data-name="長方形 2991" d="M204.86.5h36.742v21.967H204.86z"/><path data-name="長方形 2992" d="M204.86 22.468h36.742v21.967H204.86z"/><path data-name="長方形 2993" d="M204.86 44.435h36.742v21.967H204.86z"/><path data-name="長方形 2994" d="M204.86 66.402h36.742v21.967H204.86z"/><path data-name="長方形 2995" d="M204.86 88.369h36.742v21.967H204.86z"/><path data-name="長方形 2996" d="M204.86 110.337h36.742v21.967H204.86z"/><path data-name="長方形 2997" d="M204.86 132.304h36.742v21.967H204.86z"/><path data-name="長方形 2998" d="M204.86 154.271h36.742v21.967H204.86z"/><path data-name="長方形 2999" d="M204.86 176.238h36.742v21.967H204.86z"/><path data-name="長方形 3000" d="M204.86 198.206h36.742v21.967H204.86z"/><path data-name="長方形 3001" d="M241.6.5h36.742v21.967H241.6z"/><path data-name="長方形 3002" d="M241.6 22.468h36.742v21.967H241.6z"/><path data-name="長方形 3003" d="M241.6 44.435h36.742v21.967H241.6z"/><path data-name="長方形 3004" d="M241.6 66.402h36.742v21.967H241.6z"/><path data-name="長方形 3005" d="M241.6 88.369h36.742v21.967H241.6z"/><path data-name="長方形 3006" d="M241.6 110.337h36.742v21.967H241.6z"/><path data-name="長方形 3007" d="M241.6 132.304h36.742v21.967H241.6z"/><path data-name="長方形 3008" d="M241.6 154.271h36.742v21.967H241.6z"/><path data-name="長方形 3009" d="M241.6 176.238h36.742v21.967H241.6z"/><path data-name="長方形 3010" d="M241.6 198.206h36.742v21.967H241.6z"/><path data-name="長方形 3051" d="M45.473.5h12.421v21.967H45.473z"/><path data-name="長方形 3052" d="M45.473 22.468h12.421v21.967H45.473z"/><path data-name="長方形 3053" d="M45.473 44.435h12.421v21.967H45.473z"/><path data-name="長方形 3054" d="M45.473 66.402h12.421v21.967H45.473z"/><path data-name="長方形 3055" d="M45.473 88.369h12.421v21.967H45.473z"/><path data-name="長方形 3056" d="M45.473 110.337h12.421v21.967H45.473z"/><path data-name="長方形 3057" d="M45.473 132.304h12.421v21.967H45.473z"/><path data-name="長方形 3058" d="M45.473 154.271h12.421v21.967H45.473z"/><path data-name="長方形 3059" d="M45.473 176.238h12.421v21.967H45.473z"/><path data-name="長方形 3060" d="M45.473 198.206h12.421v21.967H45.473z"/><path data-name="長方形 3051" d="M278.342.5h12.421v21.967h-12.421z"/><path data-name="長方形 3052" d="M278.342 22.468h12.421v21.967h-12.421z"/><path data-name="長方形 3053" d="M278.342 44.435h12.421v21.967h-12.421z"/><path data-name="長方形 3054" d="M278.342 66.402h12.421v21.967h-12.421z"/><path data-name="長方形 3055" d="M278.342 88.369h12.421v21.967h-12.421z"/><path data-name="長方形 3056" d="M278.342 110.337h12.421v21.967h-12.421z"/><path data-name="長方形 3057" d="M278.342 132.304h12.421v21.967h-12.421z"/><path data-name="長方形 3058" d="M278.342 154.271h12.421v21.967h-12.421z"/><path data-name="長方形 3059" d="M278.342 176.238h12.421v21.967h-12.421z"/><path data-name="長方形 3060" d="M278.342 198.206h12.421v21.967h-12.421z"/></g><path data-name="線 530" fill="none" stroke="#5c5c5c" stroke-miterlimit="10" d="M290.954 110.886l-245.418-.549"/><g data-name="Group 5900" transform="translate(-44.063 -301.922)"><path data-name="パス 4017" d="M102.124 412.258l25.05-12.631 24.526 26.361 25.051 10.984 25.049 24.713 23.485-14.278 26.094-48.877 24.529-10.984 25.051-12.082 21.051-16.713" fill="none" stroke="#0ac089" stroke-miterlimit="10" stroke-width="2"/><circle data-name="Ellipse 1744" cx="6.5" cy="6.5" r="6.5" transform="translate(243 394)" fill="#0ac089"/></g><path data-name="パス 4015" d="M45.537.226v220.222h245.416" fill="none" stroke="#333" stroke-miterlimit="10"/></g><g data-name="Group 5902" fill="#f2f2f2" font-size="17" font-family="BebasNeueRegular, Bebas Neue"><text data-name="12/31" transform="translate(278.213 240.047)"><tspan x="-15.521" y="0">12/31</tspan></text><text data-name="12/30" transform="translate(241.213 240.047)"><tspan x="-15.955" y="0">12/30</tspan></text><text data-name="12/29" transform="translate(204.213 240.047)"><tspan x="-15.955" y="0">12/29</tspan></text><text data-name="12/28" transform="translate(167.213 240.047)"><tspan x="-15.98" y="0">12/28</tspan></text><text data-name="12/27" transform="translate(130.213 240.047)"><tspan x="-15.938" y="0">12/27</tspan></text><text data-name="12/26" transform="translate(93.213 240.047)"><tspan x="-15.955" y="0">12/26</tspan></text><text data-name="12/25" transform="translate(56.213 240.047)"><tspan x="-15.938" y="0">12/25</tspan></text></g><text data-name="600,000 575,000 550,000 525,000 500,000 475,000 450,000 425,000 400,000" transform="translate(38 26.837)" fill="#f2f2f2" font-size="15" font-family="BebasNeueRegular, Bebas Neue"><tspan x="-37.41" y="0">600,000</tspan><tspan x="-37.32" y="22">575,000</tspan><tspan x="-37.35" y="44">550,000</tspan><tspan x="-37.32" y="66">525,000</tspan><tspan x="-37.38" y="88">500,000</tspan><tspan x="-37.515" y="110">475,000</tspan><tspan x="-37.545" y="132">450,000</tspan><tspan x="-37.515" y="154">425,000</tspan><tspan x="-37.575" y="176">400,000</tspan></text></g></svg>