<svg xmlns="http://www.w3.org/2000/svg" width="36.617" height="35.796"><g data-name="Group 7642" transform="translate(-42.605 -269.5)"><circle data-name="Ellipse 1844" cx="2.056" cy="2.056" r="2.056" transform="translate(45.881 275.943)" fill="#794ba4"/><circle data-name="Ellipse 1845" cx="2.056" cy="2.056" r="2.056" transform="translate(71.927 275.806)" fill="#00bfeb"/><g data-name="Group 7635" transform="translate(42.605 281.392)" fill="#ff3114"><circle data-name="Ellipse 1846" cx="2.056" cy="2.056" r="2.056" transform="translate(0 8.425)"/><path data-name="Path 11464" d="M5.264 4.649c.524 1.049 1.039 2.049 1.522 3.065a3.882 3.882 0 01.381 1.127 5.321 5.321 0 002.32 3.631c.681.506 1.454.888 2.173 1.346a1.848 1.848 0 01.552.51c.323.489.6 1.007.942 1.59-3.274-.258-6.22-1.064-8.362-3.711a.621.621 0 01-.1-.782 2.419 2.419 0 00-.658-2.982.584.584 0 01-.237-.66 7.913 7.913 0 011.467-3.134z"/><path data-name="Path 11465" d="M11.955.037a5.152 5.152 0 00-2.608 1.225 3.708 3.708 0 00-.156.4 4.274 4.274 0 00-.077 2.247l3.228-3.913a8.25 8.25 0 00-.387.041z"/></g><g data-name="Group 7636" transform="translate(51.092 288.539)" fill="#ff820b"><circle data-name="Ellipse 1847" cx="2.056" cy="2.056" r="2.056" transform="translate(.475 12.54)"/><path data-name="Path 11466" d="M.043 8.423c1.143.259 2.244.493 3.336.76a3.88 3.88 0 011.114.418 5.324 5.324 0 004.28.5c.823-.207 1.608-.564 2.416-.832a1.864 1.864 0 01.744-.105c.583.059 1.16.171 1.828.276-2.27 2.373-4.757 4.145-8.162 4.13a.623.623 0 01-.671-.415 2.418 2.418 0 00-2.725-1.376.584.584 0 01-.661-.234A7.915 7.915 0 01.043 8.423z"/><path data-name="Path 11467" d="M.703.323a5.159 5.159 0 00-.7 2.8 3.946 3.946 0 00.215.377A4.277 4.277 0 001.91 4.981L.918-.005a7.139 7.139 0 00-.215.328z"/></g><g data-name="Group 7637" transform="translate(55.636 291.204)" fill="#ffb600"><circle data-name="Ellipse 1848" cx="2.056" cy="2.056" r="2.056" transform="translate(10.466 9.979)"/><path data-name="Path 11468" d="M6.119 10.218c.9-.745 1.765-1.471 2.646-2.17a3.878 3.878 0 011.013-.625 5.323 5.323 0 003.018-3.076c.34-.777.539-1.616.823-2.419a1.861 1.861 0 01.373-.653c.4-.424.846-.811 1.338-1.275.484 3.249.36 6.3-1.738 8.982a.621.621 0 01-.739.275 2.419 2.419 0 00-2.758 1.31.582.582 0 01-.59.379 7.907 7.907 0 01-3.386-.728z"/><path data-name="Path 11469" d="M.124 4.733a5.151 5.151 0 001.779 2.268 3.815 3.815 0 00.429.061 4.282 4.282 0 002.207-.43L.002 4.365c.033.121.073.249.122.368z"/></g><g data-name="Group 7638" transform="translate(63.316 282.257)" fill="#b0c500"><circle data-name="Ellipse 1849" cx="2.056" cy="2.056" r="2.056" transform="translate(11.793 7.711)"/><path data-name="Path 11470" d="M8.401 13.592c-.008-1.172-.029-2.3-.016-3.422a3.9 3.9 0 01.153-1.18 5.321 5.321 0 00-.484-4.281c-.388-.755-.915-1.438-1.359-2.165a1.859 1.859 0 01-.271-.7c-.075-.581-.1-1.168-.146-1.843 2.826 1.673 5.117 3.692 5.874 7.013a.622.622 0 01-.252.748 2.419 2.419 0 00-.723 2.966.582.582 0 01-.077.7 7.92 7.92 0 01-2.699 2.164z"/><path data-name="Path 11471" d="M.363 14.786a5.161 5.161 0 002.882.05 4.064 4.064 0 00.318-.295 4.278 4.278 0 001.058-1.984L0 14.649c.116.053.237.095.363.137z"/></g><g data-name="Group 7639" transform="translate(61.792 275.98)" fill="#00bfeb"><circle data-name="Ellipse 1850" cx="2.056" cy="2.056" r="2.056" transform="translate(10.297)"/><path data-name="Path 11472" d="M11.86 8.694c-.912-.737-1.8-1.433-2.658-2.155a3.9 3.9 0 01-.815-.867 5.322 5.322 0 00-3.619-2.338c-.83-.177-1.691-.2-2.536-.32a1.836 1.836 0 01-.713-.234c-.5-.31-.965-.665-1.518-1.054 3.084-1.127 6.1-1.619 9.147-.1a.621.621 0 01.419.668 2.419 2.419 0 001.838 2.438.584.584 0 01.49.5 7.922 7.922 0 01-.035 3.462z"/><path data-name="Path 11473" d="M7.691 15.671a5.161 5.161 0 001.864-2.2 3.9 3.9 0 00-.026-.433 4.28 4.28 0 00-.865-2.075l-1.309 4.9c.111-.057.224-.122.336-.192z"/></g><g data-name="Group 7640" transform="translate(45.85 275.98)"><circle data-name="Ellipse 1851" cx="2.056" cy="2.056" r="2.056" fill="#8258a8"/><path data-name="Path 11474" d="M8.597.82c-.477 1.071-.921 2.1-1.4 3.124a3.9 3.9 0 01-.627 1.012 5.324 5.324 0 00-1.325 4.1c.043.847.24 1.686.345 2.533a1.853 1.853 0 01-.042.75c-.172.56-.394 1.1-.627 1.738-1.884-2.689-3.137-5.474-2.458-8.812A.62.62 0 013 4.689a2.42 2.42 0 001.882-2.4.583.583 0 01.359-.6A7.918 7.918 0 018.597.82z" fill="#8258a8"/><path data-name="Path 11475" d="M16.412 3.048a5.16 5.16 0 00-2.6-1.234 3.86 3.86 0 00-.412.137 4.287 4.287 0 00-1.782 1.37h5.072a6.555 6.555 0 00-.278-.273z" fill="#794ba4"/></g><g data-name="Group 7641" transform="translate(53.223 269.5)"><path data-name="Path 11476" d="M15.763 13.926a5.161 5.161 0 00-.631-2.812 3.907 3.907 0 00-.361-.24 4.28 4.28 0 00-2.177-.561l3.121 4c.021-.126.037-.254.048-.387z" fill="#0066a1"/><path data-name="Path 11477" d="M12.724 6.465c-1.138.28-2.227.563-3.324.812a3.864 3.864 0 01-1.183.125 5.32 5.32 0 00-4.051 1.467c-.643.553-1.186 1.224-1.79 1.825a1.857 1.857 0 01-.618.427c-.547.207-1.113.366-1.758.57.969-3.137 2.4-5.835 5.454-7.344a.622.622 0 01.786.072 2.421 2.421 0 003.053.013.581.581 0 01.7-.087 7.908 7.908 0 012.731 2.12z" fill="#0c6fa8"/><circle data-name="Ellipse 1852" cx="2.056" cy="2.056" r="2.056" transform="translate(5.681)" fill="#0c6fa8"/></g></g></svg>