<svg xmlns="http://www.w3.org/2000/svg" width="263.853" height="175.052"><path fill="#5c5c5c" d="M0 0h263.853v175.052H0z"/><g transform="translate(78.748 46.884)" fill="#d1d1d1"><path data-name="Path 11458" d="M10.655 73.818V57.736L4.179 18.174a2.079 2.079 0 011.713-2.384l5.734-.935a6.217 6.217 0 015.253-2.9h12.448l47.527-7.78a2.225 2.225 0 01.337-.027 2.078 2.078 0 012.046 1.74l.994 6.067h4.209l-1.1-6.737a6.242 6.242 0 00-7.155-5.14L5.22 11.698a6.24 6.24 0 00-5.14 7.151l8.985 54.907a6.225 6.225 0 003.665 4.7 6.192 6.192 0 01-2.075-4.638z"/><path data-name="Path 11459" d="M90.368 80.047H16.879a6.236 6.236 0 01-6.224-6.229V18.183a6.232 6.232 0 016.224-6.224h73.489a6.232 6.232 0 016.224 6.224v55.635a6.236 6.236 0 01-6.224 6.229zM16.879 16.11a2.077 2.077 0 00-2.073 2.073v55.635a2.077 2.077 0 002.073 2.073h73.489a2.077 2.077 0 002.073-2.073V18.183a2.077 2.077 0 00-2.073-2.073z"/><path data-name="Path 11460" d="M21.448 60.532l14.739-14.739 7.058 7.058 23.25-23.25 19.1 19.1v20.551H21.448z"/><circle data-name="Ellipse 1843" cx="8.096" cy="8.096" r="8.096" transform="translate(22.279 23.582)"/></g></svg>