<svg xmlns="http://www.w3.org/2000/svg" width="24.556" height="32.941"><g data-name="Group 7886"><g data-name="Group 7887" fill="#2d81f3"><path data-name="Path 11739" d="M6.941 31.747a1.194 1.194 0 11-1.195-1.194 1.195 1.195 0 011.195 1.194"/><path data-name="Path 11740" d="M11.271 31.747a1.194 1.194 0 11-1.195-1.194 1.195 1.195 0 011.195 1.194"/><path data-name="Path 11741" d="M15.601 31.747a1.194 1.194 0 11-1.195-1.194 1.195 1.195 0 011.195 1.194"/><path data-name="Path 11742" d="M19.931 31.747a1.194 1.194 0 11-1.195-1.194 1.195 1.195 0 011.195 1.194"/><path data-name="Path 11743" d="M21.647 9.424h-.461V8.111a8.12 8.12 0 00-8.111-8.112h-1.594A8.12 8.12 0 003.37 8.111v1.313h-.461A2.909 2.909 0 000 12.333v12.866a2.909 2.909 0 002.909 2.909h18.738a2.909 2.909 0 002.909-2.909V12.333a2.909 2.909 0 00-2.909-2.909m-15.608 0V8.111a5.448 5.448 0 015.442-5.442h1.594a5.448 5.448 0 015.442 5.442v1.313z"/></g><path data-name="Path 11744" d="M4.467 21.917a7.7 7.7 0 00-1.117.046 4.062 4.062 0 011.485-2.89 13.075 13.075 0 011.46-1.071c.868-.585 1.124-.923 1.124-1.481 0-.631-.521-1.023-1.344-1.023a1.407 1.407 0 00-1.244.566 1.9 1.9 0 00-.292.879l-1.088-.146a2.672 2.672 0 01.609-1.409 2.509 2.509 0 011.985-.768c1.517 0 2.459.74 2.459 1.93a1.952 1.952 0 01-.923 1.682c-.283.21-.406.3-1.226.85a3.7 3.7 0 00-1.712 1.921h2.725a8.94 8.94 0 001.243-.064v1.033c-.406-.035-.75-.055-1.28-.055z" fill="#fff"/><path data-name="Path 11745" d="M10.905 20.701a7.135 7.135 0 00.073 1.219H9.817a6.837 6.837 0 00.073-1.207v-4.851a6.765 6.765 0 00-.073-1.124c.329.018.585.027 1.1.027h2.515a8.164 8.164 0 001.161-.064v1.042a7.683 7.683 0 00-1.161-.063h-2.524v2.121h2.039a7.9 7.9 0 001.161-.064v1.042a7.848 7.848 0 00-1.161-.063h-2.039z" fill="#fff"/><path data-name="Path 11746" d="M19.937 21.917a6.883 6.883 0 00-.265-.952l-.406-1.069h-3.041l-.411 1.069a4.432 4.432 0 00-.275.952h-1.28a7.813 7.813 0 00.484-1.07l2.031-5.186a5.263 5.263 0 00.287-.9h1.32a5.6 5.6 0 00.312.9l2.039 5.186a9.471 9.471 0 00.474 1.07zm-2.021-5.734c-.036-.091-.036-.091-.183-.549-.155.475-.155.475-.181.549l-1.044 2.835h2.46z" fill="#fff"/></g></svg>