<svg xmlns="http://www.w3.org/2000/svg" width="45.128" height="36.106"><g fill="#fff"><path data-name="Path 11057" d="M34.894 15.61L24.661 4.71a2.821 2.821 0 00-.2-3.984 2.82 2.82 0 00-3.983.2 2.821 2.821 0 00.161 3.946l-10.4 10.735H0v20.5h45.128v-20.5zm-24 15.142l-.434-1.782H7.615l-.435 1.782H6.022l2.155-8.847h1.817l2.154 8.847zm7.2-5.915h-1.19v-.846a1.154 1.154 0 00-1.319-1.277 1.16 1.16 0 00-1.318 1.277v4.675a1.16 1.16 0 001.318 1.277 1.154 1.154 0 001.319-1.277v-1.149h1.19v1.1c0 1.339-.8 2.223-2.54 2.223-1.72 0-2.525-.884-2.525-2.223v-4.576c0-1.339.8-2.224 2.525-2.224 1.737 0 2.54.885 2.54 2.224zm6.078-2.034h-2.074v7.949h-1.239v-7.949h-2.074v-.9h5.387zm2.106 7.949h-1.254v-8.847h1.255zm4.936 0h-1.85l-2.123-8.847h1.271l1.832 7.7 1.816-7.7h1.158zm-19.4-15.138l9.81-10.136a2.793 2.793 0 002.123-.09l9.6 10.226zm27.107 7.189h-3.376v3.02h2.749v.884h-2.748v3.148h3.376v.9h-4.631v-8.847h4.631z"/><path data-name="Path 11058" d="M7.773 28.123h2.508l-1.27-5.1z"/></g></svg>