<svg xmlns="http://www.w3.org/2000/svg" width="50.022" height="40.021"><g fill="#00be85"><path data-name="Path 11057" d="M38.675 17.303L27.332 5.222a3.126 3.126 0 00-.223-4.416 3.126 3.126 0 00-4.415.224 3.126 3.126 0 00.178 4.374l-11.523 11.9H0v22.718h50.022V17.304zm-26.6 16.784l-.481-1.975H8.44l-.482 1.975H6.674l2.389-9.806h2.013l2.388 9.806zm7.984-6.556H18.74v-.938a1.279 1.279 0 00-1.462-1.415 1.286 1.286 0 00-1.461 1.415v5.182a1.286 1.286 0 001.461 1.415 1.279 1.279 0 001.462-1.415v-1.274h1.319v1.219c0 1.484-.891 2.464-2.816 2.464-1.907 0-2.8-.98-2.8-2.464v-5.072c0-1.484.892-2.465 2.8-2.465 1.925 0 2.816.981 2.816 2.465zm6.735-2.255h-2.3v8.811h-1.373v-8.811h-2.3v-.995h5.973zm2.334 8.811h-1.391v-9.806h1.391zm5.471 0h-2.05l-2.353-9.806h1.409l2.031 8.531 2.013-8.531h1.284zM13.094 17.308L23.968 6.073a3.1 3.1 0 002.353-.1l10.642 11.335zm30.046 7.968h-3.746v3.348h3.046v.98h-3.046v3.489h3.742v.994h-5.132v-9.806h5.133z"/><path data-name="Path 11058" d="M8.616 31.173h2.78l-1.408-5.658z"/></g></svg>