<svg xmlns="http://www.w3.org/2000/svg" width="52.001" height="34.876"><path data-name="Path 6506" d="M35.501 1.876a16.491 16.491 0 1016.5 16.5 16.519 16.519 0 00-16.5-16.5zm10.344 27.806a15.324 15.324 0 114.989-11.306 15.271 15.271 0 01-4.989 11.306z" fill="#777"/><path data-name="Path 10894" d="M43.597 27.288l-5.929 1.064-11.15-.973V11.006l11.15-2.566 5.929 2.389z" fill="#777" stroke="#777"/><path data-name="Path 10895" d="M36.385 10.165l-8.407 2.124v13.8l2.7.227V23.39h2.124v3.1l3.584.3zm-6.637 11.592h-1.15v-1.681l1.15-.089zm0-3.628l-1.15.088V16.54l1.15-.177zm0-3.54l-1.15.177v-1.77l1.15-.266zm2.788 7.079h-1.46v-1.77l1.46-.089zm0-3.805l-1.46.089v-1.859l1.46-.177zm0-3.8l-1.46.265V12.47l1.46-.354zm1.46 7.522v-1.947l1.682-.088.044 2.035zm0-3.8V15.74l1.682-.265.044 2.124zm0-3.982v-2.035l1.682-.354.044 2.124z" fill="#f7f7f7"/><path data-name="Path 10763" d="M11.973 0a11.973 11.973 0 1011.973 11.973A11.973 11.973 0 0011.973 0zm6.41 13.236h-5.146v5.146a1.226 1.226 0 01-2.452 0v-5.146H5.641a1.225 1.225 0 110-2.45h5.145V5.64a1.226 1.226 0 012.452 0v5.146h5.146a1.225 1.225 0 110 2.45z" fill="#00be85"/></svg>