<svg xmlns="http://www.w3.org/2000/svg" width="46.417" height="28.177"><g data-name="Group 7386"><g data-name="Group 4834" fill="#fff"><path data-name="パス 5069" d="M22.528 6.28c-.376.488-.4.639-.17 1.274h-.7a.931.931 0 00-.659.24 2.219 2.219 0 00-.669 1.222h23.612a2.151 2.151 0 01.468.042.864.864 0 01.637.88v6.01a.3.3 0 00.2.322 1.846 1.846 0 011.141 1.653 16.99 16.99 0 010 1.9 1.858 1.858 0 01-1.141 1.657.3.3 0 00-.2.319v5.332c0 .712-.324 1.038-1.03 1.038H19.958a.9.9 0 01-1.022-1.021v-17.1a4.4 4.4 0 01.384-2.108 2.711 2.711 0 011.879-1.642 7.972 7.972 0 011.329-.018zm18.223 14.886h3.868a1.153 1.153 0 00.728-.248 1.5 1.5 0 00.614-1.266v-1.513a1.537 1.537 0 00-1.431-1.638 1.5 1.5 0 00-.206 0h-7.4a2.629 2.629 0 00-1.313.333 2.361 2.361 0 00-.89 3.03 2.3 2.3 0 002.149 1.294c1.3.013 2.589.008 3.88.008z" opacity=".981" style="isolation:isolate"/><path data-name="パス 5070" d="M39.96 6.248h3.432a.652.652 0 01.713.582.655.655 0 01-.639.716c-.985.011-1.97 0-2.957 0a.2.2 0 01-.154-.089c-.132-.385-.255-.778-.395-1.209z"/></g><g data-name="Group 4845" fill="#fff"><path data-name="パス 5071" d="M38.388 3.387c-.4.154-.77.308-1.148.451l-11.623 4.5a.92.92 0 01-.328.065c-.616 0-1.248 0-1.873.008a.245.245 0 01-.275-.194c-.1-.277-.209-.547-.308-.82a.731.731 0 01.474-1.088q2.477-.965 4.959-1.922l8.322-3.232c.593-.229.914-.083 1.144.511.21.57.43 1.136.656 1.721z" style="isolation:isolate"/><path data-name="パス 5072" d="M31.417 8.358l7.735-3 1.177 3.033h-8.907z" style="isolation:isolate"/></g><path data-name="パス 5073" d="M40.735 21.167h-3.88a2.309 2.309 0 01-2.155-1.293 2.354 2.354 0 01.893-3.027 2.643 2.643 0 011.316-.333h7.42a1.54 1.54 0 011.641 1.431 1.509 1.509 0 010 .2v1.511a1.5 1.5 0 01-.616 1.265 1.159 1.159 0 01-.73.248c-1.303-.007-2.596-.002-3.889-.002zm-3.4-1.5a.9.9 0 10-.874-.936.9.9 0 00.874.934z" fill="none"/><path data-name="パス 5074" d="M37.358 19.664a.9.9 0 11.937-.874.9.9 0 01-.937.874z" fill="#fff" stroke="#fff"/><path data-name="Path 10763" d="M11.145 0A11.145 11.145 0 1022.29 11.145 11.144 11.144 0 0011.145 0zm5.966 12.32h-4.79v4.79a1.141 1.141 0 01-2.282 0v-4.79H5.25a1.14 1.14 0 110-2.281h4.789V5.253a1.141 1.141 0 012.282 0v4.79h4.79a1.14 1.14 0 110 2.281z" fill="#fff"/></g></svg>