<svg xmlns="http://www.w3.org/2000/svg" width="52.001" height="34.876"><g transform="translate(19.001 1.876)"><path data-name="Path 6506" d="M16.5 0A16.491 16.491 0 1033 16.5 16.519 16.519 0 0016.5 0zm10.344 27.806A15.324 15.324 0 1131.833 16.5a15.271 15.271 0 01-4.989 11.306z" fill="#777"/><path data-name="Path 6507" d="M26.844 27.806a10.366 10.366 0 00-10.344-9.7 10.366 10.366 0 00-10.343 9.7 15.3 15.3 0 0020.687 0z" fill="#777"/><circle data-name="Ellipse 1" cx="5.257" cy="5.257" r="5.257" transform="translate(11.243 6.279)" fill="#777"/><path data-name="Path 10763" d="M-7.028-1.876A11.973 11.973 0 104.945 10.097 11.973 11.973 0 00-7.028-1.876zm6.41 13.236h-5.146v5.146a1.226 1.226 0 01-2.452 0V11.36h-5.144a1.225 1.225 0 110-2.45h5.145V3.764a1.226 1.226 0 012.452 0V8.91h5.146a1.225 1.225 0 110 2.45z" fill="#00be85"/></g></svg>