<svg xmlns="http://www.w3.org/2000/svg" width="52.466" height="34.876"><g data-name="Group 7589"><g fill="#777"><path data-name="パス 10957" d="M51.5 34.879H21.463a.967.967 0 01-.967-.967V3.873a.966.966 0 01.967-.967H51.5a.966.966 0 01.967.967V33.91a.967.967 0 01-.967.967zm-28.368-2.637h26.7v-26.7h-26.7z"/><path data-name="パス 10958" d="M37.44 22.068h-8.639a1.3 1.3 0 01-1.318-1.277 1.3 1.3 0 011.318-1.277h8.639a1.3 1.3 0 011.319 1.276 1.3 1.3 0 01-1.319 1.277z"/><path data-name="パス 10959" d="M43.965 27.837H28.808a1.3 1.3 0 01-1.318-1.277 1.3 1.3 0 011.318-1.277h15.161a1.3 1.3 0 011.319 1.276 1.3 1.3 0 01-1.318 1.277z"/><g data-name="Group 7569"><path data-name="Path 11040" d="M32.724 15.718a9.03 9.03 0 00-1.324-.065h-2.764c-.522 0-.849.009-1.185.028a7.416 7.416 0 00.075-1.233V9.603a9.108 9.108 0 00-.075-1.381h1.41a8.5 8.5 0 00-.076 1.373v4.928h2.617a10.062 10.062 0 001.324-.064z"/><path data-name="Path 11041" d="M34.744 8.222v1.186h-1.372V8.222zm-.009 2.072a8.394 8.394 0 00-.065 1.223v2.911a9.382 9.382 0 00.065 1.223h-1.362a8.388 8.388 0 00.075-1.213v-2.931a7.676 7.676 0 00-.075-1.214z"/><path data-name="Path 11042" d="M36.948 13.973c.158.635.5.886 1.23.886.691 0 1.121-.271 1.121-.71a.569.569 0 00-.243-.466c-.177-.121-.234-.131-.981-.3a5.651 5.651 0 01-1.344-.4 1.338 1.338 0 01-.821-1.241 1.39 1.39 0 01.289-.869 2.248 2.248 0 011.867-.728 2.541 2.541 0 011.753.542 1.81 1.81 0 01.5.925l-1.232.159c-.1-.514-.42-.738-1.026-.738-.579 0-.97.262-.97.654a.5.5 0 00.288.439 3.953 3.953 0 00.933.279 4.015 4.015 0 011.644.57 1.329 1.329 0 01.541 1.157 1.5 1.5 0 01-.456 1.055 2.756 2.756 0 01-1.932.607 2.467 2.467 0 01-2.083-.831 2.119 2.119 0 01-.363-.831z"/><path data-name="Path 11043" d="M43.401 8.857a10.315 10.315 0 00-.065 1.149v.288h.392a5.356 5.356 0 00.942-.056v1.1a5.135 5.135 0 00-.914-.056h-.42v2.893c0 .459.168.626.616.626a1.226 1.226 0 00.682-.205l.167.99a2.921 2.921 0 01-1.166.2c-1.074 0-1.5-.383-1.5-1.364v-3.136h-.356a4.7 4.7 0 00-.83.056v-1.1a4.287 4.287 0 00.841.056h.346v-.288a10.424 10.424 0 00-.067-1.149z"/></g></g><path data-name="Path 10763" d="M11.973 0a11.973 11.973 0 1011.973 11.973A11.973 11.973 0 0011.973 0zm6.41 13.236h-5.146v5.146a1.226 1.226 0 01-2.452 0v-5.146H5.641a1.225 1.225 0 110-2.45h5.145V5.64a1.226 1.226 0 012.452 0v5.146h5.146a1.225 1.225 0 110 2.45z" fill="#00be85"/></g></svg>