<svg xmlns="http://www.w3.org/2000/svg" width="46.329" height="30.19"><g data-name="Group 8009" fill="#2fcba7"><path data-name="Path 5588" d="M45.79 15.125l-3.427-8.274a1.913 1.913 0 10-2.777-2.607L31.604.938 21.573 5.093l-3.325 8.026a1.92 1.92 0 10-.369 3.8 1.853 1.853 0 00.272-.028l3.422 8.261 9.731 4.03.3.125.037-.015 8.1-3.354a1.918 1.918 0 102.7-2.725zm-4.7-10.708a1.007 1.007 0 011.006 1.006.989.989 0 01-.127.478 1 1 0 01-.775.518.948.948 0 01-.1.01 1 1 0 01-.542-.161l-.03-.019a1 1 0 01-.432-.808v-.018a1.016 1.016 0 011.006-1.006zM17.878 16.008a.931.931 0 01-.1-.01 1.001 1.001 0 01.1-2h.005a1.006 1.006 0 01-.005 2.011zm24.218 8.574a1.007 1.007 0 01-1.006 1.006.987.987 0 01-.343-.065 1 1 0 01.512-1.931h.031a1.016 1.016 0 01.806.986zm-1.006-1.92c-.032 0-.062.008-.094.01l-1.276-4.466-.086.024-2.1-4.191-.817.41 1.7 3.4-8.326 2.843.3.865 8.505-2.9 1.222 4.278a1.868 1.868 0 00-.856 2.214l-6.619 2.743 5.717-8-.744-.532-6.03 8.442-2.231-4.093-.8.438 2.054 3.765-8.334-3.452.116-.109-.078-4.518-.914.016.045 2.605-2.441-5.894a1.992 1.992 0 00.218-.181l2.371 1.683.529-.746-2.422-1.718a1.858 1.858 0 00-.622-2.081l3.2-7.719 8.309-3.442-2.525 5.365.828.389 2.877-6.112 7.444 3.084a1.869 1.869 0 00-.035.347 1.912 1.912 0 00.551 1.343l-2.547 4 .772.491 2.547-4.017a1.744 1.744 0 001.049.039l2.937 7.093-7.913-1.978-4-9.453-.841.357 3.731 8.819-6.089-1.522v-.015a1.923 1.923 0 00-1.92-1.92 1.9 1.9 0 00-1.022.3l-2.966-3-.65.643 2.984 3.019a1.9 1.9 0 00-.266.959 1.956 1.956 0 00.022.219l-5.409 2.6.4.824 5.328-2.56a1.925 1.925 0 001.149.784l.4 6.769.913-.053-.4-6.73a1.917 1.917 0 001.206-.953l6.2 1.55-6.371 6.852a1.891 1.891 0 00-2.236.514l-3.8-2.54 3.387-5.082-.762-.507-3.442 5.163.579.386-.452.678 4.076 2.722a1.913 1.913 0 00-.048.417 1.966 1.966 0 00.028.28l-2.922 1.38.39.827 2.878-1.359a1.913 1.913 0 103.047-2.311l6.665-7.167 7.345 1.836-3.364 1.953.459.791 3.771-2.19-2.931 7.077a1.9 1.9 0 00-.548-.095zm-12.626-12.08a1.012 1.012 0 11-.026-.22 1.034 1.034 0 01.026.22zm-.269 10.047a1.006 1.006 0 11-1.006 1.006 1.007 1.007 0 011.009-1.007z"/><g data-name="Group 4926" transform="translate(20.834)"><circle data-name="Ellipse 1679" cx="1.463" cy="1.463" transform="translate(9.306)" r="1.463"/><circle data-name="Ellipse 1680" cx="1.463" cy="1.463" transform="translate(14.095 11.053)" r="1.463"/><circle data-name="Ellipse 1681" cx="1.28" cy="1.28" transform="translate(16.857 16.762)" r="1.28"/><circle data-name="Ellipse 1682" cx="1.207" cy="1.207" transform="translate(.351 16.835)" r="1.207"/><circle data-name="Ellipse 1683" cx="1.463" cy="1.463" transform="translate(9.306 27.264)" r="1.463"/><circle data-name="Ellipse 1684" cx="1.463" cy="1.463" transform="translate(22.569 13.632)" r="1.463"/><circle data-name="Ellipse 1685" cx="1.097" cy="1.097" transform="translate(0 23.485)" r="1.097"/><circle data-name="Ellipse 1686" cx="1.097" cy="1.097" transform="translate(0 4.326)" r="1.097"/></g><g data-name="Group 8009" transform="translate(-587 -265.523)"><rect data-name="Rectangle 6336" width="14" height="2" rx="1" transform="translate(587 273.697)"/><rect data-name="Rectangle 6337" width="14.5" height="2.231" rx="1" transform="rotate(-90 437.416 -155.219)"/></g></g></svg>