<svg data-name="Hoverstate01 (ホバーステート)" xmlns="http://www.w3.org/2000/svg" width="50" height="60"><path data-name="Path 11009" d="M2.407 39.863v-5.44c0-1.2.453-1.864 1.4-2.081a2.067 2.067 0 012.526 1.1c.383.765.824.382 1.245.1q4.459-2.948 8.907-5.915c.933-.621 1.865-1.244 2.789-1.878a1.814 1.814 0 011.874-.205 1.3 1.3 0 01.485 2.319c-.889.9-1.821 1.757-2.744 2.624a2.187 2.187 0 00-.779 2.534c.427 1.1 1.359 1.277 2.4 1.275q6.776-.014 13.552 0a2.338 2.338 0 012.337 1.908 2.205 2.205 0 01-1.256 2.491 4.545 4.545 0 01-1.674.3q-3.106.051-6.214.006a2.162 2.162 0 00-2.252 1.494c-.872 2.124-1.8 4.225-2.71 6.331a4.492 4.492 0 01-5.862 2.643c-2.644-.862-5.277-1.761-7.929-2.6a.892.892 0 01-.734-1.038c.031-2.129.014-4.26.01-6.389 0-.42.086-1-.567-.892-.218.035-.5.569-.508.882-.047 2.042-.019 4.086-.028 6.129a2.069 2.069 0 01-2.217 1.885c-1.276.019-2.027-.623-2.04-1.808-.026-1.918-.011-3.847-.011-5.775z" fill="#fff"/><path data-name="Path 11008" d="M38.862 37.322c-.069.181-.154.357-.2.542a4.562 4.562 0 01-4.25 3.439c-2.126.071-4.255.052-6.383.022a1.039 1.039 0 00-1.138.771c-.765 1.886-1.581 3.752-2.391 5.621a6.875 6.875 0 01-8.844 4.013q-3.762-1.224-7.508-2.5a1.826 1.826 0 00-1.533.107c-1.874.917-4.983.675-6.126-1.761-.193-.411-.324-.849-.484-1.274V33.348a10.959 10.959 0 01.907-1.817 4.647 4.647 0 015.85-1.034.971.971 0 001.213-.044c3.284-2.219 6.595-4.4 9.879-6.614a4.225 4.225 0 014.324-.436 3.639 3.639 0 011.244 6.034c-.756.811-1.6 1.538-2.352 2.508h12.615c2.807 0 4.325 1.19 5.052 3.945a.955.955 0 00.128.222zM2.407 39.863c0 1.928-.015 3.857.006 5.784.013 1.185.765 1.827 2.04 1.808A2.069 2.069 0 006.67 45.57c.009-2.043-.018-4.087.028-6.129.007-.313.29-.847.508-.882.653-.1.566.472.567.892 0 2.13.021 4.26-.01 6.389a.892.892 0 00.734 1.038c2.653.836 5.285 1.735 7.929 2.6a4.492 4.492 0 005.862-2.643c.913-2.106 1.838-4.207 2.71-6.331a2.162 2.162 0 012.252-1.494q3.107.044 6.215-.006a4.544 4.544 0 001.674-.3 2.205 2.205 0 001.256-2.491 2.338 2.338 0 00-2.337-1.908q-6.776-.02-13.552 0c-1.041 0-1.974-.175-2.4-1.275a2.186 2.186 0 01.779-2.534c.922-.867 1.855-1.724 2.744-2.624a1.3 1.3 0 00-.485-2.319 1.814 1.814 0 00-1.874.205c-.923.635-1.856 1.257-2.789 1.878q-4.45 2.962-8.907 5.915c-.422.279-.862.661-1.245-.1a2.067 2.067 0 00-2.526-1.1c-.943.217-1.394.885-1.4 2.081q-.003 2.711.004 5.431z" fill="#9f9e9e"/></svg>