<svg xmlns="http://www.w3.org/2000/svg" width="69" height="48"><g transform="translate(1 4)"><path data-name="Path 6506" d="M46 0a21.988 21.988 0 1022 22A22.025 22.025 0 0046 0zm13.791 37.075A20.432 20.432 0 1166.443 22a20.361 20.361 0 01-6.652 15.075z" fill="#777"/><g data-name="Group 7627" fill="#777"><path data-name="Path 6507" d="M59.792 37.075a13.821 13.821 0 00-13.791-12.933A13.821 13.821 0 0032.21 37.075a20.4 20.4 0 0027.583 0z"/><circle data-name="Ellipse 1" cx="7.009" cy="7.009" r="7.009" transform="translate(38.991 8.372)"/></g><circle data-name="Ellipse 1746" cx="16" cy="16" r="16" transform="translate(-1 -4)" fill="red"/><path data-name="Path 10633" d="M22.626 17.27l-4.945-4.945 4.945-4.946a1.665 1.665 0 000-2.355 1.665 1.665 0 00-2.355 0l-4.946 4.945-4.945-4.945a1.665 1.665 0 00-2.355 0 1.665 1.665 0 000 2.354l4.946 4.946-4.946 4.945a1.665 1.665 0 000 2.355 1.665 1.665 0 002.355 0l4.945-4.945 4.946 4.945a1.665 1.665 0 002.355 0 1.665 1.665 0 000-2.354z" fill="#fff"/></g></svg>