<svg xmlns="http://www.w3.org/2000/svg" width="20" height="20"><g fill="#666"><path data-name="Path 147" d="M15.008 5.612a.565.565 0 00-.8.026L10.799 9.28a1.464 1.464 0 00-.66-.157 1.47 1.47 0 00-1.034.423L6.853 7.874a.564.564 0 00-.792.117.567.567 0 00.117.792l2.491 1.849a1.472 1.472 0 001.471 1.435 1.473 1.473 0 001.472-1.472 1.508 1.508 0 00-.071-.451l3.5-3.732a.566.566 0 00-.033-.8z"/><path data-name="Path 148" d="M10 20A10.011 10.011 0 010 10 10.012 10.012 0 0110 0a10.012 10.012 0 0110 10 10.011 10.011 0 01-10 10zm0-18.772A8.782 8.782 0 001.227 10 8.783 8.783 0 0010 18.774 8.784 8.784 0 0018.774 10 8.783 8.783 0 0010 1.228z"/></g></svg>