<svg xmlns="http://www.w3.org/2000/svg" width="50.022" height="40.018"><g fill="red"><path data-name="Path 10952" d="M24.843 25.195a1.356 1.356 0 00-1.544 1.475v5.4a1.546 1.546 0 003.089 0v-5.4a1.348 1.348 0 00-1.545-1.475z"/><path data-name="Path 10953" d="M38.673 17.3L27.33 5.219a3.126 3.126 0 10-4.46.182L11.347 17.3H-.002v22.718H50.02V17.3zM23.963 6.07a3.091 3.091 0 002.353-.1l10.642 11.335H13.089zm-9.578 21.58h-1.377v-.979a1.527 1.527 0 00-3.052 0v5.4a1.527 1.527 0 003.052 0v-1.329h1.377v1.271c0 1.548-.93 2.571-2.94 2.571-1.991 0-2.922-1.023-2.922-2.571v-5.288c0-1.548.93-2.571 2.922-2.571 2.01 0 2.94 1.023 2.94 2.571zm6.495 6.836h-5.173V24.26h1.451v9.188h3.722zm6.96-2.469c0 1.548-.986 2.571-3 2.571-1.991 0-2.977-1.023-2.977-2.571v-5.288c0-1.563.987-2.571 2.977-2.571 2.01 0 3 1.008 3 2.571zm4.094 2.571c-1.991 0-2.922-1.008-2.922-2.556v-.584h1.359v.643a1.527 1.527 0 003.052 0c0-2.279-4.354-2.5-4.354-5.375 0-1.577.931-2.556 2.884-2.556 1.973 0 2.9 1.008 2.9 2.556v.278h-1.377v-.336a1.489 1.489 0 00-2.977-.015c0 2.293 4.373 2.513 4.373 5.39.002 1.546-.947 2.554-2.938 2.554zm9.565-9.29h-3.908v3.491h3.182v1.022h-3.182v3.637h3.908v1.037H36.14V24.26h5.359z"/></g></svg>