<svg xmlns="http://www.w3.org/2000/svg" width="32" height="32"><path data-name="Path 11934" d="M16 0A16 16 0 115.844 28.364 15.82 15.82 0 010 16 16.131 16.131 0 014.069 5.339 15.8 15.8 0 0116 0z" fill="red"/><path data-name="Path 10633" d="M21.902 19.546l-4.945-4.945 4.945-4.946a1.665 1.665 0 000-2.355 1.665 1.665 0 00-2.355 0L14.6 12.245 9.656 7.3a1.665 1.665 0 00-2.355 0 1.665 1.665 0 000 2.354l4.946 4.946L7.3 19.545a1.665 1.665 0 000 2.355 1.665 1.665 0 002.355 0l4.945-4.945 4.946 4.945a1.665 1.665 0 002.355 0 1.665 1.665 0 000-2.354z" fill="#fff"/></svg>