<svg xmlns="http://www.w3.org/2000/svg" width="57.041" height="39.139"><g transform="translate(1 4)"><g data-name="Group 7434" fill="#777"><path data-name="Path 10957" d="M54.963 35.139h-33.4a1.074 1.074 0 01-1.074-1.074V.665a1.074 1.074 0 011.074-1.074h33.4A1.074 1.074 0 0156.037.665v33.4a1.074 1.074 0 01-1.074 1.074zm-31.541-2.932h29.684V2.524H23.425z"/><path data-name="Path 10958" d="M39.333 20.9h-9.6a1.443 1.443 0 01-1.466-1.42 1.443 1.443 0 011.466-1.42h9.6a1.444 1.444 0 011.466 1.42 1.444 1.444 0 01-1.466 1.42z"/><path data-name="Path 10959" d="M46.589 27.313H29.732a1.443 1.443 0 01-1.466-1.42 1.443 1.443 0 011.466-1.42h16.857a1.444 1.444 0 011.466 1.42 1.444 1.444 0 01-1.466 1.42z"/><g data-name="Group 7433"><path data-name="Path 10960" d="M28.096 12.73h-.938V6.213h1.327l2.171 4.711V6.213h.924v6.517h-1.084l-2.4-5.269z"/><path data-name="Path 10961" d="M35.991 9.099v.649H33.7v2.319h2.814v.661h-3.859V6.211h3.859v.661H33.7v2.225z"/><path data-name="Path 10962" d="M39.97 12.73h-1.434L37.25 6.213h1.018l1.1 5.549 1.045-5.54h1.032l1.032 5.549 1.058-5.558h.911l-1.273 6.517h-1.38l-.9-4.422z"/><path data-name="Path 10963" d="M49.349 7.777v.177h-.991V7.74c0-.587-.322-.931-1.072-.931s-1.072.344-1.072.921c0 1.462 3.149 1.6 3.149 3.435 0 .987-.683 1.629-2.117 1.629s-2.1-.643-2.1-1.629v-.367h.978v.41c0 .586.348.931 1.1.931s1.1-.345 1.1-.931c0-1.453-3.135-1.592-3.135-3.426 0-1.006.67-1.629 2.077-1.629s2.083.638 2.083 1.624z"/></g></g><circle data-name="Ellipse 1746" cx="13" cy="13" r="13" transform="translate(-1 -4)" fill="red"/><path data-name="Path 10633" d="M18.53 13.583l-4.088-4.088 4.088-4.087a1.377 1.377 0 10-1.947-1.947l-4.087 4.088L8.407 3.46a1.377 1.377 0 00-1.946 1.947l4.087 4.088-4.088 4.088a1.377 1.377 0 001.947 1.947l4.087-4.088 4.089 4.088a1.377 1.377 0 101.946-1.946z" fill="#fff"/></g></svg>