<svg xmlns="http://www.w3.org/2000/svg" width="19.962" height="19.925"><g opacity=".942" fill="#9a9a9a"><path data-name="Path 5383" d="M9.758 3.741a33.094 33.094 0 012.4-2.532 4.747 4.747 0 016.5.15 4.673 4.673 0 01.092 6.4 75.428 75.428 0 01-5.38 5.408 4.753 4.753 0 01-6.154.247c-.654-.537-1.013-1.185-.435-1.918.528-.669 1.231-.557 1.873-.068a2.183 2.183 0 003.008-.052A99.932 99.932 0 0016.9 6.157a2.176 2.176 0 00-.015-3.085 2.068 2.068 0 00-2.97-.1c-.982.967-1.9 1.407-3.216.825a2.794 2.794 0 00-.941-.056z"/><path data-name="Path 5384" d="M9.958 16.591c-1.267 1.344-2.375 2.736-4.187 3.189a4.615 4.615 0 01-4.7-7.43 64.97 64.97 0 015.385-5.412 4.754 4.754 0 015.887-.162c.674.511 1.071 1.14.566 1.9s-1.212.646-1.939.148a2.24 2.24 0 00-3.107.116q-2.445 2.289-4.735 4.741a2.192 2.192 0 00-.037 3.176 2.125 2.125 0 003.07-.007 2.063 2.063 0 012.461-.5 9.73 9.73 0 001.336.241z"/></g></svg>