<svg xmlns="http://www.w3.org/2000/svg" width="150.339" height="124.588"><g fill="#f2f2f2"><path data-name="Path 6112" d="M16.583 114.898V89.862L6.504 28.286a3.236 3.236 0 012.667-3.71l8.924-1.456a9.676 9.676 0 018.175-4.508h19.375L119.62 6.504a3.463 3.463 0 01.525-.042 3.234 3.234 0 013.185 2.709l1.547 9.442h6.552l-1.715-10.485a9.715 9.715 0 00-11.136-8L8.128 18.198a9.712 9.712 0 00-8 11.129l13.985 85.458a9.688 9.688 0 005.7 7.308 9.638 9.638 0 01-3.23-7.195z"/><path data-name="Path 6113" d="M140.652 124.588H26.271a9.706 9.706 0 01-9.687-9.694V28.301a9.7 9.7 0 019.687-9.688h114.381a9.7 9.7 0 019.687 9.688v86.592a9.706 9.706 0 01-9.687 9.695zM26.271 25.075a3.232 3.232 0 00-3.227 3.227v86.592a3.232 3.232 0 003.227 3.227h114.381a3.232 3.232 0 003.227-3.227V28.301a3.232 3.232 0 00-3.227-3.227z"/><path data-name="Path 6114" d="M33.383 94.214l22.94-22.94 10.985 10.985 36.186-36.186 29.725 29.725v31.986H33.383z"/><circle data-name="Ellipse 1723" cx="12.601" cy="12.601" transform="translate(34.675 36.704)" r="12.601"/></g></svg>