<svg xmlns="http://www.w3.org/2000/svg" width="225" height="225"><defs><linearGradient id="b" x1=".5" x2=".5" y2="1" gradientUnits="objectBoundingBox"><stop offset="0" stop-color="#a8a8a8"/><stop offset="1" stop-color="#606060"/></linearGradient><filter id="a" x="0" y="0" width="225" height="225" filterUnits="userSpaceOnUse"><feOffset dx="3" dy="3"/><feGaussianBlur stdDeviation="3" result="blur"/><feFlood flood-opacity=".161"/><feComposite operator="in" in2="blur"/><feComposite in="SourceGraphic"/></filter></defs><g data-name="User 画像"><g transform="translate(.002)" filter="url(#a)"><circle data-name="Ellipse 1613" cx="103.5" cy="103.5" r="103.5" transform="translate(6 6)" fill="url(#b)"/></g><g transform="translate(67.645 46.66)" fill="#fff"><path data-name="Path 5438" d="M44.026 82.708C19.708 82.708 0 94.864 0 109.859c0 .406.022.813.051 1.216.042.552.1 1.106.193 1.651a12.338 12.338 0 001.8 4.491c2.361 2.777 6.662 4.923 12.316 6.476a126.168 126.168 0 0028.2 3.046 123.382 123.382 0 0036.816-5.328 12.263 12.263 0 008.632-10.465c.034-.333.056-.668.064-1.008v-.1c0-14.973-19.728-27.13-44.046-27.13z"/><circle data-name="楕円形 1593" cx="36.697" cy="36.697" r="36.697" transform="translate(8.807)"/></g></g></svg>