<svg xmlns="http://www.w3.org/2000/svg" width="77" height="78"><g data-name="Group 4686"><path data-name="Rectangle 3912" fill="#777" d="M0 0h77v78H0z"/><g transform="translate(14.924 21.359)" fill="#f2f2f2"><path data-name="Path 6112" d="M5.015 34.743v-7.569L1.967 8.554a.978.978 0 01.806-1.122l2.7-.44a2.926 2.926 0 012.472-1.363h5.859l22.369-3.662a1.051 1.051 0 01.159-.013.978.978 0 01.963.819l.468 2.855h1.981l-.519-3.171A2.938 2.938 0 0035.857.038l-33.4 5.465A2.937 2.937 0 00.038 8.869l4.229 25.843a2.93 2.93 0 001.725 2.21 2.914 2.914 0 01-.977-2.179z"/><path data-name="Path 6113" d="M42.533 37.675H7.944a2.935 2.935 0 01-2.929-2.932V8.558a2.933 2.933 0 012.929-2.929h34.589a2.933 2.933 0 012.929 2.929v26.186a2.935 2.935 0 01-2.929 2.931zM7.944 7.582a.977.977 0 00-.976.976v26.186a.977.977 0 00.976.976h34.589a.977.977 0 00.976-.976V8.558a.977.977 0 00-.976-.976z"/><path data-name="Path 6114" d="M10.095 28.491l6.937-6.937 3.322 3.322 10.943-10.943 8.989 8.989v9.673h-30.19z"/><circle data-name="Ellipse 1723" cx="3.81" cy="3.81" transform="translate(10.486 11.099)" r="3.81"/></g></g></svg>