<svg xmlns="http://www.w3.org/2000/svg" width="29.453" height="29.863"><g fill="#fff"><path data-name="Path 5808" d="M0 3.059C3.712-.779 10.612-1.899 14.519 5.031l2.143-.952-2.334 6.659-5.93-2.755 2.331-1.15a6.8 6.8 0 00-4.262-4.568c-2.165-.72-4.231-.091-6.467.794z"/><path data-name="Path 5809" d="M23.838 10.909c1.876-1.13 2.126-1.109 2.968.216 1.288 2.028 1.284 2.051-.693 3.379.912 1.449 1.831 2.9 2.742 4.361a2.936 2.936 0 01.59 1.075c.041.428-.076 1.155-.331 1.262a1.5 1.5 0 01-1.39-.223 25.477 25.477 0 01-1.85-2.8q-3.426-5.418-6.847-10.84c-.089-.141-.178-.281-.263-.424-.363-.611-.415-1.208.258-1.617a1.056 1.056 0 011.578.465z"/><path data-name="Path 5810" d="M23.561 11.722H7.493a1.042 1.042 0 00-1.032 1.185l2.215 16.057a1.042 1.042 0 001.032.9h11.634a1.042 1.042 0 001.032-.9l2.215-16.057a1.042 1.042 0 00-1.028-1.185zm-11.9 15.742a1.1 1.1 0 01-1.223-.949L9.049 15.499a1.095 1.095 0 112.172-.274l1.389 11.017a1.094 1.094 0 01-.949 1.222zm4.955-1.2a1.095 1.095 0 11-2.189 0V15.319a1.095 1.095 0 112.189 0zm5.378-10.767l-1.389 11.016a1.095 1.095 0 01-2.172-.274l1.389-11.017a1.095 1.095 0 112.172.274z"/></g></svg>