<svg xmlns="http://www.w3.org/2000/svg" width="56.474" height="20.985"><g fill="#00be85"><path data-name="Path 11486" d="M56.124 9.888L39.16.094a.7.7 0 00-1.047.6v19.587a.7.7 0 001.047.6l16.964-9.794a.7.7 0 000-1.199z"/><path data-name="Path 11485" d="M37.068 9.888L20.104.094a.7.7 0 00-1.047.6v19.587a.7.7 0 001.047.6l16.964-9.794a.7.7 0 000-1.199z" opacity=".701"/><path data-name="Path 11484" d="M18.01 9.888L1.046.094a.7.7 0 00-1.047.6v19.587a.7.7 0 001.047.6l16.964-9.794a.7.7 0 000-1.199z" opacity=".546"/></g></svg>