<svg xmlns="http://www.w3.org/2000/svg" width="22.574" height="31.109"><path data-name="Path 10570" d="M3.479 9.89a9.834 9.834 0 001.346 5.766 5.1 5.1 0 001.161 1.291l.1-.03a2.486 2.486 0 00-.009-.617 19.5 19.5 0 01-.371-4.924A12.514 12.514 0 0111.07.986c.449-.342.938-.63 1.41-.942a.675.675 0 01.128-.047c-.13.564-.294 1.106-.376 1.659a5.6 5.6 0 001.227 4.275 15.7 15.7 0 003.273 3.018 18.344 18.344 0 013.373 3.069 10.811 10.811 0 012.461 7.389 12.09 12.09 0 01-.625 4.294A11.293 11.293 0 01.127 21.062a14.331 14.331 0 01.74-7 13.091 13.091 0 012.229-3.85q.137-.156.281-.306c.013-.005.037-.003.102-.016zm2.018 14.993a8.16 8.16 0 009.735 1.857 8.258 8.258 0 004.439-8.952c-.755-3.233-3.375-5.762-5.643-6.147 1.223 2.052 2.116 4.126 1.659 6.54-.419 2.208-2.308 5.085-3.718 5.551a9.926 9.926 0 00.63-4.941 8.739 8.739 0 01-7.101 6.092z" fill="#fff"/></svg>