<svg xmlns="http://www.w3.org/2000/svg" width="33.844" height="46.64"><path data-name="Path 11431" d="M5.214 14.827c-.051 3.077.3 6.023 2.018 8.645a7.644 7.644 0 001.741 1.936l.156-.045a3.727 3.727 0 00-.013-.925 29.239 29.239 0 01-.564-7.379c-.016-6.581 2.908-11.655 8.042-15.577C17.267.969 18 .538 18.708.069a1.011 1.011 0 01.191-.07c-.195.845-.44 1.658-.564 2.487a8.391 8.391 0 001.84 6.409 23.54 23.54 0 004.907 4.525 27.5 27.5 0 015.057 4.6 16.207 16.207 0 013.689 11.077 18.126 18.126 0 01-.937 6.438c-2.519 6.023-6.98 9.812-13.45 10.886C9.923 47.999 1.211 40.694.188 31.578a21.486 21.486 0 011.11-10.488 19.626 19.626 0 013.342-5.772q.206-.234.421-.459c.021-.016.063-.012.153-.032zM8.24 37.304c3.979 4.018 9.273 5.335 14.595 2.784a12.381 12.381 0 006.655-13.421c-1.132-4.847-5.06-8.638-8.46-9.215 1.833 3.077 3.173 6.186 2.487 9.805-.628 3.31-3.46 7.624-5.574 8.323.7-2.417 1.5-4.809.944-7.407a13.1 13.1 0 01-10.645 9.131z" fill="red"/></svg>