<svg xmlns="http://www.w3.org/2000/svg" width="31.078" height="31.053"><defs><linearGradient id="a" x1=".146" y1=".854" x2=".854" y2=".146" gradientUnits="objectBoundingBox"><stop offset=".007" stop-color="#525149"/><stop offset="1" stop-color="#bfbfbd"/></linearGradient></defs><path d="M322.518-222.205l2.564-.047-.03-1.623-2.565.047a12.952 12.952 0 00-.225-1.6l2.469-.678-.429-1.565-2.472.678a12.927 12.927 0 00-.71-1.675l2.185-1.309-.939-1.567-2.188 1.311a13.008 13.008 0 00-1.073-1.336l1.776-1.849-1.171-1.125-1.776 1.85a13.044 13.044 0 00-1.291-.963l1.265-2.231-1.413-.8-1.263 2.228a12.9 12.9 0 00-1.674-.675l.638-2.481-1.573-.4-.638 2.483a13.05 13.05 0 00-1.553-.2v-2.568H308.6v2.574a13.037 13.037 0 00-1.5.2l-.638-2.483-1.573.4.638 2.481a12.861 12.861 0 00-1.674.675l-1.263-2.228-1.412.8 1.265 2.231a13.1 13.1 0 00-1.291.963l-1.776-1.85-1.171 1.125 1.775 1.849a13.1 13.1 0 00-1.088 1.357l-2.223-1.332-.939 1.567 2.224 1.333a12.892 12.892 0 00-.79 1.925l-2.484-.623-.395 1.575 2.487.623a13.086 13.086 0 00-.2 1.793L294-223.3l.03 1.624 2.565-.048a13.04 13.04 0 00.225 1.6l-2.469.678.429 1.566 2.472-.678a12.885 12.885 0 00.7 1.652l-2.224 1.333.939 1.567 2.223-1.332a13.051 13.051 0 001.088 1.357l-1.775 1.85 1.171 1.125 1.776-1.85a13.093 13.093 0 001.291.963l-1.265 2.231 1.412.8 1.263-2.228a12.856 12.856 0 001.674.675l-.638 2.482 1.573.4.638-2.483a12.934 12.934 0 001.5.2v2.574h1.827v-2.571a13.05 13.05 0 001.553-.2l.638 2.483 1.573-.4-.638-2.482a12.891 12.891 0 001.674-.675l1.263 2.228 1.413-.8-1.265-2.231a13.039 13.039 0 001.291-.963l1.776 1.85 1.171-1.125-1.776-1.85a13.006 13.006 0 001.073-1.336l2.188 1.311.939-1.567-2.185-1.309a12.9 12.9 0 00.8-1.948l2.484.623.394-1.575-2.487-.624a13.015 13.015 0 00.214-1.802zm-4.347-6.821l-3.151 1.889a6.992 6.992 0 00-4.588-2.583v-3.672a10.642 10.642 0 017.739 4.366zm-2.843 6.25a5.755 5.755 0 01-.421 2.165l-2.046-1.226a3.455 3.455 0 00.132-.939 3.455 3.455 0 00-.132-.939l2.046-1.226a5.757 5.757 0 01.421 2.165zm-11.569 0a5.767 5.767 0 01.411-2.14l2.049 1.228a3.46 3.46 0 00-.126.912 3.457 3.457 0 00.126.912l-2.049 1.228a5.767 5.767 0 01-.411-2.14zm7.408 0a1.624 1.624 0 01-1.624 1.624 1.624 1.624 0 01-1.624-1.624 1.624 1.624 0 011.624-1.624 1.624 1.624 0 011.624 1.624zm-2.562-3.317a3.443 3.443 0 00-1.454.834l-2.046-1.226a5.777 5.777 0 013.5-2zm-1.454 5.8a3.449 3.449 0 001.454.835v2.39a5.777 5.777 0 01-3.5-2zm3.28.848a3.437 3.437 0 001.484-.83l2.048 1.228a5.775 5.775 0 01-3.533 1.987zm1.484-5.832a3.441 3.441 0 00-1.484-.83v-2.385a5.773 5.773 0 013.533 1.988zm-3.311-8.11v3.674a6.991 6.991 0 00-4.553 2.6L300.9-229a10.641 10.641 0 017.7-4.388zm-9.717 10.612a10.611 10.611 0 011.073-4.662l3.152 1.889a6.979 6.979 0 00-.572 2.773 6.979 6.979 0 00.572 2.773l-3.152 1.889a10.611 10.611 0 01-1.073-4.663zm2.013 6.229l3.151-1.888a6.992 6.992 0 004.553 2.6v3.674a10.643 10.643 0 01-7.704-4.388zm9.531 4.387v-3.672a6.992 6.992 0 004.588-2.583l3.151 1.889a10.642 10.642 0 01-7.739 4.365zm5.532-7.819a6.976 6.976 0 00.582-2.8 6.976 6.976 0 00-.582-2.8l3.152-1.888a10.615 10.615 0 011.084 4.685 10.613 10.613 0 01-1.084 4.685z" transform="translate(-294.004 238.303)" fill="url(#a)"/></svg>