<svg xmlns="http://www.w3.org/2000/svg" width="24.863" height="24.872"><path data-name="Path 11059" d="M24.856 11.817a12.372 12.372 0 00-2.375-6.7 12.709 12.709 0 00-.832-1.024 12.416 12.416 0 00-8.51-4.074c-.235-.012-.836-.021-.707-.021q-.315 0-.625.016A12.417 12.417 0 003.213 4.1a12.7 12.7 0 00-.831 1.024 12.365 12.365 0 00-2.376 6.7c-.011.207-.008 1.1.006 1.331a12.37 12.37 0 002.37 6.615 12.432 12.432 0 009.425 5.1c.207.011 1.1.008 1.332-.006a12.412 12.412 0 008.51-4.074 12.542 12.542 0 00.832-1.024 12.37 12.37 0 002.37-6.615 24.83 24.83 0 00.005-1.334zM7.527 2.477a10.49 10.49 0 00-.953 1.281 13.031 13.031 0 00-.993 1.9 11.1 11.1 0 01-1.312-.743 11.176 11.176 0 013.258-2.439zM3.433 5.939c.1.071.207.142.315.211a12.726 12.726 0 001.371.755 17.823 17.823 0 00-.833 4.913H1.343a11.04 11.04 0 012.09-5.88zm0 13.006a11.04 11.04 0 01-2.085-5.8h2.943a17.837 17.837 0 00.829 4.83 12.726 12.726 0 00-1.371.755c-.106.07-.213.143-.316.214zm.837 1.024a10.967 10.967 0 011.312-.744 13.043 13.043 0 00.993 1.9 10.638 10.638 0 00.953 1.281 11.176 11.176 0 01-3.258-2.438zm7.538 3.534c-2.075-.309-3.884-2.134-5-4.791a16.416 16.416 0 015-.933zm0-7.057a17.588 17.588 0 00-5.458 1.021 16.627 16.627 0 01-.725-4.318h6.183zm0-4.629H5.619a16.733 16.733 0 01.73-4.4 17.617 17.617 0 005.458 1.021zm0-4.713a16.416 16.416 0 01-5-.933c1.12-2.657 2.93-4.483 5-4.791zm8.786-2.189a11.023 11.023 0 01-1.312.743 13.027 13.027 0 00-.992-1.9 10.591 10.591 0 00-.953-1.281 11.159 11.159 0 013.257 2.438zm-7.454 6.9V8.431a17.606 17.606 0 005.376-1.017 16.694 16.694 0 01.729 4.4zm6.1 1.331a16.708 16.708 0 01-.725 4.318 17.577 17.577 0 00-5.372-1.014v-3.3zm-1.18-6.977a16.384 16.384 0 01-4.921.929V1.39c2.041.345 3.817 2.16 4.922 4.781zm-4.917 17.322v-5.709a16.384 16.384 0 014.921.93c-1.108 2.62-2.884 4.435-4.921 4.779zm4.2-1.085a10.741 10.741 0 00.953-1.281 13.039 13.039 0 00.992-1.9 10.893 10.893 0 011.312.744 11.159 11.159 0 01-3.263 2.437zm4.094-3.462a6.938 6.938 0 00-.316-.211 12.635 12.635 0 00-1.371-.755 17.8 17.8 0 00.829-4.83h2.944a11.048 11.048 0 01-2.092 5.796zm-.854-7.127a17.859 17.859 0 00-.84-4.917 12.635 12.635 0 001.371-.755c.108-.069.212-.14.316-.211a11.039 11.039 0 012.091 5.879z" fill="#919191"/></svg>