<svg xmlns="http://www.w3.org/2000/svg" width="60.983" height="41.377"><g transform="translate(1 4)"><path data-name="Path 10894" d="M59.483 35.227l-9.193 1.647-17.289-1.51V9.98L50.29 6.001l9.193 3.7z" fill="#777" stroke="#777"/><path data-name="Path 10895" d="M48.3 8.676l-13.036 3.293v21.406l4.185.352V29.19h3.293v4.814l5.557.469zM38.008 26.651h-1.784v-2.607l1.783-.138zm0-5.625l-1.783.137v-2.612l1.783-.274zm0-5.489l-1.783.274v-2.744l1.783-.412zm4.323 10.977h-2.264V23.77l2.264-.138zm0-5.9l-2.264.138V17.87l2.264-.274zm0-5.9l-2.264.411v-2.881l2.264-.549zm2.263 11.663v-3.019l2.608-.137.069 3.155zm0-5.9v-3.156l2.608-.411.069 3.293zm0-6.175v-3.156l2.608-.549.069 3.293z" fill="#f7f7f7"/><circle data-name="Ellipse 1746" cx="16" cy="16" r="16" transform="translate(-1 -4)" fill="red"/><g fill="#fff"><path data-name="Path 11027" d="M15 28A16.018 16.018 0 01-1 12 16.018 16.018 0 0115-4a16.018 16.018 0 0116 16 16.018 16.018 0 01-16 16zm0-30.41A14.427 14.427 0 00.59 12 14.427 14.427 0 0015 26.41 14.427 14.427 0 0029.41 12 14.427 14.427 0 0015-2.41z"/><g data-name="Group 7565"><path data-name="Path 11028" d="M23.133 10.156L15.114 3.97l-2.579 1.99 6.984 6.984z"/><path data-name="Path 11029" d="M22.115 15.54l1.009-.8-.987-1.249-1.156.913z"/><path data-name="Path 11030" d="M24.205 19.88l-5.956-5.955-6.983-6.984-3.974-3.97-1.124 1.12L9.997 7.92l-2.97 2.291 8.022 6.186 1.936-1.493 1.489 1.489-3.25 2.568-6.964-5.467-.981 1.25 7.948 6.24 4.378-3.46 3.48 3.48z"/></g></g></g></svg>