<svg xmlns="http://www.w3.org/2000/svg" width="59.391" height="45.081"><defs><filter id="a" x="15.526" y="12.074" width="43.865" height="33.006" filterUnits="userSpaceOnUse"><feOffset dy="1"/><feGaussianBlur stdDeviation="1.5" result="blur"/><feFlood flood-opacity=".161"/><feComposite operator="in" in2="blur"/><feComposite in="SourceGraphic"/></filter></defs><g transform="translate(-.004 .004)" filter="url(#a)"><path data-name="Rectangle 5524" fill="#fff" stroke="#bababa" stroke-width=".5" d="M20.28 15.82h34.365v23.506H20.28z"/></g><path data-name="Path 10638" d="M22.444 17.769v2.3l15.015 9.619 15.015-9.619v-2.3z" fill="#b7b7b7"/><g data-name="Group 7928" transform="translate(6.067)"><circle data-name="Ellipse 1746" cx="16" cy="16" r="16" transform="translate(-6.067)" fill="#2d81f3"/><g data-name="Group 6695" fill="#fff"><path data-name="Path 10659" d="M3.655 19.638l3.387 2.3-3.387 2.622z"/><path data-name="Path 10660" d="M18.662 8.576l-6.8 15.862c-2.358-1.71-4.24-3.023-6.616-4.746 3.792-2.916 7.111-6.175 10.87-9.065l-.047-.079c-.13.079-.262.156-.391.239q-5.79 3.7-11.574 7.412a.666.666 0 01-.9-.027c-1.286-.966-2.6-1.9-3.9-2.842-.1-.074-.2-.155-.368-.284z"/></g></g></svg>