<svg xmlns="http://www.w3.org/2000/svg" width="21.83" height="27.999"><g data-name="Group 8019" fill="#fff"><path data-name="Path 10965" d="M6.486 7.593a4.434 4.434 0 014.429-4.429 4.434 4.434 0 014.429 4.429v2.373h3.164V7.593A7.6 7.6 0 0010.915 0a7.6 7.6 0 00-7.593 7.593v2.373h3.164z"/><path data-name="Path 10966" d="M18.481 10.915H3.349A3.349 3.349 0 000 14.264V24.65a3.349 3.349 0 003.349 3.349h15.132a3.349 3.349 0 003.349-3.349V14.264a3.349 3.349 0 00-3.349-3.349zm-6.459 9.55v2.314a1.107 1.107 0 01-1.107 1.107 1.107 1.107 0 01-1.107-1.107v-2.314a2.528 2.528 0 01-1.424-2.273 2.531 2.531 0 012.531-2.531 2.531 2.531 0 012.531 2.531 2.528 2.528 0 01-1.424 2.273z"/></g></svg>