<svg xmlns="http://www.w3.org/2000/svg" width="24.543" height="44.505"><path data-name="Path 10945" d="M21.082 0H3.461A3.464 3.464 0 000 3.461v37.578A3.465 3.465 0 003.461 44.5h17.621a3.467 3.467 0 003.461-3.461V3.456A3.464 3.464 0 0021.082 0zm-8.809.842a.336.336 0 01.336.336.337.337 0 01-.336.336.336.336 0 01-.336-.336.335.335 0 01.336-.34zm-1.887 1.819h3.776a.2.2 0 01.2.2.2.2 0 01-.2.2h-3.776a.2.2 0 01-.2-.2.2.2 0 01.2-.2zm-2.152-.288a.453.453 0 01.451.455H8.68a.452.452 0 01-.45.45.452.452 0 01-.451-.455.452.452 0 01.451-.45zm15.37 36.715H.945V5.416h22.659z" fill="#fff"/></svg>