<svg xmlns="http://www.w3.org/2000/svg" width="34.09" height="45.453"><g data-name="Group 6654"><g data-name="Group 6651" fill="#fff"><path data-name="Rectangle 5553" d="M11 37h17v2H11z"/><path data-name="Path 10652" d="M23.975 1.748H5.869v35.463h26.473V10.863h-8.366z"/><path data-name="Path 10653" d="M25.724 9.116h5.834L25.724 2.94z"/></g><path data-name="Path 10654" d="M33.963 9.116L25.724.395l-.373-.394H4.121v38.96h6.618v-1.748h-4.87V1.75h18.106v9.116h8.366v26.348h-4.87v1.748h6.618V9.253zm-8.239 0V2.94l5.834 6.176z" fill="#484848"/><path data-name="Rectangle 5554" fill="#494949" d="M9.74 19.855h18.481v1.748H9.74z"/><path data-name="Rectangle 5555" fill="#494949" d="M9.74 23.85h18.481v1.748H9.74z"/><path data-name="Path 10655" d="M22.696 38.211v-8.616h-7.492v8.616h-3.247l6.993 7.243 6.993-7.243z" fill="#ff0f30"/><g data-name="Group 6653"><path data-name="Rectangle 5556" fill="#ff0f30" d="M0 7.367h19.979v8.991H0z"/><g data-name="Group 6652" fill="#fff"><path data-name="Path 10656" d="M4.856 14.315a4.248 4.248 0 00.042-.68v-2.851a4.743 4.743 0 00-.042-.68c.227.01.39.016.669.016h1.1a1.5 1.5 0 011.123.374 1.233 1.233 0 01.327.906 1.354 1.354 0 01-.353.97 1.493 1.493 0 01-1.123.38H5.592v.88a4.264 4.264 0 00.042.685zm1.745-2.171a.663.663 0 00.748-.722.71.71 0 00-.174-.506.718.718 0 00-.574-.19H5.594v1.418z"/><path data-name="Path 10657" d="M8.645 10.789a4.4 4.4 0 00-.042-.685c.211.01.337.016.669.016h.954a1.88 1.88 0 011.423.464 2.122 2.122 0 01.585 1.6 2.218 2.218 0 01-.622 1.676 1.871 1.871 0 01-1.381.459h-.959c-.321 0-.453.005-.669.016a4.245 4.245 0 00.042-.7zm1.539 2.9a1.16 1.16 0 00.933-.337 1.673 1.673 0 00.385-1.17 1.57 1.57 0 00-.364-1.128 1.184 1.184 0 00-.949-.316h-.843v2.951z"/><path data-name="Path 10658" d="M13.595 13.556a4.532 4.532 0 00.042.759h-.785a4.469 4.469 0 00.042-.748v-2.778a4.576 4.576 0 00-.042-.685c.216.01.348.016.669.016h1.476a5.37 5.37 0 00.722-.037v.712a5.038 5.038 0 00-.722-.037h-1.4v1.117h1.128a5.2 5.2 0 00.717-.037v.7a5.167 5.167 0 00-.717-.037h-1.13z"/></g></g></g></svg>