<svg xmlns="http://www.w3.org/2000/svg" width="18.353" height="18.353"><path data-name="Path 5725" d="M17.97 6.548l-9.881 9.881-7.448 1.907a.512.512 0 01-.624-.624l1.907-7.448L11.805.383a1.317 1.317 0 011.859 0l4.305 4.305a1.317 1.317 0 01.001 1.86zm-10.328 9.1l9.712-9.711a.444.444 0 000-.626l-4.306-4.306a.443.443 0 00-.626 0L2.71 10.711l-1.7 6.63z" fill="#5a9bff"/><path data-name="Path 5726" d="M13.157 5.198l2.465 2.465 1.732-1.73a.444.444 0 000-.626l-4.306-4.306a.443.443 0 00-.626 0l-1.73 1.73 2.466 2.466z" fill="none"/><path data-name="Path 5727" d="M5.091 13.263l2.416 2.416.134-.034 7.981-7.981-2.466-2.466z" fill="#86b6ff"/><path data-name="Path 5728" d="M2.676 10.849l2.416 2.416L13.157 5.2l-2.466-2.466-7.983 7.979z" fill="#bad5ff"/><path data-name="Path 5729" d="M5.091 13.263L2.675 10.85l-1.664 6.5 6.5-1.664-2.416-2.416z" fill="none"/><path data-name="Path 5730" d="M1.011 17.343l1.981-.508-1.474-1.474z" fill="#5a9bff"/></svg>