<svg xmlns="http://www.w3.org/2000/svg" width="37" height="37"><defs><radialGradient id="b" cx=".5" cy=".5" r=".5" gradientTransform="rotate(79.1 .5 .5)" gradientUnits="objectBoundingBox"><stop offset="0" stop-color="#27cee1"/><stop offset="1" stop-color="#007ebd"/></radialGradient><radialGradient id="d" cx=".5" cy=".5" r=".5" gradientUnits="objectBoundingBox"><stop offset="0" stop-color="#27cee1"/><stop offset="1" stop-color="#27aae1"/></radialGradient><linearGradient id="a" x1="-.085" y1=".5" x2="1.137" y2=".5" gradientUnits="objectBoundingBox"><stop offset="0" stop-color="#d1d1d1"/><stop offset=".43" stop-color="#fff"/><stop offset="1" stop-color="#e6e7e8"/></linearGradient><linearGradient id="c" x1=".204" y1="-.018" x2=".7" y2="1.311" gradientUnits="objectBoundingBox"><stop offset="0" stop-color="#fff"/><stop offset="0" stop-color="#f8fdfe"/><stop offset="1"/></linearGradient></defs><g transform="translate(-106.21 339.515)"><circle data-name="Ellipse 1853" cx="16.394" cy="16.394" r="16.394" transform="rotate(-5.633 -3352.696 -1254.808)" fill="#bcbec0" style="mix-blend-mode:multiply;isolation:isolate"/><circle data-name="Ellipse 1854" cx="16.394" cy="16.394" r="16.394" transform="rotate(-5.631 -3359.85 -1253.54)" fill="#fff"/><circle data-name="Ellipse 1855" cx="16.123" cy="16.123" r="16.123" transform="rotate(-80.772 -127.75 -216.273)" fill="#d1d3d4"/><circle data-name="Ellipse 1856" cx="15.9" cy="15.9" r="15.9" transform="translate(108.81 -336.915)" fill="url(#a)"/><circle data-name="Ellipse 1857" cx="14.706" cy="14.706" r="14.706" transform="rotate(-80.78 -127.597 -217.804)" fill="#78cfff"/><circle data-name="Ellipse 1858" cx="13.281" cy="13.281" r="13.281" transform="rotate(-79.1 -133.393 -221.323)" fill="url(#b)"/><g data-name="Group 7654"><path data-name="Path 11479" d="M129.862-321.656l-8.362-6.734c-.473-.273-.86-.05-.86.5v13.469c0 .546.387.77.86.5l8.362-6.734a.525.525 0 000-1.001z" fill="#d1d3d4" style="mix-blend-mode:multiply;isolation:isolate"/><path data-name="Path 11480" d="M129.574-321.369l-8.362-6.734c-.473-.273-.86-.049-.86.5v13.468c0 .547.387.77.86.5l8.362-6.734a.525.525 0 000-1z" fill="#fff"/></g><path data-name="Path 11481" d="M128.477-331.784a14.05 14.05 0 00-14.05 14.05 14.127 14.127 0 00.205 2.4c2.28-3.356 6.926-5.936 16.045-1a10.171 10.171 0 0011.846-1.136v-.267a14.05 14.05 0 00-14.046-14.047z" transform="translate(-3.767 -3.545)" fill="url(#c)" style="mix-blend-mode:screen;isolation:isolate"/><path data-name="Path 11482" d="M127.921-332.51a14.706 14.706 0 00-14.706 14.71 14.706 14.706 0 0014.706 14.7 14.706 14.706 0 0014.707-14.7 14.707 14.707 0 00-14.707-14.71zm0 28.826A14.12 14.12 0 01113.8-317.8a14.12 14.12 0 0114.12-14.12 14.12 14.12 0 0114.12 14.12 14.12 14.12 0 01-14.119 14.116z" transform="translate(-3.212 -3.212)" fill="url(#d)" style="mix-blend-mode:multiply;isolation:isolate"/></g></svg>