<svg xmlns="http://www.w3.org/2000/svg" width="27.725" height="27.725"><path d="M13.863 27.725a13.8 13.8 0 008.862-3.21 14.006 14.006 0 001.513-1.47 13.8 13.8 0 003.49-9.182A13.878 13.878 0 0013.866.001a13.8 13.8 0 00-9.182 3.49 14 14 0 00-1.47 1.513 13.8 13.8 0 00-3.21 8.859 13.878 13.878 0 0013.859 13.862zm0-25.615a11.766 11.766 0 0111.753 11.753 11.7 11.7 0 01-2.874 7.688L6.175 4.984a11.7 11.7 0 017.688-2.874zM4.71 6.503l16.515 16.513a11.694 11.694 0 01-7.36 2.6A11.766 11.766 0 012.112 13.863a11.694 11.694 0 012.597-7.361z" fill="red"/></svg>