<svg xmlns="http://www.w3.org/2000/svg" width="33.999" height="33.999"><g fill="#959494"><path data-name="Path 10639" d="M0 7.534a13.432 13.432 0 011.061-2.032 3.512 3.512 0 012.885-1.408c5.207-.018 10.414-.008 15.621-.007.086 0 .172.015.257.022.009.054.037.114.02.13-1.217 1.225-2.426 2.458-3.672 3.653a1.261 1.261 0 01-.8.187c-3.5.012-7 .023-10.5-.006-.651-.006-.881.144-.877.841q.038 10.1 0 20.208c0 .588.136.794.772.793 6.78-.024 13.561-.015 20.341-.015h.739v-.836c0-3.435.008-6.869-.009-10.3a1.4 1.4 0 01.453-1.107c1.172-1.141 2.315-2.312 3.563-3.566.018.33.039.536.039.741v14.757a4.136 4.136 0 01-3.47 4.3 1.094 1.094 0 00-.231.115H3.717c-.165-.052-.327-.112-.494-.154a4.124 4.124 0 01-2.794-2.217c-.175-.347-.292-.723-.435-1.086z"/><path data-name="Path 10640" d="M8.324 25.689l.726-2.871c.434-1.714.865-3.43 1.312-5.141a1.422 1.422 0 01.316-.631q6.1-6.121 12.212-12.221a1.561 1.561 0 01.208-.141 35.139 35.139 0 016.268 6.269c-.154.169-.282.32-.421.458q-5.9 5.9-11.8 11.79a1.685 1.685 0 01-.7.455c-2.588.674-5.183 1.321-7.777 1.975-.084.02-.163.028-.344.058zm3.134-7.983a31.32 31.32 0 01-.86 3.263 1.8 1.8 0 00.727 2.418 1.277 1.277 0 00.853.234c1.251-.269 2.488-.6 3.728-.921a.9.9 0 00.252-.112c-.494-.38-1.194-.681-1.481-1.207a5.436 5.436 0 01-.259-1.954c-1.543.462-2.08.181-2.96-1.719z"/><path data-name="Path 10641" d="M30.955 9.407l-6.331-6.32c.894-.894 1.884-1.874 2.861-2.867.387-.393.786-.182 1.076.043a39.121 39.121 0 013.308 2.744 18.269 18.269 0 011.906 2.456.877.877 0 01-.178 1.322c-.945.863-1.822 1.8-2.642 2.622z"/></g></svg>