<svg xmlns="http://www.w3.org/2000/svg" width="66.78" height="41.78"><g transform="translate(27 2)"><path data-name="Path 6506" d="M19.89 0a19.88 19.88 0 1019.89 19.89A19.913 19.913 0 0019.89 0zm12.469 33.519a18.473 18.473 0 116.013-13.629 18.409 18.409 0 01-6.013 13.629z" fill="#777"/><path data-name="Path 6507" d="M32.359 33.519A12.5 12.5 0 0019.89 21.826 12.5 12.5 0 007.421 33.519a18.443 18.443 0 0024.937 0z" fill="#777"/><circle data-name="Ellipse 1" cx="6.337" cy="6.337" r="6.337" transform="translate(13.553 7.569)" fill="#777"/><path data-name="Path 10763" d="M-9.87-2A16.13 16.13 0 106.26 14.13 16.129 16.129 0 00-9.87-2zm8.635 17.831H-8.17v6.932a1.651 1.651 0 01-3.3 0v-6.932h-6.93a1.651 1.651 0 110-3.3h6.93V5.599a1.651 1.651 0 013.3 0v6.932h6.932a1.651 1.651 0 110 3.3z" fill="#2e80ff"/><circle data-name="Ellipse 1810" cx="17" cy="17" r="17" transform="translate(-27 -2)" fill="#2e80ff"/><g data-name="Group 4834" fill="#fff"><path data-name="パス 5069" d="M-17.039 7.729c-.268.348-.284.456-.122.909h-.5a.664.664 0 00-.47.171 1.583 1.583 0 00-.477.871h16.843a1.531 1.531 0 01.334.03.616.616 0 01.454.627v4.286a.21.21 0 00.141.23 1.317 1.317 0 01.814 1.179 12.124 12.124 0 010 1.353 1.325 1.325 0 01-.814 1.182.211.211 0 00-.141.227v3.8c0 .508-.231.741-.735.741h-17.16a.64.64 0 01-.729-.728v-12.2a3.141 3.141 0 01.274-1.5 1.933 1.933 0 011.34-1.171 5.682 5.682 0 01.948-.007zm13 10.618h2.759a.822.822 0 00.519-.177 1.073 1.073 0 00.438-.9v-1.079a1.1 1.1 0 00-1.02-1.168 1.07 1.07 0 00-.147 0h-5.279a1.876 1.876 0 00-.936.237 1.684 1.684 0 00-.635 2.161 1.641 1.641 0 001.533.923c.926.007 1.845.003 2.766.003z" opacity=".981" style="isolation:isolate"/><path data-name="パス 5070" d="M-4.605 7.706h2.448a.465.465 0 01.508.415.467.467 0 01-.456.51c-.7.008-1.405 0-2.109 0a.142.142 0 01-.11-.064c-.094-.273-.181-.553-.281-.861z"/></g><g data-name="Group 4845" fill="#fff"><path data-name="パス 5071" d="M-5.726 5.666c-.282.11-.549.22-.819.322l-8.291 3.21a.657.657 0 01-.234.046c-.439 0-.89 0-1.336.005a.174.174 0 01-.2-.138c-.068-.2-.149-.39-.22-.585a.522.522 0 01.338-.776q1.767-.688 3.537-1.371l5.936-2.305c.423-.164.652-.059.816.365.155.405.308.81.473 1.227z" style="isolation:isolate"/><path data-name="パス 5072" d="M-10.699 9.212l5.518-2.138.84 2.164h-6.353z" style="isolation:isolate"/></g><path data-name="パス 5073" d="M-4.052 18.348H-6.82a1.648 1.648 0 01-1.537-.922 1.679 1.679 0 01.637-2.159 1.885 1.885 0 01.939-.237h5.29a1.1 1.1 0 011.17 1.021 1.076 1.076 0 010 .146v1.078a1.071 1.071 0 01-.439.9.827.827 0 01-.52.177c-.927-.007-1.85-.004-2.772-.004zm-2.425-1.072a.645.645 0 10-.624-.667.645.645 0 00.624.667z" fill="none"/><path data-name="パス 5074" d="M-6.461 17.276a.645.645 0 11.669-.624.645.645 0 01-.669.624z" fill="#fff" stroke="#fff"/></g></svg>