<svg xmlns="http://www.w3.org/2000/svg" width="55.907" height="46.639"><g data-name="Group 5466"><g data-name="Group 5464"><path data-name="Path 6002" d="M55.494 41.978l-24.089-40.2a4.237 4.237 0 00-6.9 0L.416 41.978c-1.284 2.141.584 4.661 3.453 4.661h48.175c2.868 0 4.734-2.52 3.45-4.661zm-6.841 1.143h-41.4c-1.119 0-1.848-.984-1.347-1.82l20.7-34.635a1.654 1.654 0 012.7 0l20.7 34.635c.494.836-.234 1.82-1.353 1.82z" fill="#df1f1c"/><path data-name="Path 6003" d="M29.302 6.667a1.654 1.654 0 00-2.7 0l-20.7 34.635c-.5.835.228 1.82 1.347 1.82h41.4c1.119 0 1.848-.984 1.35-1.82z" fill="none"/></g><g data-name="Group 5465" transform="translate(24.607 16.661)" fill="#df1f1c"><path data-name="Path 6004" d="M6.692 3.218c-.654 4.4-1.194 8.379-1.9 12.335-.1.556-1.073 1.389-1.552 1.333a2.245 2.245 0 01-1.457-1.522C1.092 11.506.443 7.629.024 3.734A3.118 3.118 0 013.277-.001a3.169 3.169 0 013.415 3.219z"/><circle data-name="Ellipse 1720" cx="2.351" cy="2.351" r="2.351" transform="translate(.996 18.41)"/></g></g></svg>