<svg xmlns="http://www.w3.org/2000/svg" width="66.523" height="41.165"><g transform="translate(1 4)"><g fill="red"><path data-name="Path 11045" d="M27 9v25.03a3.135 3.135 0 003.135 3.135h32.254a3.135 3.135 0 003.135-3.135V9zm36.383 15.495h-1.969v2.312h1.969v6.814a1.447 1.447 0 01-1.447 1.447h-31.35a1.447 1.447 0 01-1.447-1.447v-6.814h14.125v-2.312H29.14V13.623h34.243z"/><g data-name="Group 7587"><path data-name="Path 11046" d="M32.158 20.197c-.346 0-.5.005-.717.015a4.564 4.564 0 00.042-.729v-2.807a4.968 4.968 0 00-.042-.7c.262.016.319.016.712.016h1.3c.832 0 1.3.372 1.3 1.039a.923.923 0 01-.3.739 1.019 1.019 0 01-.392.217 1.1 1.1 0 01.508.243 1.02 1.02 0 01.33.807c0 .745-.5 1.158-1.392 1.158zm1.183-2.533c.345 0 .549-.186.549-.486s-.194-.47-.555-.47h-.994v.956zm-1 1.815h1.041c.4 0 .628-.207.628-.563s-.23-.553-.638-.553h-1.031z"/><path data-name="Path 11047" d="M38.438 20.197a3.677 3.677 0 00-.136-.548l-.178-.5h-1.58l-.178.5a2.567 2.567 0 00-.141.548h-1.036a4.791 4.791 0 00.267-.62l1.141-3.045a3.914 3.914 0 00.167-.538h1.125a3.446 3.446 0 00.178.538l1.151 3.045c.1.264.194.491.256.62zm-1.031-3.242c-.016-.047-.037-.1-.079-.238-.031.108-.037.134-.073.238l-.492 1.463h1.141z"/><path data-name="Path 11048" d="M42.39 18.362a6.359 6.359 0 01.356.589 8.466 8.466 0 01-.032-.646v-1.567a4.2 4.2 0 00-.047-.745h.937a4.911 4.911 0 00-.042.75v2.735a4.482 4.482 0 00.042.719h-.984a4.947 4.947 0 00-.356-.6l-1.2-1.768a5.788 5.788 0 01-.335-.579l.021.243c.005.088.016.3.016.408v1.51a5.213 5.213 0 00.042.791h-.931a5.057 5.057 0 00.042-.8v-2.689a4.985 4.985 0 00-.042-.719h.973a2.821 2.821 0 00.34.594z"/><path data-name="Path 11049" d="M47.639 19.489a6.516 6.516 0 00.539.708h-1.157a5.078 5.078 0 00-.345-.595l-.931-1.375-.544.538v.719a4.146 4.146 0 00.047.714H44.3a5.027 5.027 0 00.042-.714v-2.776a4.887 4.887 0 00-.042-.714h.947a4.346 4.346 0 00-.047.714v1.065l1.188-1.241a2.835 2.835 0 00.429-.538h1.193a32.19 32.19 0 00-.56.558l-1.109 1.132z"/></g><g data-name="Group 7588"><path data-name="Path 11050" d="M44.329 30.926l4.5 2.51v-9.2l-4.5-2.395z"/><path data-name="Path 11051" d="M50.286 33.096l4.366-4.485v-9.21l-4.366 4.715z"/><path data-name="Path 11052" d="M56.107 19.177v9.039l4.366 1.587v-9.088z"/></g></g><circle data-name="Ellipse 1746" cx="16" cy="16" r="16" transform="translate(-1 -4)" fill="red"/><path data-name="Path 10633" d="M22.626 17.27l-4.945-4.945 4.945-4.946a1.665 1.665 0 000-2.355 1.665 1.665 0 00-2.355 0l-4.946 4.945-4.945-4.945a1.665 1.665 0 00-2.355 0 1.665 1.665 0 000 2.354l4.946 4.946-4.946 4.945a1.665 1.665 0 000 2.355 1.665 1.665 0 002.355 0l4.945-4.945 4.946 4.945a1.665 1.665 0 002.355 0 1.665 1.665 0 000-2.354z" fill="#fff"/></g></svg>