<svg xmlns="http://www.w3.org/2000/svg" width="50.669" height="41.165"><g transform="translate(30 6)"><path data-name="Path 11750" d="M17.844 35.165H2.825A2.825 2.825 0 010 32.34V2.825A2.825 2.825 0 012.825 0h15.019a2.825 2.825 0 012.825 2.825V32.34a2.825 2.825 0 01-2.825 2.825" fill="red"/><path data-name="Path 11751" d="M12.979 2.518h-5.29a.228.228 0 01-.228-.228v-.53a.228.228 0 01.228-.228h5.29a.228.228 0 01.228.228v.529a.228.228 0 01-.228.228" fill="#fff"/><path data-name="Path 11753" d="M11.487 32.931a1.152 1.152 0 11-1.152-1.152 1.152 1.152 0 011.152 1.152" fill="#fff"/><path data-name="Rectangle 6432" fill="#fff" d="M1.979 4.022h16.712v26.443H1.979z"/><path data-name="Path 11752" d="M3.894 12.566v6.633a.253.253 0 00.273.227h12.335a.253.253 0 00.273-.227v-6.633a.253.253 0 00-.273-.227H4.164a.253.253 0 00-.273.227m11.616 5.721H5.164v-2.436H15.51zm0-3.777H5.164v-1.037H15.51z" fill="red"/><circle data-name="Ellipse 1746" cx="16" cy="16" r="16" transform="translate(-30 -6)" fill="red"/><path data-name="Path 10633" d="M-6.374 15.27l-4.945-4.945 4.945-4.946a1.665 1.665 0 000-2.355 1.665 1.665 0 00-2.355 0l-4.946 4.945-4.945-4.945a1.665 1.665 0 00-2.355 0 1.665 1.665 0 000 2.354l4.946 4.946-4.946 4.945a1.665 1.665 0 000 2.355 1.665 1.665 0 002.355 0l4.945-4.945 4.946 4.945a1.665 1.665 0 002.355 0 1.665 1.665 0 000-2.354z" fill="#fff"/></g></svg>