<svg xmlns="http://www.w3.org/2000/svg" width="25" height="25" viewBox="0 0 29.567 29.543"><path d="M321.132-222.988l2.439-.045-.029-1.544-2.441.045a12.323,12.323,0,0,0-.214-1.518l2.349-.645-.409-1.489-2.351.645a12.3,12.3,0,0,0-.675-1.594l2.079-1.246-.893-1.491-2.082,1.247a12.373,12.373,0,0,0-1.021-1.271l1.69-1.76-1.115-1.07-1.69,1.76a12.411,12.411,0,0,0-1.228-.916l1.2-2.122-1.344-.762-1.2,2.119a12.267,12.267,0,0,0-1.593-.642l.607-2.36-1.5-.385-.607,2.362a12.417,12.417,0,0,0-1.478-.189V-238.3h-1.738v2.449a12.4,12.4,0,0,0-1.43.186l-.607-2.362-1.5.385.607,2.36a12.234,12.234,0,0,0-1.593.642l-1.2-2.119L300.83-236l1.2,2.122a12.458,12.458,0,0,0-1.228.916l-1.69-1.76L298-233.653l1.689,1.76a12.463,12.463,0,0,0-1.035,1.291l-2.115-1.267-.893,1.491,2.116,1.268a12.265,12.265,0,0,0-.752,1.831l-2.363-.592-.376,1.5,2.366.593a12.446,12.446,0,0,0-.194,1.706L294-224.03l.029,1.545,2.441-.045a12.406,12.406,0,0,0,.214,1.518l-2.349.645.409,1.49,2.351-.645a12.255,12.255,0,0,0,.664,1.572l-2.116,1.268.893,1.491,2.115-1.267a12.415,12.415,0,0,0,1.035,1.291L298-213.41l1.114,1.07,1.69-1.76a12.453,12.453,0,0,0,1.228.916l-1.2,2.122,1.344.762,1.2-2.119a12.23,12.23,0,0,0,1.593.642l-.607,2.361,1.5.384.607-2.362a12.3,12.3,0,0,0,1.43.186v2.449h1.738v-2.446a12.414,12.414,0,0,0,1.478-.189l.607,2.362,1.5-.384-.607-2.361a12.263,12.263,0,0,0,1.593-.642l1.2,2.119,1.344-.762-1.2-2.122a12.406,12.406,0,0,0,1.228-.916l1.69,1.76,1.115-1.07-1.69-1.76a12.373,12.373,0,0,0,1.021-1.271l2.082,1.247.893-1.491L319.8-217.93a12.276,12.276,0,0,0,.763-1.853l2.363.593.375-1.5-2.366-.593A12.38,12.38,0,0,0,321.132-222.988ZM317-229.477l-3,1.8a6.652,6.652,0,0,0-4.365-2.457v-3.493A10.124,10.124,0,0,1,317-229.477Zm-2.7,5.946a5.475,5.475,0,0,1-.4,2.059l-1.947-1.166a3.287,3.287,0,0,0,.126-.893,3.287,3.287,0,0,0-.126-.893l1.947-1.166A5.477,5.477,0,0,1,314.291-223.531Zm-11.006,0a5.487,5.487,0,0,1,.391-2.036l1.949,1.168a3.291,3.291,0,0,0-.12.868,3.289,3.289,0,0,0,.12.868l-1.949,1.168A5.487,5.487,0,0,1,303.285-223.531Zm7.048,0a1.545,1.545,0,0,1-1.545,1.545,1.545,1.545,0,0,1-1.545-1.545,1.545,1.545,0,0,1,1.545-1.545A1.545,1.545,0,0,1,310.332-223.531Zm-2.438-3.156a3.276,3.276,0,0,0-1.383.794l-1.946-1.166a5.5,5.5,0,0,1,3.329-1.9Zm-1.383,5.518a3.282,3.282,0,0,0,1.383.794v2.274a5.5,5.5,0,0,1-3.329-1.9Zm3.121.807a3.27,3.27,0,0,0,1.412-.789l1.949,1.168a5.494,5.494,0,0,1-3.361,1.891Zm1.412-5.548a3.274,3.274,0,0,0-1.412-.789v-2.27a5.492,5.492,0,0,1,3.361,1.891Zm-3.15-7.716v3.5a6.651,6.651,0,0,0-4.332,2.471l-3-1.8A10.124,10.124,0,0,1,307.894-233.627Zm-9.245,10.1a10.1,10.1,0,0,1,1.021-4.436l3,1.8a6.64,6.64,0,0,0-.544,2.638,6.64,6.64,0,0,0,.544,2.638l-3,1.8A10.1,10.1,0,0,1,298.65-223.531Zm1.915,5.926,3-1.8a6.652,6.652,0,0,0,4.332,2.471v3.5A10.126,10.126,0,0,1,300.565-217.605Zm9.068,4.174v-3.493A6.652,6.652,0,0,0,314-219.382l3,1.8A10.125,10.125,0,0,1,309.632-213.432Zm5.263-7.439a6.637,6.637,0,0,0,.554-2.661,6.637,6.637,0,0,0-.554-2.661l3-1.8a10.1,10.1,0,0,1,1.032,4.458,10.1,10.1,0,0,1-1.032,4.458Z" transform="translate(-294.004 238.303)" fill="#fff"/></svg>