<svg class = 'icon' xmlns="http://www.w3.org/2000/svg" width="31" height="30" viewBox="0 0 31 30">
                    <g id="global" transform="translate(0 -0.434)">
                      <ellipse id="楕円形_1706" data-name="楕円形 1706" cx="15.5" cy="15" rx="15.5" ry="15" transform="translate(0 0.434)" fill="#65696f"/>
                      <path id="パス_5738" data-name="パス 5738" d="M-338.329,511.491c-1.625,1.59-3.689,2.367-5.252,1.75a6.413,6.413,0,0,1-2.626-2.626,9.387,9.387,0,0,1-.7-1.328.7.7,0,0,0-.646-.418h-3.327a7.269,7.269,0,0,1,1.181-4.376,6.3,6.3,0,0,1,3.5-2.626,9.507,9.507,0,0,0-3.5-.875,10.21,10.21,0,0,0-8.753,4.376,10.017,10.017,0,0,0-1.75,6.127c.017.3.057.571.1.842l2.258-.753a2.391,2.391,0,0,1,.557-.117,11.873,11.873,0,0,1,5.848.9,8.445,8.445,0,0,1,2.626,1.75c.7.7,2.169,2.174,1.75,3.5-.372,1.177-2.019,1.6-2.626,1.75a5.356,5.356,0,0,1-2.072.106.925.925,0,0,0-.9.409l-1.234,1.849a.278.278,0,0,0,.078.386l.028.017A11.266,11.266,0,0,0-343.57,522a10.813,10.813,0,0,0,5.252-7.877A10.091,10.091,0,0,0-338.329,511.491Z" transform="translate(364.551 -496.828)" fill="#fff"/>
                    </g>
                  </svg>