<svg xmlns="http://www.w3.org/2000/svg" xmlns:xlink="http://www.w3.org/1999/xlink" width="35" height="34.99" viewBox="0 0 35 34.99">
  <defs>
    <clipPath id="clip-path">
      <path id="SVGID" d="M49.359,122.475l1.416-4.242h3.492a2.317,2.317,0,1,0,0-4.634H34.123A17.494,17.494,0,0,0,60.784,133.2l-8.477-10.731H49.359" transform="translate(-33.319 -113.598)" fill="none"/>
    </clipPath>
  </defs>
  <g id="icon" transform="translate(-526.891 -310.08)">
    <g id="XRS" transform="translate(526.891 310.08)">
      <path id="パス_348" data-name="パス 348" d="M49.359,122.475l1.416-4.242h3.492a2.317,2.317,0,1,0,0-4.634H34.123A17.494,17.494,0,0,0,60.784,133.2l-8.477-10.731H49.359" transform="translate(-33.319 -101.332)" fill="#30bbea"/>
      <path id="パス_349" data-name="パス 349" d="M57.79,106.87a6.788,6.788,0,0,1,2.28,1.381,6.167,6.167,0,0,1,1.5,2.152,7,7,0,0,1,.532,2.763,6.6,6.6,0,0,1-1.008,3.656,6.448,6.448,0,0,1-2.714,2.373l6.858,7.862A17.492,17.492,0,0,0,37.7,105.482q-.345.441-.662.9H54.91a8.242,8.242,0,0,1,2.882.489" transform="translate(-33.959 -98.776)" fill="#f7b52c"/>
      <path id="パス_350" data-name="パス 350" d="M64.759,128.637,57.9,120.775a6.448,6.448,0,0,0,2.714-2.373,6.6,6.6,0,0,0,1.008-3.656,7,7,0,0,0-.532-2.763,6.167,6.167,0,0,0-1.5-2.152,6.787,6.787,0,0,0-2.28-1.381,8.242,8.242,0,0,0-2.882-.489H36.555a17.441,17.441,0,0,0-2.27,4.662H54.429a2.317,2.317,0,0,1,0,4.634H49.7L48.287,121.5h4.183l8.477,10.731a17.568,17.568,0,0,0,3.807-3.6" transform="translate(-33.485 -100.36)" fill="#fff"/>
      <g id="グループ_283" data-name="グループ 283" transform="translate(0 12.266)">
        <g id="Group_5872" data-name="Group 5872">
          <g id="Group_5871" data-name="Group 5871" clip-path="url(#clip-path)">
            <g id="グループ_282" data-name="グループ 282" transform="translate(-8.287 -7.124)">
              <path id="パス_351" data-name="パス 351" d="M23.437,145.173l-.132-.046,13.82-40.137.132.046-13.82,40.137" transform="translate(-23.305 -104.99)" fill="#fff"/>
              <path id="パス_352" data-name="パス 352" d="M29.856,145.173l-.132-.046,13.82-40.137.132.046-13.82,40.137" transform="translate(-24.412 -104.99)" fill="#fff"/>
              <path id="パス_353" data-name="パス 353" d="M36.274,145.173l-.132-.046,13.82-40.137.132.046-13.82,40.137" transform="translate(-25.518 -104.99)" fill="#fff"/>
              <path id="パス_354" data-name="パス 354" d="M42.693,145.173l-.131-.046,13.82-40.137.132.046-13.82,40.137" transform="translate(-26.625 -104.99)" fill="#fff"/>
              <path id="パス_355" data-name="パス 355" d="M49.112,145.173l-.132-.046L62.8,104.99l.132.046-13.82,40.137" transform="translate(-27.732 -104.99)" fill="#fff"/>
              <path id="パス_356" data-name="パス 356" d="M55.531,145.173l-.132-.046,13.82-40.137.132.046-13.82,40.137" transform="translate(-28.839 -104.99)" fill="#fff"/>
              <path id="パス_357" data-name="パス 357" d="M61.95,145.173l-.132-.046,13.82-40.137.132.046L61.95,145.173" transform="translate(-29.946 -104.99)" fill="#fff"/>
              <rect id="長方形_169" data-name="長方形 169" width="27.456" height="0.139" transform="translate(8.296 9.398)" fill="#fff"/>
              <rect id="長方形_170" data-name="長方形 170" width="27.456" height="0.139" transform="translate(8.296 14.71)" fill="#fff"/>
              <rect id="長方形_171" data-name="長方形 171" width="27.456" height="0.139" transform="translate(8.296 20.022)" fill="#fff"/>
              <rect id="長方形_172" data-name="長方形 172" width="27.456" height="0.139" transform="translate(8.296 25.334)" fill="#fff"/>
            </g>
          </g>
        </g>
      </g>
      <rect id="長方形_173" data-name="長方形 173" width="4.869" height="13.172" transform="translate(8.411 13.619)" fill="#fff"/>
    </g>
  </g>
</svg>
