<svg id="XRS" xmlns="http://www.w3.org/2000/svg" xmlns:xlink="http://www.w3.org/1999/xlink" width="30.824" height="30.815" viewBox="0 0 30.824 30.815">
  <defs>
    <clipPath id="clip-path">
      <path id="SVGID" d="M47.445,121.415l1.247-3.736h3.076a2.041,2.041,0,1,0,0-4.081H34.027a15.407,15.407,0,0,0,23.48,17.267l-7.465-9.451h-2.6" transform="translate(-33.319 -113.598)" fill="none"/>
    </clipPath>
  </defs>
  <path id="パス_348" data-name="パス 348" d="M47.445,121.415l1.247-3.736h3.076a2.041,2.041,0,1,0,0-4.081H34.027a15.407,15.407,0,0,0,23.48,17.267l-7.465-9.451h-2.6" transform="translate(-33.319 -102.796)" fill="#30bbea"/>
  <path id="パス_349" data-name="パス 349" d="M55.314,105.9a5.978,5.978,0,0,1,2.008,1.216,5.431,5.431,0,0,1,1.319,1.895,6.168,6.168,0,0,1,.469,2.434,5.808,5.808,0,0,1-.888,3.22,5.679,5.679,0,0,1-2.391,2.09l6.04,6.924a15.405,15.405,0,1,0-24.254-19q-.3.388-.583.8H52.777a7.259,7.259,0,0,1,2.539.431" transform="translate(-34.326 -98.776)" fill="#f7b52c"/>
  <path id="パス_350" data-name="パス 350" d="M61.123,126.17l-6.04-6.924a5.679,5.679,0,0,0,2.391-2.09,5.81,5.81,0,0,0,.888-3.22,6.166,6.166,0,0,0-.469-2.434,5.431,5.431,0,0,0-1.319-1.895,5.978,5.978,0,0,0-2.008-1.216,7.259,7.259,0,0,0-2.539-.431H36.284a15.36,15.36,0,0,0-2,4.105h17.74a2.041,2.041,0,0,1,0,4.081H47.862l-1.246,3.736H50.3l7.465,9.451a15.472,15.472,0,0,0,3.353-3.167" transform="translate(-33.581 -101.267)" fill="#fff"/>
  <g id="グループ_283" data-name="グループ 283" transform="translate(0 10.802)">
    <g id="Group_5872" data-name="Group 5872">
      <g id="Group_5871" data-name="Group 5871" clip-path="url(#clip-path)">
        <g id="グループ_282" data-name="グループ 282" transform="translate(-7.298 -6.274)">
          <path id="パス_351" data-name="パス 351" d="M23.421,140.378l-.116-.04L35.476,104.99l.116.04L23.421,140.378" transform="translate(-23.305 -104.99)" fill="#fff"/>
          <path id="パス_352" data-name="パス 352" d="M29.84,140.378l-.116-.04L41.9,104.99l.116.04L29.84,140.378" transform="translate(-25.046 -104.99)" fill="#fff"/>
          <path id="パス_353" data-name="パス 353" d="M36.258,140.378l-.116-.04L48.313,104.99l.116.04L36.258,140.378" transform="translate(-26.786 -104.99)" fill="#fff"/>
          <path id="パス_354" data-name="パス 354" d="M42.677,140.378l-.115-.04L54.733,104.99l.116.04L42.678,140.378" transform="translate(-28.527 -104.99)" fill="#fff"/>
          <path id="パス_355" data-name="パス 355" d="M49.1,140.378l-.116-.04L61.151,104.99l.116.04L49.1,140.378" transform="translate(-30.267 -104.99)" fill="#fff"/>
          <path id="パス_356" data-name="パス 356" d="M55.515,140.378l-.116-.04L67.57,104.99l.116.04L55.515,140.378" transform="translate(-32.008 -104.99)" fill="#fff"/>
          <path id="パス_357" data-name="パス 357" d="M61.934,140.378l-.116-.04L73.989,104.99l.116.04L61.934,140.378" transform="translate(-33.749 -104.99)" fill="#fff"/>
          <rect id="長方形_169" data-name="長方形 169" width="24.18" height="0.122" transform="translate(7.306 8.277)" fill="#fff"/>
          <rect id="長方形_170" data-name="長方形 170" width="24.18" height="0.122" transform="translate(7.306 12.955)" fill="#fff"/>
          <rect id="長方形_171" data-name="長方形 171" width="24.18" height="0.122" transform="translate(7.306 17.633)" fill="#fff"/>
          <rect id="長方形_172" data-name="長方形 172" width="24.18" height="0.122" transform="translate(7.306 22.312)" fill="#fff"/>
        </g>
      </g>
    </g>
  </g>
  <rect id="長方形_173" data-name="長方形 173" width="4.288" height="11.601" transform="translate(7.408 11.994)" fill="#fff"/>
</svg>
