<svg xmlns="http://www.w3.org/2000/svg" width="31.303" height="23.778" viewBox="0 0 31.303 23.778">
  <g id="Folder_icon" transform="translate(-27.869 -250.975)">
    <path id="Path_5678" data-name="Path 5678" d="M48.461,255.315q6.451,0,12.9,0c.842,0,.88.047.69.869-1.133,4.925-2.278,9.848-3.393,14.776a.993.993,0,0,1-1.142.909q-12.868-.028-25.734-.014c-.9,0-.962-.077-.755-.976,1.129-4.9,2.274-9.8,3.383-14.7a.966.966,0,0,1,1.141-.882C39.856,255.33,44.159,255.315,48.461,255.315Z" transform="translate(-2.977 2.881)" fill="#7ecdfa"/>
    <path id="Path_5679" data-name="Path 5679" d="M30.908,267.461c-.014-.187-.037-.374-.037-.56q0-6.642,0-13.282c0-1.314.85-2.292,1.4-3.382.087-.168.489-.244.744-.245,2.858-.018,5.718-.032,8.574.016a1.535,1.535,0,0,1,.985.62,5.889,5.889,0,0,1,.758,1.478,1.272,1.272,0,0,0,1.4.877c4.5-.028,9-.015,13.507-.015,1.08,0,1.08,0,1.08,1.077,0,1.912,0,1.912-1.918,1.912-7.563,0-15.126.009-22.689-.015-.763,0-1.1.208-1.275,1-.713,3.309-1.5,6.6-2.268,9.9-.049.212-.118.421-.177.632Z" transform="translate(-3 1)" fill="#66b6ea"/>
  </g>
</svg>
