<svg xmlns="http://www.w3.org/2000/svg" width="87.938" height="17.675" viewBox="0 0 87.938 17.675">
  <g id="_05" data-name="05" transform="translate(-566.462 -214.884)">
    <g id="_" data-name="☆" transform="translate(567.947 216.5)">
      <path id="Path_10928" data-name="Path 10928" d="M189.627,1004.974,185.1,1008.4l1.895,5.806-4.806-3.614-4.756,3.614,1.877-5.773-4.554-3.459h5.681l1.77-5.462,1.783,5.462Z" transform="translate(-104.663 -999.512)" fill="none" stroke="#797979" stroke-width="1"/>
      <path id="Path_10927" data-name="Path 10927" d="M180.627,1004.974,176.1,1008.4l1.895,5.806-4.806-3.614-4.756,3.614,1.877-5.773-4.554-3.459h5.681l1.77-5.462,1.783,5.462Z" transform="translate(-113.187 -999.512)" fill="none" stroke="#797979" stroke-width="1"/>
      <path id="Path_10926" data-name="Path 10926" d="M171.627,1004.974,167.1,1008.4l1.895,5.806-4.806-3.614-4.756,3.614,1.877-5.773-4.554-3.459h5.681l1.77-5.462,1.783,5.462Z" transform="translate(-121.712 -999.512)" fill="none" stroke="#797979" stroke-width="1"/>
      <path id="Path_10925" data-name="Path 10925" d="M162.627,1004.974,158.1,1008.4l1.895,5.806-4.806-3.614-4.756,3.614,1.877-5.773-4.554-3.459h5.681l1.77-5.462,1.783,5.462Z" transform="translate(-130.236 -999.512)" fill="none" stroke="#797979" stroke-width="1"/>
      <path id="Path_10924" data-name="Path 10924" d="M153.627,1004.974,149.1,1008.4l1.895,5.806-4.806-3.614-4.756,3.614,1.877-5.773-4.554-3.459h5.681l1.77-5.462,1.783,5.462Z" transform="translate(-138.76 -999.512)" fill="none" stroke="#797979" stroke-width="1"/>
    </g>
    <g id="_2" data-name="★" transform="translate(567.947 216.5)">
      <path id="Path_10924-2" data-name="Path 10924" d="M153.627,1004.974,149.1,1008.4l1.895,5.806-4.806-3.614-4.756,3.614,1.877-5.773-4.554-3.459h5.681l1.77-5.462,1.783,5.462Z" transform="translate(-138.76 -999.512)" fill="#ddd"/>
    </g>
  </g>
</svg>
