<svg xmlns="http://www.w3.org/2000/svg" width="131.173" height="25.152" viewBox="0 0 131.173 25.152">
  <g id="評価点" transform="translate(-566.462 -214.884)">
    <g id="_" data-name="☆" transform="translate(567.947 216.5)">
      <path id="Path_10928" data-name="Path 10928" d="M197.193,1007.753l-6.825,5.17,2.859,8.76-7.252-5.453-7.176,5.453,2.833-8.71-6.872-5.22h8.571l2.67-8.241,2.691,8.241Z" transform="translate(-68.993 -999.512)" fill="none" stroke="#797979" stroke-width="1"/>
      <path id="Path_10927" data-name="Path 10927" d="M188.193,1007.753l-6.825,5.17,2.859,8.76-7.252-5.453-7.176,5.453,2.833-8.71-6.872-5.22h8.571l2.67-8.241,2.691,8.241Z" transform="translate(-86.434 -999.512)" fill="none" stroke="#797979" stroke-width="1"/>
      <path id="Path_10926" data-name="Path 10926" d="M179.193,1007.753l-6.825,5.17,2.859,8.76-7.252-5.453-7.176,5.453,2.833-8.71-6.872-5.22h8.571l2.67-8.241,2.691,8.241Z" transform="translate(-103.878 -999.512)" fill="none" stroke="#797979" stroke-width="1"/>
      <path id="Path_10925" data-name="Path 10925" d="M170.193,1007.753l-6.824,5.17,2.859,8.76-7.252-5.453-7.176,5.453,2.833-8.71-6.872-5.22h8.571l2.67-8.241,2.691,8.241Z" transform="translate(-121.319 -999.512)" fill="none" stroke="#797979" stroke-width="1"/>
      <path id="Path_10924" data-name="Path 10924" d="M161.193,1007.753l-6.825,5.17,2.859,8.76-7.252-5.453-7.176,5.453,2.833-8.71-6.872-5.22h8.571l2.67-8.241,2.691,8.241Z" transform="translate(-138.76 -999.512)" fill="none" stroke="#797979" stroke-width="1"/>
    </g>
    <g id="_2" data-name="★" transform="translate(567.947 216.5)">
      <path id="Path_10927-2" data-name="Path 10927" d="M188.193,1007.753l-6.825,5.17,2.859,8.76-7.252-5.453-7.176,5.453,2.833-8.71-6.872-5.22h8.571l2.67-8.241,2.691,8.241Z" transform="translate(-86.434 -999.512)" fill="#f2f2f2"/>
      <path id="Path_10926-2" data-name="Path 10926" d="M179.193,1007.753l-6.825,5.17,2.859,8.76-7.252-5.453-7.176,5.453,2.833-8.71-6.872-5.22h8.571l2.67-8.241,2.691,8.241Z" transform="translate(-103.878 -999.512)" fill="#f2f2f2"/>
      <path id="Path_10925-2" data-name="Path 10925" d="M170.193,1007.753l-6.824,5.17,2.859,8.76-7.252-5.453-7.176,5.453,2.833-8.71-6.872-5.22h8.571l2.67-8.241,2.691,8.241Z" transform="translate(-121.319 -999.512)" fill="#f2f2f2"/>
      <path id="Path_10924-2" data-name="Path 10924" d="M161.193,1007.753l-6.825,5.17,2.859,8.76-7.252-5.453-7.176,5.453,2.833-8.71-6.872-5.22h8.571l2.67-8.241,2.691,8.241Z" transform="translate(-138.76 -999.512)" fill="#ddd"/>
    </g>
  </g>
</svg>
