<svg xmlns="http://www.w3.org/2000/svg" width="18.179" height="14.747" viewBox="0 0 18.179 14.747">
  <g id="_4563" data-name="4563" transform="translate(0 0)">
    <path id="Path_3471" data-name="Path 3471" d="M127.513,923.585a1.4,1.4,0,0,1-.41,1.58,2.813,2.813,0,0,1-1.738.739,4.027,4.027,0,0,1-.47,0c.286,1.465-.15,2.218-1.312,2.274-.269.013-.392.149-.505.437-.5,1.273-1.019,2.534-1.53,3.8-.151.372-.356.655-.7.426a.762.762,0,0,1-.2-.98c1.469-3.636,2.777-7.394,4.757-10.648a14.254,14.254,0,0,1,1.654-2.158,2.268,2.268,0,0,1,2.37-.794c1.031.288,1.5,1.584,1.141,3.053A2.774,2.774,0,0,1,127.513,923.585Z" transform="translate(-112.508 -918.178)" fill="#a7a7a7"/>
    <rect id="Rectangle_2468" data-name="Rectangle 2468" width="7.178" height="1.118" transform="translate(0 6.519)" fill="#a7a7a7"/>
    <rect id="Rectangle_2469" data-name="Rectangle 2469" width="7.83" height="1.118" transform="translate(0 10.074)" fill="#a7a7a7"/>
    <rect id="Rectangle_2470" data-name="Rectangle 2470" width="8.722" height="1.118" transform="translate(0 13.629)" fill="#a7a7a7"/>
  </g>
</svg>
