<svg xmlns="http://www.w3.org/2000/svg" width="20" height="19.99" viewBox="0 0 20 19.99">
  <g id="_545" data-name="545" transform="translate(-291.594 -678.176)">
    <path id="パス_3608" data-name="パス 3608" d="M305.389,689.581a2.3,2.3,0,1,1-.039,0Z" transform="translate(-3.784 -3.761)" fill="#aaa9a9"/>
    <path id="パス_3609" data-name="パス 3609" d="M300.485,678.176h2.222a1.259,1.259,0,0,1,.559.9c.087.494.215.981.335,1.47a2.817,2.817,0,0,0,1.787.922,1.673,1.673,0,0,0,.224-.134c.478-.293.958-.582,1.433-.879a.768.768,0,0,1,1.045.094q.567.559,1.128,1.128a.771.771,0,0,1,.1,1.046c-.257.415-.491.844-.776,1.239a.864.864,0,0,0-.075,1.078c.139.223.17.508.3.737a.846.846,0,0,0,.415.379,11.889,11.889,0,0,0,1.509.354,1.252,1.252,0,0,1,.906.553v2.221a1.2,1.2,0,0,1-.907.553c-.292.039-.573.159-.865.185a1.224,1.224,0,0,0-1.273,1.084c-.026.169-.157.32-.194.491a.764.764,0,0,0,.018.469c.295.528.623,1.037.938,1.553a.756.756,0,0,1-.067,1.01q-.584.607-1.19,1.192a.737.737,0,0,1-.973.089c-.405-.243-.821-.474-1.206-.749a.93.93,0,0,0-1.193-.112,2.134,2.134,0,0,1-.659.257.551.551,0,0,0-.44.481c-.1.493-.245.975-.328,1.47a1.248,1.248,0,0,1-.558.906H300.48a1.241,1.241,0,0,1-.552-.907c-.084-.494-.224-.98-.335-1.469a2.841,2.841,0,0,0-1.787-.921,1.614,1.614,0,0,0-.191.112c-.49.3-.982.6-1.474.907a.767.767,0,0,1-1.046-.094q-.569-.559-1.129-1.129a.773.773,0,0,1-.1-1.046c.242-.39.46-.8.728-1.164a.927.927,0,0,0,.112-1.192,2.16,2.16,0,0,1-.257-.659.552.552,0,0,0-.482-.442c-.493-.1-.974-.245-1.47-.328a1.244,1.244,0,0,1-.905-.558v-2.22a1.2,1.2,0,0,1,.905-.553c.292-.039.574-.16.866-.186a1.22,1.22,0,0,0,1.273-1.083c.028-.17.159-.321.194-.492a.735.735,0,0,0-.017-.469c-.294-.53-.619-1.041-.938-1.555a.768.768,0,0,1,.094-1.045q.558-.569,1.128-1.129a.771.771,0,0,1,1.047-.1c.4.25.816.48,1.2.752a.885.885,0,0,0,1.117.1c.217-.142.507-.169.737-.3a.839.839,0,0,0,.379-.415,12.141,12.141,0,0,0,.355-1.509A1.248,1.248,0,0,1,300.485,678.176Zm1.1,15.533a5.539,5.539,0,1,0-5.526-5.552h0a5.556,5.556,0,0,0,5.526,5.55Z" transform="translate(0 0)" fill="#aaa9a9"/>
  </g>
</svg>
