<svg xmlns="http://www.w3.org/2000/svg" width="20" height="17.092" viewBox="0 0 26 21.092">
  <g id="_7777" data-name="7777" transform="translate(0 0)">
    <path id="Path_3471" data-name="Path 3471" d="M130.506,925.912a2.006,2.006,0,0,1-.587,2.26,4.024,4.024,0,0,1-2.486,1.057,5.781,5.781,0,0,1-.672,0c.41,2.095-.214,3.173-1.876,3.252-.385.019-.561.214-.723.625-.716,1.82-1.457,3.623-2.189,5.434-.215.533-.51.938-1,.609a1.09,1.09,0,0,1-.285-1.4c2.1-5.2,3.971-10.574,6.8-15.229a20.387,20.387,0,0,1,2.366-3.086,3.243,3.243,0,0,1,3.389-1.136c1.475.412,2.143,2.265,1.633,4.366A3.967,3.967,0,0,1,130.506,925.912Z" transform="translate(-109.045 -918.178)" fill="#a7a7a7"/>
    <rect id="Rectangle_2468" data-name="Rectangle 2468" width="10.266" height="1.599" transform="translate(0 9.324)" fill="#a7a7a7"/>
    <rect id="Rectangle_2469" data-name="Rectangle 2469" width="11.199" height="1.599" transform="translate(0 14.408)" fill="#a7a7a7"/>
    <rect id="Rectangle_2470" data-name="Rectangle 2470" width="12.475" height="1.599" transform="translate(0 19.493)" fill="#a7a7a7"/>
  </g>
</svg>
