<svg xmlns="http://www.w3.org/2000/svg" width="44.945" height="29.874" viewBox="0 0 44.945 29.874">
  <g id="addList-ff" transform="translate(-552.499 -263.198)">
    <g id="list" transform="translate(94.467 -118.641)">
      <path id="パス_10957" data-name="パス 10957" d="M502.149,411.713h-25.73a.828.828,0,0,1-.828-.828h0v-25.73a.828.828,0,0,1,.828-.828h25.73a.828.828,0,0,1,.828.828h0v25.73a.828.828,0,0,1-.828.828Zm-24.3-2.259h22.869V386.585H477.849Z" fill="#fff"/>
      <path id="パス_10958" data-name="パス 10958" d="M490.105,400.742h-7.4a1.114,1.114,0,0,1-1.129-1.094h0a1.113,1.113,0,0,1,1.129-1.094h7.4a1.111,1.111,0,0,1,1.13,1.093h0a1.112,1.112,0,0,1-1.13,1.094Z" fill="#fff"/>
      <path id="パス_10959" data-name="パス 10959" d="M495.7,405.683H482.712a1.115,1.115,0,0,1-1.129-1.094h0a1.113,1.113,0,0,1,1.129-1.094H495.7a1.112,1.112,0,0,1,1.13,1.093h0a1.112,1.112,0,0,1-1.129,1.094Z" fill="#fff"/>
      <g id="Group_7569" data-name="Group 7569">
        <path id="Path_11040" data-name="Path 11040" d="M486.066,395.3a7.734,7.734,0,0,0-1.134-.056h-2.368c-.447,0-.727.008-1.015.024a6.35,6.35,0,0,0,.064-1.056v-4.15a7.8,7.8,0,0,0-.064-1.183h1.208a7.273,7.273,0,0,0-.065,1.176v4.221h2.24a8.62,8.62,0,0,0,1.134-.055Z" fill="#fff"/>
        <path id="Path_11041" data-name="Path 11041" d="M487.8,388.881V389.9h-1.175v-1.016Zm-.008,1.775a7.19,7.19,0,0,0-.056,1.048V394.2a8.035,8.035,0,0,0,.056,1.048h-1.167a7.184,7.184,0,0,0,.064-1.039V391.7a6.575,6.575,0,0,0-.064-1.04Z" fill="#fff"/>
        <path id="Path_11042" data-name="Path 11042" d="M489.685,393.807c.135.544.431.759,1.054.759.592,0,.96-.232.96-.608a.487.487,0,0,0-.208-.4c-.152-.1-.2-.112-.84-.256a4.841,4.841,0,0,1-1.151-.344,1.146,1.146,0,0,1-.7-1.063,1.19,1.19,0,0,1,.248-.744,1.926,1.926,0,0,1,1.6-.624,2.177,2.177,0,0,1,1.5.464,1.55,1.55,0,0,1,.432.792l-1.055.136c-.087-.44-.36-.632-.879-.632-.5,0-.831.224-.831.56a.43.43,0,0,0,.247.376,3.386,3.386,0,0,0,.8.239,3.439,3.439,0,0,1,1.408.488,1.138,1.138,0,0,1,.463.991,1.288,1.288,0,0,1-.391.9,2.361,2.361,0,0,1-1.655.52,2.113,2.113,0,0,1-1.784-.712,1.814,1.814,0,0,1-.311-.712Z" fill="#fff"/>
        <path id="Path_11043" data-name="Path 11043" d="M495.212,389.425a8.845,8.845,0,0,0-.056.984v.247h.336a4.59,4.59,0,0,0,.807-.048v.944a4.4,4.4,0,0,0-.783-.048h-.36v2.478c0,.393.144.536.528.536a1.05,1.05,0,0,0,.584-.176l.143.848a2.5,2.5,0,0,1-1,.168c-.92,0-1.287-.328-1.287-1.168V391.5h-.3a4.027,4.027,0,0,0-.711.048v-.944a3.674,3.674,0,0,0,.72.048h.3v-.247a8.922,8.922,0,0,0-.057-.984Z" fill="#fff"/>
      </g>
    </g>
    <path id="Path_10763" data-name="Path 10763" d="M895.769,716.247a10.6,10.6,0,1,0,10.6,10.6A10.6,10.6,0,0,0,895.769,716.247Zm5.675,11.718h-4.556v4.556a1.085,1.085,0,0,1-2.171,0v-4.556h-4.555a1.085,1.085,0,1,1,0-2.169h4.555V721.24a1.085,1.085,0,0,1,2.171,0V725.8h4.556a1.085,1.085,0,1,1,0,2.169Z" transform="translate(-332.67 -453.049)" fill="#fff"/>
  </g>
</svg>
