<svg xmlns="http://www.w3.org/2000/svg" width="19" height="19" viewBox="0 0 19 19">
  <g id="注意icon" transform="translate(-125.588 -436.527)">
    <g id="Ellipse_1830" data-name="Ellipse 1830" transform="translate(125.588 436.527)" fill="none" stroke="red" stroke-width="1">
      <circle cx="9.5" cy="9.5" r="9.5" stroke="none"/>
      <circle cx="9.5" cy="9.5" r="9" fill="none"/>
    </g>
    <g id="Group_5465" data-name="Group 5465" transform="translate(133.738 441.185)">
      <path id="Path_6004" data-name="Path 6004" d="M137.082,443.25c-.281,1.887-.512,3.6-.815,5.3-.043.239-.461.6-.666.572a.964.964,0,0,1-.625-.653c-.3-1.656-.575-3.321-.755-4.993a1.339,1.339,0,0,1,1.4-1.6A1.361,1.361,0,0,1,137.082,443.25Z" transform="translate(-134.208 -441.868)" fill="red"/>
      <circle id="Ellipse_1720" data-name="Ellipse 1720" cx="1.009" cy="1.009" r="1.009" transform="translate(0.428 7.904)" fill="red"/>
    </g>
  </g>
</svg>
