<svg xmlns="http://www.w3.org/2000/svg" width="34.549" height="34.549" viewBox="0 0 34.549 34.549">
  <g id="Group_6754" data-name="Group 6754" transform="translate(111.477 117.5)">
    <circle id="Ellipse_1792" data-name="Ellipse 1792" cx="16.775" cy="16.775" r="16.775" transform="translate(-110.977 -117)" fill="none" stroke="#7c7c7c" stroke-miterlimit="10" stroke-width="1"/>
    <g id="Group_6752" data-name="Group 6752" transform="translate(-103.173 -100.198)" style="isolation: isolate">
      <path id="Path_10771" data-name="Path 10771" d="M-87.221-67.953a4.532,4.532,0,0,0-.138-.616l-.18-.564h-1.6l-.18.564a3.133,3.133,0,0,0-.143.616h-1.049a5.684,5.684,0,0,0,.27-.7l1.156-3.425a4.756,4.756,0,0,0,.169-.6h1.14a4.177,4.177,0,0,0,.18.6l1.166,3.425c.1.3.2.552.26.7ZM-88.265-71.6c-.016-.052-.037-.11-.079-.267-.032.122-.037.151-.074.267l-.5,1.645h1.156Z" transform="translate(90.512 72.779)" fill="#7c7c7c"/>
      <path id="Path_10772" data-name="Path 10772" d="M-73.581-72.68a5.777,5.777,0,0,0-.042.831v2.035a1.758,1.758,0,0,1-1.892,1.971,1.837,1.837,0,0,1-1.447-.558,2.133,2.133,0,0,1-.429-1.419v-2.023a5.648,5.648,0,0,0-.043-.837h.959a5.462,5.462,0,0,0-.042.837v2.023a1.286,1.286,0,0,0,.212.814.949.949,0,0,0,.8.332.952.952,0,0,0,.827-.372,1.372,1.372,0,0,0,.18-.773v-2.023a5.608,5.608,0,0,0-.042-.837Z" transform="translate(82.421 72.779)" fill="#7c7c7c"/>
      <path id="Path_10773" data-name="Path 10773" d="M-63.229-68.834a6.15,6.15,0,0,0,.042.814h-.975a6.1,6.1,0,0,0,.042-.814v-3.058h-.673a5.5,5.5,0,0,0-.758.041v-.936a5.515,5.515,0,0,0,.753.041h2.2a5.714,5.714,0,0,0,.8-.041v.936a5.615,5.615,0,0,0-.8-.041h-.636Z" transform="translate(75.07 72.845)" fill="#7c7c7c"/>
      <path id="Path_10774" data-name="Path 10774" d="M-50.747-72.335a2.687,2.687,0,0,1,.609,1.843c0,1.5-.816,2.483-2.057,2.483s-2.056-.971-2.056-2.476.805-2.454,2.056-2.454A1.848,1.848,0,0,1-50.747-72.335Zm-.3,1.849a1.889,1.889,0,0,0-.392-1.291.989.989,0,0,0-.753-.326c-.7,0-1.15.622-1.15,1.6,0,1.012.445,1.645,1.155,1.645S-51.049-69.474-51.049-70.485Z" transform="translate(68.078 72.939)" fill="#7c7c7c"/>
    </g>
    <g id="Group_6753" data-name="Group 6753" transform="translate(-101.029 -94.385)" style="isolation: isolate">
      <path id="Path_10775" data-name="Path 10775" d="M-83.447-53.954a3.119,3.119,0,0,0-.171-.615l-.485-1.356c-.048-.135-.1-.336-.186-.663.024.423.032.6.032.707v1.269a4.744,4.744,0,0,0,.032.659h-.664a4.835,4.835,0,0,0,.032-.659v-2.224a5.117,5.117,0,0,0-.032-.663h.882a3.163,3.163,0,0,0,.147.562l.707,2.033.7-2.033A2.835,2.835,0,0,0-82.3-57.5h.882a5.283,5.283,0,0,0-.032.663v2.224a4.47,4.47,0,0,0,.032.659h-.664a4.876,4.876,0,0,0,.032-.659v-1.282c0-.1.008-.279.032-.694-.02.083-.02.083-.064.275-.02.074-.087.31-.111.375l-.5,1.374a3.879,3.879,0,0,0-.171.611Z" transform="translate(84.89 57.574)" fill="#7c7c7c"/>
      <path id="Path_10776" data-name="Path 10776" d="M-71.548-57.241a2.014,2.014,0,0,1,.457,1.382c0,1.125-.612,1.862-1.541,1.862s-1.542-.728-1.542-1.858.6-1.841,1.542-1.841A1.384,1.384,0,0,1-71.548-57.241Zm-.227,1.387a1.418,1.418,0,0,0-.294-.968.741.741,0,0,0-.564-.244c-.529,0-.862.467-.862,1.2,0,.759.334,1.234.866,1.234S-71.774-55.1-71.774-55.854Z" transform="translate(78.26 57.695)" fill="#7c7c7c"/>
      <path id="Path_10777" data-name="Path 10777" d="M-64.412-56.933a3.744,3.744,0,0,0-.036-.6c.159.009.258.013.544.013h.775a1.434,1.434,0,0,1,1.109.405,1.9,1.9,0,0,1,.441,1.335,1.99,1.99,0,0,1-.465,1.4,1.4,1.4,0,0,1-1.08.405H-63.9c-.27,0-.378,0-.54.013a4.153,4.153,0,0,0,.032-.6Zm1.236,2.325a.78.78,0,0,0,.644-.253,1.366,1.366,0,0,0,.274-.907,1.279,1.279,0,0,0-.254-.877.809.809,0,0,0-.667-.244h-.576v2.281Z" transform="translate(72.243 57.596)" fill="#7c7c7c"/>
      <path id="Path_10778" data-name="Path 10778" d="M-52.929-53.973A3.585,3.585,0,0,0-53.481-54h-1.271c-.27,0-.381,0-.545.013a4.1,4.1,0,0,0,.032-.606v-2.369a4.528,4.528,0,0,0-.032-.6c.163.009.267.013.541.013h1.232a4.568,4.568,0,0,0,.552-.031v.689a3.835,3.835,0,0,0-.552-.031h-1.085v.781h.906a4.361,4.361,0,0,0,.556-.031v.68a3.816,3.816,0,0,0-.556-.031h-.91v.885h1.136a3.879,3.879,0,0,0,.548-.031Z" transform="translate(66.582 57.624)" fill="#7c7c7c"/>
    </g>
    <path id="Path_10779" data-name="Path 10779" d="M-82.345-99.349c3.562,0,6.649,1.457,8.137,3.571a.7.7,0,0,0,.867.247l.043-.02a.7.7,0,0,0,.278-1.038c-1.766-2.5-5.282-4.213-9.325-4.213-4.1,0-7.658,1.759-9.4,4.32a.7.7,0,0,0,.3,1.026l.043.019a.7.7,0,0,0,.86-.262C-89.072-97.856-85.951-99.349-82.345-99.349Z" transform="translate(-11.825 -10.021)" fill="#7c7c7c"/>
    <path id="Path_10780" data-name="Path 10780" d="M-77.35-91.806a6.925,6.925,0,0,1,5.116,2.152.731.731,0,0,0,.843.179h0a.728.728,0,0,0,.228-1.157,8.37,8.37,0,0,0-6.186-2.627A8.369,8.369,0,0,0-83.566-90.6a.728.728,0,0,0,.244,1.16h0a.73.73,0,0,0,.831-.188A6.921,6.921,0,0,1-77.35-91.806Z" transform="translate(-16.839 -14.688)" fill="#7c7c7c"/>
    <path id="Path_10781" data-name="Path 10781" d="M-72.366-84.421a3.429,3.429,0,0,1,2.123.769.731.731,0,0,0,.754.1h0a.719.719,0,0,0,.161-1.211,4.856,4.856,0,0,0-3.041-1.108,4.87,4.87,0,0,0-3.1,1.16.72.72,0,0,0,.182,1.212h0a.73.73,0,0,0,.747-.109A3.446,3.446,0,0,1-72.366-84.421Z" transform="translate(-21.808 -19.256)" fill="#7c7c7c"/>
  </g>
</svg>
