<svg xmlns="http://www.w3.org/2000/svg" width="20.147" height="10.428" viewBox="0 0 36.147 26.428">
  <g id="bank-ic89" transform="translate(102 935)">
    <path id="Path_11045" data-name="Path 11045" d="M-102-935v23.486a2.941,2.941,0,0,0,2.941,2.941h30.265a2.941,2.941,0,0,0,2.941-2.941V-935Zm34.139,14.539h-1.848v2.169h1.848v6.394a1.358,1.358,0,0,1-1.358,1.358H-98.634a1.358,1.358,0,0,1-1.358-1.358v-6.394h13.254v-2.169H-99.992v-10.2h32.131Z" fill="#f2f2f2"/>
    <g id="Group_7587" data-name="Group 7587" transform="translate(-97.833 -928.452)">
      <path id="Path_11046" data-name="Path 11046" d="M-75.39-890.285c-.324,0-.467,0-.673.014a4.282,4.282,0,0,0,.039-.684v-2.634a4.662,4.662,0,0,0-.039-.655c.245.015.3.015.668.015h1.223c.781,0,1.223.349,1.223.975a.866.866,0,0,1-.28.694.956.956,0,0,1-.368.2,1.036,1.036,0,0,1,.476.228.957.957,0,0,1,.309.757c0,.7-.466,1.087-1.306,1.087Zm1.11-2.377c.324,0,.516-.175.516-.456s-.182-.441-.521-.441h-.933v.9Zm-.938,1.7h.977c.373,0,.589-.194.589-.529s-.216-.519-.6-.519h-.967Z" transform="translate(76.063 894.244)" fill="#f2f2f2"/>
      <path id="Path_11047" data-name="Path 11047" d="M-51.127-890.209a3.449,3.449,0,0,0-.128-.514l-.167-.471H-52.9l-.167.471a2.41,2.41,0,0,0-.133.514h-.972a4.5,4.5,0,0,0,.25-.582l1.07-2.857a3.681,3.681,0,0,0,.157-.5h1.056a3.235,3.235,0,0,0,.167.5l1.08,2.857c.093.247.182.461.241.582Zm-.967-3.042c-.015-.044-.035-.092-.074-.223-.029.1-.034.126-.069.223l-.462,1.373h1.071Z" transform="translate(57.692 894.168)" fill="#f2f2f2"/>
      <path id="Path_11048" data-name="Path 11048" d="M-24.455-891.931a5.967,5.967,0,0,1,.334.553c-.015-.17-.03-.427-.03-.606v-1.47a3.936,3.936,0,0,0-.044-.7h.879a4.608,4.608,0,0,0-.04.7v2.566a4.2,4.2,0,0,0,.04.674h-.923a4.646,4.646,0,0,0-.334-.568l-1.129-1.659a5.447,5.447,0,0,1-.314-.543l.02.228c0,.082.015.286.015.383v1.417a4.892,4.892,0,0,0,.039.742h-.874a4.745,4.745,0,0,0,.039-.747v-2.523a4.676,4.676,0,0,0-.039-.674h.913a2.649,2.649,0,0,0,.319.558Z" transform="translate(34.729 894.168)" fill="#f2f2f2"/>
      <path id="Path_11049" data-name="Path 11049" d="M2.176-890.874a6.118,6.118,0,0,0,.506.665H1.6a4.776,4.776,0,0,0-.324-.558L.4-892.057l-.511.5v.674a3.891,3.891,0,0,0,.044.67H-.957a4.716,4.716,0,0,0,.039-.67v-2.6a4.585,4.585,0,0,0-.039-.669h.889a4.076,4.076,0,0,0-.044.669v1L1-893.649a2.665,2.665,0,0,0,.4-.5H2.524c-.128.121-.368.364-.525.524L.958-892.567Z" transform="translate(13.023 894.168)" fill="#f2f2f2"/>
    </g>
    <g id="Group_7588" data-name="Group 7588" transform="translate(-85.74 -925.451)">
      <path id="Path_11050" data-name="Path 11050" d="M-.79-851.475l4.224,2.356v-8.632L-.79-860Z" transform="translate(0.79 862.5)" fill="#f2f2f2"/>
      <path id="Path_11051" data-name="Path 11051" d="M34-861.409l4.1-4.209v-8.642L34-869.835Z" transform="translate(-28.411 874.469)" fill="#f2f2f2"/>
      <path id="Path_11052" data-name="Path 11052" d="M68-875.562v8.481l4.1,1.49v-8.527Z" transform="translate(-56.948 875.562)" fill="#f2f2f2"/>
    </g>
  </g>
</svg>
