<svg xmlns="http://www.w3.org/2000/svg" width="29.977" height="24.287" viewBox="0 0 29.977 24.287">
  <g id="boing737" transform="translate(-444.548 -615.06)">
    <g id="Group_6596" data-name="Group 6596" transform="translate(444.548 615.06)">
      <path id="Path_10625" data-name="Path 10625" d="M643-164.211l5.147,3.494L643-156.732Z" transform="translate(-635.825 181.019)" fill="#909090"/>
      <path id="Path_10626" data-name="Path 10626" d="M654.318-207.918l-10.328,24.1c-3.583-2.6-6.442-4.594-10.053-7.212,5.761-4.43,10.8-9.382,16.516-13.773l-.071-.12c-.2.121-.4.238-.594.363q-8.8,5.625-17.587,11.262a1.012,1.012,0,0,1-1.372-.041c-1.955-1.468-3.949-2.883-5.928-4.319-.156-.113-.305-.236-.56-.432Z" transform="translate(-624.341 207.918)" fill="#909090"/>
    </g>
  </g>
</svg>
