<svg xmlns="http://www.w3.org/2000/svg" width="25.705" height="24.88" viewBox="0 0 25.705 24.88">
  <path id="building" d="M-133.441,1222.444l-6.769-4.139-.046-6.094-6.974-5.458-3.214,5.509v3.238l-2.292-1.545-3.219,4.75v3.262l-3.046,2.755v6.909h25.705Zm-25.088,2.488,2.81-2.542v8.77h-2.81Zm3.046-6.083,2.81-4.147v8.629l-2.81-1.161Zm4.55,5.2-.58-.24v-7.187l.58.345Zm-3.626-.461.581.241v7.332h-.581Zm1.015.422.58.241v6.909h-.58Zm1.015.422.58.241v6.487h-.58Zm1.015.422.58.241v6.065h-.58Zm1.015.422.29.12.29.121v5.643h-.58Zm1.451-.449-1.451-.6v-7l.29.172v-1.171l.236.159v-4l2.81-4.816v23.587h-1.879Zm3.19-14.992.58.448v20.876h-.58Zm1.015.784.58.448v20.092h-.58Zm1.015.784.58.448v9.722l.435-.539v-8.847l.581.448v7.681l.435-.539v-6.806l.58.448v5.64l.535-.662v.188l.044.024v12.55h-3.19Zm4.351,8.844.58.344v10.568h-.58Zm1.015.6.581.345v9.964h-.581Zm1.015.6.58.345v9.361h-.58Zm1.015.6.58.345v8.758h-.58Zm1.015.6.58.344v8.155h-.58Z" transform="translate(159 -1206.753)" fill="#f2f2f2"/>
</svg>
