<svg xmlns="http://www.w3.org/2000/svg" width="19.76" height="13.968" viewBox="0 0 19.76 13.968">
  <g id="camera__icon" data-name="camera_ icon" transform="translate(-7.169 -10.94)" opacity="0.996">
    <path id="Path_5095" data-name="Path 5095" d="M906.617,160.168H890.227a1.7,1.7,0,0,0-1.685,1.709v10.551a1.7,1.7,0,0,0,1.685,1.708h16.391a1.7,1.7,0,0,0,1.685-1.708V161.877A1.7,1.7,0,0,0,906.617,160.168Zm-10.058,12.22a4.727,4.727,0,1,1,4.661-4.726A4.7,4.7,0,0,1,896.559,172.388Zm9.377-7.563H903.85v-2.117h2.086Z" transform="translate(-881.373 -149.228)" fill="#2fcba7"/>
    <ellipse id="Ellipse_1575" data-name="Ellipse 1575" cx="2.744" cy="2.782" rx="2.744" ry="2.782" transform="translate(12.441 15.651)" fill="#2fcba7"/>
  </g>
</svg>
