<svg xmlns="http://www.w3.org/2000/svg" xmlns:xlink="http://www.w3.org/1999/xlink" width="198.072" height="67.917" viewBox="0 0 198.072 67.917">
  <defs>
    <clipPath id="clip-path">
      <rect id="Rectangle_6329" data-name="Rectangle 6329" width="198.072" height="67.917" fill="#0dc68f"/>
    </clipPath>
  </defs>
  <g id="capcha" transform="translate(0 0)">
    <g id="Group_7834" data-name="Group 7834" transform="translate(0 0)" clip-path="url(#clip-path)">
      <path id="Path_11642" data-name="Path 11642" d="M12.257.708A48.12,48.12,0,0,0,0,4.138L2.406,9.748a41.98,41.98,0,0,1,10.7-3c6.794-.957,9.565-.634,10.649-.32a35.88,35.88,0,0,1-3.2,3.756,64.567,64.567,0,0,0-4.339,5.017c-6.663,8.825-9.18,21.141-7.486,36.605l6.069-.665c-1.52-13.866.595-24.721,6.288-32.263a59.265,59.265,0,0,1,3.939-4.54c3.278-3.528,6.372-6.86,4.654-10.53C27.531-.77,20.037-.386,12.257.708" transform="translate(0 0)" fill="#0dc68f"/>
      <path id="Path_11643" data-name="Path 11643" d="M56.952,42.075a88.182,88.182,0,0,1-1.386-11.511c-.139-2.81-.139-5.642,0-8.419l-5.362-.269a28.743,28.743,0,0,0-3.4-3.135c-3.3-2.58-8.3-6.476-13.707-4.6-6,2.079-7.322,9.583-7.526,11.065-.866,6.278,2.631,11.01,4.945,14.14l.1.131c5.4,7.3,10.546,10.985,15.348,10.985a9.308,9.308,0,0,0,2.805-.432,9.591,9.591,0,0,0,3-1.608c.183,1.394.344,2.876.464,4.552a81.677,81.677,0,0,1,0,11.5l6.089.425a87.661,87.661,0,0,0,0-12.368,100.22,100.22,0,0,0-1.365-10.461m-10.007,2.13c-1.282.4-4.962.382-11.423-8.359l-.1-.128c-2.03-2.748-4.331-5.862-3.806-9.68.247-1.788,1.29-5.371,3.479-6.13,2.263-.787,5.555,1.775,7.956,3.648a23.072,23.072,0,0,1,6.458,8.006,85.016,85.016,0,0,0,.931,8.569c-1.371,3.148-3,3.919-3.5,4.074" transform="translate(5.616 3.013)" fill="#0dc68f"/>
      <path id="Path_11644" data-name="Path 11644" d="M82.409,35.961c.28-3.391.541-6.595-2.122-9.109-4.8-4.528-13.545-1.211-16.42-.118A26.573,26.573,0,0,0,61,28.028c.225-.627.465-1.251.734-1.865l-5.6-2.434a35.972,35.972,0,0,0-2.442,8.08C51.423,44.647,56.869,55.6,60.316,60.983l5.141-3.292c-2.615-4.082-6.562-11.854-6.164-21.028a20.988,20.988,0,0,1,6.741-4.223c7.658-2.908,9.725-1.466,10.063-1.148.48.452.437,1.618.229,4.171a41.78,41.78,0,0,0,.228,10.775,39.242,39.242,0,0,0,3.911,11.748l5.425-2.8a33.136,33.136,0,0,1-3.311-9.919,36.07,36.07,0,0,1-.172-9.3" transform="translate(11.736 5.238)" fill="#0dc68f"/>
      <path id="Path_11645" data-name="Path 11645" d="M103.2,16.752c-3.577-1.437-7.77-.585-12.452,2.526-6.922,4.6-11.87,14.581-8.173,23.334,2.222,5.262,7.641,10.374,13.718,10.374a10.653,10.653,0,0,0,1.578-.117c3.761-.558,8.857-3.325,11.768-13.344,2.2-7.583,1.19-19.717-6.44-22.772m.579,21.069c-2.009,6.911-4.807,8.715-6.8,9.011-3.5.5-7.27-3.023-8.78-6.595-2.432-5.758,1.184-12.724,5.928-15.875,2.522-1.675,4.295-2.175,5.511-2.175a3.432,3.432,0,0,1,1.3.231h0c3.532,1.414,4.517,9.65,2.847,15.4" transform="translate(17.953 3.549)" fill="#0dc68f"/>
      <path id="Path_11646" data-name="Path 11646" d="M128.127,13.3c-4.578-.929-9.346,1.849-10.914,2.763-.509.3-1,.623-1.482.962a67.478,67.478,0,0,1,2.507-13.106l-5.851-1.738a73.544,73.544,0,0,0,1.254,45.746l5.749-2.053c-.382-1.069-.728-2.147-1.055-3.23a26.137,26.137,0,0,0,12.009,3.552,10.288,10.288,0,0,0,6.685-2.1c3.55-2.925,4.612-8.9,2.842-15.986-1.51-6.043-5.492-13.546-11.744-14.809m5.02,26.087c-2.04,1.677-9.091.669-16.8-5.325a67.183,67.183,0,0,1-.844-8.27,15.372,15.372,0,0,1,4.789-4.457c3.572-2.083,5.575-2.269,6.629-2.053,2.675.542,5.7,4.972,7.032,10.308,1.243,4.972.537,8.692-.8,9.8" transform="translate(24.14 0.481)" fill="#0dc68f"/>
      <path id="Path_11647" data-name="Path 11647" d="M163.826,29.639c-5.055-7.143-14.568-12.053-20.675-7.981-2.283,1.524-4.678,3.6-5.136,7.494-2.12,17.932,5.744,24.515,10.622,26.845a19.415,19.415,0,0,0,8.029,2.193,9,9,0,0,0,4.892-1.338c2.78-1.763,4.8-5.177,5.672-9.615a23.486,23.486,0,0,0-3.4-17.6m-2.584,16.415c-.526,2.66-1.655,4.821-2.951,5.641-.884.557-2.816.8-7.026-1.207-7.929-3.787-7.908-14.543-7.192-20.62.148-1.238.721-1.97,2.464-3.131,2.368-1.585,8.516,1.076,12.307,6.429,2.849,4.026,3.107,9.3,2.4,12.889" transform="translate(30.393 4.456)" fill="#0dc68f"/>
    </g>
  </g>
</svg>
