<svg xmlns="http://www.w3.org/2000/svg" width="26.939" height="20.789" viewBox="0 0 26.939 20.789">
  <g id="chatbot" transform="translate(-217.448 -1271.585)">
    <g id="Group_6710" data-name="Group 6710" transform="translate(217.448 1271.585)">
      <path id="Path_10694" data-name="Path 10694" d="M194.672-127.735v-8.483a1.778,1.778,0,0,0-1.763-1.789h-9.8v6.783a2.1,2.1,0,0,1-2.082,2.116h-.835v1.377a1.778,1.778,0,0,0,1.763,1.79h3.682l7.641,4.654-2.923-4.654h2.556a1.778,1.778,0,0,0,1.767-1.788h0Zm-7.032-1.727-.147-.977h-1.038l-.146.977h-.777l.862-5.384h1.238l.861,5.384Z" transform="translate(-167.737 142.076)" fill="#909090"/>
      <path id="Path_10695" data-name="Path 10695" d="M180.06-130.179h0a1.684,1.684,0,0,0,1.638-1.353,1.615,1.615,0,0,0,.032-.336v-8.673a1.619,1.619,0,0,0-.064-.445,1.668,1.668,0,0,0-1.607-1.251H168.917a1.685,1.685,0,0,0-1.672,1.7v8.671a1.689,1.689,0,0,0,1.212,1.622,1.623,1.623,0,0,0,.46.073h2.672l-.684.907-2.619,3.477,6.334-3.477,1.488-.907H179.7v0Zm-4.539-3.141h-.115a.743.743,0,0,1-.731-.369,1.735,1.735,0,0,1-.592.1,1.194,1.194,0,0,1-1.284-1.354v-2.8a1.194,1.194,0,0,1,1.284-1.353,1.194,1.194,0,0,1,1.283,1.353v2.8a1.583,1.583,0,0,1-.161.754c.038.1.1.116.239.116h.077Z" transform="translate(-167.245 142.237)" fill="#909090"/>
    </g>
    <path id="Path_10696" data-name="Path 10696" d="M186.814-131.007l.408-2.722.408,2.722Z" transform="translate(49.459 1413.499)" fill="#909090"/>
    <path id="Path_10697" data-name="Path 10697" d="M174.336-138.172c-.27,0-.44.146-.44.53v2.908c0,.384.169.531.44.531s.439-.147.439-.531v-2.908C174.774-138.026,174.6-138.172,174.336-138.172Z" transform="translate(49.95 1413.668)" fill="#909090"/>
  </g>
</svg>
