<svg xmlns="http://www.w3.org/2000/svg" width="23.781" height="23.781" viewBox="0 0 23.781 23.781">
  <g id="clear_icon" transform="translate(-1.5 95.5)">
    <path id="Path_11027" data-name="Path 11027" d="M13.391-71.719A11.9,11.9,0,0,1,1.5-83.609,11.9,11.9,0,0,1,13.391-95.5,11.9,11.9,0,0,1,25.281-83.609,11.9,11.9,0,0,1,13.391-71.719Zm0-22.6A10.721,10.721,0,0,0,2.681-83.609,10.721,10.721,0,0,0,13.391-72.9,10.721,10.721,0,0,0,24.1-83.609,10.721,10.721,0,0,0,13.391-94.319Z" fill="white"/>
    <g id="Group_7565" data-name="Group 7565" transform="translate(6.827 -90.322)">
      <path id="Path_11028" data-name="Path 11028" d="M37.925-74.086l-5.959-4.6L30.049-77.2l5.19,5.19Z" transform="translate(-25.318 79.431)" fill="white"/>
      <path id="Path_11029" data-name="Path 11029" d="M48.707-57.076l.75-.593-.732-.927-.859.679Z" transform="translate(-36.857 66.42)" fill="white"/>
      <path id="Path_11030" data-name="Path 11030" d="M30.024-68.235,25.6-72.66l-5.19-5.19L17.454-80.8l-.835.835,2.846,2.846-2.207,1.7,5.959,4.6,1.439-1.11,1.106,1.106-2.415,1.908-5.175-4.063-.729.929,5.907,4.637L26.6-69.986,29.188-67.4Z" transform="translate(-16.619 80.804)" fill="white"/>
    </g>
  </g>
</svg>