<svg id="Clock_icon" xmlns="http://www.w3.org/2000/svg" width="24.792" height="24.778" viewBox="0 0 24.792 24.778">
  <path id="Path_11597" data-name="Path 11597" d="M814.062,1065.335a12.361,12.361,0,0,1,17.6-.142,11.747,11.747,0,0,1,3.538,7.072,12.092,12.092,0,0,1-3.52,10.469,11.745,11.745,0,0,1-7.034,3.508,12.135,12.135,0,0,1-10.473-3.513,11.622,11.622,0,0,1-2.631-3.836,12.362,12.362,0,0,1-.851-6.9A11.985,11.985,0,0,1,814.062,1065.335Zm1.964,1.7a9.76,9.76,0,0,0-.037,13.84,9.534,9.534,0,0,0,8.76,2.722,9.427,9.427,0,0,0,5.133-2.72,9.793,9.793,0,0,0-13.857-13.843Z" transform="translate(-810.529 -1061.581)" fill="#797979"/>
  <path id="Path_11599" data-name="Path 11599" d="M848.2,1100.495a1.908,1.908,0,0,1-1.364.5,2.112,2.112,0,0,1-.895-.3,1.619,1.619,0,0,1-.617-.747,1.408,1.408,0,0,1-.135-.764.278.278,0,0,0-.066-.191c-.308-.333-.626-.658-.937-.989q-1.215-1.3-2.425-2.6c-.277-.3-.549-.6-.81-.919a.618.618,0,0,1,.006-.875.655.655,0,0,1,.6-.14,1.248,1.248,0,0,1,.481.308c.345.338.7.671,1.049,1,1.007.943,2.018,1.881,3.024,2.826.1.1.193.027.273,0a1.751,1.751,0,0,1,1.089-.007.2.2,0,0,0,.161-.039c.334-.3.661-.608.994-.91.672-.608,1.33-1.234,2.028-1.81a.611.611,0,0,1,1.013.218.517.517,0,0,1-.077.573c-.189.244-.384.485-.592.713-.43.473-.874.934-1.306,1.406-.335.366-.667.735-.984,1.116a.488.488,0,0,0-.039.307,1.569,1.569,0,0,1-.268,1.018C848.328,1100.3,848.257,1100.41,848.2,1100.495Z" transform="translate(-834.527 -1086.872)" fill="#797979"/>
</svg>
