<svg xmlns="http://www.w3.org/2000/svg" width="27.483" height="31.9" viewBox="0 0 27.483 31.9">
  <g id="会社" transform="translate(-64.24 -157.865)">
    <path id="Path_10894" data-name="Path 10894" d="M91.222,187.614l-9.193,1.647L64.74,187.751V162.367l17.289-3.979,9.193,3.7Z" transform="translate(0 0)" fill="#777" stroke="#777" stroke-width="1"/>
    <path id="Path_10895" data-name="Path 10895" d="M80.176,161.225,67.14,164.518v21.406l4.185.352v-4.537h3.293v4.814l5.557.469ZM69.884,179.2H68.1v-2.607l1.783-.138Zm0-5.625-1.783.137V171.1l1.783-.274Zm0-5.489-1.783.274v-2.744l1.783-.412Zm4.323,10.977H71.943v-2.744l2.264-.138Zm0-5.9-2.264.138v-2.882l2.264-.274Zm0-5.9-2.264.411v-2.881l2.264-.549Zm2.263,11.663v-3.019l2.608-.137.069,3.155Zm0-5.9v-3.156l2.608-.411.069,3.293Zm0-6.175v-3.156l2.608-.549.069,3.293Z" transform="translate(-0.137 -0.162)" fill="#f7f7f7"/>
  </g>
</svg>
