<svg xmlns="http://www.w3.org/2000/svg" width="26.913" height="27.413" viewBox="0 0 26.913 27.413">
  <g id="カレンダー" transform="translate(-876.088 -458)">
    <path id="Path_10737" data-name="Path 10737" d="M899.719,485.413H879.367a1.531,1.531,0,0,0-.27-.119,3.7,3.7,0,0,1-3.006-3.747q-.006-8.952,0-17.9a3.489,3.489,0,0,1,2.508-3.434,22.142,22.142,0,0,1,3.444-.337,16.292,16.292,0,0,0,.174,2.293,2.541,2.541,0,0,0,4.982-.565c.023-.537,0-1.076,0-1.606h4.825c0,.477,0,.92,0,1.362a2.532,2.532,0,0,0,2.51,2.648,2.566,2.566,0,0,0,2.623-2.614c.011-.46,0-.92,0-1.431.718,0,1.364,0,2.009,0a3.72,3.72,0,0,1,3.822,3.8q.015,8.951,0,17.9a3.7,3.7,0,0,1-2.945,3.621A2.407,2.407,0,0,0,899.719,485.413Zm-21.844-19.347v.646q0,7.34,0,14.679a1.969,1.969,0,0,0,2.212,2.21h18.886a1.987,1.987,0,0,0,2.238-2.248q0-7.308,0-14.618c0-.215-.02-.43-.032-.669Z" fill="#909090"/>
    <path id="Path_10738" data-name="Path 10738" d="M894.844,458a1.646,1.646,0,0,1,1.072,1.826c-.033.525.011,1.054-.011,1.58a1.315,1.315,0,1,1-2.629-.028c-.011-.527.034-1.057-.011-1.58a1.573,1.573,0,0,1,1.092-1.8Z" fill="#909090"/>
    <path id="Path_10739" data-name="Path 10739" d="M884.973,458a1.629,1.629,0,0,1,.992,1.809c-.056.562,0,1.135-.018,1.7a1.228,1.228,0,0,1-1.29,1.24,1.2,1.2,0,0,1-1.272-1.189c-.032-.769-.008-1.54-.009-2.311,0-.678.5-.958.988-1.251Z" fill="#909090"/>
    <path id="Path_10740" data-name="Path 10740" d="M885.263,481.823v-3.286h3.275v3.286Z" fill="#909090"/>
    <path id="Path_10741" data-name="Path 10741" d="M893.814,481.833H890.53v-3.279h3.284Z" fill="#909090"/>
    <path id="Path_10742" data-name="Path 10742" d="M885.253,476.506V473.28h3.3v3.226Z" fill="#909090"/>
    <path id="Path_10743" data-name="Path 10743" d="M885.263,471.246v-3.229h3.278v3.229Z" fill="#909090"/>
    <path id="Path_10744" data-name="Path 10744" d="M893.82,468.031v3.2h-3.285v-3.2Z" fill="#909090"/>
    <path id="Path_10745" data-name="Path 10745" d="M883.225,481.839h-3.212v-3.3h3.212Z" fill="#909090"/>
    <path id="Path_10746" data-name="Path 10746" d="M880,476.519v-3.23h3.232v3.23Z" fill="#909090"/>
    <path id="Path_10747" data-name="Path 10747" d="M899.075,476.54h-3.23v-3.26h3.23Z" fill="#909090"/>
    <path id="Path_10748" data-name="Path 10748" d="M895.862,468h3.2v3.24h-3.2Z" fill="#909090"/>
    <path id="Path_10749" data-name="Path 10749" d="M891.929,477.049l-2.051-1.642.751-.951,1.1.864,1.846-2.359.955.747Z" fill="#909090"/>
  </g>
</svg>
