<svg id="Group_3177" data-name="Group 3177" xmlns="http://www.w3.org/2000/svg" width="20.471" height="21.715" viewBox="0 0 20.471 21.715">
  <path id="Path_3990" data-name="Path 3990" d="M664.872,5784.116q0,2.028,0,4.057c0,.457-.007.424-.434.5a1.4,1.4,0,0,0-.772.329,8.027,8.027,0,0,0-1.154,1.517c-.464.837-.846,1.725-1.224,2.6a3.406,3.406,0,0,1-1.124,1.523,4.257,4.257,0,0,0-1.745,2.986c-.114.725-.2,1.459-.281,2.19-.045.382-.1.443-.479.481a2.293,2.293,0,0,1-2.472-1.909,5.038,5.038,0,0,1,.352-3.319c.276-.588.583-1.165.828-1.767a5,5,0,0,0,.3-1.168c.051-.352-.065-.408-.422-.412-1.574-.019-3.15-.018-4.723-.089a2.466,2.466,0,0,1-2.054-2.208,1.334,1.334,0,0,1,.329-.908c.375-.474.38-.616.068-1.14-.053-.09-.109-.178-.161-.267a1.105,1.105,0,0,1,.174-1.557,1.014,1.014,0,0,0,.261-1.3c-.068-.131-.1-.282-.162-.42a1.061,1.061,0,0,1,.217-1.251c.2-.213.405-.418.611-.625a.778.778,0,0,0,.27-.685,2.107,2.107,0,0,1,1.013-2.058,2.65,2.65,0,0,1,1.729-.623c1.893.019,3.789-.02,5.677.079a28.77,28.77,0,0,1,3.256.516c.588.1,1.172.232,1.76.327.277.044.366.178.364.454C664.868,5781.354,664.872,5782.734,664.872,5784.116Z" transform="translate(-649.467 -5778.598)" fill="#ddd"/>
  <path id="Path_3991" data-name="Path 3991" d="M673.79,5784.11q0,2.027,0,4.056a.85.85,0,0,1-.875.921q-1.245.011-2.49,0a.829.829,0,0,1-.9-.918c-.012-.464,0-.928,0-1.391q0-3.29,0-6.578c0-.8.289-1.089,1.085-1.09.709,0,1.418.016,2.126-.007a.961.961,0,0,1,1.07,1.066C673.767,5781.481,673.79,5782.8,673.79,5784.11Z" transform="translate(-653.329 -5778.694)" fill="#ddd"/>
</svg>
