<svg xmlns="http://www.w3.org/2000/svg" width="21.892" height="21.74" viewBox="0 0 21.892 21.74">
  <g id="Editsetting" transform="translate(0 -1.829)">
    <path id="Path_11628" data-name="Path 11628" d="M0,8.5V30.046H21.546V16.166l-1.071,1.071V28.974H1.071V9.571H12.809L13.88,8.5Z" transform="translate(0 -6.477)" fill="#f2f2f2"/>
    <path id="パス_11484" data-name="パス 11484" d="M818.69,159.479a3.941,3.941,0,0,0,.835-4.341l-2.466,2.466-2.121-2.121,2.443-2.443a3.941,3.941,0,0,0-5.261,4.748L803.5,166.41a1.864,1.864,0,0,0,0,2.636h0a1.864,1.864,0,0,0,2.636,0h0l8.593-8.593A3.938,3.938,0,0,0,818.69,159.479Z" transform="translate(-797.952 -150.924)" fill="#fdfdfd"/>
  </g>
</svg>
