<svg xmlns="http://www.w3.org/2000/svg" width="26.552" height="13.079" viewBox="0 0 26.552 13.079">
  <g id="eyes-icon" transform="translate(0.208 -7.865)">
    <path id="Path_11656" data-name="Path 11656" d="M26.552,7.883,24.359,9.088c-2.7-3.844-6.123-6.558-11.075-6.555S4.936,5.247,2.217,9.08c-.071-.032-.152-.062-.226-.1C1.364,8.619.738,8.259,0,7.835.637,7.026,1.214,6.221,1.866,5.48A15.169,15.169,0,0,1,10.728.239,14.07,14.07,0,0,1,21.592,2.664,17.783,17.783,0,0,1,26.28,7.5a2.158,2.158,0,0,0,.272.284Z" transform="translate(-0.208 7.865)" fill="#a5a5a5"/>
    <path id="Path_11657" data-name="Path 11657" d="M93.831,44.762a4.45,4.45,0,1,1-4.442-4.442,4.424,4.424,0,0,1,4.442,4.442" transform="translate(-76.303 -28.259)" fill="#a5a5a5"/>
  </g>
</svg>
