<svg xmlns="http://www.w3.org/2000/svg" width="18.933" height="26.092" viewBox="0 0 18.933 26.092">
  <path id="fire5656" d="M79.3,151.919a8.248,8.248,0,0,0,1.129,4.836,4.276,4.276,0,0,0,.974,1.083l.087-.025a2.085,2.085,0,0,0-.007-.517,16.357,16.357,0,0,1-.316-4.128,10.5,10.5,0,0,1,4.5-8.714c.376-.287.787-.528,1.183-.79a.566.566,0,0,1,.107-.039c-.109.473-.246.928-.316,1.391a4.694,4.694,0,0,0,1.029,3.586,13.169,13.169,0,0,0,2.745,2.531,15.386,15.386,0,0,1,2.829,2.574,9.067,9.067,0,0,1,2.064,6.2,10.14,10.14,0,0,1-.524,3.6,9.472,9.472,0,0,1-18.3-2.214,12.02,12.02,0,0,1,.621-5.867,10.98,10.98,0,0,1,1.869-3.229q.115-.131.235-.257C79.229,151.928,79.252,151.93,79.3,151.919ZM81,164.493a6.844,6.844,0,0,0,8.165,1.557,6.926,6.926,0,0,0,3.723-7.508c-.633-2.712-2.831-4.832-4.733-5.155a7.68,7.68,0,0,1,1.391,5.485c-.351,1.852-1.936,4.265-3.118,4.656a8.325,8.325,0,0,0,.528-4.144A7.329,7.329,0,0,1,81,164.493Z" transform="translate(-76.386 -143.624)" fill="#909090"/>
</svg>
