<svg xmlns="http://www.w3.org/2000/svg" width="27.454" height="20.854" viewBox="0 0 27.454 20.854">
  <g id="Folder_icon" transform="translate(-27.869 -250.975)">
    <path id="Path_5678" data-name="Path 5678" d="M46.305,255.313q5.658,0,11.318,0c.738,0,.771.042.605.762-.993,4.319-2,8.637-2.975,12.959a.871.871,0,0,1-1,.8q-11.285-.025-22.569-.012c-.79,0-.844-.068-.662-.856.99-4.3,1.994-8.592,2.967-12.892a.848.848,0,0,1,1-.774C38.759,255.326,42.532,255.313,46.305,255.313Z" transform="translate(-2.988 1.995)" fill="#f2f2f2"/>
    <path id="Path_5679" data-name="Path 5679" d="M30.9,265.31c-.012-.164-.032-.328-.032-.491q0-5.825,0-11.649c0-1.152.745-2.011,1.231-2.966.076-.147.428-.214.653-.215,2.507-.015,5.014-.028,7.52.014a1.346,1.346,0,0,1,.864.544,5.165,5.165,0,0,1,.665,1.3,1.115,1.115,0,0,0,1.225.769c3.949-.025,7.9-.013,11.846-.013.947,0,.947,0,.947.945,0,1.677,0,1.677-1.682,1.677-6.633,0-13.265.008-19.9-.013-.669,0-.968.183-1.118.877-.625,2.9-1.319,5.788-1.989,8.681-.043.186-.1.369-.155.554Z" transform="translate(-3 1)" fill="#ededed"/>
  </g>
</svg>
