<svg xmlns="http://www.w3.org/2000/svg" width="20.219" height="14.637" viewBox="0 0 23.219 17.637">
  <g id="Folder_icon" transform="translate(-27.869 -250.975)">
    <path id="Path_5678" data-name="Path 5678" d="M43.934,255.311q4.785,0,9.572,0c.624,0,.652.035.512.644-.84,3.653-1.689,7.3-2.517,10.96a.737.737,0,0,1-.847.675q-9.545-.021-19.088-.01c-.669,0-.714-.057-.56-.724.837-3.635,1.686-7.267,2.509-10.9a.717.717,0,0,1,.846-.654C37.552,255.322,40.743,255.311,43.934,255.311Z" transform="translate(-3 1.02)" fill="#7ecdfa"/>
    <path id="Path_5679" data-name="Path 5679" d="M30.9,262.945c-.01-.139-.027-.277-.027-.416q0-4.927,0-9.852a5.644,5.644,0,0,1,1.041-2.508c.064-.125.362-.181.552-.182,2.12-.013,4.241-.024,6.36.012a1.139,1.139,0,0,1,.731.46,4.368,4.368,0,0,1,.562,1.1.943.943,0,0,0,1.036.651c3.34-.021,6.679-.011,10.019-.011.8,0,.8,0,.8.8,0,1.418,0,1.418-1.422,1.418-5.61,0-11.219.007-16.83-.011-.566,0-.819.155-.946.742-.529,2.454-1.115,4.9-1.682,7.342-.036.158-.087.312-.131.469Z" transform="translate(-3 1)" fill="#66b6ea"/>
  </g>
</svg>
