<svg xmlns="http://www.w3.org/2000/svg" width="28.547" height="21.684" viewBox="0 0 28.547 21.684">
  <g id="folder" transform="translate(-27.869 -250.975)">
    <path id="Path_5678" data-name="Path 5678" d="M46.917,255.314q5.883,0,11.769,0c.768,0,.8.043.629.792-1.033,4.491-2.077,8.981-3.094,13.475a.906.906,0,0,1-1.042.829q-11.735-.026-23.468-.012c-.822,0-.877-.07-.689-.89,1.029-4.469,2.073-8.934,3.085-13.405a.881.881,0,0,1,1.04-.8C39.071,255.327,42.994,255.314,46.917,255.314Z" transform="translate(-2.985 2.247)" fill="#7ecdfa"/>
    <path id="Path_5679" data-name="Path 5679" d="M30.9,265.921c-.012-.17-.033-.341-.033-.511q0-6.057,0-12.113c0-1.2.775-2.091,1.28-3.084.079-.153.446-.222.679-.223,2.606-.016,5.214-.03,7.819.015a1.4,1.4,0,0,1,.9.565,5.371,5.371,0,0,1,.691,1.348,1.16,1.16,0,0,0,1.274.8c4.106-.026,8.212-.014,12.318-.014.985,0,.985,0,.985.982,0,1.744,0,1.744-1.749,1.744-6.9,0-13.794.009-20.691-.014-.7,0-1.007.19-1.163.912-.65,3.017-1.371,6.019-2.068,9.026-.044.194-.107.384-.162.576Z" transform="translate(-3 1)" fill="#66b6ea"/>
  </g>
</svg>
