<svg xmlns="http://www.w3.org/2000/svg" width="25.71" height="19.529" viewBox="0 0 25.71 19.529">
  <g id="Folder_icon" transform="translate(-27.869 -250.975)">
    <path id="Path_5678" data-name="Path 5678" d="M45.329,255.312q5.3,0,10.6,0c.691,0,.722.039.567.714-.93,4.045-1.871,8.088-2.787,12.136a.816.816,0,0,1-.938.747q-10.569-.023-21.136-.011c-.74,0-.79-.063-.62-.8.927-4.025,1.867-8.046,2.779-12.073a.794.794,0,0,1,.937-.725C38.262,255.324,41.8,255.312,45.329,255.312Z" transform="translate(-2.993 1.594)" fill="#7ecdfa"/>
    <path id="Path_5679" data-name="Path 5679" d="M30.9,264.337c-.011-.153-.03-.307-.03-.46q0-5.455,0-10.909a6.249,6.249,0,0,1,1.153-2.778c.071-.138.4-.2.611-.2,2.347-.014,4.7-.027,7.042.013a1.261,1.261,0,0,1,.809.509,4.837,4.837,0,0,1,.622,1.214,1.045,1.045,0,0,0,1.147.72c3.7-.023,7.4-.012,11.094-.012.887,0,.887,0,.887.885,0,1.571,0,1.571-1.575,1.571-6.212,0-12.423.008-18.635-.012-.627,0-.907.171-1.047.821-.586,2.718-1.235,5.421-1.863,8.13-.04.174-.1.346-.146.519Z" transform="translate(-3 1)" fill="#66b6ea"/>
  </g>
</svg>
