<svg xmlns="http://www.w3.org/2000/svg" width="43.02" height="30.923" viewBox="0 0 43.02 30.923"><g transform="translate(1.001 3.5)"><g transform="translate(-46.74 -158.888)"><path d="M88.26,184.345l-8.165,1.462-15.355-1.34V161.921l15.355-3.534,8.165,3.29Z" fill="none" stroke="#fff" stroke-width="1"/><path d="M78.718,161.225,67.14,164.15v19.011l3.717.312v-4.03h2.925v4.276l4.936.416Zm-9.14,15.964H67.993v-2.315l1.584-.122Zm0-5-1.584.121V170l1.584-.244Zm0-4.875-1.584.244v-2.437l1.584-.366Zm3.839,9.749H71.406V174.63l2.011-.122Zm0-5.241-2.011.122v-2.56l2.011-.244Zm0-5.24-2.011.365v-2.559l2.011-.487Zm2.01,10.358v-2.681l2.316-.121.061,2.8Zm0-5.24v-2.8l2.316-.365.061,2.925Zm0-5.484v-2.8l2.316-.487.061,2.925Z" transform="translate(-0.39 -0.461)" fill="#fff"/></g><path d="M895.769,716.247a10.6,10.6,0,1,0,10.6,10.6A10.6,10.6,0,0,0,895.769,716.247Zm5.675,11.718h-4.556v4.556a1.085,1.085,0,0,1-2.171,0v-4.556h-4.555a1.085,1.085,0,1,1,0-2.169h4.555V721.24a1.085,1.085,0,0,1,2.171,0V725.8h4.556a1.085,1.085,0,1,1,0,2.169Z" transform="translate(-886.17 -719.747)" fill="#fff"/></g></svg>