<svg xmlns="http://www.w3.org/2000/svg" xmlns:xlink="http://www.w3.org/1999/xlink" width="28.977" height="28.975" viewBox="0 0 28.977 28.975"><defs><radialGradient id="a" cx="1.087" cy="-0.281" r="1.554" gradientTransform="translate(0.592 -1.368) rotate(90) scale(1 1.758)" gradientUnits="objectBoundingBox"><stop offset="0" stop-color="#635b57"/><stop offset="0.59" stop-color="#b4b3b2"/><stop offset="0.598" stop-color="#635b57"/><stop offset="1" stop-color="#b4b3b2"/></radialGradient><radialGradient id="b" cx="0.214" cy="0" r="0.994" gradientTransform="translate(0.214 -0.213) rotate(90) scale(1 1.916)" gradientUnits="objectBoundingBox"><stop offset="0" stop-color="#73481a"/><stop offset="0.59" stop-color="#ffd460"/><stop offset="0.6" stop-color="#73481a"/><stop offset="1" stop-color="#ffd460"/></radialGradient></defs><g transform="translate(-64.345 -111.422)"><path d="M72.443,128.986,77.428,124l-4.277-4.277-.006-.005-.094.094L69.659,123.2,68.066,124.8l-3.393,3.392a1.129,1.129,0,0,0,0,1.593l3.393,3.393,1.593,1.593,3.393,3.393.094.094,4.283-4.282Z" transform="translate(0 -3.076)" fill="url(#a)"/><path d="M99.005,126.706,95.613,130.1l-1.593,1.593-3.393,3.393-1.593,1.593-3.392,3.393a1.129,1.129,0,0,1-1.593,0l-3.393-3.393-.094-.094,5.687-5.687-4.985-4.985,4.985-4.985-5.687-5.687.094-.094,3.393-3.393a1.129,1.129,0,0,1,1.593,0l3.392,3.393,1.593,1.593,3.393,3.393,1.593,1.593,3.393,3.392A1.129,1.129,0,0,1,99.005,126.706Z" transform="translate(-6.012)" fill="url(#b)"/></g></svg>