<svg xmlns="http://www.w3.org/2000/svg" xmlns:xlink="http://www.w3.org/1999/xlink" width="30.824" height="30.824" viewBox="0 0 30.824 30.824"><defs><radialGradient id="a" cx="0.5" cy="0.5" r="0.5" gradientUnits="objectBoundingBox"><stop offset="0" stop-color="#f5cf7f"/><stop offset="1" stop-color="#c39e50"/></radialGradient><radialGradient id="b" cx="0.5" cy="0.5" r="0.5" gradientUnits="objectBoundingBox"><stop offset="0" stop-color="#d5d5d5"/><stop offset="1" stop-color="#797979"/></radialGradient></defs><circle cx="15.412" cy="15.412" r="15.412" fill="#fff"/><g transform="translate(5.252 6.293)"><path d="M-635.961,422.772h4.848a2.41,2.41,0,0,0,1.751-.808,2.406,2.406,0,0,0,.539-1.751,1.99,1.99,0,0,0-.539-1.347,1.745,1.745,0,0,0-.673-.4h-4.848l.539-2.963h6.6a3.364,3.364,0,0,1,1.751.808,3.762,3.762,0,0,1,1.078,2.155,4.952,4.952,0,0,1-.4,3.367,4.03,4.03,0,0,1-1.885,1.885,3.528,3.528,0,0,1-.943.269,4.086,4.086,0,0,1,2.02,1.481,4.3,4.3,0,0,1,.673,2.963,5.6,5.6,0,0,1-1.885,3.636,7.415,7.415,0,0,1-2.559,1.347,9.12,9.12,0,0,1-1.751.4h-1.077a6.81,6.81,0,0,0,2.963-3.5,6.3,6.3,0,0,0,.269-2.559,2.282,2.282,0,0,0-.4-1.347,2.354,2.354,0,0,0-.943-.673,3.15,3.15,0,0,0-1.077-.269H-636.5Z" transform="translate(644.285 -415.5)" fill="url(#a)"/><path d="M-685.921,430.583l3.232-15.083h-4.04l-3.771,18.316h7.811a7.961,7.961,0,0,0,.808-.135,6.84,6.84,0,0,0,1.885-.673,5.317,5.317,0,0,0,1.885-1.616,5,5,0,0,0,.673-1.347,1.54,1.54,0,0,1-.539.4,1.541,1.541,0,0,1-.673.135Z" transform="translate(690.5 -415.5)" fill="url(#b)"/></g></svg>