<svg xmlns="http://www.w3.org/2000/svg" width="20.001" height="20.001" viewBox="0 0 24.001 24.001">
  <g id="ic-908" transform="translate(156.709 305.023)">
    <path id="Path_11461" data-name="Path 11461" d="M-156.709-296.137a9.483,9.483,0,0,1,.749-1.434,2.479,2.479,0,0,1,2.037-.994c3.676-.013,7.352-.006,11.028,0,.061,0,.122.01.181.016.007.038.026.08.014.092-.859.865-1.713,1.735-2.592,2.578a.89.89,0,0,1-.563.132c-2.471.008-4.943.017-7.414,0-.459,0-.622.1-.619.593q.027,7.133,0,14.266c0,.415.1.561.545.56,4.786-.017,9.573-.011,14.359-.011h.522v-.59c0-2.425.005-4.849-.006-7.274a.988.988,0,0,1,.32-.781c.827-.806,1.634-1.632,2.515-2.517.013.233.028.378.028.523q0,5.209,0,10.418a2.92,2.92,0,0,1-2.449,3.035.773.773,0,0,0-.163.081H-154.08c-.116-.037-.231-.079-.349-.109a2.911,2.911,0,0,1-1.973-1.565c-.124-.245-.206-.51-.307-.767Z" transform="translate(0 -3.567)" fill="#2fcba7"/>
    <path id="Path_11462" data-name="Path 11462" d="M-143.56-282.8c.178-.706.345-1.367.513-2.027.307-1.21.61-2.421.926-3.629a1,1,0,0,1,.223-.446q4.3-4.321,8.621-8.627a1.1,1.1,0,0,1,.147-.1,24.807,24.807,0,0,1,4.425,4.425c-.109.119-.2.226-.3.324q-4.162,4.164-8.329,8.323a1.189,1.189,0,0,1-.5.321c-1.827.476-3.659.933-5.49,1.394C-143.374-282.823-143.432-282.817-143.56-282.8Zm2.212-5.636a22.107,22.107,0,0,1-.607,2.3,1.268,1.268,0,0,0,.513,1.707.9.9,0,0,0,.6.165c.883-.19,1.756-.426,2.632-.65a.636.636,0,0,0,.178-.079c-.349-.269-.843-.481-1.046-.852a3.838,3.838,0,0,1-.183-1.379C-140.347-286.89-140.726-287.088-141.348-288.431Z" transform="translate(-7.273 -4.092)" fill="#2fcba7"/>
    <path id="Path_11463" data-name="Path 11463" d="M-113.342-298.382l-4.469-4.462c.631-.631,1.33-1.323,2.02-2.024.273-.277.555-.128.76.03A27.615,27.615,0,0,1-112.7-302.9a12.9,12.9,0,0,1,1.346,1.733.619.619,0,0,1-.126.934C-112.144-299.624-112.763-298.962-113.342-298.382Z" transform="translate(-21.515 0)" fill="#2fcba7"/>
  </g>
</svg>
