<svg xmlns="http://www.w3.org/2000/svg" width="14.968" height="16.841" viewBox="0 0 14.968 16.841">
  <path id="ic909" d="M679.236,319c.277.067.559.116.828.2a3.743,3.743,0,0,1,1.455,6.261c-1.449,1.479-2.926,2.93-4.391,4.393-.706.7-1.394,1.43-2.126,2.107a2.2,2.2,0,1,1-2.919-3.281q2.732-2.719,5.453-5.448c.06-.06.124-.116.174-.162l.948.96c-.347.339-.715.692-1.076,1.053-1.518,1.516-3.042,3.026-4.542,4.559a1.347,1.347,0,0,0-.347.777.735.735,0,0,0,.544.727.818.818,0,0,0,.922-.221q1.128-1.12,2.25-2.248c1.4-1.4,2.814-2.795,4.2-4.21a2.394,2.394,0,0,0-.991-4,2.231,2.231,0,0,0-2.352.552c-2.308,2.277-4.628,4.545-6.871,6.886a3.63,3.63,0,0,0-.657,4.268,3.934,3.934,0,0,0,6.4,1.117q2.8-2.806,5.607-5.611a3.688,3.688,0,0,0,.265-.333l.961.994c-.073.077-.156.168-.243.255q-2.764,2.766-5.527,5.532a5.329,5.329,0,0,1-3.267,1.646.7.7,0,0,0-.171.066h-.9a1.168,1.168,0,0,0-.207-.07,5.058,5.058,0,0,1-4.32-3.493,4.99,4.99,0,0,1,1.2-5.423c2.227-2.288,4.508-4.523,6.768-6.779a3.636,3.636,0,0,1,1.747-.958l.5-.119Z" transform="translate(-668.01 -319)" fill="#9b9999"/>
</svg>
