<svg id="iconAvatar" xmlns="http://www.w3.org/2000/svg" width="33" height="33" viewBox="0 0 33 33">
  <path id="Path_6506" data-name="Path 6506" d="M1389.5,322a16.491,16.491,0,1,0,16.5,16.5A16.519,16.519,0,0,0,1389.5,322Zm10.344,27.806a15.324,15.324,0,1,1,4.989-11.306A15.271,15.271,0,0,1,1399.844,349.806Z" transform="translate(-1373 -322)" fill="#f2f2f2"/>
  <path id="Path_6507" data-name="Path 6507" d="M1406.933,370.656a10.366,10.366,0,0,0-10.344-9.7h0a10.366,10.366,0,0,0-10.343,9.7,15.3,15.3,0,0,0,20.687,0Z" transform="translate(-1380.089 -342.85)" fill="#f2f2f2"/>
  <circle id="Ellipse_1" data-name="Ellipse 1" cx="5.257" cy="5.257" r="5.257" transform="translate(11.243 6.279)" fill="#f2f2f2"/>
</svg>
