<svg xmlns="http://www.w3.org/2000/svg" width="24.457" height="16.788" viewBox="0 0 24.457 16.788">
  <g id="iconPartner" transform="translate(-723.4 -307.836)">
    <path id="Path_11505" data-name="Path 11505" d="M727.6,308.635l-4.2,5.1,3.893,3.2,4.2-5.1Zm-.277,6.82a.685.685,0,1,1,.693-.678A.685.685,0,0,1,727.32,315.455Z" transform="translate(0 -0.391)" fill="#939393"/>
    <path id="Path_11506" data-name="Path 11506" d="M758.772,307.836l-3.608,3.522,4.613,4.726,3.608-3.522Zm1.206,7.078a.685.685,0,1,1,.762-.6A.685.685,0,0,1,759.978,314.914Z" transform="translate(-15.528)" fill="#939393"/>
    <path id="Path_11507" data-name="Path 11507" d="M738.45,318.992a5.528,5.528,0,0,1-.372,1.368c-.171.262-.709.368-.959.456l-.026.009a.352.352,0,0,1-.462-.35c.042-.971.084-1.832.126-2.819a.352.352,0,0,1,.247-.321l.172-.053.174-.049-.81-.553a.243.243,0,0,0-.324.046l-3.1,3.75a.243.243,0,0,0,.03.34l.348.294a.243.243,0,0,1,.015.356l-.242.243a.243.243,0,0,0,.017.358l1.263,1.043,1.573-1.337a.854.854,0,0,1,1.2.1h0a.854.854,0,0,1-.1,1.2l-1.341,1.14.189.156,1.679-1.427a.946.946,0,1,1,1.226,1.442l-1.422,1.209.022.018,1.006-.856a.947.947,0,1,1,1.226,1.443l-.75.637.075.062.6-.512a.947.947,0,0,1,1.226,1.442l-.346.293.19.156.021.019c.054.057.13.135.224.224a1.661,1.661,0,0,0,.44.348.864.864,0,0,0,.6,0,.888.888,0,0,0,.506-.581,1.8,1.8,0,0,0,.047-.331.242.242,0,0,1,.317-.216l.069.025a.86.86,0,0,0,.6,0,.887.887,0,0,0,.506-.581,1.384,1.384,0,0,0,.013-.439.243.243,0,0,1,.315-.258c.055.017.1.032.127.043a.855.855,0,0,0,.6,0,.885.885,0,0,0,.506-.581,1.476,1.476,0,0,0,.007-.5.242.242,0,0,1,.327-.257h0a.86.86,0,0,0,.6,0,.886.886,0,0,0,.506-.581.876.876,0,0,0-.074-.6.226.226,0,0,0-.048-.062l-.434-.413a.293.293,0,0,0-.03-.025l-7.032-4.8-.214-.146a5.628,5.628,0,0,0-.614.144A.351.351,0,0,0,738.45,318.992Z" transform="translate(-4.723 -4.303)" fill="#939393"/>
    <path id="Path_11508" data-name="Path 11508" d="M740.892,317.808c-.039.834-.078,1.344-.118,2.164a.323.323,0,0,0,.179.3c.15.122.381-.031.539-.252a3.764,3.764,0,0,0,.315-1.081c.022-.111.114-.538.219-.6.348-.215.244-.151.4-.2a2.03,2.03,0,0,1,.755-.119l1.448.955,2.065,1.384,3.23,2.212c.129.086.308-.036.422-.138l.4-.427c.009-.009.235-.235.244-.242a1.169,1.169,0,0,0,.313-.419c.078-.274-.178-.623-.267-.736a.276.276,0,0,1-.059-.171h0a.289.289,0,0,1,.128-.236l.157-.11a.28.28,0,0,0,.047-.431l-2.882-3a.35.35,0,0,0-.463-.027l-.157.127a.353.353,0,0,1-.479-.034,1,1,0,0,0-.239-.2,1.144,1.144,0,0,0-.651-.142,42.014,42.014,0,0,0-5.155,1.1l-.159.045A.3.3,0,0,0,740.892,317.808Z" transform="translate(-8.493 -4.179)" fill="#939393"/>
    <path id="Path_11509" data-name="Path 11509" d="M746.2,337.077l-.935.821a.47.47,0,0,1-.652-.03h0a.47.47,0,0,1,.031-.677l.935-.821a.471.471,0,0,1,.652.03h0A.47.47,0,0,1,746.2,337.077Z" transform="translate(-10.307 -13.891)" fill="#939393"/>
    <path id="Path_11510" data-name="Path 11510" d="M743.413,333.978l-1.44,1.255a.507.507,0,0,1-.69.01h0a.5.5,0,0,1,.07-.718l1.44-1.254a.506.506,0,0,1,.69-.01h0A.5.5,0,0,1,743.413,333.978Z" transform="translate(-8.681 -12.364)" fill="#939393"/>
    <path id="Path_11511" data-name="Path 11511" d="M741.01,330.5l-2.141,1.854a.5.5,0,0,1-.668.005h0a.487.487,0,0,1,.051-.716l2.141-1.854a.5.5,0,0,1,.669-.005h0A.487.487,0,0,1,741.01,330.5Z" transform="translate(-7.17 -10.665)" fill="#939393"/>
    <path id="Path_11512" data-name="Path 11512" d="M738.131,327.949l-1.873,1.626a.47.47,0,0,1-.639-.021h0a.471.471,0,0,1,.023-.69l1.873-1.626a.471.471,0,0,1,.64.021h0A.47.47,0,0,1,738.131,327.949Z" transform="translate(-5.905 -9.429)" fill="#939393"/>
  </g>
</svg>
