<svg xmlns="http://www.w3.org/2000/svg" width="31.482" height="23.909" viewBox="0 0 31.482 23.909">
  <g id="iconComment" transform="translate(-19.5 -333.454)">
    <path id="Path_11581" data-name="Path 11581" d="M19.5,342.831a27.71,27.71,0,0,1,.814-3.083,10.01,10.01,0,0,1,9.184-6.281q5.769-.022,11.539,0a10.1,10.1,0,0,1,9.814,8.967,3.838,3.838,0,0,0,.132.536v1.959c-.229,1.2-.372,2.432-.7,3.608a11.936,11.936,0,0,1-10.2,8.711,8.919,8.919,0,0,1-1.388.112c-.766-.029-1-.436-.65-1.108.268-.514.617-.987.9-1.494.482-.866.376-1.041-.6-1.042-2.821,0-5.642.019-8.463-.005a10.1,10.1,0,0,1-10.011-7.582c-.156-.577-.249-1.172-.37-1.758Zm21.221,12.505a10.657,10.657,0,0,0,5.995-3.623,12.276,12.276,0,0,0,2.451-8.12,8.357,8.357,0,0,0-8.387-8.329q-5.562-.007-11.123,0a8.872,8.872,0,0,0-1.388.123,8.311,8.311,0,0,0-2.807,15.4,9.294,9.294,0,0,0,4.894,1.149c2.775-.031,5.55-.024,8.325,0,2.013.018,2.892,1.6,2.1,3.088A1.511,1.511,0,0,0,40.721,355.336Z" fill="none"/>
    <path id="Path_11582" data-name="Path 11582" d="M51.943,366.44a1.51,1.51,0,0,1,.06-.311c.792-1.486-.088-3.07-2.1-3.088-2.775-.025-5.55-.032-8.325,0a9.294,9.294,0,0,1-4.894-1.149,8.311,8.311,0,0,1,2.807-15.4,8.887,8.887,0,0,1,1.388-.123q5.562-.015,11.123,0a8.357,8.357,0,0,1,8.387,8.329,12.275,12.275,0,0,1-2.451,8.12A10.658,10.658,0,0,1,51.943,366.44Zm-3.756-11.565a1.724,1.724,0,1,0-1.755,1.706A1.748,1.748,0,0,0,48.187,354.875Zm5.3,1.706a1.751,1.751,0,0,0,1.7-1.764,1.725,1.725,0,0,0-3.45.052A1.752,1.752,0,0,0,53.489,356.581Zm-14.036-3.453a1.727,1.727,0,1,0,1.737,1.741A1.79,1.79,0,0,0,39.452,353.128Z" transform="translate(-11.223 -11.104)" fill="#f2f2f2"/>
    <path id="Path_11584" data-name="Path 11584" d="M171.437,398.153a1.752,1.752,0,0,1-1.752-1.712,1.725,1.725,0,0,1,3.45-.052A1.751,1.751,0,0,1,171.437,398.153Z" transform="translate(-129.17 -52.676)" fill="#3a3b41"/>
    <path id="Path_11583" data-name="Path 11583" d="M123.126,396.453a1.724,1.724,0,1,1-3.447-.064,1.724,1.724,0,0,1,3.447.064Z" transform="translate(-86.161 -52.682)" fill="#3a3b41"/>
    <path id="Path_11585" data-name="Path 11585" d="M71.363,394.7a1.79,1.79,0,0,1,1.737,1.741,1.725,1.725,0,1,1-1.737-1.741Z" transform="translate(-43.133 -52.677)" fill="#3a3b41"/>
  </g>
</svg>
