<svg xmlns="http://www.w3.org/2000/svg" width="35.513" height="35.513" viewBox="0 0 35.513 35.513">
  <path id="iconBan" d="M10.746-193.893A17.777,17.777,0,0,0-7.011-176.136,17.777,17.777,0,0,0,10.746-158.38,17.776,17.776,0,0,0,28.5-176.136,17.777,17.777,0,0,0,10.746-193.893Zm0,4.55a13.137,13.137,0,0,1,7.722,2.5L.042-168.414a13.137,13.137,0,0,1-2.5-7.722A13.222,13.222,0,0,1,10.746-189.343Zm0,26.413a13.128,13.128,0,0,1-7.576-2.4l18.383-18.383a13.128,13.128,0,0,1,2.4,7.576A13.221,13.221,0,0,1,10.746-162.93Z" transform="translate(7.011 193.893)" fill="#fff"/>
</svg>
