<svg xmlns="http://www.w3.org/2000/svg" width="22.683" height="24.551" viewBox="0 0 22.683 24.551">
  <g id="iconTX" transform="translate(-36.556 -230.272)">
    <path id="Path_4167" data-name="Path 4167" d="M61.176,241.342c.261-3.166-.275-5.74-1.648-7.221a11.432,11.432,0,0,0-1.833-1.538,12.919,12.919,0,0,0-7.51-1.833c-.453.01-.824.038-1.065.059l-.414-1.537-3.193,4.553,4.435,2.011-.355-1.893a9.88,9.88,0,0,1,2.307-.354,8.972,8.972,0,0,1,4.434.887,7.258,7.258,0,0,1,3.477,3.2,5.325,5.325,0,0,1,.485,1.413c.011.058.021.117.029.174a4.824,4.824,0,0,1,.851,2.08Z" transform="translate(-2 1)" fill="#797979"/>
    <path id="Path_4169" data-name="Path 4169" d="M34.62,243.752c-.26,3.167.276,5.741,1.649,7.222a11.41,11.41,0,0,0,1.833,1.537,12.909,12.909,0,0,0,7.51,1.833c.452-.009.823-.037,1.064-.059l.414,1.538,3.193-4.553-4.435-2.011.355,1.892a9.863,9.863,0,0,1-2.306.355,8.977,8.977,0,0,1-4.435-.887,7.253,7.253,0,0,1-3.476-3.2,5.332,5.332,0,0,1-.486-1.413c-.011-.059-.02-.117-.029-.175a4.7,4.7,0,0,1-.361-.588A4.941,4.941,0,0,1,34.62,243.752Z" transform="translate(2 -1)" fill="#797979"/>
    <text id="icon" transform="translate(47.703 246.323)" fill="#797979" font-size="10.782" font-family="SegoeUI, Segoe UI" letter-spacing="0.049em"><tspan x="-6.268" y="0">TX</tspan></text>
  </g>
</svg>
