<svg xmlns="http://www.w3.org/2000/svg" width="21.293" height="21.287" viewBox="0 0 21.293 21.287">
  <g id="iconClock" transform="translate(-41 0.563)">
    <path id="Path_11518" data-name="Path 11518" d="M1340.764,197.459a10.627,10.627,0,0,1,10.787,10.614,10.1,10.1,0,0,1-2.148,6.449,10.394,10.394,0,0,1-8.5,4.224,10.1,10.1,0,0,1-6.408-2.143,10.433,10.433,0,0,1-4.231-8.5,9.989,9.989,0,0,1,.733-3.931,10.627,10.627,0,0,1,3.676-4.71A10.3,10.3,0,0,1,1340.764,197.459Zm.163,2.224a8.391,8.391,0,0,0-8.435,8.391,8.2,8.2,0,0,0,3.671,6.98,8.1,8.1,0,0,0,4.773,1.467,8.419,8.419,0,0,0-.009-16.838Z" transform="translate(-1289.26 -198.021)" fill="#fff"/>
    <path id="Path_11520" data-name="Path 11520" d="M1357.431,216.077a1.64,1.64,0,0,1-1.136-.522,1.81,1.81,0,0,1-.36-.728,1.392,1.392,0,0,1,.078-.829,1.215,1.215,0,0,1,.382-.546.24.24,0,0,0,.076-.156c.015-.39.019-.781.032-1.171q.05-1.527.105-3.054c.013-.351.034-.7.067-1.051.035-.378.241-.479.535-.529a.563.563,0,0,1,.447.277,1.075,1.075,0,0,1,.105.479c0,.416.015.831.029,1.246.039,1.185.083,2.371.12,3.556,0,.12.1.134.165.166a1.5,1.5,0,0,1,.666.658.17.17,0,0,0,.122.074c.385.021.772.032,1.157.051.778.039,1.558.058,2.333.133a.525.525,0,0,1,.483.748.444.444,0,0,1-.4.3c-.263.033-.528.061-.793.074-.549.026-1.1.037-1.648.061-.426.019-.852.041-1.277.081-.075.007-.152.1-.21.163a1.35,1.35,0,0,1-.782.456C1357.625,216.037,1357.517,216.059,1357.431,216.077Z" transform="translate(-1305.762 -204.476)" fill="#fff"/>
  </g>
</svg>
