<svg xmlns="http://www.w3.org/2000/svg" width="31.284" height="25.346" viewBox="0 0 31.284 25.346">
  <g id="iconSend" transform="translate(-444.548 -615.06)">
    <g id="Group_6596" data-name="Group 6596" transform="translate(444.548 615.06)">
      <path id="Path_10625" data-name="Path 10625" d="M643-164.211l5.371,3.647L643-156.406Z" transform="translate(-635.512 181.752)" fill="#5f9eff"/>
      <path id="Path_10626" data-name="Path 10626" d="M655.625-207.918l-10.779,25.151c-3.739-2.711-6.723-4.794-10.491-7.526,6.013-4.623,11.276-9.792,17.236-14.374l-.074-.125c-.207.126-.416.248-.62.378q-9.181,5.87-18.353,11.753a1.056,1.056,0,0,1-1.431-.042c-2.04-1.532-4.122-3.009-6.187-4.507-.163-.118-.319-.246-.584-.451Z" transform="translate(-624.341 207.918)" fill="#5f9eff"/>
    </g>
  </g>
</svg>
