<svg xmlns="http://www.w3.org/2000/svg" width="23.983" height="23.57" viewBox="0 0 23.983 23.57">
  <g id="icon" transform="translate(0 0)">
    <path id="Path_11628" data-name="Path 11628" d="M0,8.5V30.046H21.546V15.166l-1.071,1.071V28.974H1.071V9.571H13.809L14.88,8.5Z" transform="translate(0 -6.476)" fill="#00be85"/>
    <g id="Group_7807" data-name="Group 7807" transform="translate(0 0)">
      <path id="Path_11629" data-name="Path 11629" d="M40.765,15.658l3.147,3.177L34.2,28.585c-1.049-1.067-2.087-2.126-3.137-3.194Z" transform="translate(-23.665 -11.93)" fill="#00be85"/>
      <path id="Path_11630" data-name="Path 11630" d="M75.263,2.847l.7-.774c.508-.559,1.022-1.114,1.522-1.678A1.1,1.1,0,0,1,78.649.048a1.463,1.463,0,0,1,.717.4c.534.541,1.081,1.068,1.623,1.6a1.089,1.089,0,0,1,.04,1.539c-.02.021-.041.042-.063.061Q79.73,4.819,78.487,5.983c-.018.017-.037.031-.046.039Z" transform="translate(-57.345)" fill="#00be85"/>
      <path id="Path_11631" data-name="Path 11631" d="M26.584,63.717l-4.071.951c.368-1.364.734-2.705,1.1-4.071l2.973,3.12" transform="translate(-17.153 -46.17)" fill="#00be85"/>
      <rect id="Rectangle_6319" data-name="Rectangle 6319" width="23.983" height="23.57" fill="none"/>
    </g>
  </g>
</svg>
