<svg xmlns="http://www.w3.org/2000/svg" width="51.001" height="34.876" viewBox="0 0 51.001 34.876">
  <g id="icon" transform="translate(18.001 1.876)">
    <path id="Path_6506" data-name="Path 6506" d="M1389.5,322a16.491,16.491,0,1,0,16.5,16.5A16.519,16.519,0,0,0,1389.5,322Zm10.344,27.806a15.324,15.324,0,1,1,4.989-11.306A15.271,15.271,0,0,1,1399.844,349.806Z" transform="translate(-1373 -322)" fill="#f2f2f2"/>
    <path id="Path_6507" data-name="Path 6507" d="M1406.933,370.656a10.366,10.366,0,0,0-10.344-9.7h0a10.366,10.366,0,0,0-10.343,9.7,15.3,15.3,0,0,0,20.687,0Z" transform="translate(-1380.089 -342.85)" fill="#f2f2f2"/>
    <circle id="Ellipse_1" data-name="Ellipse 1" cx="5.257" cy="5.257" r="5.257" transform="translate(11.243 6.279)" fill="#f2f2f2"/>
    <path id="Path_10763" data-name="Path 10763" d="M897.142,716.247a11.973,11.973,0,1,0,11.973,11.973A11.973,11.973,0,0,0,897.142,716.247Zm6.41,13.236h-5.146v5.146a1.226,1.226,0,0,1-2.452,0v-5.146H890.81a1.225,1.225,0,1,1,0-2.45h5.145v-5.146a1.226,1.226,0,0,1,2.452,0v5.146h5.146a1.225,1.225,0,1,1,0,2.45Z" transform="translate(-903.17 -718.123)" fill="#00be85"/>
  </g>
</svg>
