<svg id="list" xmlns="http://www.w3.org/2000/svg" width="26.506" height="26.506" viewBox="0 0 26.506 26.506">
  <path id="パス_10957" data-name="パス 10957" d="M501.3,410.833h-24.9a.8.8,0,0,1-.8-.8h0v-24.9a.8.8,0,0,1,.8-.8h24.9a.8.8,0,0,1,.8.8h0v24.9a.8.8,0,0,1-.8.8Zm-23.519-2.186H499.91V386.512H477.776Z" transform="translate(-475.591 -384.327)" fill="#00be85"/>
  <path id="パス_10958" data-name="パス 10958" d="M489.831,400.672h-7.162a1.078,1.078,0,0,1-1.093-1.059h0a1.078,1.078,0,0,1,1.093-1.059h7.162a1.076,1.076,0,0,1,1.094,1.058h0a1.077,1.077,0,0,1-1.094,1.059Z" transform="translate(-475.783 -384.784)" fill="#00be85"/>
  <path id="パス_10959" data-name="パス 10959" d="M495.241,405.613H482.676a1.079,1.079,0,0,1-1.093-1.059h0a1.078,1.078,0,0,1,1.093-1.059h12.57a1.076,1.076,0,0,1,1.094,1.058h0a1.076,1.076,0,0,1-1.093,1.059Z" transform="translate(-475.784 -384.943)" fill="#00be85"/>
  <g id="Group_7569" data-name="Group 7569" transform="translate(5.767 4.408)">
    <path id="Path_11040" data-name="Path 11040" d="M485.921,395.1a7.488,7.488,0,0,0-1.1-.054h-2.292c-.433,0-.7.008-.982.023a6.151,6.151,0,0,0,.062-1.022v-4.017a7.554,7.554,0,0,0-.062-1.145h1.169a7.042,7.042,0,0,0-.063,1.138V394.1h2.168a8.341,8.341,0,0,0,1.1-.053Z" transform="translate(-481.549 -388.881)" fill="#00be85"/>
    <path id="Path_11041" data-name="Path 11041" d="M487.758,388.881v.983h-1.137v-.983Zm-.008,1.718a6.961,6.961,0,0,0-.054,1.014v2.414a7.78,7.78,0,0,0,.054,1.014h-1.129a6.954,6.954,0,0,0,.062-1.006v-2.43a6.365,6.365,0,0,0-.062-1.007Z" transform="translate(-481.712 -388.881)" fill="#00be85"/>
    <path id="Path_11042" data-name="Path 11042" d="M489.65,393.7c.131.527.417.735,1.02.735.573,0,.929-.225.929-.588a.472.472,0,0,0-.2-.386c-.147-.1-.194-.108-.813-.248a4.685,4.685,0,0,1-1.114-.333,1.109,1.109,0,0,1-.68-1.029,1.152,1.152,0,0,1,.24-.72,1.864,1.864,0,0,1,1.548-.6,2.107,2.107,0,0,1,1.454.449,1.5,1.5,0,0,1,.418.767l-1.021.132c-.084-.426-.348-.612-.851-.612-.48,0-.8.217-.8.542a.416.416,0,0,0,.239.364,3.277,3.277,0,0,0,.773.231,3.329,3.329,0,0,1,1.363.472,1.1,1.1,0,0,1,.448.959,1.246,1.246,0,0,1-.378.875,2.285,2.285,0,0,1-1.6.5,2.045,2.045,0,0,1-1.727-.689,1.756,1.756,0,0,1-.3-.689Z" transform="translate(-481.775 -388.934)" fill="#00be85"/>
    <path id="Path_11043" data-name="Path 11043" d="M495.144,389.425a8.555,8.555,0,0,0-.054.952v.239h.325a4.438,4.438,0,0,0,.781-.046v.914a4.258,4.258,0,0,0-.758-.046h-.348v2.4c0,.38.139.519.511.519a1.016,1.016,0,0,0,.565-.17l.138.821a2.422,2.422,0,0,1-.967.163c-.89,0-1.246-.317-1.246-1.13v-2.6h-.3a3.9,3.9,0,0,0-.688.046v-.914a3.553,3.553,0,0,0,.7.046h.286v-.239a8.645,8.645,0,0,0-.055-.952Z" transform="translate(-481.921 -388.899)" fill="#00be85"/>
  </g>
</svg>
