<svg xmlns="http://www.w3.org/2000/svg" width="20" height="20" viewBox="0 0 28.543 22.176">
  <g id="logout" transform="translate(337.34 318.288)">
    <path id="Path_10704" data-name="Path 10704" d="M-326.253-298.112a9.1,9.1,0,0,1-9.084-9.356,9.19,9.19,0,0,1,9.236-8.818,9.036,9.036,0,0,1,6.072,2.483.984.984,0,0,0,1.278.053h0a1,1,0,0,0,.073-1.525,11.053,11.053,0,0,0-9.438-2.859,11.111,11.111,0,0,0-9.148,9.6,11.1,11.1,0,0,0,11.009,12.421,11.021,11.021,0,0,0,7.49-2.934,1,1,0,0,0-.034-1.5h0a.984.984,0,0,0-1.3.013A9.027,9.027,0,0,1-326.253-298.112Z" fill="#f2f2f2"/>
    <path id="Path_10705" data-name="Path 10705" d="M-315.493-310.479h-11.8v6.593h11.8v3.168l6.7-6.465-6.7-6.465Z" fill="#f2f2f2"/>
  </g>
</svg>
