<svg xmlns="http://www.w3.org/2000/svg" width="24.182" height="26.411" viewBox="0 0 24.182 26.411">
  <g id="契約書" transform="translate(-718.009 -339.967)">
    <path id="パス_4328" data-name="パス 4328" d="M736.7,362.92v1.589a.246.246,0,0,1-.245.245H719.88a.246.246,0,0,1-.245-.245V341.838a.245.245,0,0,1,.245-.245h16.576a.245.245,0,0,1,.245.245v11.2l1.626-4.668v-6.532a1.873,1.873,0,0,0-1.871-1.871H719.88a1.873,1.873,0,0,0-1.871,1.871v22.671a1.872,1.872,0,0,0,1.871,1.87h16.576a1.872,1.872,0,0,0,1.871-1.87v-6.255Z" transform="translate(0)" fill="#f1f1f1"/>
    <path id="パス_4329" data-name="パス 4329" d="M743.693,391.824a.253.253,0,0,1-.1-.019c-.216-.082-.214-.345-.211-.6a3.9,3.9,0,0,1,.037-.478c.019-.148.046-.565.045-.6-.008.01-.107.205-.15.293a4.027,4.027,0,0,1-.552.923.715.715,0,0,1-.585.31.625.625,0,0,1-.367-.227A.882.882,0,0,1,741.6,391a1.026,1.026,0,0,1,.076-.552l.012-.038c.072-.217.139-.445.2-.683,0-.01.2-.708.488-2.1a.876.876,0,0,0,0-.327,1.274,1.274,0,0,0-.036-.149c-.016.009-.062.039-.062.039a.317.317,0,0,0-.1.1,2.592,2.592,0,0,1-.25.305,8.515,8.515,0,0,0-.967,1.317,5.189,5.189,0,0,0-.626,1.329.534.534,0,0,0-.008.355.58.58,0,0,0,.354.287.637.637,0,0,0,.244,0,.2.2,0,0,1,.228.148h0a.2.2,0,0,1-.146.249l-.019,0a1.042,1.042,0,0,1-.415-.006.982.982,0,0,1-.622-.527.927.927,0,0,1-.007-.618,5.624,5.624,0,0,1,.673-1.435,8.784,8.784,0,0,1,1.01-1.366,3.364,3.364,0,0,1,.435-.48.623.623,0,0,1,.415-.1c.22.071.268.317.3.48a1.275,1.275,0,0,1,0,.488c-.293,1.411-.483,2.1-.488,2.127-.062.239-.132.475-.207.7l-.012.037a.669.669,0,0,0-.063.35.49.49,0,0,0,.113.225c.029.032.085.093.121.1.063.009.186-.131.227-.177a3.812,3.812,0,0,0,.488-.832c.045-.092.088-.181.132-.265a.511.511,0,0,1,.271-.259.409.409,0,0,1,.328.009c.2.106.2.36.2.512-.007.219-.028.39-.046.538s-.036.488-.035.517c.015-.016.352-.456.5-.668a5.148,5.148,0,0,1,.536-.7.419.419,0,0,1,.325-.139c.268.025.377.343.418.462a2.989,2.989,0,0,1,.092.958v.011a1.01,1.01,0,0,0,.006.137.229.229,0,0,0,.054-.015.634.634,0,0,0,.268-.212c.017-.02.033-.039.051-.058a1.68,1.68,0,0,1,.553-.454,1.1,1.1,0,0,1,.6-.1,1.054,1.054,0,0,1,.278.075.2.2,0,0,1,.112.266.2.2,0,0,1-.023.043h0a.2.2,0,0,1-.24.069.633.633,0,0,0-.178-.048.692.692,0,0,0-.377.063,1.343,1.343,0,0,0-.423.359l-.047.053a.987.987,0,0,1-.446.329.476.476,0,0,1-.422-.027.528.528,0,0,1-.169-.479v-.011a2.68,2.68,0,0,0-.07-.83h0a.109.109,0,0,0-.187-.032c-.117.141-.242.322-.372.512-.152.221-.309.451-.475.646C744.008,391.667,743.858,391.824,743.693,391.824Z" transform="translate(-13.061 -27.919)" fill="#f1f1f1"/>
    <rect id="長方形_3315" data-name="長方形 3315" width="6.989" height="1.707" rx="0.853" transform="translate(724.633 343.745)" fill="#f1f1f1"/>
    <path id="長方形_3316" data-name="長方形 3316" d="M727.148,357.607h12.271a.569.569,0,0,1,.569.569h0a.569.569,0,0,1-.569.569H727.148a.569.569,0,0,1-.569-.569h0A.569.569,0,0,1,727.148,357.607Z" transform="translate(-5.115 -10.529)" fill="#f1f1f1"/>
    <path id="長方形_3317" data-name="長方形 3317" d="M727.148,363.521h12.271a.569.569,0,0,1,.569.569h0a.569.569,0,0,1-.569.569H727.148a.569.569,0,0,1-.569-.569h0A.569.569,0,0,1,727.148,363.521Z" transform="translate(-5.115 -14.059)" fill="#f1f1f1"/>
    <path id="長方形_3318" data-name="長方形 3318" d="M727.148,375.349h12.271a.569.569,0,0,1,.569.569h0a.569.569,0,0,1-.569.569H727.148a.569.569,0,0,1-.569-.569h0A.569.569,0,0,1,727.148,375.349Z" transform="translate(-5.115 -21.12)" fill="#f1f1f1"/>
    <path id="長方形_3319" data-name="長方形 3319" d="M727.148,381.4h9.833a.569.569,0,0,1,.569.569h0a.569.569,0,0,1-.569.569h-9.833a.569.569,0,0,1-.569-.569h0A.569.569,0,0,1,727.148,381.4Z" transform="translate(-5.115 -24.729)" fill="#f1f1f1"/>
    <path id="長方形_3320" data-name="長方形 3320" d="M727.148,369.435h12.271a.569.569,0,0,1,.569.569h0a.569.569,0,0,1-.569.569H727.148a.569.569,0,0,1-.569-.569h0A.569.569,0,0,1,727.148,369.435Z" transform="translate(-5.115 -17.589)" fill="#f1f1f1"/>
    <path id="パス_4330" data-name="パス 4330" d="M773.09,364.656a.165.165,0,0,1-.214-.092l0-.012a2.577,2.577,0,0,1-.126-.762,3.473,3.473,0,0,1,.488-1.615c.038-.077.077-.156.115-.235.2-.424.334-.683.42-.858a3.169,3.169,0,0,0,.216-.488c.155-.464.35-1.043.133-1.323a.636.636,0,0,0-.381-.206l.139-.635a1.261,1.261,0,0,1,.756.443c.429.555.175,1.316-.029,1.928a3.715,3.715,0,0,1-.25.569c-.086.172-.214.43-.416.85l-.12.243a2.889,2.889,0,0,0-.417,1.319,1.889,1.889,0,0,0,.089.552.166.166,0,0,1-.1.2Z" transform="translate(-32.672 -11.021)" fill="#f1f1f1"/>
    <path id="パス_4331" data-name="パス 4331" d="M760.277,381.95l1.1.357a.2.2,0,0,0,.245-.121l2.122-6.092a.2.2,0,0,0-.12-.248h0l-1.1-.357a.2.2,0,0,0-.245.122l-2.122,6.091a.2.2,0,0,0,.12.248Z" transform="translate(-25.149 -21.197)" fill="#f1f1f1"/>
    <path id="パス_4332" data-name="パス 4332" d="M769.719,355.855l-1.285-.448a.377.377,0,0,0-.479.231l-2.425,6.964a.377.377,0,0,0,.233.479l.006,0,1.3.422a.376.376,0,0,0,.471-.234l2.415-6.937A.376.376,0,0,0,769.719,355.855Z" transform="translate(-28.353 -9.204)" fill="#f1f1f1"/>
    <path id="パス_4333" data-name="パス 4333" d="M760.023,393.973l1.073-1.044a.064.064,0,0,0,0-.091.061.061,0,0,0-.026-.016l-1.269-.414a.064.064,0,0,0-.081.041.071.071,0,0,0,0,.029l.2,1.457a.064.064,0,0,0,.072.056A.064.064,0,0,0,760.023,393.973Z" transform="translate(-24.896 -31.3)" fill="#f1f1f1"/>
  </g>
</svg>
