<svg xmlns="http://www.w3.org/2000/svg" width="26.764" height="27.533" viewBox="0 0 26.764 27.533">
  <g id="payment" transform="translate(-232.065 932.674) rotate(-90)">
    <path id="Path_11513" data-name="Path 11513" d="M909.391,243.068c.5-.489,1.062-1.039,1.62-1.6q2.034-2.029,4.063-4.062a1.31,1.31,0,0,1,2.1-.007q5.025,5.022,10.047,10.047,1.2,1.2,2.4,2.4a1.346,1.346,0,0,1,.024,2.178l-5.414,5.416c-.09.09-.185.174-.241.228Zm5.83-2.867,4.8,4.821.653-.505-4.872-4.893Z" transform="translate(-1.454 -1.648)" fill="#f2f2f2"/>
    <path id="Path_11514" data-name="Path 11514" d="M920.766,263.66c-.184.169-.384.347-.578.531a1.307,1.307,0,0,1-1.994-.021q-2.3-2.3-4.6-4.6l-6.164-6.162c-.635-.635-1.268-1.274-1.9-1.908a1.259,1.259,0,0,1-.138-1.645,9.579,9.579,0,0,1,.749-.8Z" transform="translate(0 -5.813)" fill="#f2f2f2"/>
    <path id="Path_11515" data-name="Path 11515" d="M931.462,232.066a10.18,10.18,0,0,1,10.216,10.221h-1.8c-.095-.632-.151-1.254-.285-1.859a8.342,8.342,0,0,0-7.452-6.468c-.678-.055-.679-.055-.681-.77C931.461,232.824,931.462,232.458,931.462,232.066Z" transform="translate(-9.007 0)" fill="#f2f2f2"/>
    <path id="Path_11516" data-name="Path 11516" d="M931.433,238.286v-1.828a7.273,7.273,0,0,1,7.358,7.326H936.96a5.648,5.648,0,0,0-1.631-3.857A5.591,5.591,0,0,0,931.433,238.286Z" transform="translate(-8.997 -1.5)" fill="#f2f2f2"/>
    <path id="Path_11517" data-name="Path 11517" d="M931.459,242.6v-1.772c1.9-.6,4.619,2.057,4.486,4.418h-1.839A2.769,2.769,0,0,0,931.459,242.6Z" transform="translate(-9.006 -2.969)" fill="#f2f2f2"/>
  </g>
</svg>
