<svg xmlns="http://www.w3.org/2000/svg" width="23.01" height="23.01" viewBox="0 0 23.01 23.01">
  <path id="penalty" d="M334.5-200a11.451,11.451,0,0,0-7.353,2.664,11.624,11.624,0,0,0-1.256,1.22A11.455,11.455,0,0,0,323-188.5a11.518,11.518,0,0,0,11.5,11.5,11.455,11.455,0,0,0,7.621-2.9,11.621,11.621,0,0,0,1.22-1.256,11.451,11.451,0,0,0,2.664-7.353A11.518,11.518,0,0,0,334.5-200Zm0,21.259a9.765,9.765,0,0,1-9.754-9.754,9.711,9.711,0,0,1,2.386-6.381l13.749,13.749A9.712,9.712,0,0,1,334.5-178.741Zm7.6-3.646L328.4-196.092a9.706,9.706,0,0,1,6.109-2.157,9.765,9.765,0,0,1,9.754,9.754A9.706,9.706,0,0,1,342.1-182.387Z" transform="translate(-323 200)" fill="#f2f2f2"/>
</svg>
