<svg xmlns="http://www.w3.org/2000/svg" width="29.52" height="24.38" viewBox="0 0 39.52 34.38">
  <g id="phone-pay-ic" transform="translate(-606.995 -118.12)">
    <g id="icon" transform="translate(628 121)">
      <path id="Path_11821" data-name="Path 11821" d="M15.984,0H2.531A2.531,2.531,0,0,0,0,2.531V28.969A2.531,2.531,0,0,0,2.531,31.5H15.984a2.531,2.531,0,0,0,2.531-2.531V2.531A2.531,2.531,0,0,0,15.984,0m-9.6,1.76a.228.228,0,0,1,.228-.228H11.9a.228.228,0,0,1,.228.228v.529a.228.228,0,0,1-.228.228H6.612a.228.228,0,0,1-.228-.228ZM9.258,30.418a1.152,1.152,0,1,1,1.152-1.152,1.152,1.152,0,0,1-1.152,1.152M16.537,26.8H1.979V4.022H16.537Z" fill="#f2f2f2"/>
      <path id="Path_11822" data-name="Path 11822" d="M4.121,17.815H14.393a.227.227,0,0,0,.227-.227V10.955a.227.227,0,0,0-.227-.227H4.121a.227.227,0,0,0-.227.227v6.633a.227.227,0,0,0,.227.227m.823-5.953h8.62V12.9H4.944Zm0,2.378h8.62v2.436H4.944Z" fill="#f2f2f2"/>
    </g>
    <circle id="Ellipse_1901" data-name="Ellipse 1901" cx="11.975" cy="11.975" r="11.975" transform="translate(606.995 118.12)" fill="#00be85"/>
    <g id="Group_7908" data-name="Group 7908" transform="translate(3)">
      <path id="Path_11757" data-name="Path 11757" d="M18.061,99.446a8.365,8.365,0,0,0,.063-1.158V94.056a8.721,8.721,0,0,0-.063-1.142c.368.016.65.024,1.15.024h1.713c1.549,0,2.4.743,2.4,2.1a2.128,2.128,0,0,1-2.41,2.222H19.68v1a10.173,10.173,0,0,0,.063,1.181Zm2.785-3.512a.78.78,0,0,0,.868-.845.757.757,0,0,0-.868-.821H19.68v1.666Z" transform="translate(589.398 33.883)" fill="#fff"/>
      <path id="Path_11758" data-name="Path 11758" d="M40.592,99.5a6.332,6.332,0,0,0-.188-.845l-.211-.665h-2.23l-.211.665a4.513,4.513,0,0,0-.2.845h-1.83a7.721,7.721,0,0,0,.376-.954l1.69-4.709a4.781,4.781,0,0,0,.25-.845h2.042a6.257,6.257,0,0,0,.266.845l1.7,4.709c.149.415.274.736.376.954Zm-1.525-5.171-.728,2.347h1.471Z" transform="translate(576.801 33.826)" fill="#fff"/>
      <path id="Path_11759" data-name="Path 11759" d="M60.449,98.347a9.6,9.6,0,0,0,.063,1.158H58.807a10.364,10.364,0,0,0,.063-1.158V96.9l-1.8-2.957c-.141-.242-.313-.5-.626-.946h1.979a3.775,3.775,0,0,0,.368.821l.868,1.588.868-1.58a3.513,3.513,0,0,0,.36-.829h1.979c-.227.329-.524.775-.626.946L60.449,96.9Z" transform="translate(562.028 33.825)" fill="#fff"/>
    </g>
  </g>
</svg>
