<svg xmlns="http://www.w3.org/2000/svg" width="43" height="27" viewBox="0 0 53 37">
  <g id="plus7890ic" transform="translate(-0.001)">
    <g id="Ellipse_1745" data-name="Ellipse 1745" transform="translate(19.001 3)" fill="none" stroke="#5c5c5c" stroke-width="1">
      <circle cx="17" cy="17" r="17" stroke="none"/>
      <circle cx="17" cy="17" r="16.5" fill="none"/>
    </g>
    <g id="電子署名icon" transform="translate(27.5 11.5)">
      <path id="Path_3471" data-name="Path 3471" d="M127.763,923.779a1.453,1.453,0,0,1-.425,1.637,2.915,2.915,0,0,1-1.8.765,4.2,4.2,0,0,1-.487,0c.3,1.517-.155,2.3-1.359,2.355-.279.014-.406.155-.524.453-.519,1.318-1.056,2.625-1.585,3.936-.156.386-.369.679-.727.441a.789.789,0,0,1-.206-1.016c1.521-3.766,2.877-7.659,4.928-11.031a14.769,14.769,0,0,1,1.713-2.235,2.349,2.349,0,0,1,2.455-.823c1.068.3,1.552,1.641,1.183,3.162A2.874,2.874,0,0,1,127.763,923.779Z" transform="translate(-112.219 -918.178)" fill="#a7a7a7"/>
      <rect id="Rectangle_2468" data-name="Rectangle 2468" width="7.436" height="1.158" transform="translate(0 6.754)" fill="#a7a7a7"/>
      <rect id="Rectangle_2469" data-name="Rectangle 2469" width="8.111" height="1.158" transform="translate(0 10.436)" fill="#a7a7a7"/>
      <rect id="Rectangle_2470" data-name="Rectangle 2470" width="9.036" height="1.158" transform="translate(0 14.119)" fill="#a7a7a7"/>
    </g>
    <g id="Group_6629" data-name="Group 6629" transform="translate(0 0)">
      <circle id="Ellipse_1746" data-name="Ellipse 1746" cx="12.5" cy="12.5" r="12.5" transform="translate(0.001)" fill="#00be85"/>
      <path id="Path_10633" data-name="Path 10633" d="M-144.367-240.325h-5.391v-5.391A1.284,1.284,0,0,0-151.042-247a1.284,1.284,0,0,0-1.284,1.284v5.391h-5.391A1.284,1.284,0,0,0-159-239.042a1.284,1.284,0,0,0,1.284,1.284h5.391v5.391a1.284,1.284,0,0,0,1.284,1.284,1.284,1.284,0,0,0,1.284-1.284v-5.391h5.391a1.284,1.284,0,0,0,1.284-1.284A1.284,1.284,0,0,0-144.367-240.325Z" transform="translate(163.625 251.625)" fill="#343434"/>
    </g>
  </g>
</svg>
