<svg xmlns="http://www.w3.org/2000/svg" width="21.067" height="25.096" viewBox="0 0 21.067 25.096">
  <g id="post" transform="translate(-85.55 -462.552)">
    <path id="パス_5485" data-name="パス 5485" d="M102.036,462.552a8.83,8.83,0,0,1,4.476,2.09,5.879,5.879,0,0,1,2.231,4.623c-.046,1.745,0,3.492-.026,5.238a.836.836,0,0,1-.351.638c-2.983,1.732-5.99,3.441-8.99,5.152-.077.035-.156.065-.237.1-.016-.181-.041-.336-.041-.49,0-1.393-.054-2.788.01-4.178a7.214,7.214,0,0,0-4.074-6.585,25.963,25.963,0,0,0-3.327-1.453c.079-.046.262-.167.452-.278,2.209-1.262,4.407-2.537,6.633-3.776.731-.407,1.535-.72,2.307-1.077Z" transform="translate(-2.126 0)" fill="#f2f2f2"/>
    <path id="パス_5486" data-name="パス 5486" d="M99.372,498.706a21.142,21.142,0,0,1-2.422-.371,12.246,12.246,0,0,1-2.6-.975c-.878-.471-.826-1.093-.01-1.637a8.436,8.436,0,0,1,3.529-1.118v1.167a1.932,1.932,0,0,0,1.95,1.915h.043c.078,0,.156,0,.234,0a2.249,2.249,0,0,0,2.493-1.86V495.8c.015-.388,0-.776,0-1.227a8.589,8.589,0,0,1,3.715,1.2.809.809,0,0,1,.494,1.032.83.83,0,0,1-.081.166.99.99,0,0,1-.412.342,9.094,9.094,0,0,1-4.219,1.265c-.283.033-.565.082-.847.124Z" transform="translate(-2.819 -11.057)" fill="#f2f2f2"/>
    <path id="パス_5487" data-name="パス 5487" d="M95.8,483.792a8.182,8.182,0,0,1-1.053-.165c-2.886-.888-5.761-1.8-8.651-2.684a.589.589,0,0,1-.541-.633q.037-2.816.006-5.63a2.619,2.619,0,0,1,2.086-2.595,4.547,4.547,0,0,1,2.154.039c2.946.628,6.163,3.449,6.009,6.521-.073,1.466-.012,2.936-.012,4.4Zm-2.446-3.319a3.768,3.768,0,0,1,.007-.682c.109-.538-.185-.775-.786-.941-1.372-.383-2.716-.831-4.072-1.248-.2-.061-.4-.108-.614-.166-.175,1.281-.175,1.281,1.141,1.7.5.158,1,.321,1.5.477.917.281,1.827.557,2.826.864Z" transform="translate(0 -3.253)" fill="#f2f2f2"/>
    <path id="パス_5488" data-name="パス 5488" d="M104.26,492.616c0,.574.011,1.148,0,1.723a1.08,1.08,0,0,1-1.109,1.048h-.015a1.389,1.389,0,0,1-.2,0c-.851.014-1.252-.277-1.271-.982-.023-.816-.035-1.632.013-2.444a.949.949,0,0,1,.416-.612,13.746,13.746,0,0,1,1.423-.825c.511-.273.733-.177.746.319C104.269,491.43,104.26,492.022,104.26,492.616Z" transform="translate(-5.557 -9.605)" fill="#f2f2f2"/>
    <path id="パス_5531" data-name="パス 5531" d="M95.224,468.123a9.632,9.632,0,0,1,1.755.73,8.38,8.38,0,0,1,2.633,2.187l8.213-4.55a6.56,6.56,0,0,0-1.067-1.182,8.483,8.483,0,0,0-3.558-1.774Z" transform="translate(-3.34 -0.339)" fill="#f2f2f2"/>
  </g>
</svg>
