<svg xmlns="http://www.w3.org/2000/svg" width="26.177" height="26.542" viewBox="0 0 26.177 26.542">
  <g id="ゴミ箱" transform="translate(-106.678 -520.155)">
    <path id="Path_5808" data-name="Path 5808" d="M108.678,524.873c3.3-3.411,9.432-4.406,12.9,1.753l1.9-.846-2.075,5.919-5.27-2.449,2.071-1.022a6.044,6.044,0,0,0-3.788-4.06C112.5,523.532,110.665,524.087,108.678,524.873Z" transform="translate(-2 -2)" fill="#fff"/>
    <path id="Path_5809" data-name="Path 5809" d="M173.934,534.33c1.667-1,1.89-.985,2.638.192,1.145,1.8,1.141,1.823-.616,3,.811,1.288,1.627,2.58,2.437,3.876a2.611,2.611,0,0,1,.524.956c.037.381-.068,1.026-.294,1.122a1.336,1.336,0,0,1-1.235-.2,22.639,22.639,0,0,1-1.644-2.484q-3.045-4.815-6.085-9.634c-.079-.125-.158-.25-.234-.377-.322-.543-.369-1.074.229-1.437a.939.939,0,0,1,1.4.413Z" transform="translate(-46.07 -4.48)" fill="#fff"/>
    <path id="Path_5810" data-name="Path 5810" d="M139.693,561.158H125.416a.926.926,0,0,0-.917,1.053l1.968,14.271a.926.926,0,0,0,.917.8h10.34a.926.926,0,0,0,.917-.8l1.969-14.271A.926.926,0,0,0,139.693,561.158ZM129.124,575.15a.973.973,0,0,1-1.087-.843l-1.235-9.791a.973.973,0,1,1,1.931-.243l1.235,9.791A.972.972,0,0,1,129.124,575.15Zm4.4-1.066a.973.973,0,1,1-1.946,0v-9.73a.973.973,0,1,1,1.946,0Zm4.78-9.569-1.235,9.791a.973.973,0,0,1-1.931-.243l1.235-9.791a.973.973,0,1,1,1.931.243Z" transform="translate(-12.078 -30.585)" fill="#fff"/>
  </g>
</svg>
