<svg xmlns="http://www.w3.org/2000/svg" width="31.903" height="25.847" viewBox="0 0 31.903 25.847">
  <g id="トークンを送信" transform="translate(-1167.5 -275)">
    <g id="OFF">
      <g id="Group_7340" data-name="Group 7340" transform="translate(1333.159 482.918)">
        <path id="Path_10659" data-name="Path 10659" d="M-147-164.211l5.478,3.719-5.478,4.24Z" transform="translate(-11.023 -25.819)" fill="#dedddd"/>
        <path id="Path_10660" data-name="Path 10660" d="M-133.756-207.918l-10.992,25.649c-3.814-2.765-6.856-4.889-10.7-7.675,6.132-4.715,11.5-9.985,17.577-14.658l-.075-.127c-.211.129-.424.253-.633.386q-9.363,5.986-18.716,11.985a1.077,1.077,0,0,1-1.46-.043c-2.08-1.562-4.2-3.068-6.309-4.6-.166-.12-.325-.251-.6-.46Z" fill="#dedddd"/>
      </g>
    </g>
  </g>
</svg>
