<svg xmlns="http://www.w3.org/2000/svg" width="27.038" height="26.85" viewBox="0 0 27.038 26.85">
  <g id="icon" transform="translate(0 -1.829)">
    <path id="Path_11628" data-name="Path 11628" d="M0,8.5V35.11H26.611V17.968l-1.323,1.323v14.5H1.323V9.823h14.5L17.142,8.5Z" transform="translate(0 -6.43)" fill="#f2f2f2"/>
    <path id="パス_11484" data-name="パス 11484" d="M822.389,161.06a4.867,4.867,0,0,0,1.031-5.361l-3.046,3.046-2.62-2.62,3.017-3.017a4.867,4.867,0,0,0-6.5,5.864L803.626,169.62a2.3,2.3,0,0,0,0,3.256h0a2.3,2.3,0,0,0,3.256,0h0l10.613-10.613A4.863,4.863,0,0,0,822.389,161.06Z" transform="translate(-796.777 -150.924)" fill="#fdfdfd"/>
  </g>
</svg>
