<svg xmlns="http://www.w3.org/2000/svg" xmlns:xlink="http://www.w3.org/1999/xlink" width="69" height="48" viewBox="0 0 69 48">
                  <defs>
                    <filter id="Rectangle_5524" x="31.525" y="15.074" width="31.795" height="24.75" filterUnits="userSpaceOnUse">
                      <feOffset dy="1" input="SourceAlpha"/>
                      <feGaussianBlur stdDeviation="1.5" result="blur"/>
                      <feFlood flood-opacity="0.161"/>
                      <feComposite operator="in" in2="blur"/>
                      <feComposite in="SourceGraphic"/>
                    </filter>
                  </defs>
                  <g id="Mail-icon" transform="translate(1 4)">
                    <g id="Ellipse_1745" data-name="Ellipse 1745" transform="translate(24)" fill="none" stroke="#5c5c5c" stroke-width="1">
                      <circle cx="22" cy="22" r="22" stroke="none"/>
                      <circle cx="22" cy="22" r="21.5" fill="none"/>
                    </g>
                    <g id="mail" transform="translate(35.275 14.824)">
                      <g transform="matrix(1, 0, 0, 1, -36.28, -18.82)" filter="url(#Rectangle_5524)">
                        <rect id="Rectangle_5524-2" data-name="Rectangle 5524" width="22.295" height="15.25" transform="translate(36.28 18.82)" fill="#fff" stroke="#bababa" stroke-width="0.5"/>
                      </g>
                      <path id="Path_10638" data-name="Path 10638" d="M-210.427-250.38v1.494l9.741,6.241,9.741-6.241v-1.494Z" transform="translate(211.833 251.642)" fill="#b7b7b7"/>
                    </g>
                  </g>
                  <g id="settings" transform="translate(-288.594 -675.176)">
                    <circle id="Ellipse_1746" data-name="Ellipse 1746" cx="16" cy="16" r="16" transform="translate(288.594 675.176)" fill="#2e2d2d"/>
                    <path id="パス_3608" data-name="パス 3608" d="M306.033,689.581a2.941,2.941,0,1,1-.05,0Z" transform="translate(-1.649 -1.64)" fill="#aaa9a9"/>
                    <path id="パス_3609" data-name="パス 3609" d="M302.954,678.176h2.838a1.609,1.609,0,0,1,.714,1.156c.111.631.275,1.253.428,1.878a3.6,3.6,0,0,0,2.283,1.177,2.139,2.139,0,0,0,.286-.172c.61-.374,1.224-.744,1.831-1.123a.982.982,0,0,1,1.336.12q.724.714,1.441,1.441a.985.985,0,0,1,.124,1.336c-.328.53-.628,1.079-.992,1.583a1.1,1.1,0,0,0-.1,1.377c.177.285.217.649.383.942a1.081,1.081,0,0,0,.531.484,15.171,15.171,0,0,0,1.927.452,1.6,1.6,0,0,1,1.158.706v2.838a1.535,1.535,0,0,1-1.159.706c-.372.05-.732.2-1.1.236a1.563,1.563,0,0,0-1.627,1.385c-.033.216-.2.409-.248.628a.975.975,0,0,0,.023.6c.377.675.8,1.325,1.2,1.985a.966.966,0,0,1-.086,1.291q-.746.776-1.52,1.523a.942.942,0,0,1-1.243.114c-.518-.31-1.049-.605-1.541-.957a1.188,1.188,0,0,0-1.524-.143,2.729,2.729,0,0,1-.842.328.7.7,0,0,0-.562.614c-.124.629-.313,1.246-.42,1.878a1.594,1.594,0,0,1-.713,1.157h-2.832a1.586,1.586,0,0,1-.7-1.158c-.107-.631-.286-1.252-.428-1.877a3.63,3.63,0,0,0-2.284-1.177,2.062,2.062,0,0,0-.244.143c-.626.387-1.255.771-1.884,1.158a.98.98,0,0,1-1.336-.121q-.727-.714-1.443-1.442a.987.987,0,0,1-.125-1.336c.309-.5.587-1.016.93-1.487a1.184,1.184,0,0,0,.143-1.522,2.759,2.759,0,0,1-.328-.842.706.706,0,0,0-.616-.564c-.629-.124-1.245-.312-1.878-.419a1.589,1.589,0,0,1-1.157-.713v-2.837a1.527,1.527,0,0,1,1.157-.706c.372-.05.734-.2,1.106-.237a1.559,1.559,0,0,0,1.627-1.384c.036-.217.2-.41.248-.628a.94.94,0,0,0-.022-.6c-.376-.677-.791-1.33-1.2-1.987a.981.981,0,0,1,.12-1.335q.713-.727,1.441-1.443a.985.985,0,0,1,1.337-.123c.514.319,1.043.614,1.535.961a1.13,1.13,0,0,0,1.427.127c.277-.181.647-.216.942-.383a1.071,1.071,0,0,0,.485-.531,15.507,15.507,0,0,0,.453-1.928A1.594,1.594,0,0,1,302.954,678.176Zm1.4,19.845a7.077,7.077,0,1,0-7.06-7.093h0a7.1,7.1,0,0,0,7.06,7.09Z" transform="translate(0 0)" fill="#aaa9a9"/>
                  </g>
                </svg>