<svg xmlns="http://www.w3.org/2000/svg" width="25.036" height="24.947" viewBox="0 0 25.036 24.947">
  <g id="設定" transform="translate(-35.482 -1299.467)">
    <path id="Path_4124" data-name="Path 4124" d="M60.518,1312.424v-.967l-1.3-.243c-.01-.167-.023-.334-.041-.5l1.308-.467-.151-.955-1.406-.038.018.114q-.066-.283-.147-.561l1.154-.638-.3-.917-1.346.182c-.064-.147-.13-.292-.2-.436l1.042-.859-.468-.846-1.3.432c-.107-.162-.218-.322-.333-.477l.107.113.831-1.135-.662-.705-1.12.717q-.2-.215-.412-.417l.616-1.135-.75-.61-.96.815c-.122-.091-.247-.179-.373-.265l.409-1.245-.848-.465-.8.978c-.157-.08-.316-.156-.477-.229l.195-1.247-.911-.323-.618,1.066c-.147-.044-.295-.087-.445-.126l-.1-1.263-.961-.1-.324,1.1c-.237-.031-.475-.055-.716-.07l-.231-1.233h-.966l-.23,1.229c-.242.014-.481.038-.719.067l-.322-1.089-.961.1-.1,1.249c-.153.039-.3.083-.454.128l-.61-1.054-.911.323.192,1.226q-.247.109-.489.231l-.787-.959-.848.465.4,1.216c-.132.088-.26.181-.387.275l-.937-.8-.75.61.6,1.1c-.145.139-.288.282-.426.428l-1.088-.7-.662.705.818,1.118c-.087.121-.173.242-.256.367l-1.261-.418-.468.846,1.006.829c-.075.152-.145.305-.213.46l-1.3-.176-.3.917,1.11.614q-.069.234-.128.472l-1.363.037-.151.955,1.26.449c-.02.174-.034.35-.045.527l-1.248.233v.967l1.247.233c.012.177.026.353.045.527l-1.259.449.151.955,1.362.037q.059.239.128.473l-1.109.613.3.918,1.3-.176c.068.155.138.309.213.46l-1,.828.468.847,1.259-.418c.083.125.169.247.257.369l-.817,1.115.662.7,1.086-.694q.207.22.426.429l-.6,1.1.75.61.934-.793q.19.142.388.276l-.4,1.212.848.465.784-.956c.162.082.325.159.491.233l-.191,1.221.911.323.608-1.05c.151.046.3.089.457.129l.1,1.244.961.1.321-1.085c.238.03.478.054.721.068l.229,1.224h.966l.23-1.228c.242-.015.481-.039.718-.07l.323,1.091.961-.1.1-1.258c.151-.039.3-.082.449-.127l.615,1.062.911-.323-.194-1.243c.162-.072.321-.149.479-.229l.8.974.848-.465-.408-1.241q.19-.129.375-.267l.957.813.75-.61-.614-1.132q.211-.2.413-.418l1.117.715.662-.7-.831-1.135-.093.1q.167-.227.322-.462l1.3.432.468-.847-1.04-.857q.1-.216.2-.438l1.344.183.3-.918-1.153-.637c.053-.181.1-.363.143-.547l-.015.1,1.406-.039.151-.955-1.308-.466c.018-.166.031-.332.042-.5Zm-12.491,9.7A10.118,10.118,0,1,1,58.145,1312,10.118,10.118,0,0,1,48.027,1322.121Z" fill="#f2f2f2"/>
    <path id="Path_4125" data-name="Path 4125" d="M56.263,1307.764c-.143-.276-.3-.545-.468-.8a9.252,9.252,0,0,0-7.17-4.2c-.2-.013-.4-.021-.6-.021-.112,0-.222,0-.333.008a9.26,9.26,0,0,0-7.919,13.461,8.918,8.918,0,0,0,.464.807,9.256,9.256,0,0,0,7.455,4.242c.111,0,.221.008.333.008.2,0,.4-.009.6-.021a9.257,9.257,0,0,0,7.261-4.341q.246-.395.454-.813a9.266,9.266,0,0,0-.077-8.327Zm-7.638-4.168a8.42,8.42,0,0,1,6.449,3.781l-3.734,2.155a3.966,3.966,0,0,0-2.715-1.57Zm-.931-.015v4.381a3.966,3.966,0,0,0-2.715,1.57l-3.926-2.266A8.419,8.419,0,0,1,47.694,1303.581ZM39.6,1312a8.391,8.391,0,0,1,.978-3.94l3.936,2.273a3.966,3.966,0,0,0,0,3.14l-4.013,2.317A8.392,8.392,0,0,1,39.6,1312Zm8.1,8.422a8.421,8.421,0,0,1-6.733-3.826l4.018-2.32a3.962,3.962,0,0,0,2.715,1.57Zm.466-5.834a2.685,2.685,0,1,1,2.685-2.685A2.685,2.685,0,0,1,48.16,1314.591Zm.465,5.819v-4.561a3.96,3.96,0,0,0,2.715-1.57l3.825,2.208A8.424,8.424,0,0,1,48.625,1320.41Zm6.993-4.735-3.809-2.2a3.966,3.966,0,0,0,0-3.14l3.732-2.155a8.434,8.434,0,0,1,.077,7.494Z" fill="#f2f2f2"/>
    <circle id="Ellipse_1311" data-name="Ellipse 1311" cx="1.573" cy="1.573" r="1.573" transform="translate(46.587 1310.333)" fill="#f2f2f2"/>
  </g>
</svg>
