<svg xmlns="http://www.w3.org/2000/svg" width="20.681" height="21" viewBox="0 0 20.681 21">
  <g id="setting3" transform="translate(3 4)">
    <path id="Path_11031" data-name="Path 11031" d="M620.236,339.071a3.929,3.929,0,1,1,3.929-3.929A3.934,3.934,0,0,1,620.236,339.071Zm0-6.6a2.675,2.675,0,1,0,2.675,2.675A2.678,2.678,0,0,0,620.236,332.467Z" transform="translate(-612.895 -328.642)" fill="#909090"/>
    <path id="Path_11032" data-name="Path 11032" d="M621.516,328.5a7.772,7.772,0,0,0-.067-1.016l2.648-2.11L621.526,321l-3.136,1.285a7.742,7.742,0,0,0-1.616-.928L616.3,318h-5.078l-.479,3.352a7.739,7.739,0,0,0-1.616.928L605.986,321l-2.57,4.379,2.648,2.11a7.778,7.778,0,0,0,0,2.032l-2.648,2.11,2.57,4.379,3.136-1.285a7.761,7.761,0,0,0,1.616.928l.479,3.352H616.3l.479-3.352a7.764,7.764,0,0,0,1.616-.928L621.526,336l2.57-4.379-2.648-2.11A7.778,7.778,0,0,0,621.516,328.5Zm-.372,2.376,1.321,1.053-1.469,2.5-1.568-.642-1.258-.515a6.542,6.542,0,0,1-1.18.869l0,0a6.482,6.482,0,0,1-1.347.582l-.192,1.347-.239,1.672h-2.9l-.239-1.672-.192-1.347a6.483,6.483,0,0,1-1.347-.582l0,0a6.543,6.543,0,0,1-1.18-.869l-1.258.515-1.568.642-1.469-2.5,1.321-1.053,1.064-.847a6.518,6.518,0,0,1-.181-1.46c0-.023,0-.046,0-.069s0-.046,0-.069a6.513,6.513,0,0,1,.181-1.46l-1.064-.848-1.321-1.052,1.469-2.5,1.568.642,1.258.516a6.516,6.516,0,0,1,1.18-.869l0,0a6.455,6.455,0,0,1,1.347-.581l.192-1.347.239-1.672h2.9l.239,1.672.192,1.347a6.455,6.455,0,0,1,1.347.581l0,0a6.516,6.516,0,0,1,1.18.869l1.258-.516,1.568-.642,1.469,2.5-1.321,1.052-1.064.848a6.513,6.513,0,0,1,.181,1.46c0,.023,0,.046,0,.069s0,.046,0,.069a6.518,6.518,0,0,1-.181,1.46Z" transform="translate(-606.416 -322)" fill="#909090"/>
  </g>
</svg>
