<svg xmlns="http://www.w3.org/2000/svg" width="20.803" height="25.659" viewBox="0 0 20.803 25.659">
  <g id="Group_5961" data-name="Group 5961" transform="translate(-765.15 -744.651)">
    <path id="Path_6508" data-name="Path 6508" d="M779.939,749.709l-5.057-5.057-5.057,5.057.969.97,3.4-3.4v14.347h1.371V747.277l3.4,3.4Z" transform="translate(0.669)" fill="#fff"/>
    <path id="Path_6509" data-name="Path 6509" d="M782.029,750.9h-3.048v1.372h3.048a2.556,2.556,0,0,1,2.552,2.552v10.669a2.556,2.556,0,0,1-2.552,2.552H769.074a2.556,2.556,0,0,1-2.552-2.552V754.824a2.556,2.556,0,0,1,2.552-2.552h3.048V750.9h-3.048a3.928,3.928,0,0,0-3.924,3.924v10.669a3.928,3.928,0,0,0,3.924,3.924h12.955a3.928,3.928,0,0,0,3.924-3.924V754.824A3.928,3.928,0,0,0,782.029,750.9Z" transform="translate(0 0.894)" fill="#fff"/>
  </g>
</svg>
