<svg id="token_3" xmlns="http://www.w3.org/2000/svg" width="25.322" height="25.171" viewBox="0 0 25.322 25.171">
  <path id="Path_5588" data-name="Path 5588" d="M269.033,561.62l-2.857-6.9a1.595,1.595,0,1,0-2.315-2.173l-6.655-2.756-8.364,3.465-2.772,6.692a1.6,1.6,0,1,0-.307,3.171,1.545,1.545,0,0,0,.227-.023l2.853,6.888,8.113,3.36.251.1.031-.013,6.75-2.8a1.6,1.6,0,1,0,2.252-2.272Zm-3.918-8.928a.84.84,0,0,1,.839.839.824.824,0,0,1-.106.4.833.833,0,0,1-.647.432.8.8,0,0,1-.087.009.832.832,0,0,1-.452-.134l-.025-.016a.837.837,0,0,1-.36-.674s0-.01,0-.015a.847.847,0,0,1,.839-.839Zm-19.353,9.664a.779.779,0,0,1-.083-.008.836.836,0,0,1,.083-1.669h0a.838.838,0,0,1,0,1.677Zm20.192,7.148a.84.84,0,0,1-.839.839.823.823,0,0,1-.286-.054.837.837,0,0,1,.286-1.624.823.823,0,0,1,.141.014l.026,0a.847.847,0,0,1,.672.822Zm-.839-1.6c-.027,0-.052.007-.079.008l-1.064-3.724-.072.02-1.748-3.495-.681.342,1.419,2.838-6.942,2.37.247.721,7.091-2.421,1.019,3.567a1.557,1.557,0,0,0-.714,1.846l-5.519,2.287,4.766-6.673-.62-.443-5.028,7.039-1.86-3.412-.67.365,1.712,3.139-6.948-2.878.1-.091-.065-3.767-.762.013.037,2.172-2.035-4.914a1.656,1.656,0,0,0,.182-.151l1.977,1.4.441-.622-2.019-1.433a1.549,1.549,0,0,0-.518-1.735l2.666-6.436,6.928-2.87-2.105,4.473.69.325,2.4-5.1,6.206,2.571a1.557,1.557,0,0,0-.029.289,1.594,1.594,0,0,0,.459,1.12l-2.124,3.338.643.409,2.132-3.351a1.455,1.455,0,0,0,.875.033l2.449,5.914-6.6-1.649-3.335-7.882-.7.3,3.111,7.353-5.077-1.269v-.012a1.6,1.6,0,0,0-1.6-1.6,1.586,1.586,0,0,0-.852.251l-2.473-2.5-.542.536,2.488,2.517a1.586,1.586,0,0,0-.222.8,1.631,1.631,0,0,0,.018.182l-4.51,2.168.33.687,4.442-2.135a1.6,1.6,0,0,0,.958.653l.332,5.644.761-.044-.33-5.612a1.6,1.6,0,0,0,1.005-.794l5.171,1.292-5.312,5.713a1.576,1.576,0,0,0-1.864.428l-3.171-2.118,2.824-4.237-.635-.423-2.87,4.3.483.322-.377.565,3.4,2.27a1.6,1.6,0,0,0-.04.348,1.639,1.639,0,0,0,.023.234l-2.436,1.151.325.689,2.4-1.133a1.595,1.595,0,1,0,2.541-1.927l5.557-5.975,6.124,1.531-2.8,1.629.382.659,3.144-1.826-2.444,5.9A1.586,1.586,0,0,0,265.114,567.9Zm-10.527-10.072a.844.844,0,1,1-.021-.184A.863.863,0,0,1,254.587,557.833Zm-.224,8.377a.839.839,0,1,1-.839.839A.84.84,0,0,1,254.362,566.209Z" transform="translate(-244.16 -549.01)" fill="#f2f2f2"/>
  <g id="Group_4926" data-name="Group 4926" transform="translate(4.065)">
    <ellipse id="Ellipse_1679" data-name="Ellipse 1679" cx="1.22" cy="1.22" rx="1.22" ry="1.22" transform="translate(7.759)" fill="#f2f2f2"/>
    <ellipse id="Ellipse_1680" data-name="Ellipse 1680" cx="1.22" cy="1.22" rx="1.22" ry="1.22" transform="translate(11.752 9.216)" fill="#f2f2f2"/>
    <ellipse id="Ellipse_1681" data-name="Ellipse 1681" cx="1.067" cy="1.067" rx="1.067" ry="1.067" transform="translate(14.055 13.976)" fill="#f2f2f2"/>
    <ellipse id="Ellipse_1682" data-name="Ellipse 1682" cx="1.006" cy="1.006" rx="1.006" ry="1.006" transform="translate(0.292 14.037)" fill="#f2f2f2"/>
    <ellipse id="Ellipse_1683" data-name="Ellipse 1683" cx="1.22" cy="1.22" rx="1.22" ry="1.22" transform="translate(7.759 22.732)" fill="#f2f2f2"/>
    <ellipse id="Ellipse_1684" data-name="Ellipse 1684" cx="1.22" cy="1.22" rx="1.22" ry="1.22" transform="translate(18.817 11.366)" fill="#f2f2f2"/>
    <ellipse id="Ellipse_1685" data-name="Ellipse 1685" cx="0.915" cy="0.915" rx="0.915" ry="0.915" transform="translate(0 19.581)" fill="#f2f2f2"/>
    <ellipse id="Ellipse_1686" data-name="Ellipse 1686" cx="0.915" cy="0.915" rx="0.915" ry="0.915" transform="translate(0 3.607)" fill="#f2f2f2"/>
  </g>
</svg>
