<svg xmlns="http://www.w3.org/2000/svg" width="27" height="27" viewBox="0 0 27 27">
  <g id="Group_8028" data-name="Group 8028" transform="translate(-38.301 -356)">
    <g id="user_2" transform="translate(38.301 356)">
      <path id="Path_6506" data-name="Path 6506" d="M1386.5,322a13.493,13.493,0,1,0,13.5,13.5A13.515,13.515,0,0,0,1386.5,322Zm8.463,22.75a12.538,12.538,0,1,1,4.082-9.25A12.495,12.495,0,0,1,1394.963,344.75Z" transform="translate(-1373 -322)" fill="#f2f2f2"/>
      <path id="Path_6507" data-name="Path 6507" d="M1402.95,369.067a8.5,8.5,0,0,0-8.352-8.111h0a8.5,8.5,0,0,0-8.352,8.111,12.044,12.044,0,0,0,16.7,0Z" transform="translate(-1381.098 -346.41)" fill="#f2f2f2"/>
      <circle id="Ellipse_1" data-name="Ellipse 1" cx="4.395" cy="4.395" r="4.395" transform="translate(9.105 5.084)" fill="#f2f2f2"/>
    </g>
  </g>
</svg>
