<svg xmlns="http://www.w3.org/2000/svg" width="44.149" height="26.8" viewBox="0 0 44.149 26.8">
  <g id="Wallet" transform="translate(-552.499 -263.197)">
    <g id="Wallet-2" data-name="Wallet" transform="translate(392.177 -422.659)">
      <g id="Group_4834" data-name="Group 4834" transform="translate(178.323 691.796)">
        <path id="パス_5069" data-name="パス 5069" d="M181.75,690.26c-.358.464-.378.608-.162,1.212h-.661a.885.885,0,0,0-.626.229,2.111,2.111,0,0,0-.637,1.162h22.459a2.049,2.049,0,0,1,.445.039.822.822,0,0,1,.606.837v5.716a.28.28,0,0,0,.188.306,1.756,1.756,0,0,1,1.085,1.572,16.16,16.16,0,0,1,0,1.8,1.767,1.767,0,0,1-1.085,1.576.281.281,0,0,0-.188.3v5.071c0,.677-.308.988-.98.988H179.305a.853.853,0,0,1-.972-.971V693.84a4.189,4.189,0,0,1,.365-2,2.579,2.579,0,0,1,1.787-1.562A7.581,7.581,0,0,1,181.75,690.26Zm17.332,14.159h3.679a1.1,1.1,0,0,0,.692-.236,1.431,1.431,0,0,0,.584-1.2V701.54a1.462,1.462,0,0,0-1.361-1.558,1.433,1.433,0,0,0-.2,0h-7.039a2.5,2.5,0,0,0-1.248.317,2.245,2.245,0,0,0-.847,2.882,2.189,2.189,0,0,0,2.044,1.231C196.628,704.423,197.854,704.419,199.082,704.419Z" transform="translate(-178.323 -690.227)" fill="#fff" opacity="0.981" style="isolation: isolate"/>
        <path id="パス_5070" data-name="パス 5070" d="M192.037,690.234H195.3a.62.62,0,0,1,.678.553.623.623,0,0,1-.607.681c-.937.01-1.874,0-2.812,0a.19.19,0,0,1-.146-.085C192.286,691.017,192.17,690.644,192.037,690.234Z" transform="translate(-172.03 -690.231)" fill="#fff"/>
      </g>
      <g id="Group_4845" data-name="Group 4845" transform="translate(181.943 686.856)">
        <path id="パス_5071" data-name="パス 5071" d="M195.689,689.078c-.376.146-.732.293-1.092.429l-11.055,4.28a.874.874,0,0,1-.312.061c-.586,0-1.187,0-1.782.007a.233.233,0,0,1-.262-.184c-.091-.264-.2-.52-.293-.78a.7.7,0,0,1,.451-1.035q2.356-.918,4.717-1.828l7.915-3.074c.564-.218.87-.079,1.088.486C195.265,687.983,195.474,688.522,195.689,689.078Z" transform="translate(-180.796 -686.856)" fill="#fff" style="isolation: isolate"/>
        <path id="パス_5072" data-name="パス 5072" d="M186.44,692.508l7.357-2.851,1.12,2.885h-8.471Z" transform="translate(-178.178 -685.557)" fill="#fff" style="isolation: isolate"/>
      </g>
      <path id="パス_5073" data-name="パス 5073" d="M194.43,701.32h-3.69a2.2,2.2,0,0,1-2.049-1.229,2.239,2.239,0,0,1,.849-2.879,2.513,2.513,0,0,1,1.252-.316h7.057a1.465,1.465,0,0,1,1.56,1.361,1.436,1.436,0,0,1,0,.195v1.438a1.428,1.428,0,0,1-.586,1.2,1.1,1.1,0,0,1-.694.236C196.889,701.316,195.66,701.32,194.43,701.32Zm-3.234-1.429a.861.861,0,1,0-.831-.89A.861.861,0,0,0,191.2,699.892Z" transform="translate(4.638 4.669)" fill="none"/>
      <path id="パス_5074" data-name="パス 5074" d="M190.595,699.486a.861.861,0,1,1,.892-.831A.861.861,0,0,1,190.595,699.486Z" transform="translate(5.261 5.073)" fill="#fff" stroke="#fff" stroke-width="1"/>
    </g>
    <path id="Path_10763" data-name="Path 10763" d="M895.769,716.247a10.6,10.6,0,1,0,10.6,10.6A10.6,10.6,0,0,0,895.769,716.247Zm5.675,11.718h-4.556v4.556a1.085,1.085,0,0,1-2.171,0v-4.556h-4.555a1.085,1.085,0,1,1,0-2.169h4.555V721.24a1.085,1.085,0,0,1,2.171,0V725.8h4.556a1.085,1.085,0,1,1,0,2.169Z" transform="translate(-332.67 -453.05)" fill="#fff"/>
  </g>
</svg>
