<svg xmlns="http://www.w3.org/2000/svg" xmlns:xlink="http://www.w3.org/1999/xlink" width="36.106" height="35.626" viewBox="0 0 36.106 35.626">
  <defs>
    <linearGradient id="linear-gradient" x1="0.5" x2="0.5" y2="1" gradientUnits="objectBoundingBox">
      <stop offset="0" stop-color="#51adf7"/>
      <stop offset="1" stop-color="#357ff2"/>
    </linearGradient>
  </defs>
  <g id="Wallet" transform="translate(-178.323 -686.856)">
    <g id="Group_4834" data-name="Group 4834" transform="translate(178.323 693.678)">
      <path id="パス_5069" data-name="パス 5069" d="M183.054,690.268c-.494.641-.522.84-.224,1.673h-.913a1.224,1.224,0,0,0-.865.316,2.915,2.915,0,0,0-.879,1.6h31.012a2.829,2.829,0,0,1,.615.055,1.135,1.135,0,0,1,.837,1.155v7.893a.387.387,0,0,0,.26.423,2.424,2.424,0,0,1,1.5,2.171,22.309,22.309,0,0,1,0,2.491,2.44,2.44,0,0,1-1.5,2.177.388.388,0,0,0-.26.419v7c0,.935-.425,1.364-1.353,1.364h-31.6a1.178,1.178,0,0,1-1.343-1.341V695.211a5.783,5.783,0,0,1,.5-2.768,3.56,3.56,0,0,1,2.468-2.157A10.471,10.471,0,0,1,183.054,690.268Zm23.933,19.551h5.081a1.515,1.515,0,0,0,.956-.326,1.976,1.976,0,0,0,.806-1.663v-1.987a2.019,2.019,0,0,0-1.879-2.151,1.976,1.976,0,0,0-.27,0h-9.72a3.454,3.454,0,0,0-1.724.437,3.1,3.1,0,0,0-1.169,3.98,3.022,3.022,0,0,0,2.823,1.7C203.6,709.825,205.292,709.819,206.988,709.819Z" transform="translate(-178.323 -690.221)" opacity="0.981" fill="url(#linear-gradient)" style="isolation: isolate"/>
      <path id="パス_5070" data-name="パス 5070" d="M192.037,690.235h4.508a.856.856,0,0,1,.936.764.861.861,0,0,1-.839.94c-1.294.014-2.587,0-3.883,0a.262.262,0,0,1-.2-.117C192.381,691.317,192.221,690.8,192.037,690.235Z" transform="translate(-164.411 -690.231)" fill="#51adf7"/>
    </g>
    <g id="Group_4845" data-name="Group 4845" transform="translate(183.321 686.856)">
      <path id="パス_5071" data-name="パス 5071" d="M201.361,689.924c-.52.2-1.011.4-1.508.592q-7.635,2.956-15.265,5.91a1.2,1.2,0,0,1-.431.085c-.809,0-1.639,0-2.46.01a.321.321,0,0,1-.362-.255c-.125-.364-.275-.718-.4-1.077a.961.961,0,0,1,.623-1.429q3.253-1.267,6.513-2.525L199,686.991c.778-.3,1.2-.109,1.5.671C200.775,688.412,201.064,689.156,201.361,689.924Z" transform="translate(-180.796 -686.856)" fill="#51adf7" style="isolation: isolate"/>
      <path id="パス_5072" data-name="パス 5072" d="M186.44,693.594l10.159-3.937,1.546,3.984h-11.7Z" transform="translate(-175.031 -683.996)" fill="#51adf7" style="isolation: isolate"/>
    </g>
    <path id="パス_5073" data-name="パス 5073" d="M196.7,703.007h-5.1a3.033,3.033,0,0,1-2.83-1.7,3.092,3.092,0,0,1,1.172-3.976,3.473,3.473,0,0,1,1.728-.437h9.745a2.023,2.023,0,0,1,2.155,1.88,1.981,1.981,0,0,1,0,.269v1.985a1.972,1.972,0,0,1-.809,1.661,1.522,1.522,0,0,1-.958.326C200.1,703,198.4,703.007,196.7,703.007Zm-4.465-1.973a1.188,1.188,0,1,0-1.148-1.229A1.188,1.188,0,0,0,192.235,701.034Z" transform="translate(10.268 10.269)" fill="none"/>
    <path id="パス_5074" data-name="パス 5074" d="M190.911,700.141a1.188,1.188,0,1,1,1.231-1.148A1.188,1.188,0,0,1,190.911,700.141Z" transform="translate(11.622 11.16)" fill="#357ff2" stroke="#357ff2" stroke-width="1"/>
  </g>
</svg>
