<svg xmlns="http://www.w3.org/2000/svg" width="27" height="26.904" viewBox="0 0 27 26.904">
  <g id="設定" transform="translate(-35.482 -1299.467)">
    <path id="Path_4124" data-name="Path 4124" d="M62.482,1313.441V1312.4l-1.4-.262c-.011-.18-.025-.36-.044-.538l1.411-.5-.163-1.03-1.516-.041.019.123q-.071-.306-.159-.6l1.245-.688-.327-.989-1.452.2c-.069-.159-.14-.315-.217-.47l1.124-.926-.5-.912-1.406.466c-.115-.175-.235-.347-.359-.514l.115.122.9-1.224-.714-.76-1.208.773q-.217-.231-.444-.45l.664-1.224-.809-.658-1.035.879c-.132-.1-.266-.193-.4-.286l.441-1.343-.915-.5-.865,1.055q-.254-.129-.514-.247l.21-1.345-.982-.348-.666,1.15c-.159-.047-.318-.094-.48-.136l-.113-1.362-1.036-.107-.349,1.182c-.256-.033-.512-.059-.772-.076l-.249-1.33H48.461l-.248,1.325c-.261.015-.519.041-.775.072l-.347-1.174-1.036.107-.112,1.347c-.165.042-.327.089-.49.138l-.658-1.137-.982.348.207,1.322q-.267.118-.527.249l-.849-1.034-.915.5.431,1.312c-.142.095-.28.2-.417.3l-1.011-.859-.809.658.645,1.19c-.156.15-.311.3-.459.462l-1.173-.751-.714.76.882,1.206c-.094.13-.187.261-.276.4l-1.36-.451-.5.912,1.085.894c-.081.164-.156.329-.23.5l-1.4-.19-.327.989,1.2.662q-.074.252-.138.509l-1.47.04-.163,1.03,1.359.484c-.022.188-.037.377-.049.568l-1.346.251v1.043l1.345.251c.013.191.028.381.049.568l-1.358.484.163,1.03,1.469.04c.042.172.088.342.138.51l-1.2.661.327.99,1.4-.19c.073.167.149.333.23.5l-1.083.893.5.914,1.358-.451c.09.135.182.266.277.4l-.881,1.2.714.76,1.171-.748q.223.238.459.463l-.643,1.186.809.658,1.007-.855q.205.154.418.3l-.429,1.307.915.5.846-1.031c.175.088.351.171.53.251l-.206,1.317.982.348.656-1.132c.163.05.327.1.493.139l.111,1.342,1.036.107.346-1.17c.257.032.516.058.778.073l.247,1.32H49.5l.248-1.324c.261-.016.519-.042.774-.076l.348,1.177,1.036-.107.112-1.357c.163-.042.325-.088.484-.137l.663,1.145.982-.348L53.943,1324c.175-.078.346-.161.517-.247l.862,1.05.915-.5-.44-1.338q.205-.139.4-.288l1.032.877.809-.658-.662-1.221q.228-.22.445-.451l1.2.771.714-.76-.9-1.224-.1.107q.18-.244.347-.5l1.4.466.5-.914-1.122-.924q.113-.233.217-.472l1.449.2.327-.99-1.243-.687c.057-.2.108-.391.154-.59l-.016.108,1.516-.042.163-1.03-1.411-.5c.019-.179.033-.358.045-.539ZM49.011,1323.9a10.912,10.912,0,1,1,10.912-10.912A10.912,10.912,0,0,1,49.011,1323.9Z" transform="translate(0 0)" fill="#d9d9d9"/>
    <path id="Path_4125" data-name="Path 4125" d="M57.636,1308.158a10.016,10.016,0,0,0-8.237-5.4c-.214-.014-.428-.023-.645-.023-.121,0-.239,0-.359.009a9.986,9.986,0,0,0-8.54,14.517,9.627,9.627,0,0,0,.5.87,9.982,9.982,0,0,0,8.04,4.575c.12,0,.238.009.359.009.217,0,.431-.01.645-.023a9.984,9.984,0,0,0,7.831-4.682q.265-.426.49-.877a9.993,9.993,0,0,0-.083-8.98Zm-8.237-4.5a9.081,9.081,0,0,1,6.955,4.078l-4.027,2.324a4.277,4.277,0,0,0-2.928-1.693Zm-1-.016v4.725a4.277,4.277,0,0,0-2.928,1.693l-4.234-2.444A9.08,9.08,0,0,1,48.395,1303.647Zm-8.733,9.083a9.049,9.049,0,0,1,1.055-4.249l4.245,2.451a4.277,4.277,0,0,0,0,3.386l-4.328,2.5A9.05,9.05,0,0,1,39.661,1312.73Zm8.733,9.083a9.082,9.082,0,0,1-7.261-4.126l4.333-2.5a4.273,4.273,0,0,0,2.928,1.693Zm.5-6.292a2.9,2.9,0,1,1,2.9-2.9A2.9,2.9,0,0,1,48.9,1315.521Zm.5,6.276v-4.919a4.271,4.271,0,0,0,2.928-1.693l4.125,2.381A9.084,9.084,0,0,1,49.4,1321.8Zm7.542-5.106-4.108-2.372a4.277,4.277,0,0,0,0-3.386l4.025-2.324a9.1,9.1,0,0,1,.083,8.082Z" transform="translate(0.258 0.257)" fill="#d9d9d9"/>
    <circle id="Ellipse_1311" data-name="Ellipse 1311" cx="1.696" cy="1.696" r="1.696" transform="translate(47.458 1311.185)" fill="#d9d9d9"/>
  </g>
</svg>
