<svg xmlns="http://www.w3.org/2000/svg" width="206.564" height="31.083" viewBox="0 0 206.564 31.083">
  <g id="J-STO_Admin" data-name="J-STO Admin" transform="translate(-135.943 -45.5)">
    <g id="Group_7996" data-name="Group 7996" transform="translate(-2)">
      <path id="Path_11835" data-name="Path 11835" d="M141.684.313V16.654L137.277.313H131.9v27.3h3.861V7.84L141.1,27.614h4.408V.313Z" transform="translate(199 47)" fill="#a5a5a5"/>
      <path id="Path_11834" data-name="Path 11834" d="M115.439.313,112.514,19.7,109.354.313h-5.967v27.3h3.744V8.308l3.2,19.306h4.057l2.963-19.58v19.58h4.057V.313Z" transform="translate(199 47)" fill="#a5a5a5"/>
      <path id="Path_11833" data-name="Path 11833" d="M91.805,4.213h2.418c1.364,0,2.183.7,2.183,2.651v14.2c0,1.95-.819,2.652-2.183,2.652H91.805ZM87.514.313v27.3H94.3c4.29,0,6.4-2.379,6.4-6.748V7.059c0-4.367-2.107-6.746-6.4-6.746Z" transform="translate(199 47)" fill="#a5a5a5"/>
      <path id="Path_11832" data-name="Path 11832" d="M77.8,5.149l2.067,13.807H75.737ZM74.879.313l-4.369,27.3h3.94l.741-4.954h5.265l.741,4.954h4.329L81.158.313Z" transform="translate(199 47)" fill="#a5a5a5"/>
      <path id="Path_11831" data-name="Path 11831" d="M54.092,21.334V6.592c0-1.95.858-2.691,2.223-2.691s2.223.741,2.223,2.691V21.334c0,1.951-.858,2.691-2.223,2.691s-2.223-.74-2.223-2.691M56.315,0C52.1,0,49.8,2.5,49.8,6.864v14.2c0,4.369,2.3,6.865,6.514,6.865s6.513-2.5,6.513-6.865V6.864C62.828,2.5,60.528,0,56.315,0Z" transform="translate(199 47)" fill="#a5a5a5"/>
      <path id="Path_11830" data-name="Path 11830" d="M35.021.313v3.9h4.485v23.4H43.8V4.213h4.484V.313Z" transform="translate(199 47)" fill="#a5a5a5"/>
      <path id="Path_11829" data-name="Path 11829" d="M27.456,0c-4.173,0-6.319,2.5-6.319,6.864,0,7.8,8.386,8.854,8.386,14.47,0,1.951-.858,2.653-2.223,2.653s-2.223-.7-2.223-2.653v-1.95H21.02v1.677c0,4.369,2.185,6.865,6.4,6.865s6.4-2.5,6.4-6.865c0-7.8-8.385-8.853-8.385-14.469,0-1.95.78-2.691,2.144-2.691s2.146.741,2.146,2.691V7.723h4.056V6.864C33.774,2.5,31.629,0,27.456,0Z" transform="translate(199 47)" fill="#a5a5a5"/>
      <rect id="Rectangle_6501" data-name="Rectangle 6501" width="4.29" height="27.301" transform="translate(323.523 47.313)" fill="#a5a5a5"/>
      <rect id="Rectangle_6493" data-name="Rectangle 6493" width="7.8" height="3.901" transform="translate(209.959 59.014)" fill="#a5a5a5"/>
      <path id="Path_11828" data-name="Path 11828" d="M3.939.313V21.139c0,2.106-1.091,2.613-2.457,2.613-.468,0-1.014,0-1.482-.039v3.9a17.634,17.634,0,0,0,2.067.078c3.238,0,6.162-1.4,6.162-6.864V.313Z" transform="translate(199 47)" fill="#00be85"/>
    </g>
    <g id="Group_7995" data-name="Group 7995" transform="translate(109 11.557)">
      <g id="Group_7993" data-name="Group 7993" transform="translate(27.043 34.043)">
        <path id="Path_11836" data-name="Path 11836" d="M38.642,26.61l-2.362,2.87,1.425,1.757Z" transform="translate(-30.436 -22.334)" fill="none" stroke="#b2b2b2" stroke-linecap="round" stroke-linejoin="round" stroke-width="0.2"/>
        <path id="Path_11837" data-name="Path 11837" d="M28.3,130.591l1.7,4.153,1.167-2.3Z" transform="translate(-23.752 -109.451)" fill="none" stroke="#b2b2b2" stroke-linecap="round" stroke-linejoin="round" stroke-width="0.2"/>
        <path id="Path_11838" data-name="Path 11838" d="M52.416,160.249l-2.026,1.656-1.561-1.443Z" transform="translate(-40.95 -134.298)" fill="none" stroke="#b2b2b2" stroke-linecap="round" stroke-linejoin="round" stroke-width="0.2"/>
        <path id="Path_11839" data-name="Path 11839" d="M152.885,159.35l3.369-1.964L152.734,155Z" transform="translate(-128.002 -129.902)" fill="none" stroke="#b2b2b2" stroke-linecap="round" stroke-linejoin="round" stroke-width="0.2"/>
        <path id="Path_11840" data-name="Path 11840" d="M186.481,131.755l.718,2.674-1.3,1.668Z" transform="translate(-155.787 -110.426)" fill="none" stroke="#b2b2b2" stroke-linecap="round" stroke-linejoin="round" stroke-width="0.2"/>
        <path id="Path_11841" data-name="Path 11841" d="M196.21,95.2l-.535,4.147L193.5,96.679Z" transform="translate(-162.156 -79.797)" fill="none" stroke="#b2b2b2" stroke-linecap="round" stroke-linejoin="round" stroke-width="0.2"/>
        <path id="Path_11842" data-name="Path 11842" d="M141.74,4.117l1.822.651,1.215,3.346Z" transform="translate(-118.791 -3.489)" fill="none" stroke="#b2b2b2" stroke-linecap="round" stroke-linejoin="round" stroke-width="0.2"/>
        <path id="Path_11843" data-name="Path 11843" d="M85.259,1.149l4.8-.9-1.617,2.3Z" transform="translate(-71.47 -0.25)" fill="none" stroke="#b2b2b2" stroke-linecap="round" stroke-linejoin="round" stroke-width="0.2"/>
        <path id="Path_11844" data-name="Path 11844" d="M21.446,74.338l-.355,3.082,2.981-2.006Z" transform="translate(-17.71 -62.321)" fill="none" stroke="#b2b2b2" stroke-linecap="round" stroke-linejoin="round" stroke-width="0.2"/>
        <path id="Path_11845" data-name="Path 11845" d="M21.981,99.9l.782,3.54,1.271-4.445Z" transform="translate(-18.456 -82.975)" fill="none" stroke="#b2b2b2" stroke-linecap="round" stroke-linejoin="round" stroke-width="0.2"/>
        <path id="Path_11846" data-name="Path 11846" d="M54.453,73.247l-.677,3.136,2.807.919Z" transform="translate(-45.094 -61.407)" fill="none" stroke="#b2b2b2" stroke-linecap="round" stroke-linejoin="round" stroke-width="0.2"/>
        <path id="Path_11847" data-name="Path 11847" d="M171.388,24.271l2.649,2.7-4.029.845Z" transform="translate(-142.474 -20.374)" fill="none" stroke="#b2b2b2" stroke-linecap="round" stroke-linejoin="round" stroke-width="0.2"/>
        <path id="Path_11848" data-name="Path 11848" d="M201.736,56.072l1,2.785-1.072.222Z" transform="translate(-168.992 -47.018)" fill="none" stroke="#b2b2b2" stroke-linecap="round" stroke-linejoin="round" stroke-width="0.2"/>
        <path id="Path_11849" data-name="Path 11849" d="M23.289,78.337l-1.843-4-.355,3.082Z" transform="translate(-17.71 -62.321)" fill="none" stroke="#b2b2b2" stroke-linecap="round" stroke-linejoin="round" stroke-width="0.2"/>
        <path id="Path_11850" data-name="Path 11850" d="M156.742,148.647l6.029-.4-1.3,1.668Z" transform="translate(-131.359 -124.241)" fill="none" stroke="#b2b2b2" stroke-linecap="round" stroke-linejoin="round" stroke-width="0.2"/>
        <path id="Path_11851" data-name="Path 11851" d="M144.494,146.608l1.987.668-.65.693Z" transform="translate(-121.098 -122.869)" fill="none" stroke="#b2b2b2" stroke-linecap="round" stroke-linejoin="round" stroke-width="0.2"/>
        <path id="Path_11852" data-name="Path 11852" d="M18.956,109.474l1.3-1.034-.58,1.334Z" transform="translate(-15.921 -90.892)" fill="none" stroke="#b2b2b2" stroke-linecap="round" stroke-linejoin="round" stroke-width="0.2"/>
        <path id="Path_11853" data-name="Path 11853" d="M7.616,96.217l-.873.772.375-1.47Z" transform="translate(-5.689 -80.067)" fill="none" stroke="#b2b2b2" stroke-linecap="round" stroke-linejoin="round" stroke-width="0.2"/>
        <path id="Path_11854" data-name="Path 11854" d="M2.091,85.787l1.554-.138-1.687.978Z" transform="translate(-1.681 -71.797)" fill="none" stroke="#b2b2b2" stroke-linecap="round" stroke-linejoin="round" stroke-width="0.2"/>
        <path id="Path_11855" data-name="Path 11855" d="M3.109,87.964,2.091,86.5l-.132.84Z" transform="translate(-1.681 -72.512)" fill="none" stroke="#b2b2b2" stroke-linecap="round" stroke-linejoin="round" stroke-width="0.2"/>
        <path id="Path_11856" data-name="Path 11856" d="M26.653,62.36,27.124,62l1.247.165Z" transform="translate(-22.37 -51.985)" fill="none" stroke="#b2b2b2" stroke-linecap="round" stroke-linejoin="round" stroke-width="0.2"/>
        <path id="Path_11857" data-name="Path 11857" d="M31.165,65.078,29.556,62l1.247.165Z" transform="translate(-24.803 -51.985)" fill="none" stroke="#b2b2b2" stroke-linecap="round" stroke-linejoin="round" stroke-width="0.2"/>
        <path id="Path_11858" data-name="Path 11858" d="M41.793,82.855l-2.32-1.883,5.127,2.8Z" transform="translate(-33.111 -67.879)" fill="none" stroke="#b2b2b2" stroke-linecap="round" stroke-linejoin="round" stroke-width="0.2"/>
        <path id="Path_11859" data-name="Path 11859" d="M1.618,69.928l-.238-.614L.25,69.792Z" transform="translate(-0.25 -58.111)" fill="none" stroke="#b2b2b2" stroke-linecap="round" stroke-linejoin="round" stroke-width="0.2"/>
        <path id="Path_11860" data-name="Path 11860" d="M209.284,79.835l.142,1.229,1.644-1.628Z" transform="translate(-175.38 -66.593)" fill="none" stroke="#b2b2b2" stroke-linecap="round" stroke-linejoin="round" stroke-width="0.2"/>
        <path id="Path_11861" data-name="Path 11861" d="M212.881,57.093l-1.028.278.7,1.605Z" transform="translate(-177.531 -47.873)" fill="none" stroke="#b2b2b2" stroke-linecap="round" stroke-linejoin="round" stroke-width="0.2"/>
        <path id="Path_11862" data-name="Path 11862" d="M201.66,59.08l.077-3.007,1.577.443Z" transform="translate(-168.992 -47.018)" fill="none" stroke="#b2b2b2" stroke-linecap="round" stroke-linejoin="round" stroke-width="0.2"/>
        <path id="Path_11863" data-name="Path 11863" d="M212.1,81.25l-2.82-1.415,1.785-.4Z" transform="translate(-175.38 -66.592)" fill="none" stroke="#b2b2b2" stroke-linecap="round" stroke-linejoin="round" stroke-width="0.2"/>
        <path id="Path_11864" data-name="Path 11864" d="M158.8,69.765l1.025,2.8-3.623-.209Z" transform="translate(-130.911 -58.489)" fill="none" stroke="#b2b2b2" stroke-linecap="round" stroke-linejoin="round" stroke-width="0.2"/>
        <path id="Path_11865" data-name="Path 11865" d="M189.486,101.127l3.36-5.929-.535,4.147Z" transform="translate(-158.792 -79.797)" fill="none" stroke="#b2b2b2" stroke-linecap="round" stroke-linejoin="round" stroke-width="0.2"/>
        <path id="Path_11866" data-name="Path 11866" d="M176.294,136.1l-1.859,1.812,2.441-6.154Z" transform="translate(-146.183 -110.426)" fill="none" stroke="#b2b2b2" stroke-linecap="round" stroke-linejoin="round" stroke-width="0.2"/>
        <path id="Path_11867" data-name="Path 11867" d="M98.919,114.813l-1.34-2.926-2.809.59Z" transform="translate(-79.439 -93.781)" fill="none" stroke="#b2b2b2" stroke-linecap="round" stroke-linejoin="round" stroke-width="0.2"/>
        <path id="Path_11868" data-name="Path 11868" d="M114.479,95.52l-1.051,5.58-1.34-2.926Z" transform="translate(-93.948 -80.067)" fill="none" stroke="#b2b2b2" stroke-linecap="round" stroke-linejoin="round" stroke-width="0.2"/>
        <path id="Path_11869" data-name="Path 11869" d="M37.345,96.894l-2.7-3.271,3.1-1.039Z" transform="translate(-29.063 -77.608)" fill="none" stroke="#b2b2b2" stroke-linecap="round" stroke-linejoin="round" stroke-width="0.2"/>
        <path id="Path_11870" data-name="Path 11870" d="M28.3,121.013l3.732-1.854L30,125.166Z" transform="translate(-23.752 -99.872)" fill="none" stroke="#b2b2b2" stroke-linecap="round" stroke-linejoin="round" stroke-width="0.2"/>
        <path id="Path_11871" data-name="Path 11871" d="M46.854,119.158l-.863,3.708,4.324.214Z" transform="translate(-38.572 -99.872)" fill="none" stroke="#b2b2b2" stroke-linecap="round" stroke-linejoin="round" stroke-width="0.2"/>
        <path id="Path_11872" data-name="Path 11872" d="M141.651,111.813l-1.067-1.276-4.413-.569Z" transform="translate(-114.125 -92.173)" fill="none" stroke="#b2b2b2" stroke-linecap="round" stroke-linejoin="round" stroke-width="0.2"/>
        <path id="Path_11873" data-name="Path 11873" d="M156.742,119.518l1.076-6.042,1.067,1.275Z" transform="translate(-131.359 -95.112)" fill="none" stroke="#b2b2b2" stroke-linecap="round" stroke-linejoin="round" stroke-width="0.2"/>
        <path id="Path_11874" data-name="Path 11874" d="M168.263,89.825l-2.426-2.808-2.46,4.291Z" transform="translate(-136.918 -72.944)" fill="none" stroke="#b2b2b2" stroke-linecap="round" stroke-linejoin="round" stroke-width="0.2"/>
        <path id="Path_11875" data-name="Path 11875" d="M88.4,141.869l-.641.1.852-1.6Z" transform="translate(-73.568 -117.643)" fill="none" stroke="#b2b2b2" stroke-linecap="round" stroke-linejoin="round" stroke-width="0.2"/>
        <path id="Path_11876" data-name="Path 11876" d="M80.162,186.065l-1.892.432,1.674.314Z" transform="translate(-65.615 -155.928)" fill="none" stroke="#b2b2b2" stroke-linecap="round" stroke-linejoin="round" stroke-width="0.2"/>
        <path id="Path_11877" data-name="Path 11877" d="M80.071,155.061l-.578.325-.468-.733Z" transform="translate(-66.247 -129.609)" fill="none" stroke="#b2b2b2" stroke-linecap="round" stroke-linejoin="round" stroke-width="0.2"/>
        <path id="Path_11878" data-name="Path 11878" d="M127.454,151.667l.634.585-.372-1.846Z" transform="translate(-106.821 -126.052)" fill="none" stroke="#b2b2b2" stroke-linecap="round" stroke-linejoin="round" stroke-width="0.2"/>
        <path id="Path_11879" data-name="Path 11879" d="M133.494,146.608l-2.13,2.462.65.553Z" transform="translate(-110.098 -122.869)" fill="none" stroke="#b2b2b2" stroke-linecap="round" stroke-linejoin="round" stroke-width="0.2"/>
        <path id="Path_11880" data-name="Path 11880" d="M80.122,84.378,75.51,82.221l-4.43,2.6Z" transform="translate(-59.591 -68.925)" fill="none" stroke="#b2b2b2" stroke-linecap="round" stroke-linejoin="round" stroke-width="0.2"/>
        <path id="Path_11881" data-name="Path 11881" d="M26.738,106.94l-4.757-2.365,1.025,4.22Z" transform="translate(-18.456 -87.653)" fill="none" stroke="#b2b2b2" stroke-linecap="round" stroke-linejoin="round" stroke-width="0.2"/>
        <path id="Path_11882" data-name="Path 11882" d="M195.675,107l-2.107,4.456-.067-7.122Z" transform="translate(-162.156 -87.451)" fill="none" stroke="#b2b2b2" stroke-linecap="round" stroke-linejoin="round" stroke-width="0.2"/>
        <path id="Path_11883" data-name="Path 11883" d="M134.85,98.657l-.175,1.321-1.114-.742Z" transform="translate(-111.938 -82.696)" fill="none" stroke="#b2b2b2" stroke-linecap="round" stroke-linejoin="round" stroke-width="0.2"/>
        <path id="Path_11884" data-name="Path 11884" d="M145.109,58.558l.372,1.846-1.818-1.631Z" transform="translate(-120.402 -49.1)" fill="none" stroke="#b2b2b2" stroke-linecap="round" stroke-linejoin="round" stroke-width="0.2"/>
        <path id="Path_11885" data-name="Path 11885" d="M138.256,39.9l.468.733.578-.325Z" transform="translate(-115.872 -33.464)" fill="none" stroke="#b2b2b2" stroke-linecap="round" stroke-linejoin="round" stroke-width="0.2"/>
        <path id="Path_11886" data-name="Path 11886" d="M146.047,8.132l1.215,3.346-2.556,2.214Z" transform="translate(-121.276 -6.853)" fill="none" stroke="#b2b2b2" stroke-linecap="round" stroke-linejoin="round" stroke-width="0.2"/>
        <path id="Path_11887" data-name="Path 11887" d="M55.967,38.923l1.228,2.664,1.951-1.123Z" transform="translate(-46.929 -32.65)" fill="none" stroke="#b2b2b2" stroke-linecap="round" stroke-linejoin="round" stroke-width="0.2"/>
        <path id="Path_11888" data-name="Path 11888" d="M59.751,14.7l.474.838-1.753-.025Z" transform="translate(-49.029 -12.356)" fill="none" stroke="#b2b2b2" stroke-linecap="round" stroke-linejoin="round" stroke-width="0.2"/>
        <path id="Path_11889" data-name="Path 11889" d="M94.94,32.136,96.1,34.85l.732-2.284Z" transform="translate(-79.581 -26.963)" fill="none" stroke="#b2b2b2" stroke-linecap="round" stroke-linejoin="round" stroke-width="0.2"/>
        <path id="Path_11890" data-name="Path 11890" d="M125.567,1.072l1.437.2-.573.251Z" transform="translate(-105.241 -0.937)" fill="none" stroke="#b2b2b2" stroke-linecap="round" stroke-linejoin="round" stroke-width="0.2"/>
        <path id="Path_11891" data-name="Path 11891" d="M117.651,67.14l1.934.123-.486.826Z" transform="translate(-98.609 -56.29)" fill="none" stroke="#b2b2b2" stroke-linecap="round" stroke-linejoin="round" stroke-width="0.2"/>
        <path id="Path_11892" data-name="Path 11892" d="M70.452,62.734l1.284.871,1.258-1.35Z" transform="translate(-59.065 -52.198)" fill="none" stroke="#b2b2b2" stroke-linecap="round" stroke-linejoin="round" stroke-width="0.2"/>
        <path id="Path_11893" data-name="Path 11893" d="M55.978,71.993l-2.2,3.34.677-3.136Z" transform="translate(-45.094 -60.356)" fill="none" stroke="#b2b2b2" stroke-linecap="round" stroke-linejoin="round" stroke-width="0.2"/>
        <path id="Path_11894" data-name="Path 11894" d="M136.172,100.491l.691-.514.175-1.321Z" transform="translate(-114.125 -82.695)" fill="none" stroke="#b2b2b2" stroke-linecap="round" stroke-linejoin="round" stroke-width="0.2"/>
        <path id="Path_11895" data-name="Path 11895" d="M98.03,35.608,96.1,34.85l-1.157-2.714Z" transform="translate(-79.581 -26.964)" fill="none" stroke="#b2b2b2" stroke-linecap="round" stroke-linejoin="round" stroke-width="0.2"/>
        <path id="Path_11896" data-name="Path 11896" d="M67.351,63.835,70.4,62.256l-2.541.478Z" transform="translate(-56.467 -52.198)" fill="none" stroke="#b2b2b2" stroke-linecap="round" stroke-linejoin="round" stroke-width="0.2"/>
        <path id="Path_11897" data-name="Path 11897" d="M75.569,48.425l.454,3.593,1.258-1.35Z" transform="translate(-63.353 -40.611)" fill="none" stroke="#b2b2b2" stroke-linecap="round" stroke-linejoin="round" stroke-width="0.2"/>
        <path id="Path_11898" data-name="Path 11898" d="M80.6,32.566l-5.032,2.212,3.142-2.642Z" transform="translate(-63.352 -26.964)" fill="none" stroke="#b2b2b2" stroke-linecap="round" stroke-linejoin="round" stroke-width="0.2"/>
        <path id="Path_11899" data-name="Path 11899" d="M113.439,18.629l-.46,1.658,1.6.081Z" transform="translate(-94.694 -15.647)" fill="none" stroke="#b2b2b2" stroke-linecap="round" stroke-linejoin="round" stroke-width="0.2"/>
        <path id="Path_11900" data-name="Path 11900" d="M67.24,172l-.4-.329.339-.8Z" transform="translate(-56.041 -143.197)" fill="none" stroke="#b2b2b2" stroke-linecap="round" stroke-linejoin="round" stroke-width="0.2"/>
        <path id="Path_11901" data-name="Path 11901" d="M31.632,135.615,28.3,130.591l2.869,1.854Z" transform="translate(-23.752 -109.45)" fill="none" stroke="#b2b2b2" stroke-linecap="round" stroke-linejoin="round" stroke-width="0.2"/>
        <path id="Path_11902" data-name="Path 11902" d="M166.669,116.57l-3.293-3.093,1.067,1.275Z" transform="translate(-136.918 -95.112)" fill="none" stroke="#b2b2b2" stroke-linecap="round" stroke-linejoin="round" stroke-width="0.2"/>
        <path id="Path_11903" data-name="Path 11903" d="M185.338,134.429l-.718-2.674-.942.128Z" transform="translate(-153.927 -110.425)" fill="none" stroke="#b2b2b2" stroke-linecap="round" stroke-linejoin="round" stroke-width="0.2"/>
        <path id="Path_11904" data-name="Path 11904" d="M39.473,28.607l-3.193.873,2.362-2.87Z" transform="translate(-30.436 -22.334)" fill="none" stroke="#b2b2b2" stroke-linecap="round" stroke-linejoin="round" stroke-width="0.2"/>
        <path id="Path_11905" data-name="Path 11905" d="M131.554,151.152l-4.1.515.262-1.261Z" transform="translate(-106.822 -126.052)" fill="none" stroke="#b2b2b2" stroke-linecap="round" stroke-linejoin="round" stroke-width="0.2"/>
        <path id="Path_11906" data-name="Path 11906" d="M100.612,87.033,98.39,82.221,103,84.378Z" transform="translate(-82.472 -68.925)" fill="none" stroke="#b2b2b2" stroke-linecap="round" stroke-linejoin="round" stroke-width="0.2"/>
        <path id="Path_11907" data-name="Path 11907" d="M115.571,96.608l-3.483,1.567,2.391-2.655Z" transform="translate(-93.948 -80.068)" fill="none" stroke="#b2b2b2" stroke-linecap="round" stroke-linejoin="round" stroke-width="0.2"/>
        <path id="Path_11908" data-name="Path 11908" d="M196.2,89.472l.007.929L193.5,91.882Z" transform="translate(-162.156 -75)" fill="none" stroke="#b2b2b2" stroke-linecap="round" stroke-linejoin="round" stroke-width="0.2"/>
        <path id="Path_11909" data-name="Path 11909" d="M206.9,94.547l.528-5.076.007.929Z" transform="translate(-173.384 -75)" fill="none" stroke="#b2b2b2" stroke-linecap="round" stroke-linejoin="round" stroke-width="0.2"/>
        <path id="Path_11910" data-name="Path 11910" d="M29.916,128.933,26.8,126.4l.243.68Z" transform="translate(-22.497 -105.939)" fill="none" stroke="#b2b2b2" stroke-linecap="round" stroke-linejoin="round" stroke-width="0.2"/>
        <path id="Path_11911" data-name="Path 11911" d="M23.28,64,24.3,62l-.471.358Z" transform="translate(-19.544 -51.985)" fill="none" stroke="#b2b2b2" stroke-linecap="round" stroke-linejoin="round" stroke-width="0.2"/>
        <path id="Path_11912" data-name="Path 11912" d="M36.437,32.515,36.28,29.48l2.362-2.87Z" transform="translate(-30.436 -22.334)" fill="none" stroke="#b2b2b2" stroke-linecap="round" stroke-linejoin="round" stroke-width="0.2"/>
        <path id="Path_11913" data-name="Path 11913" d="M182.343,29.429l-3.831-5.158,2.649,2.7Z" transform="translate(-149.598 -20.374)" fill="none" stroke="#b2b2b2" stroke-linecap="round" stroke-linejoin="round" stroke-width="0.2"/>
        <path id="Path_11914" data-name="Path 11914" d="M41.986,158.512,38.8,156.2l1.627.87Z" transform="translate(-32.545 -130.905)" fill="none" stroke="#b2b2b2" stroke-linecap="round" stroke-linejoin="round" stroke-width="0.2"/>
        <path id="Path_11915" data-name="Path 11915" d="M153.665,162.306l5.228-3.776-1.859,1.812Z" transform="translate(-128.782 -132.858)" fill="none" stroke="#b2b2b2" stroke-linecap="round" stroke-linejoin="round" stroke-width="0.2"/>
        <path id="Path_11916" data-name="Path 11916" d="M51.31,88.211l3.207-3.391,4.43-2.6Z" transform="translate(-43.028 -68.925)" fill="none" stroke="#b2b2b2" stroke-linecap="round" stroke-linejoin="round" stroke-width="0.2"/>
        <path id="Path_11917" data-name="Path 11917" d="M74.983,65.494l-4.531-2.76,2.541-.478Z" transform="translate(-59.065 -52.198)" fill="none" stroke="#b2b2b2" stroke-linecap="round" stroke-linejoin="round" stroke-width="0.2"/>
        <path id="Path_11918" data-name="Path 11918" d="M90.642,37.829l-1.2-3.042-3.32,4.455Z" transform="translate(-72.192 -29.185)" fill="none" stroke="#b2b2b2" stroke-linecap="round" stroke-linejoin="round" stroke-width="0.2"/>
        <path id="Path_11919" data-name="Path 11919" d="M107.943,35.616l-5.869,1.455.732-2.284Z" transform="translate(-85.559 -29.185)" fill="none" stroke="#b2b2b2" stroke-linecap="round" stroke-linejoin="round" stroke-width="0.2"/>
        <path id="Path_11920" data-name="Path 11920" d="M86.12,51.039l2.588-2.172-.6,5.41Z" transform="translate(-72.192 -40.981)" fill="none" stroke="#b2b2b2" stroke-linecap="round" stroke-linejoin="round" stroke-width="0.2"/>
        <path id="Path_11921" data-name="Path 11921" d="M60.857,42.708l-4.891-3.784,3.18,1.541Z" transform="translate(-46.929 -32.65)" fill="none" stroke="#b2b2b2" stroke-linecap="round" stroke-linejoin="round" stroke-width="0.2"/>
        <path id="Path_11922" data-name="Path 11922" d="M57.653,14.7,55.967,18.63l.406-3.115Z" transform="translate(-46.93 -12.356)" fill="none" stroke="#b2b2b2" stroke-linecap="round" stroke-linejoin="round" stroke-width="0.2"/>
        <path id="Path_11923" data-name="Path 11923" d="M91.8.383,90.06.25l-4.8.9Z" transform="translate(-71.47 -0.25)" fill="none" stroke="#b2b2b2" stroke-linecap="round" stroke-linejoin="round" stroke-width="0.2"/>
        <path id="Path_11924" data-name="Path 11924" d="M37.7,46.065,36.8,50.254l-.518-5.947Z" transform="translate(-30.435 -37.161)" fill="none" stroke="#b2b2b2" stroke-linecap="round" stroke-linejoin="round" stroke-width="0.2"/>
        <path id="Path_11925" data-name="Path 11925" d="M160.465,25l5.577,1.97-2.649-2.7Z" transform="translate(-134.479 -20.374)" fill="none" stroke="#b2b2b2" stroke-linecap="round" stroke-linejoin="round" stroke-width="0.2"/>
        <path id="Path_11926" data-name="Path 11926" d="M152.229,61.072l.057-2.514.372,1.846Z" transform="translate(-127.578 -49.1)" fill="none" stroke="#b2b2b2" stroke-linecap="round" stroke-linejoin="round" stroke-width="0.2"/>
        <path id="Path_11927" data-name="Path 11927" d="M155.112,46.12l-2.827,2.017-.057,2.514Z" transform="translate(-127.578 -38.679)" fill="none" stroke="#b2b2b2" stroke-linecap="round" stroke-linejoin="round" stroke-width="0.2"/>
        <path id="Path_11928" data-name="Path 11928" d="M157.631,69.765l-2.825.018,3.85,2.78Z" transform="translate(-129.737 -58.489)" fill="none" stroke="#b2b2b2" stroke-linecap="round" stroke-linejoin="round" stroke-width="0.2"/>
      </g>
      <g id="Group_7994" data-name="Group 7994" transform="translate(27.043 34.043)" opacity="0.15">
        <path id="Path_11836-2" data-name="Path 11836" d="M38.642,26.61l-2.362,2.87,1.425,1.757Z" transform="translate(-30.436 -22.334)" fill="#fff"/>
        <path id="Path_11837-2" data-name="Path 11837" d="M28.3,130.591l1.7,4.153,1.167-2.3Z" transform="translate(-23.752 -109.451)" fill="#fff"/>
        <path id="Path_11838-2" data-name="Path 11838" d="M52.416,160.249l-2.026,1.656-1.561-1.443Z" transform="translate(-40.95 -134.298)" fill="#fff"/>
        <path id="Path_11839-2" data-name="Path 11839" d="M152.885,159.35l3.369-1.964L152.734,155Z" transform="translate(-128.002 -129.902)" fill="#fff"/>
        <path id="Path_11840-2" data-name="Path 11840" d="M186.481,131.755l.718,2.674-1.3,1.668Z" transform="translate(-155.787 -110.426)" fill="#fff"/>
        <path id="Path_11841-2" data-name="Path 11841" d="M196.21,95.2l-.535,4.147L193.5,96.679Z" transform="translate(-162.156 -79.797)" fill="#fff"/>
        <path id="Path_11842-2" data-name="Path 11842" d="M141.74,4.117l1.822.651,1.215,3.346Z" transform="translate(-118.791 -3.489)" fill="#fff"/>
        <path id="Path_11843-2" data-name="Path 11843" d="M85.259,1.149l4.8-.9-1.617,2.3Z" transform="translate(-71.47 -0.25)" fill="#fff"/>
        <path id="Path_11844-2" data-name="Path 11844" d="M21.446,74.338l-.355,3.082,2.981-2.006Z" transform="translate(-17.71 -62.321)" fill="#fff"/>
        <path id="Path_11845-2" data-name="Path 11845" d="M21.981,99.9l.782,3.54,1.271-4.445Z" transform="translate(-18.456 -82.975)" fill="#fff"/>
        <path id="Path_11846-2" data-name="Path 11846" d="M54.453,73.247l-.677,3.136,2.807.919Z" transform="translate(-45.094 -61.407)" fill="#fff"/>
        <path id="Path_11847-2" data-name="Path 11847" d="M171.388,24.271l2.649,2.7-4.029.845Z" transform="translate(-142.474 -20.374)" fill="#fff"/>
        <path id="Path_11848-2" data-name="Path 11848" d="M201.736,56.072l1,2.785-1.072.222Z" transform="translate(-168.992 -47.018)" fill="#fff"/>
        <path id="Path_11849-2" data-name="Path 11849" d="M23.289,78.337l-1.843-4-.355,3.082Z" transform="translate(-17.71 -62.321)" fill="#fff"/>
        <path id="Path_11850-2" data-name="Path 11850" d="M156.742,148.647l6.029-.4-1.3,1.668Z" transform="translate(-131.359 -124.241)" fill="#fff"/>
        <path id="Path_11851-2" data-name="Path 11851" d="M144.494,146.608l1.987.668-.65.693Z" transform="translate(-121.098 -122.869)" fill="#fff"/>
        <path id="Path_11852-2" data-name="Path 11852" d="M18.956,109.474l1.3-1.034-.58,1.334Z" transform="translate(-15.921 -90.892)" fill="#fff"/>
        <path id="Path_11853-2" data-name="Path 11853" d="M7.616,96.217l-.873.772.375-1.47Z" transform="translate(-5.689 -80.067)" fill="#fff"/>
        <path id="Path_11854-2" data-name="Path 11854" d="M2.091,85.787l1.554-.138-1.687.978Z" transform="translate(-1.681 -71.797)" fill="#fff"/>
        <path id="Path_11855-2" data-name="Path 11855" d="M3.109,87.964,2.091,86.5l-.132.84Z" transform="translate(-1.681 -72.512)" fill="#fff"/>
        <path id="Path_11856-2" data-name="Path 11856" d="M26.653,62.36,27.124,62l1.247.165Z" transform="translate(-22.37 -51.985)" fill="#fff"/>
        <path id="Path_11857-2" data-name="Path 11857" d="M31.165,65.078,29.556,62l1.247.165Z" transform="translate(-24.803 -51.985)" fill="#fff"/>
        <path id="Path_11858-2" data-name="Path 11858" d="M41.793,82.855l-2.32-1.883,5.127,2.8Z" transform="translate(-33.111 -67.879)" fill="#fff"/>
        <path id="Path_11859-2" data-name="Path 11859" d="M1.618,69.928l-.238-.614L.25,69.792Z" transform="translate(-0.25 -58.111)" fill="#fff"/>
        <path id="Path_11860-2" data-name="Path 11860" d="M209.284,79.835l.142,1.229,1.644-1.628Z" transform="translate(-175.38 -66.593)" fill="#fff"/>
        <path id="Path_11861-2" data-name="Path 11861" d="M212.881,57.093l-1.028.278.7,1.605Z" transform="translate(-177.531 -47.873)" fill="#fff"/>
        <path id="Path_11862-2" data-name="Path 11862" d="M201.66,59.08l.077-3.007,1.577.443Z" transform="translate(-168.992 -47.018)" fill="#fff"/>
        <path id="Path_11863-2" data-name="Path 11863" d="M212.1,81.25l-2.82-1.415,1.785-.4Z" transform="translate(-175.38 -66.592)" fill="#fff"/>
        <path id="Path_11864-2" data-name="Path 11864" d="M158.8,69.765l1.025,2.8-3.623-.209Z" transform="translate(-130.911 -58.489)" fill="#fff"/>
        <path id="Path_11865-2" data-name="Path 11865" d="M189.486,101.127l3.36-5.929-.535,4.147Z" transform="translate(-158.792 -79.797)" fill="#fff"/>
        <path id="Path_11866-2" data-name="Path 11866" d="M176.294,136.1l-1.859,1.812,2.441-6.154Z" transform="translate(-146.183 -110.426)" fill="#fff"/>
        <path id="Path_11867-2" data-name="Path 11867" d="M98.919,114.813l-1.34-2.926-2.809.59Z" transform="translate(-79.439 -93.781)" fill="#fff"/>
        <path id="Path_11868-2" data-name="Path 11868" d="M114.479,95.52l-1.051,5.58-1.34-2.926Z" transform="translate(-93.948 -80.067)" fill="#fff"/>
        <path id="Path_11869-2" data-name="Path 11869" d="M37.345,96.894l-2.7-3.271,3.1-1.039Z" transform="translate(-29.063 -77.608)" fill="#fff"/>
        <path id="Path_11870-2" data-name="Path 11870" d="M28.3,121.013l3.732-1.854L30,125.166Z" transform="translate(-23.752 -99.872)" fill="#fff"/>
        <path id="Path_11871-2" data-name="Path 11871" d="M46.854,119.158l-.863,3.708,4.324.214Z" transform="translate(-38.572 -99.872)" fill="#fff"/>
        <path id="Path_11872-2" data-name="Path 11872" d="M141.651,111.813l-1.067-1.276-4.413-.569Z" transform="translate(-114.125 -92.173)" fill="#fff"/>
        <path id="Path_11873-2" data-name="Path 11873" d="M156.742,119.518l1.076-6.042,1.067,1.275Z" transform="translate(-131.359 -95.112)" fill="#fff"/>
        <path id="Path_11874-2" data-name="Path 11874" d="M168.263,89.825l-2.426-2.808-2.46,4.291Z" transform="translate(-136.918 -72.944)" fill="#fff"/>
        <path id="Path_11875-2" data-name="Path 11875" d="M88.4,141.869l-.641.1.852-1.6Z" transform="translate(-73.568 -117.643)" fill="#fff"/>
        <path id="Path_11876-2" data-name="Path 11876" d="M80.162,186.065l-1.892.432,1.674.314Z" transform="translate(-65.615 -155.928)" fill="#fff"/>
        <path id="Path_11877-2" data-name="Path 11877" d="M80.071,155.061l-.578.325-.468-.733Z" transform="translate(-66.247 -129.609)" fill="#fff"/>
        <path id="Path_11878-2" data-name="Path 11878" d="M127.454,151.667l.634.585-.372-1.846Z" transform="translate(-106.821 -126.052)" fill="#fff"/>
        <path id="Path_11879-2" data-name="Path 11879" d="M133.494,146.608l-2.13,2.462.65.553Z" transform="translate(-110.098 -122.869)" fill="#fff"/>
        <path id="Path_11880-2" data-name="Path 11880" d="M80.122,84.378,75.51,82.221l-4.43,2.6Z" transform="translate(-59.591 -68.925)" fill="#fff"/>
        <path id="Path_11881-2" data-name="Path 11881" d="M26.738,106.94l-4.757-2.365,1.025,4.22Z" transform="translate(-18.456 -87.653)" fill="#fff"/>
        <path id="Path_11882-2" data-name="Path 11882" d="M195.675,107l-2.107,4.456-.067-7.122Z" transform="translate(-162.156 -87.451)" fill="#fff"/>
        <path id="Path_11883-2" data-name="Path 11883" d="M134.85,98.657l-.175,1.321-1.114-.742Z" transform="translate(-111.938 -82.696)" fill="#fff"/>
        <path id="Path_11884-2" data-name="Path 11884" d="M145.109,58.558l.372,1.846-1.818-1.631Z" transform="translate(-120.402 -49.1)" fill="#fff"/>
        <path id="Path_11885-2" data-name="Path 11885" d="M138.256,39.9l.468.733.578-.325Z" transform="translate(-115.872 -33.464)" fill="#fff"/>
        <path id="Path_11886-2" data-name="Path 11886" d="M146.047,8.132l1.215,3.346-2.556,2.214Z" transform="translate(-121.276 -6.853)" fill="#fff"/>
        <path id="Path_11887-2" data-name="Path 11887" d="M55.967,38.923l1.228,2.664,1.951-1.123Z" transform="translate(-46.929 -32.65)" fill="#fff"/>
        <path id="Path_11888-2" data-name="Path 11888" d="M59.751,14.7l.474.838-1.753-.025Z" transform="translate(-49.029 -12.356)" fill="#fff"/>
        <path id="Path_11889-2" data-name="Path 11889" d="M94.94,32.136,96.1,34.85l.732-2.284Z" transform="translate(-79.581 -26.963)" fill="#fff"/>
        <path id="Path_11890-2" data-name="Path 11890" d="M125.567,1.072l1.437.2-.573.251Z" transform="translate(-105.241 -0.937)" fill="#fff"/>
        <path id="Path_11891-2" data-name="Path 11891" d="M117.651,67.14l1.934.123-.486.826Z" transform="translate(-98.609 -56.29)" fill="#fff"/>
        <path id="Path_11892-2" data-name="Path 11892" d="M70.452,62.734l1.284.871,1.258-1.35Z" transform="translate(-59.065 -52.198)" fill="#fff"/>
        <path id="Path_11893-2" data-name="Path 11893" d="M55.978,71.993l-2.2,3.34.677-3.136Z" transform="translate(-45.094 -60.356)" fill="#fff"/>
        <path id="Path_11894-2" data-name="Path 11894" d="M136.172,100.491l.691-.514.175-1.321Z" transform="translate(-114.125 -82.695)" fill="#fff"/>
        <path id="Path_11895-2" data-name="Path 11895" d="M98.03,35.608,96.1,34.85l-1.157-2.714Z" transform="translate(-79.581 -26.964)" fill="#fff"/>
        <path id="Path_11896-2" data-name="Path 11896" d="M67.351,63.835,70.4,62.256l-2.541.478Z" transform="translate(-56.467 -52.198)" fill="#fff"/>
        <path id="Path_11897-2" data-name="Path 11897" d="M75.569,48.425l.454,3.593,1.258-1.35Z" transform="translate(-63.353 -40.611)" fill="#fff"/>
        <path id="Path_11898-2" data-name="Path 11898" d="M80.6,32.566l-5.032,2.212,3.142-2.642Z" transform="translate(-63.352 -26.964)" fill="#fff"/>
        <path id="Path_11899-2" data-name="Path 11899" d="M113.439,18.629l-.46,1.658,1.6.081Z" transform="translate(-94.694 -15.647)" fill="#fff"/>
        <path id="Path_11900-2" data-name="Path 11900" d="M67.24,172l-.4-.329.339-.8Z" transform="translate(-56.041 -143.197)" fill="#fff"/>
        <path id="Path_11901-2" data-name="Path 11901" d="M31.632,135.615,28.3,130.591l2.869,1.854Z" transform="translate(-23.752 -109.45)" fill="#fff"/>
        <path id="Path_11902-2" data-name="Path 11902" d="M166.669,116.57l-3.293-3.093,1.067,1.275Z" transform="translate(-136.918 -95.112)" fill="#fff"/>
        <path id="Path_11903-2" data-name="Path 11903" d="M185.338,134.429l-.718-2.674-.942.128Z" transform="translate(-153.927 -110.425)" fill="#fff"/>
        <path id="Path_11904-2" data-name="Path 11904" d="M39.473,28.607l-3.193.873,2.362-2.87Z" transform="translate(-30.436 -22.334)" fill="#fff"/>
        <path id="Path_11905-2" data-name="Path 11905" d="M131.554,151.152l-4.1.515.262-1.261Z" transform="translate(-106.822 -126.052)" fill="#fff"/>
        <path id="Path_11906-2" data-name="Path 11906" d="M100.612,87.033,98.39,82.221,103,84.378Z" transform="translate(-82.472 -68.925)" fill="#fff"/>
        <path id="Path_11907-2" data-name="Path 11907" d="M115.571,96.608l-3.483,1.567,2.391-2.655Z" transform="translate(-93.948 -80.068)" fill="#fff"/>
        <path id="Path_11908-2" data-name="Path 11908" d="M196.2,89.472l.007.929L193.5,91.882Z" transform="translate(-162.156 -75)" fill="#fff"/>
        <path id="Path_11909-2" data-name="Path 11909" d="M206.9,94.547l.528-5.076.007.929Z" transform="translate(-173.384 -75)" fill="#fff"/>
        <path id="Path_11910-2" data-name="Path 11910" d="M29.916,128.933,26.8,126.4l.243.68Z" transform="translate(-22.497 -105.939)" fill="#fff"/>
        <path id="Path_11911-2" data-name="Path 11911" d="M23.28,64,24.3,62l-.471.358Z" transform="translate(-19.544 -51.985)" fill="#fff"/>
        <path id="Path_11912-2" data-name="Path 11912" d="M36.437,32.515,36.28,29.48l2.362-2.87Z" transform="translate(-30.436 -22.334)" fill="#fff"/>
        <path id="Path_11913-2" data-name="Path 11913" d="M182.343,29.429l-3.831-5.158,2.649,2.7Z" transform="translate(-149.598 -20.374)" fill="#fff"/>
        <path id="Path_11914-2" data-name="Path 11914" d="M41.986,158.512,38.8,156.2l1.627.87Z" transform="translate(-32.545 -130.905)" fill="#fff"/>
        <path id="Path_11915-2" data-name="Path 11915" d="M153.665,162.306l5.228-3.776-1.859,1.812Z" transform="translate(-128.782 -132.858)" fill="#fff"/>
        <path id="Path_11916-2" data-name="Path 11916" d="M51.31,88.211l3.207-3.391,4.43-2.6Z" transform="translate(-43.028 -68.925)" fill="#fff"/>
        <path id="Path_11917-2" data-name="Path 11917" d="M74.983,65.494l-4.531-2.76,2.541-.478Z" transform="translate(-59.065 -52.198)" fill="#fff"/>
        <path id="Path_11918-2" data-name="Path 11918" d="M90.642,37.829l-1.2-3.042-3.32,4.455Z" transform="translate(-72.192 -29.185)" fill="#fff"/>
        <path id="Path_11919-2" data-name="Path 11919" d="M107.943,35.616l-5.869,1.455.732-2.284Z" transform="translate(-85.559 -29.185)" fill="#fff"/>
        <path id="Path_11920-2" data-name="Path 11920" d="M86.12,51.039l2.588-2.172-.6,5.41Z" transform="translate(-72.192 -40.981)" fill="#fff"/>
        <path id="Path_11921-2" data-name="Path 11921" d="M60.857,42.708l-4.891-3.784,3.18,1.541Z" transform="translate(-46.929 -32.65)" fill="#fff"/>
        <path id="Path_11922-2" data-name="Path 11922" d="M57.653,14.7,55.967,18.63l.406-3.115Z" transform="translate(-46.93 -12.356)" fill="#fff"/>
        <path id="Path_11923-2" data-name="Path 11923" d="M91.8.383,90.06.25l-4.8.9Z" transform="translate(-71.47 -0.25)" fill="#fff"/>
        <path id="Path_11924-2" data-name="Path 11924" d="M37.7,46.065,36.8,50.254l-.518-5.947Z" transform="translate(-30.435 -37.161)" fill="#fff"/>
        <path id="Path_11925-2" data-name="Path 11925" d="M160.465,25l5.577,1.97-2.649-2.7Z" transform="translate(-134.479 -20.374)" fill="#fff"/>
        <path id="Path_11926-2" data-name="Path 11926" d="M152.229,61.072l.057-2.514.372,1.846Z" transform="translate(-127.578 -49.1)" fill="#fff"/>
        <path id="Path_11927-2" data-name="Path 11927" d="M155.112,46.12l-2.827,2.017-.057,2.514Z" transform="translate(-127.578 -38.679)" fill="#fff"/>
        <path id="Path_11928-2" data-name="Path 11928" d="M157.631,69.765l-2.825.018,3.85,2.78Z" transform="translate(-129.737 -58.489)" fill="#fff"/>
      </g>
    </g>
  </g>
</svg>
