<svg xmlns="http://www.w3.org/2000/svg" width="36.617" height="35.796" viewBox="0 0 36.617 35.796">
  <g id="Group_7642" data-name="Group 7642" transform="translate(-42.605 -269.5)">
    <circle id="Ellipse_1844" data-name="Ellipse 1844" cx="2.056" cy="2.056" r="2.056" transform="translate(45.881 275.943)" fill="#794ba4"/>
    <circle id="Ellipse_1845" data-name="Ellipse 1845" cx="2.056" cy="2.056" r="2.056" transform="translate(71.927 275.806)" fill="#00bfeb"/>
    <g id="Group_7635" data-name="Group 7635" transform="translate(42.605 281.392)">
      <circle id="Ellipse_1846" data-name="Ellipse 1846" cx="2.056" cy="2.056" r="2.056" transform="translate(0 8.425)" fill="#ff3114"/>
      <path id="Path_11464" data-name="Path 11464" d="M48.576,289.139c.524,1.049,1.039,2.049,1.522,3.065a3.882,3.882,0,0,1,.381,1.127,5.321,5.321,0,0,0,2.32,3.631c.681.506,1.454.888,2.173,1.346a1.848,1.848,0,0,1,.552.51c.323.489.6,1.007.942,1.59-3.274-.258-6.22-1.064-8.362-3.711a.621.621,0,0,1-.1-.782,2.419,2.419,0,0,0-.658-2.982.584.584,0,0,1-.237-.66A7.913,7.913,0,0,1,48.576,289.139Z" transform="translate(-43.312 -284.49)" fill="#ff3114"/>
      <path id="Path_11465" data-name="Path 11465" d="M56.246,283.656a5.152,5.152,0,0,0-2.608,1.225,3.708,3.708,0,0,0-.156.4,4.274,4.274,0,0,0-.077,2.247l3.228-3.913C56.508,283.626,56.379,283.638,56.246,283.656Z" transform="translate(-44.291 -283.619)" fill="#ff3114"/>
    </g>
    <g id="Group_7636" data-name="Group 7636" transform="translate(51.092 288.539)">
      <circle id="Ellipse_1847" data-name="Ellipse 1847" cx="2.056" cy="2.056" r="2.056" transform="translate(0.475 12.54)" fill="#ff820b"/>
      <path id="Path_11466" data-name="Path 11466" d="M52.733,302.105c1.143.259,2.244.493,3.336.76a3.88,3.88,0,0,1,1.114.418,5.324,5.324,0,0,0,4.28.5c.823-.207,1.608-.564,2.416-.832a1.864,1.864,0,0,1,.744-.105c.583.059,1.16.171,1.828.276-2.27,2.373-4.757,4.145-8.162,4.13a.623.623,0,0,1-.671-.415,2.418,2.418,0,0,0-2.725-1.376.584.584,0,0,1-.661-.234A7.915,7.915,0,0,1,52.733,302.105Z" transform="translate(-52.69 -293.682)" fill="#ff820b"/>
      <path id="Path_11467" data-name="Path 11467" d="M53.385,292.428a5.159,5.159,0,0,0-.7,2.8,3.946,3.946,0,0,0,.215.377,4.277,4.277,0,0,0,1.692,1.481L53.6,292.1C53.527,292.207,53.454,292.314,53.385,292.428Z" transform="translate(-52.682 -292.105)" fill="#ff820b"/>
    </g>
    <g id="Group_7637" data-name="Group 7637" transform="translate(55.636 291.204)">
      <circle id="Ellipse_1848" data-name="Ellipse 1848" cx="2.056" cy="2.056" r="2.056" transform="translate(10.466 9.979)" fill="#ffb600"/>
      <path id="Path_11468" data-name="Path 11468" d="M65.341,305.487c.9-.745,1.765-1.471,2.646-2.17A3.878,3.878,0,0,1,69,302.692a5.323,5.323,0,0,0,3.018-3.076c.34-.777.539-1.616.823-2.419a1.861,1.861,0,0,1,.373-.653c.4-.424.846-.811,1.338-1.275.484,3.249.36,6.3-1.738,8.982a.621.621,0,0,1-.739.275,2.419,2.419,0,0,0-2.758,1.31.582.582,0,0,1-.59.379A7.907,7.907,0,0,1,65.341,305.487Z" transform="translate(-59.222 -295.269)" fill="#ffb600"/>
      <path id="Path_11469" data-name="Path 11469" d="M58.2,300.819a5.151,5.151,0,0,0,1.779,2.268,3.815,3.815,0,0,0,.429.061,4.282,4.282,0,0,0,2.207-.43l-4.537-2.267C58.111,300.572,58.151,300.7,58.2,300.819Z" transform="translate(-58.076 -296.086)" fill="#ffb600"/>
    </g>
    <g id="Group_7638" data-name="Group 7638" transform="translate(63.316 282.257)">
      <circle id="Ellipse_1849" data-name="Ellipse 1849" cx="2.056" cy="2.056" r="2.056" transform="translate(11.793 7.711)" fill="#b0c500"/>
      <path id="Path_11470" data-name="Path 11470" d="M76.772,298.238c-.008-1.172-.029-2.3-.016-3.422a3.9,3.9,0,0,1,.153-1.18,5.321,5.321,0,0,0-.484-4.281c-.388-.755-.915-1.438-1.359-2.165a1.859,1.859,0,0,1-.271-.7c-.075-.581-.1-1.168-.146-1.843,2.826,1.673,5.117,3.692,5.874,7.013a.622.622,0,0,1-.252.748,2.419,2.419,0,0,0-.723,2.966.582.582,0,0,1-.077.7A7.92,7.92,0,0,1,76.772,298.238Z" transform="translate(-68.371 -284.646)" fill="#b0c500"/>
      <path id="Path_11471" data-name="Path 11471" d="M67.558,301.784a5.161,5.161,0,0,0,2.882.05,4.064,4.064,0,0,0,.318-.295,4.278,4.278,0,0,0,1.058-1.984l-4.621,2.092C67.311,301.7,67.432,301.742,67.558,301.784Z" transform="translate(-67.195 -286.998)" fill="#b0c500"/>
    </g>
    <g id="Group_7639" data-name="Group 7639" transform="translate(61.792 275.98)">
      <circle id="Ellipse_1850" data-name="Ellipse 1850" cx="2.056" cy="2.056" r="2.056" transform="translate(10.297)" fill="#00bfeb"/>
      <path id="Path_11472" data-name="Path 11472" d="M77.245,286.013c-.912-.737-1.8-1.433-2.658-2.155a3.9,3.9,0,0,1-.815-.867,5.322,5.322,0,0,0-3.619-2.338c-.83-.177-1.691-.2-2.536-.32a1.836,1.836,0,0,1-.713-.234c-.5-.31-.965-.665-1.518-1.054,3.084-1.127,6.1-1.619,9.147-.1a.621.621,0,0,1,.419.668,2.419,2.419,0,0,0,1.838,2.438.584.584,0,0,1,.49.5A7.922,7.922,0,0,1,77.245,286.013Z" transform="translate(-65.385 -277.319)" fill="#00bfeb"/>
      <path id="Path_11473" data-name="Path 11473" d="M74.454,294.918a5.161,5.161,0,0,0,1.864-2.2,3.9,3.9,0,0,0-.026-.433,4.28,4.28,0,0,0-.865-2.075l-1.309,4.9C74.229,295.053,74.342,294.988,74.454,294.918Z" transform="translate(-66.763 -279.247)" fill="#00bfeb"/>
    </g>
    <g id="Group_7640" data-name="Group 7640" transform="translate(45.85 275.98)">
      <circle id="Ellipse_1851" data-name="Ellipse 1851" cx="2.056" cy="2.056" r="2.056" fill="#8258a8"/>
      <path id="Path_11474" data-name="Path 11474" d="M55.482,278.167c-.477,1.071-.921,2.1-1.4,3.124a3.9,3.9,0,0,1-.627,1.012,5.324,5.324,0,0,0-1.325,4.1c.043.847.24,1.686.345,2.533a1.853,1.853,0,0,1-.042.75c-.172.56-.394,1.1-.627,1.738-1.884-2.689-3.137-5.474-2.458-8.812a.62.62,0,0,1,.537-.576,2.42,2.42,0,0,0,1.882-2.4.583.583,0,0,1,.359-.6A7.918,7.918,0,0,1,55.482,278.167Z" transform="translate(-46.885 -277.347)" fill="#8258a8"/>
      <path id="Path_11475" data-name="Path 11475" d="M65.045,280.581a5.16,5.16,0,0,0-2.6-1.234,3.86,3.86,0,0,0-.412.137,4.287,4.287,0,0,0-1.782,1.37h5.072C65.235,280.763,65.143,280.671,65.045,280.581Z" transform="translate(-48.633 -277.533)" fill="#794ba4"/>
    </g>
    <g id="Group_7641" data-name="Group 7641" transform="translate(53.223 269.5)">
      <path id="Path_11476" data-name="Path 11476" d="M73.333,285.358a5.161,5.161,0,0,0-.631-2.812,3.907,3.907,0,0,0-.361-.24,4.28,4.28,0,0,0-2.177-.561l3.121,4C73.306,285.619,73.322,285.491,73.333,285.358Z" transform="translate(-57.57 -271.432)" fill="#0066a1"/>
      <path id="Path_11477" data-name="Path 11477" d="M67.935,276.759c-1.138.28-2.227.563-3.324.812a3.864,3.864,0,0,1-1.183.125,5.32,5.32,0,0,0-4.051,1.467c-.643.553-1.186,1.224-1.79,1.825a1.857,1.857,0,0,1-.618.427c-.547.207-1.113.366-1.758.57.969-3.137,2.4-5.835,5.454-7.344a.622.622,0,0,1,.786.072,2.421,2.421,0,0,0,3.053.013.581.581,0,0,1,.7-.087A7.908,7.908,0,0,1,67.935,276.759Z" transform="translate(-55.211 -270.294)" fill="#0c6fa8"/>
      <circle id="Ellipse_1852" data-name="Ellipse 1852" cx="2.056" cy="2.056" r="2.056" transform="translate(5.681)" fill="#0c6fa8"/>
    </g>
  </g>
</svg>
