<svg xmlns="http://www.w3.org/2000/svg" width="263.853" height="175.052" viewBox="0 0 263.853 175.052">
  <g id="img" transform="translate(-251 -180.5)">
    <rect id="SVGID" width="263.853" height="175.052" transform="translate(251 180.5)" fill="#5c5c5c"/>
    <g id="icon" transform="translate(329.748 227.384)">
      <path id="Path_11458" data-name="Path 11458" d="M248.235,317.22V301.138l-6.476-39.562a2.079,2.079,0,0,1,1.713-2.384l5.734-.935a6.217,6.217,0,0,1,5.253-2.9h12.448l47.527-7.78a2.225,2.225,0,0,1,.337-.027,2.078,2.078,0,0,1,2.046,1.74l.994,6.067h4.209l-1.1-6.737a6.242,6.242,0,0,0-7.155-5.14L242.8,255.1a6.24,6.24,0,0,0-5.14,7.151l8.985,54.907a6.225,6.225,0,0,0,3.665,4.7A6.192,6.192,0,0,1,248.235,317.22Z" transform="translate(-237.58 -243.402)" fill="#d1d1d1"/>
      <path id="Path_11459" data-name="Path 11459" d="M319.662,314.149H246.173a6.236,6.236,0,0,1-6.224-6.229V252.285a6.232,6.232,0,0,1,6.224-6.224h73.489a6.232,6.232,0,0,1,6.224,6.224V307.92A6.236,6.236,0,0,1,319.662,314.149Zm-73.489-63.937a2.077,2.077,0,0,0-2.073,2.073V307.92a2.077,2.077,0,0,0,2.073,2.073h73.489a2.077,2.077,0,0,0,2.073-2.073V252.285a2.077,2.077,0,0,0-2.073-2.073Z" transform="translate(-229.294 -234.102)" fill="#d1d1d1"/>
      <path id="Path_11460" data-name="Path 11460" d="M242.349,280.914l14.739-14.739,7.058,7.058,23.25-23.25,19.1,19.1v20.551H242.349Z" transform="translate(-220.901 -220.382)" fill="#d1d1d1"/>
      <circle id="Ellipse_1843" data-name="Ellipse 1843" cx="8.096" cy="8.096" r="8.096" transform="translate(22.279 23.582)" fill="#d1d1d1"/>
    </g>
  </g>
</svg>
