 <svg
                    id="Group_7809"
                    data-name="Group 7809"
                    xmlns="http://www.w3.org/2000/svg"
                    width="25.059"
                    height="22.022"
                    viewBox="0 0 25.059 22.022"
                  >
                    <path
                      id="Path_11632"
                      data-name="Path 11632"
                      d="M7.395,24.052H7.14a20.621,20.621,0,0,1-4.5-.5A4.387,4.387,0,0,1,.46,22.406L.4,22.329a2.393,2.393,0,0,1-.351-.878c-.018-.107-.029-.209-.037-.309A1.971,1.971,0,0,1,0,20.914c0-2.636,3.356-4.78,7.481-4.78s7.482,2.144,7.483,4.778l-.013.223a2.393,2.393,0,0,1-1.688,2.046,20.146,20.146,0,0,1-5.868.871m-.15-.874a19.159,19.159,0,0,0,5.764-.833,1.521,1.521,0,0,0,1.074-1.3l.445-.116H14.09c0-2.168-2.966-3.92-6.609-3.92S.874,18.761.874,20.914a1.063,1.063,0,0,0,.005.14c.008.1.015.172.027.247a1.523,1.523,0,0,0,.2.511A3.517,3.517,0,0,0,2.82,22.7a20.7,20.7,0,0,0,4.424.479"
                      transform="translate(0 -2.029)"
                      fill="#fff"
                    />
                    <path
                      id="Path_11633"
                      data-name="Path 11633"
                      d="M7.919,12.616a6.308,6.308,0,1,1,6.307-6.308,6.314,6.314,0,0,1-6.307,6.308m0-11.741a5.434,5.434,0,1,0,5.432,5.433A5.439,5.439,0,0,0,7.919.874"
                      transform="translate(-0.203)"
                      fill="#fff"
                    />
                    <g
                      id="Group_7810"
                      data-name="Group 7810"
                      transform="translate(14.974 6.286)"
                    >
                      <path
                        id="Path_11634"
                        data-name="Path 11634"
                        d="M27.776,13.965H19.067a.688.688,0,1,1,0-1.376h8.709a.688.688,0,0,1,0,1.376"
                        transform="translate(-18.379 -8.233)"
                        fill="#fff"
                      />
                      <path
                        id="Path_11635"
                        data-name="Path 11635"
                        d="M24.464,17.276h0a.687.687,0,0,1-.687-.687V7.878a.687.687,0,0,1,1.375,0v8.71a.687.687,0,0,1-.687.687"
                        transform="translate(-19.422 -7.191)"
                        fill="#fff"
                      />
                    </g>
                  </svg>