<svg xmlns="http://www.w3.org/2000/svg" viewBox="0 0 32 32">
                <g id="iconAdd" transform="translate(6.067)">
                  <circle id="Ellipse_1746" data-name="Ellipse 1746" cx="16" cy="16" r="16" transform="translate(-6.067)" fill="#00be85"/>
                  <path id="Path_10633" data-name="Path 10633" d="M-140.016-238.341h-6.994v-6.994A1.665,1.665,0,0,0-148.676-247a1.665,1.665,0,0,0-1.665,1.665v6.994h-6.994A1.665,1.665,0,0,0-159-236.676a1.665,1.665,0,0,0,1.665,1.665h6.994v6.994a1.665,1.665,0,0,0,1.665,1.665,1.665,1.665,0,0,0,1.665-1.665v-6.994h6.994a1.665,1.665,0,0,0,1.665-1.665A1.665,1.665,0,0,0-140.016-238.341Z" transform="translate(158.933 253)" fill="#343434"/>
                </g>
              </svg>