<svg style="margin-right:10px" xmlns="http://www.w3.org/2000/svg" width="23.005" height="18.954"><g fill="#8d8d8d"><path data-name="Path 10605" d="M9.125 16.614a2.306 2.306 0 012.326-2.3 2.312 2.312 0 012.3 2.321 2.322 2.322 0 01-2.341 2.313 2.316 2.316 0 01-2.285-2.334z"/><path data-name="Path 10604" d="M16.321 11.684l-1.613 1.653a4.587 4.587 0 00-6.509-.026l-1.618-1.647a6.692 6.692 0 019.74.02z"/><path data-name="Path 10603" d="M19.57 8.427l-1.617 1.7a8.961 8.961 0 00-6.524-2.762 8.972 8.972 0 00-6.479 2.716L3.313 8.426a11.259 11.259 0 0116.257.001z"/><path data-name="Path 10602" d="M23.005 5.056l-1.679 1.626a13.47 13.47 0 00-9.782-4.286 13.547 13.547 0 00-9.909 4.116L.001 4.864a15.819 15.819 0 0123.004.192z"/></g></svg>