<svg xmlns="http://www.w3.org/2000/svg" width="23" height="19.286"><g data-name="Group 6581"><path data-name="Path 10612" d="M9.1 16.924a2.329 2.329 0 012.345-2.317 2.334 2.334 0 012.326 2.343 2.344 2.344 0 01-2.364 2.336A2.338 2.338 0 019.1 16.924z" fill="#b0b0b0"/></g><path data-name="Path 10613" d="M0 5.099l1.65 1.618a14.021 14.021 0 017.521-3.852L8.992.518A15.765 15.765 0 000 5.099z" fill="#b0b0b0"/><path data-name="Path 10614" d="M21.305 6.885l1.7-1.6A15.92 15.92 0 0014.011.549l-.179 2.346a13.882 13.882 0 017.473 3.99z" fill="#b0b0b0"/><path data-name="Path 10615" d="M17.9 10.368l1.63-1.676a11.338 11.338 0 00-5.9-3.172l-.181 2.37a9.327 9.327 0 014.451 2.478z" fill="#b0b0b0"/><path data-name="Path 10616" d="M3.342 8.697l1.653 1.626a9.274 9.274 0 014.557-2.459l-.181-2.366a11.188 11.188 0 00-6.029 3.199z" fill="#b0b0b0"/><path data-name="Path 10617" d="M6.569 11.983l1.634 1.6a6.489 6.489 0 011.638-.979l-.185-2.421a6.577 6.577 0 00-3.087 1.8z" fill="#b0b0b0"/><path data-name="Path 10618" d="M14.699 13.61l1.629-1.606a6.742 6.742 0 00-2.985-1.78l-.186 2.438a6.619 6.619 0 011.542.948z" fill="#b0b0b0"/><path data-name="Path 10619" d="M9.936 16.854a1.485 1.485 0 011.591-1.465 1.447 1.447 0 011.564 1.465 1.448 1.448 0 01-1.591 1.419 1.434 1.434 0 01-1.564-1.419z" fill="#f2f2f2"/><path data-name="Path 10620" d="M12.621 13.191H10.38L9.638-.001h3.722z" fill="#f2f2f2"/></svg>