<svg xmlns="http://www.w3.org/2000/svg" width="37.43" height="29.629"><path data-name="Path 4512" d="M37.385 13.862c0 1.25.05 2.5-.011 3.749a13.64 13.64 0 01-7.556 11.283 18.83 18.83 0 01-1.969.715.675.675 0 01-.368-.014 12.158 12.158 0 01-6.163-3.966 13.588 13.588 0 01-3.168-6.794 14.914 14.914 0 01-.181-2.193c-.024-2.07-.006-4.14-.013-6.21a.323.323 0 01.233-.35q4.627-2.048 9.247-4.113a.576.576 0 01.522 0q4.631 2.07 9.271 4.122a.29.29 0 01.2.32c-.007 1.149 0 2.3 0 3.447zm-9.705 3.912c.005.135.015.269.015.4v9.233a10.284 10.284 0 005.113-3.678 12.4 12.4 0 002.45-5.968c-.083-.005-.124-.01-.166-.01H27.87a1.4 1.4 0 00-.2.027 1.845 1.845 0 00.021-.2V8.243c-.081.029-.129.043-.173.063q-3.6 1.6-7.211 3.2a.277.277 0 00-.181.309v5.942h4.816c.914.002 1.825.012 2.737.017z" fill="#2fcba7"/><circle data-name="Ellipse 1746" cx="11.49" cy="11.49" fill="#343434" r="11.49"/><path data-name="パス 3608" d="M11.342 9.168a2.112 2.112 0 11-.036 0z" fill="#2fcba7"/><path data-name="パス 3609" d="M10.313 2.155h2.038a1.155 1.155 0 01.513.83c.08.453.2.9.307 1.348a2.585 2.585 0 001.639.846 1.534 1.534 0 00.205-.123c.438-.268.879-.534 1.315-.807a.7.7 0 01.959.086q.52.513 1.035 1.035a.707.707 0 01.089.959c-.236.381-.451.775-.712 1.137a.792.792 0 00-.069.989c.127.2.156.466.275.676a.776.776 0 00.381.347 10.9 10.9 0 001.384.325 1.148 1.148 0 01.831.507v2.038a1.1 1.1 0 01-.832.507c-.267.036-.526.146-.793.17a1.123 1.123 0 00-1.168.994c-.024.155-.144.294-.178.451a.7.7 0 00.017.43c.27.484.572.952.861 1.425a.693.693 0 01-.061.927q-.536.557-1.091 1.094a.676.676 0 01-.893.082c-.372-.223-.753-.435-1.107-.687a.853.853 0 00-1.095-.1 1.96 1.96 0 01-.6.235.506.506 0 00-.4.441c-.089.452-.224.895-.3 1.348a1.145 1.145 0 01-.512.831h-2.033a1.139 1.139 0 01-.506-.832c-.077-.453-.205-.9-.307-1.348a2.607 2.607 0 00-1.64-.845 1.48 1.48 0 00-.175.1c-.449.278-.9.553-1.353.832a.7.7 0 01-.959-.087q-.522-.513-1.036-1.036a.709.709 0 01-.09-.96c.222-.358.422-.73.668-1.068a.85.85 0 00.1-1.093 1.981 1.981 0 01-.236-.6.507.507 0 00-.442-.405c-.452-.089-.894-.224-1.348-.3a1.141 1.141 0 01-.831-.512v-2.037a1.1 1.1 0 01.831-.507c.267-.036.527-.146.794-.17a1.12 1.12 0 001.168-.994c.026-.156.146-.295.178-.451a.675.675 0 00-.016-.43c-.27-.486-.568-.955-.861-1.427a.7.7 0 01.086-.959q.512-.522 1.035-1.036a.707.707 0 01.96-.088c.369.229.749.441 1.1.69a.812.812 0 001.025.091c.2-.13.465-.155.676-.275a.769.769 0 00.348-.381 11.14 11.14 0 00.325-1.384 1.145 1.145 0 01.501-.829zm1.008 14.252a5.082 5.082 0 10-5.07-5.094 5.1 5.1 0 005.07 5.092z" fill="#2fcba7"/></svg>