<svg xmlns="http://www.w3.org/2000/svg" width="35.218" height="35.207"><defs><clipPath id="a"><path d="M49.459 122.53l1.425-4.269H54.4a2.332 2.332 0 100-4.663H34.128a17.6 17.6 0 0026.827 19.729l-8.53-10.8h-2.966" transform="translate(-33.319 -113.598)" fill="none"/></clipPath></defs><g data-name="xrs logo"><path data-name="パス 348" d="M16.14 21.275l1.425-4.269h3.516a2.332 2.332 0 100-4.663H.809a17.6 17.6 0 0026.827 19.729l-8.53-10.8H16.14" fill="#30bbea"/><path data-name="パス 349" d="M23.979 8.144a6.83 6.83 0 012.294 1.39 6.206 6.206 0 011.507 2.165 7.047 7.047 0 01.535 2.78 6.636 6.636 0 01-1.014 3.679 6.488 6.488 0 01-2.731 2.387l6.9 7.911A17.6 17.6 0 103.76 6.748q-.347.443-.666.908h17.987a8.294 8.294 0 012.9.492" fill="#f7b52c"/><path data-name="パス 350" d="M31.467 28.454l-6.9-7.911a6.488 6.488 0 002.731-2.387 6.638 6.638 0 001.014-3.679 7.044 7.044 0 00-.535-2.78 6.206 6.206 0 00-1.507-2.165 6.829 6.829 0 00-2.294-1.39 8.294 8.294 0 00-2.9-.492H3.088a17.55 17.55 0 00-2.284 4.691h20.269a2.332 2.332 0 110 4.663h-4.754l-1.424 4.269h4.209l8.53 10.8a17.677 17.677 0 003.831-3.619" fill="#fff"/><g data-name="グループ 283"><g data-name="Group 5872"><g data-name="Group 5871" clip-path="url(#a)" transform="translate(0 12.343)"><g data-name="グループ 282" fill="#fff"><path data-name="パス 351" d="M-8.207 33.265l-.132-.046L5.567-7.168l.132.046-13.906 40.387"/><path data-name="パス 352" d="M-2.862 33.265l-.132-.046L10.912-7.168l.132.046-13.906 40.387"/><path data-name="パス 353" d="M2.483 33.265l-.132-.046L16.257-7.168l.132.046L2.483 33.265"/><path data-name="パス 354" d="M7.829 33.265l-.132-.046L21.603-7.168l.132.046L7.829 33.265"/><path data-name="パス 355" d="M13.173 33.265l-.132-.046L26.947-7.168l.132.046-13.906 40.387"/><path data-name="パス 356" d="M18.518 33.265l-.132-.046L32.292-7.168l.132.046-13.906 40.387"/><path data-name="パス 357" d="M23.863 33.265l-.132-.046L37.637-7.168l.132.046-13.906 40.387"/><path data-name="長方形 169" d="M.009 2.288h27.627v.14H.009z"/><path data-name="長方形 170" d="M.009 7.634h27.627v.14H.009z"/><path data-name="長方形 171" d="M.009 12.979h27.627v.14H.009z"/><path data-name="長方形 172" d="M.009 18.324h27.627v.14H.009z"/></g></g></g></g><path data-name="長方形 173" fill="#fff" d="M8.463 13.704h4.9v13.254h-4.9z"/></g></svg>