<svg xmlns="http://www.w3.org/2000/svg" width="35" height="34.99"><defs><clipPath id="a"><path d="M49.359 122.475l1.416-4.242h3.492a2.317 2.317 0 100-4.634H34.123A17.494 17.494 0 0060.784 133.2l-8.477-10.731h-2.948" transform="translate(-33.319 -113.598)" fill="none"/></clipPath></defs><path data-name="パス 348" d="M16.04 21.143l1.416-4.242h3.492a2.317 2.317 0 100-4.634H.804a17.494 17.494 0 0026.661 19.601l-8.477-10.731H16.04" fill="#30bbea"/><path data-name="パス 349" d="M23.831 8.094a6.788 6.788 0 012.28 1.381 6.167 6.167 0 011.5 2.152 7 7 0 01.532 2.763 6.6 6.6 0 01-1.008 3.656 6.448 6.448 0 01-2.714 2.373l6.858 7.862A17.492 17.492 0 003.741 6.706q-.345.441-.662.9h17.872a8.242 8.242 0 012.882.489" fill="#f7b52c"/><path data-name="パス 350" d="M31.274 28.277l-6.859-7.862a6.448 6.448 0 002.714-2.373 6.6 6.6 0 001.008-3.656 7 7 0 00-.532-2.763 6.167 6.167 0 00-1.5-2.152 6.787 6.787 0 00-2.28-1.381 8.242 8.242 0 00-2.882-.489H3.07A17.441 17.441 0 00.8 12.263h20.144a2.317 2.317 0 010 4.634h-4.729l-1.413 4.243h4.183l8.477 10.731a17.568 17.568 0 003.807-3.6" fill="#fff"/><g data-name="グループ 283"><g data-name="Group 5872"><g data-name="Group 5871" clip-path="url(#a)" transform="translate(0 12.266)"><g data-name="グループ 282" fill="#fff"><path data-name="パス 351" d="M-8.155 33.059l-.132-.046L5.533-7.124l.132.046-13.82 40.137"/><path data-name="パス 352" d="M-2.843 33.059l-.132-.046 13.82-40.137.132.046-13.82 40.137"/><path data-name="パス 353" d="M2.469 33.059l-.132-.046 13.82-40.137.132.046-13.82 40.137"/><path data-name="パス 354" d="M7.781 33.059l-.131-.046L21.47-7.124l.132.046-13.82 40.137"/><path data-name="パス 355" d="M13.093 33.059l-.132-.046 13.82-40.137.132.046-13.82 40.137"/><path data-name="パス 356" d="M18.405 33.059l-.132-.046 13.82-40.137.132.046-13.82 40.137"/><path data-name="パス 357" d="M23.717 33.059l-.132-.046 13.82-40.137.132.046-13.82 40.137"/><path data-name="長方形 169" d="M.009 2.274h27.456v.139H.009z"/><path data-name="長方形 170" d="M.009 7.586h27.456v.139H.009z"/><path data-name="長方形 171" d="M.009 12.898h27.456v.139H.009z"/><path data-name="長方形 172" d="M.009 18.21h27.456v.139H.009z"/></g></g></g></g><path data-name="長方形 173" fill="#fff" d="M8.411 13.619h4.869v13.172H8.411z"/></svg>