<svg xmlns="http://www.w3.org/2000/svg" width="31.303" height="23.778"><path data-name="Path 5678" d="M17.615 7.221h12.9c.842 0 .88.047.69.869-1.133 4.925-2.278 9.848-3.393 14.776a.993.993 0 01-1.142.909q-12.868-.028-25.734-.014c-.9 0-.962-.077-.755-.976 1.129-4.9 2.274-9.8 3.383-14.7a.966.966 0 011.141-.882c4.305.033 8.608.018 12.91.018z" fill="#7ecdfa"/><path data-name="Path 5679" d="M.039 17.486c-.014-.187-.037-.374-.037-.56V3.644c0-1.314.85-2.292 1.4-3.382.087-.168.489-.244.744-.245 2.858-.018 5.718-.032 8.574.016a1.535 1.535 0 01.985.62 5.889 5.889 0 01.758 1.478 1.272 1.272 0 001.4.877c4.5-.028 9-.015 13.507-.015 1.08 0 1.08 0 1.08 1.077 0 1.912 0 1.912-1.918 1.912-7.563 0-15.126.009-22.689-.015-.763 0-1.1.208-1.275 1-.713 3.309-1.5 6.6-2.268 9.9-.049.212-.118.421-.177.632z" fill="#66b6ea"/></svg>