<svg xmlns="http://www.w3.org/2000/svg" width="87.938" height="17.675"><g data-name="4"><g data-name="☆" fill="none" stroke="#797979"><path data-name="Path 10928" d="M86.449 7.078l-4.527 3.426 1.895 5.806-4.806-3.614-4.756 3.614 1.877-5.773-4.554-3.459h5.681l1.77-5.462 1.783 5.462z"/><path data-name="Path 10927" d="M68.925 7.078l-4.527 3.426 1.895 5.806-4.806-3.614-4.756 3.614 1.877-5.773-4.554-3.459h5.681l1.77-5.462 1.783 5.462z"/><path data-name="Path 10926" d="M51.4 7.078l-4.527 3.426 1.895 5.806-4.806-3.614-4.756 3.614 1.877-5.773-4.554-3.459h5.681l1.77-5.462 1.783 5.462z"/><path data-name="Path 10925" d="M33.876 7.078l-4.527 3.426 1.895 5.806-4.806-3.614-4.756 3.614 1.877-5.773-4.554-3.459h5.681l1.77-5.462 1.783 5.462z"/><path data-name="Path 10924" d="M16.352 7.078l-4.527 3.426 1.895 5.806-4.806-3.614-4.756 3.614 1.877-5.773-4.554-3.459h5.681l1.77-5.462 1.783 5.462z"/></g><g data-name="★" fill="#ddd"><path data-name="Path 10925" d="M33.876 7.078l-4.527 3.426 1.895 5.806-4.806-3.614-4.756 3.614 1.877-5.773-4.554-3.459h5.681l1.77-5.462 1.783 5.462z"/><path data-name="Path 10924" d="M16.352 7.078l-4.527 3.426 1.895 5.806-4.806-3.614-4.756 3.614 1.877-5.773-4.554-3.459h5.681l1.77-5.462 1.783 5.462z"/></g></g></svg>