<svg xmlns="http://www.w3.org/2000/svg" width="131.173" height="25.152"><g data-name="☆" fill="none" stroke="#797979"><path data-name="Path 10928" d="M129.685 9.857l-6.825 5.17 2.859 8.76-7.252-5.453-7.176 5.453 2.833-8.71-6.872-5.22h8.571l2.67-8.241 2.691 8.241z"/><path data-name="Path 10927" d="M103.244 9.857l-6.825 5.17 2.859 8.76-7.252-5.453-7.176 5.453 2.833-8.71-6.872-5.22h8.571l2.67-8.241 2.691 8.241z"/><path data-name="Path 10926" d="M76.8 9.857l-6.825 5.17 2.859 8.76-7.252-5.453-7.176 5.453 2.833-8.71-6.872-5.22h8.571l2.67-8.241 2.691 8.241z"/><path data-name="Path 10925" d="M50.359 9.857l-6.824 5.17 2.859 8.76-7.252-5.453-7.176 5.453 2.833-8.71-6.872-5.22h8.571l2.67-8.241 2.691 8.241z"/><path data-name="Path 10924" d="M23.918 9.857l-6.825 5.17 2.859 8.76-7.252-5.453-7.176 5.453 2.833-8.71-6.872-5.22h8.571l2.67-8.241 2.691 8.241z"/></g><g data-name="★"><path data-name="Path 10927" d="M103.244 9.857l-6.825 5.17 2.859 8.76-7.252-5.453-7.176 5.453 2.833-8.71-6.872-5.22h8.571l2.67-8.241 2.691 8.241z" fill="#f2f2f2"/><path data-name="Path 10926" d="M76.8 9.857l-6.825 5.17 2.859 8.76-7.252-5.453-7.176 5.453 2.833-8.71-6.872-5.22h8.571l2.67-8.241 2.691 8.241z" fill="#f2f2f2"/><path data-name="Path 10925" d="M50.359 9.857l-6.824 5.17 2.859 8.76-7.252-5.453-7.176 5.453 2.833-8.71-6.872-5.22h8.571l2.67-8.241 2.691 8.241z" fill="#f2f2f2"/><path data-name="Path 10924" d="M23.918 9.857l-6.825 5.17 2.859 8.76-7.252-5.453-7.176 5.453 2.833-8.71-6.872-5.22h8.571l2.67-8.241 2.691 8.241z" fill="#ddd"/></g></svg>