<svg xmlns="http://www.w3.org/2000/svg" width="18.179" height="14.747"><g data-name="4563" fill="#a7a7a7"><path data-name="Path 3471" d="M15.005 5.407a1.4 1.4 0 01-.41 1.58 2.813 2.813 0 01-1.738.739 4.027 4.027 0 01-.47 0c.286 1.465-.15 2.218-1.312 2.274-.269.013-.392.149-.505.437-.5 1.273-1.019 2.534-1.53 3.8-.151.372-.356.655-.7.426a.762.762 0 01-.2-.98c1.469-3.636 2.777-7.394 4.757-10.648A14.254 14.254 0 0114.551.877a2.268 2.268 0 012.37-.794c1.031.288 1.5 1.584 1.141 3.053a2.774 2.774 0 01-3.057 2.271z"/><path data-name="Rectangle 2468" d="M0 6.519h7.178v1.118H0z"/><path data-name="Rectangle 2469" d="M0 10.074h7.83v1.118H0z"/><path data-name="Rectangle 2470" d="M0 13.629h8.722v1.118H0z"/></g></svg>