<svg data-name="★" xmlns="http://www.w3.org/2000/svg" width="84.965" height="14.694"><path data-name="Path 10928" d="M84.964 5.462l-4.527 3.426 1.895 5.806-4.806-3.614-4.756 3.614 1.877-5.773-4.554-3.459h5.681L77.544 0l1.783 5.462z" fill="#f2f2f2"/><path data-name="Path 10927" d="M67.44 5.462l-4.527 3.426 1.895 5.806-4.806-3.614-4.756 3.614 1.877-5.773-4.554-3.459h5.681L60.02 0l1.783 5.462z" fill="#f2f2f2"/><path data-name="Path 10926" d="M49.915 5.462l-4.527 3.426 1.895 5.806-4.806-3.614-4.756 3.614 1.877-5.773-4.554-3.459h5.681L42.495 0l1.783 5.462z" fill="#f2f2f2"/><path data-name="Path 10925" d="M32.391 5.462l-4.527 3.426 1.895 5.806-4.806-3.614-4.756 3.614 1.877-5.773-4.554-3.459h5.681L24.971 0l1.783 5.462z" fill="#f2f2f2"/><path data-name="Path 10924" d="M14.867 5.462L10.34 8.888l1.895 5.806-4.806-3.614-4.756 3.614L4.55 8.921-.004 5.462h5.681L7.447 0 9.23 5.462z" fill="#f2f2f2"/></svg>