<svg xmlns="http://www.w3.org/2000/svg" width="20" height="17.092" viewBox="0 0 26 21.092"><g data-name="7777" fill="#a7a7a7"><path data-name="Path 3471" d="M21.461 7.734a2.006 2.006 0 01-.587 2.26 4.024 4.024 0 01-2.486 1.057 5.781 5.781 0 01-.672 0c.41 2.095-.214 3.173-1.876 3.252-.385.019-.561.214-.723.625-.716 1.82-1.457 3.623-2.189 5.434-.215.533-.51.938-1 .609a1.09 1.09 0 01-.285-1.4c2.1-5.2 3.971-10.574 6.8-15.229a20.387 20.387 0 012.366-3.086A3.243 3.243 0 0124.198.12c1.475.412 2.143 2.265 1.633 4.366a3.967 3.967 0 01-4.37 3.248z"/><path data-name="Rectangle 2468" d="M0 9.324h10.266v1.599H0z"/><path data-name="Rectangle 2469" d="M0 14.408h11.199v1.599H0z"/><path data-name="Rectangle 2470" d="M0 19.493h12.475v1.599H0z"/></g></svg>