<svg xmlns="http://www.w3.org/2000/svg" width="44.945" height="29.874"><g fill="#00be85"><path data-name="パス 10957" d="M44.117 29.874h-25.73a.828.828 0 01-.828-.828V3.316a.828.828 0 01.828-.828h25.73a.828.828 0 01.828.828v25.73a.828.828 0 01-.828.828zm-24.3-2.259h22.869V4.746H19.817z"/><path data-name="パス 10958" d="M32.073 18.903h-7.4a1.114 1.114 0 01-1.129-1.094 1.113 1.113 0 011.129-1.094h7.4a1.111 1.111 0 011.13 1.093 1.112 1.112 0 01-1.13 1.094z"/><path data-name="パス 10959" d="M37.668 23.844H24.68a1.115 1.115 0 01-1.129-1.094 1.113 1.113 0 011.129-1.094h12.988a1.112 1.112 0 011.13 1.093 1.112 1.112 0 01-1.129 1.094z"/><g data-name="Group 7569"><path data-name="Path 11040" d="M28.034 13.461a7.734 7.734 0 00-1.134-.056h-2.368c-.447 0-.727.008-1.015.024a6.35 6.35 0 00.064-1.056v-4.15a7.8 7.8 0 00-.064-1.183h1.208a7.273 7.273 0 00-.065 1.176v4.221h2.24a8.62 8.62 0 001.134-.055z"/><path data-name="Path 11041" d="M29.768 7.042v1.019h-1.175V7.045zm-.008 1.775a7.19 7.19 0 00-.056 1.048v2.496a8.035 8.035 0 00.056 1.048h-1.167a7.184 7.184 0 00.064-1.039V9.861a6.575 6.575 0 00-.064-1.04z"/><path data-name="Path 11042" d="M31.653 11.968c.135.544.431.759 1.054.759.592 0 .96-.232.96-.608a.487.487 0 00-.208-.4c-.152-.1-.2-.112-.84-.256a4.841 4.841 0 01-1.151-.344 1.146 1.146 0 01-.7-1.063 1.19 1.19 0 01.248-.744 1.926 1.926 0 011.6-.624 2.177 2.177 0 011.5.464 1.55 1.55 0 01.432.792l-1.055.136c-.087-.44-.36-.632-.879-.632-.5 0-.831.224-.831.56a.43.43 0 00.247.376 3.386 3.386 0 00.8.239 3.439 3.439 0 011.408.488 1.138 1.138 0 01.463.991 1.288 1.288 0 01-.391.9 2.361 2.361 0 01-1.655.52 2.113 2.113 0 01-1.784-.712 1.814 1.814 0 01-.311-.712z"/><path data-name="Path 11043" d="M37.18 7.586a8.845 8.845 0 00-.056.984v.247h.336a4.59 4.59 0 00.807-.048v.944a4.4 4.4 0 00-.783-.048h-.36v2.478c0 .393.144.536.528.536a1.05 1.05 0 00.584-.176l.143.848a2.5 2.5 0 01-1 .168c-.92 0-1.287-.328-1.287-1.168v-2.69h-.3a4.027 4.027 0 00-.711.048v-.944a3.674 3.674 0 00.72.048h.3v-.247a8.922 8.922 0 00-.057-.984z"/></g><path data-name="Path 10763" d="M10.6 0a10.6 10.6 0 1010.6 10.6A10.6 10.6 0 0010.6 0zm5.675 11.718h-4.556v4.556a1.085 1.085 0 01-2.171 0v-4.556H4.993a1.085 1.085 0 110-2.169h4.555V4.993a1.085 1.085 0 012.171 0v4.56h4.556a1.085 1.085 0 110 2.169z"/></g></svg>