<svg xmlns="http://www.w3.org/2000/svg" width="43.79" height="28.289"><g fill="#fff"><path data-name="Path 10639" d="M17.5 7.83a10.387 10.387 0 01.82-1.571 2.716 2.716 0 012.231-1.089c4.026-.014 8.053-.006 12.079-.005.067 0 .133.011.2.017.007.042.028.088.016.1-.941.947-1.876 1.9-2.84 2.824a.975.975 0 01-.617.144c-2.707.009-5.414.018-8.121 0-.5 0-.681.111-.678.65q.029 7.813 0 15.626c0 .454.105.614.6.613 5.243-.019 10.486-.012 15.729-.012h.572v-.647c0-2.656.006-5.312-.007-7.968a1.082 1.082 0 01.35-.856c.906-.883 1.79-1.788 2.755-2.757.014.256.03.415.03.573v11.411a3.2 3.2 0 01-2.683 3.324.848.848 0 00-.179.089H20.378c-.127-.04-.253-.087-.382-.119a3.189 3.189 0 01-2.161-1.715c-.136-.268-.226-.559-.337-.84z"/><path data-name="Path 10640" d="M23.936 21.863c.2-.773.378-1.5.561-2.22.336-1.326.669-2.652 1.014-3.975a1.1 1.1 0 01.244-.488q4.714-4.733 9.443-9.45a1.214 1.214 0 01.161-.109 27.173 27.173 0 014.847 4.847c-.119.131-.218.247-.326.354q-4.559 4.561-9.123 9.116a1.3 1.3 0 01-.543.352c-2 .521-4.008 1.022-6.013 1.527a1.837 1.837 0 01-.265.046zm2.423-6.173a24.218 24.218 0 01-.665 2.523 1.388 1.388 0 00.562 1.87.987.987 0 00.659.181c.967-.208 1.924-.466 2.883-.712a.7.7 0 00.195-.087c-.382-.294-.924-.527-1.145-.933a4.2 4.2 0 01-.2-1.511c-1.193.357-1.608.141-2.289-1.331z"/><path data-name="Path 10641" d="M41.435 9.273l-4.9-4.887c.691-.691 1.457-1.449 2.213-2.217.3-.3.608-.141.832.033a30.233 30.233 0 012.558 2.121 14.124 14.124 0 011.474 1.9.678.678 0 01-.138 1.023c-.723.667-1.404 1.392-2.039 2.027z"/></g><path data-name="Path 10763" d="M10.6 0a10.6 10.6 0 1010.6 10.6A10.6 10.6 0 0010.6 0zm5.675 11.718h-4.556v4.556a1.085 1.085 0 01-2.171 0v-4.556H4.993a1.085 1.085 0 110-2.169h4.555V4.993a1.085 1.085 0 012.171 0v4.56h4.556a1.085 1.085 0 110 2.169z" fill="#fff"/></svg>