<svg xmlns="http://www.w3.org/2000/svg" width="34.549" height="34.549"><g data-name="Group 6754" transform="translate(111.477 117.5)"><circle data-name="Ellipse 1792" cx="16.775" cy="16.775" r="16.775" transform="translate(-110.977 -117)" fill="none" stroke="#7c7c7c" stroke-miterlimit="10"/><g data-name="Group 6752" style="isolation:isolate" fill="#7c7c7c"><path data-name="Path 10771" d="M-99.882-95.372a4.532 4.532 0 00-.138-.616l-.18-.564h-1.6l-.18.564a3.133 3.133 0 00-.143.616h-1.049a5.684 5.684 0 00.27-.7l1.156-3.425a4.756 4.756 0 00.169-.6h1.14a4.177 4.177 0 00.18.6l1.166 3.425c.1.3.2.552.26.7zm-1.044-3.647c-.016-.052-.037-.11-.079-.267-.032.122-.037.151-.074.267l-.5 1.645h1.156z"/><path data-name="Path 10772" d="M-94.333-100.099a5.777 5.777 0 00-.042.831v2.035a1.758 1.758 0 01-1.892 1.971 1.837 1.837 0 01-1.447-.558 2.133 2.133 0 01-.429-1.419v-2.023a5.648 5.648 0 00-.043-.837h.959a5.462 5.462 0 00-.042.837v2.023a1.286 1.286 0 00.212.814.949.949 0 00.8.332.952.952 0 00.827-.372 1.372 1.372 0 00.18-.773v-2.023a5.608 5.608 0 00-.042-.837z"/><path data-name="Path 10773" d="M-91.332-96.187a6.15 6.15 0 00.042.814h-.975a6.1 6.1 0 00.042-.814v-3.058h-.673a5.5 5.5 0 00-.758.041v-.936a5.515 5.515 0 00.753.041h2.2a5.714 5.714 0 00.8-.041v.936a5.615 5.615 0 00-.8-.041h-.636z"/><path data-name="Path 10774" d="M-85.842-99.594a2.687 2.687 0 01.609 1.843c0 1.5-.816 2.483-2.057 2.483s-2.056-.971-2.056-2.476.805-2.454 2.056-2.454a1.848 1.848 0 011.448.604zm-.3 1.849a1.889 1.889 0 00-.392-1.291.989.989 0 00-.753-.326c-.7 0-1.15.622-1.15 1.6 0 1.012.445 1.645 1.155 1.645s1.138-.616 1.138-1.627z"/></g><g data-name="Group 6753" style="isolation:isolate" fill="#7c7c7c"><path data-name="Path 10775" d="M-99.586-90.765a3.119 3.119 0 00-.171-.615l-.485-1.356c-.048-.135-.1-.336-.186-.663.024.423.032.6.032.707v1.269a4.744 4.744 0 00.032.659h-.664a4.835 4.835 0 00.032-.659v-2.224a5.117 5.117 0 00-.032-.663h.882a3.163 3.163 0 00.147.562l.707 2.033.7-2.033a2.835 2.835 0 00.153-.563h.882a5.283 5.283 0 00-.032.663v2.224a4.47 4.47 0 00.032.659h-.664a4.876 4.876 0 00.032-.659v-1.282c0-.1.008-.279.032-.694l-.064.275c-.02.074-.087.31-.111.375l-.5 1.374a3.879 3.879 0 00-.171.611z"/><path data-name="Path 10776" d="M-94.317-93.931a2.014 2.014 0 01.457 1.382c0 1.125-.612 1.862-1.541 1.862s-1.542-.728-1.542-1.858.6-1.841 1.542-1.841a1.384 1.384 0 011.084.455zm-.227 1.387a1.418 1.418 0 00-.294-.968.741.741 0 00-.564-.244c-.529 0-.862.467-.862 1.2 0 .759.334 1.234.866 1.234s.855-.468.855-1.222z"/><path data-name="Path 10777" d="M-93.198-93.722a3.744 3.744 0 00-.036-.6c.159.009.258.013.544.013h.775a1.434 1.434 0 011.109.405 1.9 1.9 0 01.441 1.335 1.99 1.99 0 01-.465 1.4 1.4 1.4 0 01-1.08.405h-.776c-.27 0-.378 0-.54.013a4.153 4.153 0 00.032-.6zm1.236 2.325a.78.78 0 00.644-.253 1.366 1.366 0 00.274-.907 1.279 1.279 0 00-.254-.877.809.809 0 00-.667-.244h-.576v2.281z"/><path data-name="Path 10778" d="M-87.376-90.734a3.585 3.585 0 00-.552-.027h-1.271c-.27 0-.381 0-.545.013a4.1 4.1 0 00.032-.606v-2.369a4.528 4.528 0 00-.032-.6c.163.009.267.013.541.013h1.232a4.568 4.568 0 00.552-.031v.689a3.835 3.835 0 00-.552-.031h-1.085v.781h.906a4.361 4.361 0 00.556-.031v.68a3.816 3.816 0 00-.556-.031h-.91v.885h1.136a3.879 3.879 0 00.548-.031z"/></g><path data-name="Path 10779" d="M-94.17-109.37c3.562 0 6.649 1.457 8.137 3.571a.7.7 0 00.867.247l.043-.02a.7.7 0 00.278-1.038c-1.766-2.5-5.282-4.213-9.325-4.213-4.1 0-7.658 1.759-9.4 4.32a.7.7 0 00.3 1.026l.043.019a.7.7 0 00.86-.262c1.47-2.157 4.591-3.65 8.197-3.65z" fill="#7c7c7c"/><path data-name="Path 10780" d="M-94.189-106.494a6.925 6.925 0 015.116 2.152.731.731 0 00.843.179.728.728 0 00.228-1.157 8.37 8.37 0 00-6.186-2.627 8.369 8.369 0 00-6.217 2.659.728.728 0 00.244 1.16.73.73 0 00.831-.188 6.921 6.921 0 015.141-2.178z" fill="#7c7c7c"/><path data-name="Path 10781" d="M-94.174-103.677a3.429 3.429 0 012.123.769.731.731 0 00.754.1.719.719 0 00.161-1.211 4.856 4.856 0 00-3.041-1.108 4.87 4.87 0 00-3.1 1.16.72.72 0 00.182 1.212.73.73 0 00.747-.109 3.446 3.446 0 012.174-.813z" fill="#7c7c7c"/></g></svg>