<svg xmlns="http://www.w3.org/2000/svg" width="27.229" height="36.305"><g data-name="Group 6654"><g data-name="Group 6651" fill="#fff"><path data-name="Rectangle 5553" d="M8.786 29.553h13.578v1.597H8.786z"/><path data-name="Path 10652" d="M19.15 1.396H4.688v28.326h21.145V8.677h-6.682z"/><path data-name="Path 10653" d="M20.546 7.276h4.66l-4.66-4.932z"/></g><path data-name="Path 10654" d="M27.126 7.281L20.545.315l-.3-.315H3.291v31.118h5.286v-1.4h-3.89V1.4h14.462v7.281h6.682v21.045h-3.89v1.4h5.286V7.396zm-6.581 0V2.348l4.66 4.933z" fill="#484848"/><path data-name="Rectangle 5554" fill="#494949" d="M7.78 15.858h14.761v1.396H7.78z"/><path data-name="Rectangle 5555" fill="#494949" d="M7.78 19.05h14.761v1.396H7.78z"/><path data-name="Path 10655" d="M18.128 30.52v-6.882h-5.984v6.882H9.551l5.585 5.785 5.585-5.785z" fill="#ff0f30"/><g data-name="Group 6653"><path data-name="Rectangle 5556" fill="#ff0f30" d="M0 5.885h15.958v7.181H0z"/><g data-name="Group 6652" fill="#fff"><path data-name="Path 10656" d="M3.879 11.434a3.4 3.4 0 00.034-.543V8.614a3.792 3.792 0 00-.034-.543c.181.008.312.013.535.013h.88a1.2 1.2 0 01.9.3.985.985 0 01.261.724 1.081 1.081 0 01-.282.775 1.192 1.192 0 01-.9.3h-.8v.7a3.409 3.409 0 00.034.547zM5.272 9.7a.53.53 0 00.6-.577.567.567 0 00-.139-.4.574.574 0 00-.459-.152h-.8v1.133z"/><path data-name="Path 10657" d="M6.906 8.618a3.51 3.51 0 00-.034-.547c.168.008.27.013.535.013h.762a1.5 1.5 0 011.137.37 1.7 1.7 0 01.467 1.276 1.772 1.772 0 01-.5 1.339 1.5 1.5 0 01-1.1.366h-.766c-.257 0-.362 0-.535.012a3.387 3.387 0 00.034-.556zm1.229 2.32a.926.926 0 00.745-.27 1.336 1.336 0 00.307-.934 1.254 1.254 0 00-.29-.9.945.945 0 00-.758-.253h-.674v2.357z"/><path data-name="Path 10658" d="M10.857 10.828a3.63 3.63 0 00.034.606h-.627a3.579 3.579 0 00.033-.6V8.615a3.668 3.668 0 00-.033-.547c.172.009.278.013.534.013h1.179a4.3 4.3 0 00.577-.029v.568a4.036 4.036 0 00-.577-.029h-1.12v.892h.9a4.164 4.164 0 00.572-.029v.56a4.121 4.121 0 00-.572-.029h-.9z"/></g></g></g></svg>