<svg xmlns="http://www.w3.org/2000/svg" width="25.705" height="24.88"><path d="M25.559 15.691l-6.769-4.139-.046-6.094L11.77 0 8.556 5.509v3.238L6.264 7.202l-3.219 4.75v3.262l-3.046 2.755v6.909h25.705zM.471 18.179l2.81-2.542v8.77H.471zm3.046-6.083l2.81-4.147v8.629l-2.81-1.161zm4.55 5.2l-.58-.24V9.869l.58.345zm-3.626-.461l.581.241v7.332h-.581zm1.015.422l.58.241v6.909h-.58zm1.015.422l.58.241v6.487h-.58zm1.015.422l.58.241v6.065h-.58zm1.015.422l.29.12.29.121v5.643h-.58zm1.451-.449l-1.451-.6v-7l.29.172V9.475l.236.159v-4l2.81-4.816v23.587H9.958zm3.19-14.992l.58.448v20.876h-.58zm1.015.784l.58.448v20.092h-.58zm1.015.784l.58.448v9.722l.435-.539V5.434l.581.448v7.681l.435-.539V6.218l.58.448v5.64l.535-.662v.188l.044.024v12.55h-3.19zm4.351 8.844l.58.344v10.568h-.58zm1.015.6l.581.345v9.964h-.581zm1.015.6l.58.345V24.4h-.58zm1.015.6l.58.345v8.758h-.58zm1.015.6l.58.344v8.155h-.58z" fill="#f2f2f2"/></svg>