<svg xmlns="http://www.w3.org/2000/svg" width="38.339" height="38.339"><g transform="translate(-883.672 -153.416)"><circle data-name="Ellipse 1574" cx="19.169" cy="19.169" r="19.169" transform="translate(883.672 153.416)" fill="#3c3c3c"/><g data-name="Group 4245" transform="translate(891.939 164.878)" fill="#f2f2f2"><path data-name="Path 5095" d="M19.945 0H1.858A1.872 1.872 0 00-.001 1.886v11.646a1.871 1.871 0 001.859 1.884h18.086a1.871 1.871 0 001.859-1.884V1.886A1.872 1.872 0 0019.945 0zm-11.1 13.484a5.215 5.215 0 115.144-5.215 5.181 5.181 0 01-5.143 5.215zm10.347-8.345h-2.3V2.803h2.3z"/><ellipse data-name="Ellipse 1575" cx="3.028" cy="3.07" rx="3.028" ry="3.07" transform="translate(5.818 5.199)"/></g></g></svg>