<svg xmlns="http://www.w3.org/2000/svg" width="26.939" height="20.789"><g fill="#909090"><g data-name="Group 6710"><path data-name="Path 10694" d="M26.935 14.341V5.858a1.778 1.778 0 00-1.763-1.789h-9.8v6.783a2.1 2.1 0 01-2.082 2.116h-.835v1.377a1.778 1.778 0 001.763 1.79H17.9l7.641 4.654-2.923-4.654h2.556a1.778 1.778 0 001.767-1.788zm-7.032-1.727l-.147-.977h-1.038l-.146.977h-.777l.862-5.384h1.238l.861 5.384z"/><path data-name="Path 10695" d="M12.815 12.058a1.684 1.684 0 001.638-1.353 1.615 1.615 0 00.032-.336V1.696a1.619 1.619 0 00-.064-.445A1.668 1.668 0 0012.814 0H1.672A1.685 1.685 0 000 1.7v8.671a1.689 1.689 0 001.212 1.622 1.623 1.623 0 00.46.073h2.672l-.684.907-2.619 3.477 6.334-3.477 1.488-.907h3.592zM8.276 8.917h-.115a.743.743 0 01-.731-.369 1.735 1.735 0 01-.592.1 1.194 1.194 0 01-1.284-1.354v-2.8a1.194 1.194 0 011.284-1.353 1.194 1.194 0 011.283 1.353v2.8a1.583 1.583 0 01-.161.754c.038.1.1.116.239.116h.077z"/></g><path data-name="Path 10696" d="M18.825 10.907l.408-2.722.408 2.722z"/><path data-name="Path 10697" d="M6.838 3.911c-.27 0-.44.146-.44.53v2.908c0 .384.169.531.44.531s.439-.147.439-.531V4.441c-.001-.384-.175-.53-.439-.53z"/></g></svg>