<svg xmlns="http://www.w3.org/2000/svg" width="23.781" height="23.781"><g fill="#fff"><path data-name="Path 11027" d="M11.891 23.781A11.9 11.9 0 010 11.891 11.9 11.9 0 0111.891 0a11.9 11.9 0 0111.89 11.891 11.9 11.9 0 01-11.89 11.89zm0-22.6a10.721 10.721 0 00-10.71 10.71A10.721 10.721 0 0011.891 22.6 10.721 10.721 0 0022.6 11.891a10.721 10.721 0 00-10.709-10.71z"/><g data-name="Group 7565"><path data-name="Path 11028" d="M17.934 10.523l-5.959-4.6-1.917 1.486 5.19 5.19z"/><path data-name="Path 11029" d="M17.177 14.522l.75-.593-.732-.927-.859.679z"/><path data-name="Path 11030" d="M18.732 17.747l-4.424-4.425-5.19-5.19-2.956-2.95-.835.835 2.846 2.846-2.207 1.7 5.959 4.6 1.439-1.11 1.106 1.106-2.415 1.908-5.175-4.063-.729.929 5.907 4.637 3.25-2.574 2.588 2.586z"/></g></g></svg>