<svg xmlns="http://www.w3.org/2000/svg" width="24.792" height="24.778"><path data-name="Path 11597" d="M3.533 3.754a12.361 12.361 0 0117.6-.142 11.747 11.747 0 013.538 7.072 12.092 12.092 0 01-3.52 10.469 11.745 11.745 0 01-7.034 3.508 12.135 12.135 0 01-10.473-3.513 11.622 11.622 0 01-2.631-3.836 12.362 12.362 0 01-.851-6.9 11.985 11.985 0 013.371-6.658zm1.964 1.7a9.76 9.76 0 00-.037 13.84 9.534 9.534 0 008.76 2.722 9.427 9.427 0 005.133-2.72A9.793 9.793 0 005.496 5.453z" fill="#797979"/><path data-name="Path 11599" d="M13.673 13.623a1.908 1.908 0 01-1.364.5 2.112 2.112 0 01-.895-.3 1.619 1.619 0 01-.617-.747 1.408 1.408 0 01-.135-.764.278.278 0 00-.066-.191c-.308-.333-.626-.658-.937-.989q-1.215-1.3-2.425-2.6c-.277-.3-.549-.6-.81-.919a.618.618 0 01.006-.875.655.655 0 01.6-.14 1.248 1.248 0 01.481.308c.345.338.7.671 1.049 1 1.007.943 2.018 1.881 3.024 2.826.1.1.193.027.273 0a1.751 1.751 0 011.089-.007.2.2 0 00.161-.039c.334-.3.661-.608.994-.91.672-.608 1.33-1.234 2.028-1.81a.611.611 0 011.013.218.517.517 0 01-.077.573 11.53 11.53 0 01-.592.713c-.43.473-.874.934-1.306 1.406a31.51 31.51 0 00-.984 1.116.488.488 0 00-.039.307 1.569 1.569 0 01-.268 1.018c-.075.111-.146.221-.203.306z" fill="#797979"/></svg>