<svg xmlns="http://www.w3.org/2000/svg" width="31.482" height="23.909"><path data-name="Path 11581" d="M0 9.377a27.71 27.71 0 01.814-3.083A10.01 10.01 0 019.998.013q5.769-.022 11.539 0a10.1 10.1 0 019.814 8.967 3.838 3.838 0 00.132.536v1.959c-.229 1.2-.372 2.432-.7 3.608a11.936 11.936 0 01-10.2 8.711 8.919 8.919 0 01-1.388.112c-.766-.029-1-.436-.65-1.108.268-.514.617-.987.9-1.494.482-.866.376-1.041-.6-1.042-2.821 0-5.642.019-8.463-.005A10.1 10.1 0 01.371 12.675c-.156-.577-.249-1.172-.37-1.758zm21.221 12.505a10.657 10.657 0 005.995-3.623 12.276 12.276 0 002.451-8.12A8.357 8.357 0 0021.28 1.81q-5.562-.007-11.123 0a8.872 8.872 0 00-1.388.123 8.311 8.311 0 00-2.807 15.4 9.294 9.294 0 004.894 1.149c2.775-.031 5.55-.024 8.325 0 2.013.018 2.892 1.6 2.1 3.088a1.511 1.511 0 00-.06.312z" fill="none"/><path data-name="Path 11582" d="M21.22 21.882a1.51 1.51 0 01.06-.311c.792-1.486-.088-3.07-2.1-3.088-2.775-.025-5.55-.032-8.325 0a9.294 9.294 0 01-4.894-1.149 8.311 8.311 0 012.807-15.4 8.887 8.887 0 011.388-.123q5.562-.015 11.123 0a8.357 8.357 0 018.387 8.329 12.275 12.275 0 01-2.451 8.12 10.658 10.658 0 01-5.995 3.622zm-3.756-11.565a1.724 1.724 0 10-1.755 1.706 1.748 1.748 0 001.755-1.706zm5.3 1.706a1.751 1.751 0 001.7-1.764 1.725 1.725 0 00-3.45.052 1.752 1.752 0 001.752 1.712zM8.728 8.57a1.727 1.727 0 101.737 1.741A1.79 1.79 0 008.729 8.57z" fill="#f2f2f2"/><path data-name="Path 11584" d="M22.767 12.023a1.752 1.752 0 01-1.752-1.712 1.725 1.725 0 013.45-.052 1.751 1.751 0 01-1.698 1.764z" fill="#3a3b41"/><path data-name="Path 11583" d="M17.465 10.317a1.724 1.724 0 11-3.447-.064 1.724 1.724 0 013.447.064z" fill="#3a3b41"/><path data-name="Path 11585" d="M8.73 8.569a1.79 1.79 0 011.737 1.741A1.725 1.725 0 118.73 8.569z" fill="#3a3b41"/></svg>