<svg data-name="Group 3177" xmlns="http://www.w3.org/2000/svg" width="20.471" height="21.715"><path data-name="Path 3990" d="M15.405 5.518v4.057c0 .457-.007.424-.434.5a1.4 1.4 0 00-.772.329 8.027 8.027 0 00-1.154 1.517c-.464.837-.846 1.725-1.224 2.6a3.406 3.406 0 01-1.124 1.523 4.257 4.257 0 00-1.745 2.986c-.114.725-.2 1.459-.281 2.19-.045.382-.1.443-.479.481a2.293 2.293 0 01-2.472-1.909 5.038 5.038 0 01.352-3.319c.276-.588.583-1.165.828-1.767a5 5 0 00.3-1.168c.051-.352-.065-.408-.422-.412-1.574-.019-3.15-.018-4.723-.089a2.466 2.466 0 01-2.054-2.208 1.334 1.334 0 01.329-.908c.375-.474.38-.616.068-1.14-.053-.09-.109-.178-.161-.267a1.105 1.105 0 01.174-1.557 1.014 1.014 0 00.261-1.3c-.068-.131-.1-.282-.162-.42a1.061 1.061 0 01.217-1.251c.2-.213.405-.418.611-.625a.778.778 0 00.27-.685A2.107 2.107 0 012.621.618 2.65 2.65 0 014.35-.005c1.893.019 3.789-.02 5.677.079a28.77 28.77 0 013.256.516c.588.1 1.172.232 1.76.327.277.044.366.178.364.454-.006 1.385-.002 2.765-.002 4.147z" fill="#ddd"/><path data-name="Path 3991" d="M20.461 5.416v4.056a.85.85 0 01-.875.921q-1.245.011-2.49 0a.829.829 0 01-.9-.918c-.012-.464 0-.928 0-1.391V1.506c0-.8.289-1.089 1.085-1.09.709 0 1.418.016 2.126-.007a.961.961 0 011.07 1.066c-.039 1.312-.016 2.631-.016 3.941z" fill="#ddd"/></svg>