<svg xmlns="http://www.w3.org/2000/svg" width="26.706" height="25.802"><g data-name="Group 6600" fill="#909090"><path data-name="Path 10634" d="M3.362 25.804c-.232-.064-.467-.117-.7-.193A3.384 3.384 0 01.091 22.73a31.667 31.667 0 01-.011-4.742 3.053 3.053 0 011.27-2.15c1.494-1.228 3.014-2.425 4.474-3.691a5.657 5.657 0 014.364-1.123.818.818 0 01.429.289c.368.38.7.8 1.079 1.164a2.319 2.319 0 003.252.008 1.635 1.635 0 00.334-.355c.814-1.434 2.149-1.284 3.413-1a5.617 5.617 0 012.1 1.043c1.553 1.184 3.036 2.459 4.543 3.7a3.389 3.389 0 011.3 2.47 28 28 0 010 4.025 3.61 3.61 0 01-3.136 3.33.945.945 0 00-.214.1zm9.95-8.718h-9.4a1.635 1.635 0 00-1.815 1.811c-.009 1-.014 1.994 0 2.991a1.609 1.609 0 001.741 1.757q9.494.009 18.988 0a1.606 1.606 0 001.722-1.714c.019-.956.009-1.913 0-2.869-.006-1.385-.59-1.976-1.96-1.977q-4.636-.004-9.276 0z"/><path data-name="Path 10635" d="M14.606 0a1.435 1.435 0 01.733 1.468c-.033 1.888-.012 2.08-.012 4.058.59 0 1.131.011 1.672 0a1 1 0 011.045.58.992.992 0 01-.256 1.165c-1.215 1.342-2.42 2.694-3.639 4.032a.975.975 0 01-1.66-.006c-1.234-1.353-2.453-2.718-3.678-4.079a.958.958 0 01-.206-1.121.965.965 0 01.987-.571c.546.007 1.092 0 1.728 0v-.755c0-1.689.026-1.681-.013-3.37a1.4 1.4 0 01.734-1.4z"/><path data-name="Path 10636" d="M21.06 21.644a1.181 1.181 0 01-1.169-1.215 1.164 1.164 0 011.194-1.124 1.164 1.164 0 011.2 1.18 1.166 1.166 0 01-1.225 1.159z"/><path data-name="Path 10637" d="M18.153 20.479a1.117 1.117 0 01-1.2 1.164 1.117 1.117 0 01-1.128-1.175 1.115 1.115 0 011.2-1.164 1.11 1.11 0 011.128 1.175z"/></g></svg>