<svg xmlns="http://www.w3.org/2000/svg" width="35" height="35"><g transform="translate(-526.89 -573.08)"><circle data-name="楕円形 1706" cx="17.5" cy="17.5" r="17.5" transform="translate(526.89 573.08)" fill="#65696f"/><path data-name="パス 5738" d="M556.851 589.832c-1.857 1.817-4.214 2.7-6 2a7.328 7.328 0 01-3-3 10.723 10.723 0 01-.8-1.518.8.8 0 00-.738-.477h-3.8a8.3 8.3 0 011.349-5 7.2 7.2 0 014-3 10.862 10.862 0 00-4-1 11.665 11.665 0 00-10 5 11.444 11.444 0 00-2 7c.019.339.065.652.11.963l2.58-.861a2.732 2.732 0 01.636-.134 13.566 13.566 0 016.682 1.031 9.649 9.649 0 013 2c.8.805 2.479 2.483 2 4-.425 1.344-2.307 1.823-3 2a6.118 6.118 0 01-2.367.121 1.057 1.057 0 00-1.025.468l-1.41 2.113a.318.318 0 00.089.441l.032.019a12.872 12.872 0 0011.68-.159 12.355 12.355 0 006-9 11.53 11.53 0 00-.018-3.007z" fill="#fff"/></g></svg>