<svg xmlns="http://www.w3.org/2000/svg" width="26.552" height="13.079"><g fill="#a5a5a5"><path data-name="Path 11656" d="M26.552 7.883l-2.193 1.205c-2.7-3.844-6.123-6.558-11.075-6.555S4.936 5.247 2.217 9.08c-.071-.032-.152-.062-.226-.1L0 7.835c.637-.809 1.214-1.614 1.866-2.355A15.169 15.169 0 0110.728.239a14.07 14.07 0 0110.864 2.425A17.783 17.783 0 0126.28 7.5a2.158 2.158 0 00.272.284z"/><path data-name="Path 11657" d="M17.736 8.638a4.45 4.45 0 11-4.442-4.442 4.424 4.424 0 014.442 4.442"/></g></svg>