<svg xmlns="http://www.w3.org/2000/svg" width="18.933" height="26.092"><path d="M2.914 8.295a8.248 8.248 0 001.129 4.836 4.276 4.276 0 00.974 1.083l.087-.025a2.085 2.085 0 00-.007-.517 16.357 16.357 0 01-.316-4.128A10.5 10.5 0 019.281.83c.376-.287.787-.528 1.183-.79a.566.566 0 01.107-.039c-.109.473-.246.928-.316 1.391a4.694 4.694 0 001.029 3.586 13.169 13.169 0 002.745 2.531 15.386 15.386 0 012.829 2.574 9.067 9.067 0 012.064 6.2 10.14 10.14 0 01-.524 3.6 9.472 9.472 0 01-18.3-2.214 12.02 12.02 0 01.621-5.867 10.98 10.98 0 011.869-3.229q.115-.131.235-.257c.02-.012.043-.01.091-.021zm1.7 12.574a6.844 6.844 0 008.165 1.557 6.926 6.926 0 003.723-7.508c-.633-2.712-2.831-4.832-4.733-5.155a7.68 7.68 0 011.391 5.485c-.351 1.852-1.936 4.265-3.118 4.656a8.325 8.325 0 00.528-4.144 7.329 7.329 0 01-5.956 5.109z" fill="#909090"/></svg>