<svg xmlns="http://www.w3.org/2000/svg" width="25.71" height="19.529"><path data-name="Path 5678" d="M14.467 5.931h10.6c.691 0 .722.039.567.714-.93 4.045-1.871 8.088-2.787 12.136a.816.816 0 01-.938.747Q11.34 19.505.773 19.517c-.74 0-.79-.063-.62-.8.927-4.025 1.867-8.046 2.779-12.073a.794.794 0 01.937-.725c3.531.024 7.069.012 10.598.012z" fill="#7ecdfa"/><path data-name="Path 5679" d="M.031 14.362c-.011-.153-.03-.307-.03-.46V2.993A6.249 6.249 0 011.154.215c.071-.138.4-.2.611-.2 2.347-.014 4.7-.027 7.042.013a1.261 1.261 0 01.809.509 4.837 4.837 0 01.622 1.214 1.045 1.045 0 001.147.72c3.7-.023 7.4-.012 11.094-.012.887 0 .887 0 .887.885 0 1.571 0 1.571-1.575 1.571-6.212 0-12.423.008-18.635-.012-.627 0-.907.171-1.047.821-.586 2.718-1.235 5.421-1.863 8.13-.04.174-.1.346-.146.519z" fill="#66b6ea"/></svg>