<svg xmlns="http://www.w3.org/2000/svg" width="27.454" height="20.854"><path data-name="Path 5678" d="M15.448 6.333h11.318c.738 0 .771.042.605.762-.993 4.319-2 8.637-2.975 12.959a.871.871 0 01-1 .8q-11.285-.025-22.569-.012c-.79 0-.844-.068-.662-.856.99-4.3 1.994-8.592 2.967-12.892a.848.848 0 011-.774c3.77.026 7.543.013 11.316.013z" fill="#f2f2f2"/><path data-name="Path 5679" d="M.031 15.335c-.012-.164-.032-.328-.032-.491V3.195c0-1.152.745-2.011 1.231-2.966.076-.147.428-.214.653-.215 2.507-.015 5.014-.028 7.52.014a1.346 1.346 0 01.864.544 5.165 5.165 0 01.665 1.3 1.115 1.115 0 001.225.769c3.949-.025 7.9-.013 11.846-.013.947 0 .947 0 .947.945 0 1.677 0 1.677-1.682 1.677-6.633 0-13.265.008-19.9-.013-.669 0-.968.183-1.118.877-.625 2.9-1.319 5.788-1.989 8.681-.043.186-.1.369-.155.554z" fill="#ededed"/></svg>