<svg xmlns="http://www.w3.org/2000/svg" width="28.547" height="21.684"><path data-name="Path 5678" d="M16.063 6.586h11.769c.768 0 .8.043.629.792-1.033 4.491-2.077 8.981-3.094 13.475a.906.906 0 01-1.042.829Q12.59 21.656.857 21.67c-.822 0-.877-.07-.689-.89 1.029-4.469 2.073-8.934 3.085-13.405a.881.881 0 011.04-.8c3.924.024 7.847.011 11.77.011z" fill="#7ecdfa"/><path data-name="Path 5679" d="M.031 15.946c-.012-.17-.033-.341-.033-.511V3.322c0-1.2.775-2.091 1.28-3.084.079-.153.446-.222.679-.223 2.606-.016 5.214-.03 7.819.015a1.4 1.4 0 01.9.565 5.371 5.371 0 01.691 1.348 1.16 1.16 0 001.274.8c4.106-.026 8.212-.014 12.318-.014.985 0 .985 0 .985.982 0 1.744 0 1.744-1.749 1.744-6.9 0-13.794.009-20.691-.014-.7 0-1.007.19-1.163.912C1.691 9.37.97 12.372.273 15.379c-.044.194-.107.384-.162.576z" fill="#66b6ea"/></svg>