<svg xmlns="http://www.w3.org/2000/svg" width="29.567" height="29.543"><path d="M27.128 15.315l2.439-.045-.029-1.544-2.441.045a12.323 12.323 0 00-.214-1.518l2.349-.645-.409-1.489-2.351.645a12.3 12.3 0 00-.675-1.594l2.079-1.246-.893-1.491-2.082 1.247a12.373 12.373 0 00-1.021-1.271l1.69-1.76-1.115-1.07-1.69 1.76a12.411 12.411 0 00-1.228-.916l1.2-2.122-1.344-.762-1.2 2.119a12.267 12.267 0 00-1.593-.642l.607-2.36-1.5-.385-.607 2.362a12.417 12.417 0 00-1.478-.189V.003h-1.738v2.449a12.4 12.4 0 00-1.43.186L11.847.276l-1.5.385.607 2.36a12.234 12.234 0 00-1.593.642l-1.2-2.119-1.335.759 1.2 2.122a12.458 12.458 0 00-1.228.916l-1.69-1.76L3.996 4.65l1.689 1.76A12.463 12.463 0 004.65 7.701L2.535 6.434l-.893 1.491 2.116 1.268a12.265 12.265 0 00-.752 1.831l-2.363-.592-.376 1.5 2.366.593a12.446 12.446 0 00-.194 1.706l-2.443.042.029 1.545 2.441-.045a12.406 12.406 0 00.214 1.518l-2.349.645.409 1.49 2.351-.645a12.255 12.255 0 00.664 1.572l-2.116 1.268.893 1.491 2.115-1.267a12.415 12.415 0 001.035 1.291l-1.686 1.757 1.114 1.07 1.69-1.76a12.453 12.453 0 001.228.916l-1.2 2.122 1.344.762 1.2-2.119a12.23 12.23 0 001.593.642l-.607 2.361 1.5.384.607-2.362a12.3 12.3 0 001.43.186v2.449h1.738v-2.446a12.414 12.414 0 001.478-.189l.607 2.362 1.5-.384-.607-2.361a12.263 12.263 0 001.593-.642l1.2 2.119 1.344-.762-1.2-2.122a12.406 12.406 0 001.228-.916l1.69 1.76 1.115-1.07-1.69-1.76a12.373 12.373 0 001.021-1.271l2.082 1.247.893-1.491-2.091-1.245a12.276 12.276 0 00.763-1.853l2.363.593.375-1.5-2.366-.593a12.38 12.38 0 00.197-1.705zm-4.132-6.489l-3 1.8a6.652 6.652 0 00-4.365-2.457V4.676a10.124 10.124 0 017.365 4.15zm-2.7 5.946a5.475 5.475 0 01-.4 2.059l-1.947-1.166a3.287 3.287 0 00.126-.893 3.287 3.287 0 00-.126-.893l1.947-1.166a5.477 5.477 0 01.391 2.059zm-11.006 0a5.487 5.487 0 01.391-2.036l1.949 1.168a3.291 3.291 0 00-.12.868 3.289 3.289 0 00.12.868l-1.949 1.168a5.487 5.487 0 01-.4-2.036zm7.048 0a1.545 1.545 0 01-1.545 1.545 1.545 1.545 0 01-1.545-1.545 1.545 1.545 0 011.545-1.545 1.545 1.545 0 011.535 1.545zM13.9 11.616a3.276 3.276 0 00-1.383.794l-1.946-1.166a5.5 5.5 0 013.329-1.9zm-1.383 5.518a3.282 3.282 0 001.383.794v2.274a5.5 5.5 0 01-3.329-1.9zm3.121.807a3.27 3.27 0 001.412-.789l1.949 1.168a5.494 5.494 0 01-3.361 1.891zm1.412-5.548a3.274 3.274 0 00-1.412-.789v-2.27a5.492 5.492 0 013.361 1.891zM13.9 4.677v3.5a6.651 6.651 0 00-4.332 2.471l-3-1.8a10.124 10.124 0 017.322-4.172zm-9.245 10.1a10.1 10.1 0 011.021-4.436l3 1.8a6.64 6.64 0 00-.544 2.638 6.64 6.64 0 00.544 2.638l-3 1.8a10.1 10.1 0 01-1.03-4.445zm1.915 5.926l3-1.8a6.652 6.652 0 004.332 2.471v3.5a10.126 10.126 0 01-7.341-4.176zm9.068 4.174v-3.493a6.652 6.652 0 004.358-2.463l3 1.8a10.125 10.125 0 01-7.368 4.15zm5.263-7.439a6.637 6.637 0 00.554-2.661 6.637 6.637 0 00-.554-2.661l3-1.8a10.1 10.1 0 011.032 4.458 10.1 10.1 0 01-1.032 4.458z" fill="#fff"/></svg>