<svg xmlns="http://www.w3.org/2000/svg" width="30.826" height="30.817"><defs><clipPath id="a"><path d="M47.445 121.415l1.247-3.736h3.076a2.041 2.041 0 100-4.081H34.027a15.407 15.407 0 0023.48 17.267l-7.465-9.451h-2.6" transform="translate(-33.319 -113.598)" fill="none"/></clipPath></defs><path d="M14.127 18.621l1.247-3.736h3.076a2.041 2.041 0 100-4.081H.709a15.407 15.407 0 0023.48 17.267l-7.465-9.451h-2.6" fill="#30bbea"/><path d="M20.99 7.124a5.978 5.978 0 012.008 1.216 5.431 5.431 0 011.319 1.895 6.168 6.168 0 01.469 2.434 5.808 5.808 0 01-.888 3.22 5.679 5.679 0 01-2.391 2.09l6.04 6.924a15.405 15.405 0 10-24.254-19q-.3.388-.583.8h15.743a7.259 7.259 0 012.539.431" fill="#f7b52c"/><path d="M27.543 24.903l-6.04-6.924a5.679 5.679 0 002.391-2.09 5.81 5.81 0 00.888-3.22 6.166 6.166 0 00-.469-2.434 5.431 5.431 0 00-1.319-1.895 5.978 5.978 0 00-2.008-1.216 7.259 7.259 0 00-2.539-.431H2.704a15.36 15.36 0 00-2 4.105h17.74a2.041 2.041 0 010 4.081h-4.162l-1.246 3.736h3.684l7.465 9.451a15.472 15.472 0 003.353-3.167" fill="#fff"/><g clip-path="url(#a)" transform="translate(.002 10.804)"><g fill="#fff"><path d="M-7.182 29.114l-.116-.04L4.873-6.274l.116.04-12.171 35.348m4.678 0l-.116-.04L9.556-6.274l.116.04-12.176 35.348m4.678 0l-.116-.04L14.229-6.274l.116.04L2.174 29.114m4.678 0l-.115-.04L18.908-6.274l.116.04L6.853 29.114m4.682 0l-.116-.04L23.586-6.274l.116.04-12.167 35.348m4.674 0l-.116-.04L28.264-6.274l.116.04-12.171 35.348m4.678 0l-.116-.04L32.942-6.274l.116.04-12.171 35.348"/><path d="M.008 2.003h24.18v.122H.008zm0 4.678h24.18v.122H.008zm0 4.678h24.18v.122H.008zm0 4.679h24.18v.122H.008z"/></g></g><path fill="#fff" d="M7.408 11.995h4.288v11.601H7.408z"/></svg>