<svg xmlns="http://www.w3.org/2000/svg" width="43.02" height="30.923"><path d="M42.521 28.957l-8.165 1.462-15.355-1.34V6.533l15.355-3.534 8.165 3.29z" fill="none" stroke="#fff"/><path d="M32.589 5.376L21.011 8.301v19.011l3.717.312v-4.03h2.925v4.276l4.936.416zm-9.14 15.964h-1.585v-2.315l1.584-.122zm0-5l-1.584.121v-2.31l1.584-.244zm0-4.875l-1.584.244V9.272l1.584-.366zm3.839 9.749h-2.011v-2.433l2.011-.122zm0-5.241l-2.011.122v-2.56l2.011-.244zm0-5.24l-2.011.365V8.539l2.011-.487zm2.01 10.358V18.41l2.316-.121.061 2.8zm0-5.24v-2.8l2.316-.365.061 2.925zm0-5.484v-2.8l2.316-.487.061 2.925z" fill="#fff"/><path d="M10.6 0a10.6 10.6 0 1010.6 10.6A10.6 10.6 0 0010.6 0zm5.675 11.718h-4.556v4.556a1.085 1.085 0 01-2.171 0v-4.556H4.993a1.085 1.085 0 110-2.169h4.555V4.993a1.085 1.085 0 012.171 0v4.56h4.556a1.085 1.085 0 110 2.169z" fill="#fff"/></svg>