<svg xmlns="http://www.w3.org/2000/svg" width="20.001" height="20.001" viewBox="0 0 24.001 24.001"><g fill="#2fcba7"><path data-name="Path 11461" d="M0 5.319a9.483 9.483 0 01.749-1.434 2.479 2.479 0 012.037-.994c3.676-.013 7.352-.006 11.028 0 .061 0 .122.01.181.016.007.038.026.08.014.092-.859.865-1.713 1.735-2.592 2.578a.89.89 0 01-.563.132c-2.471.008-4.943.017-7.414 0-.459 0-.622.1-.619.593q.027 7.133 0 14.266c0 .415.1.561.545.56 4.786-.017 9.573-.011 14.359-.011h.522v-.59c0-2.425.005-4.849-.006-7.274a.988.988 0 01.32-.781c.827-.806 1.634-1.632 2.515-2.517.013.233.028.378.028.523v10.418a2.92 2.92 0 01-2.449 3.035.773.773 0 00-.163.081H2.629c-.116-.037-.231-.079-.349-.109a2.911 2.911 0 01-1.973-1.565c-.124-.245-.206-.51-.307-.767z"/><path data-name="Path 11462" d="M5.876 18.131l.513-2.027c.307-1.21.61-2.421.926-3.629a1 1 0 01.223-.446q4.3-4.321 8.621-8.627a1.1 1.1 0 01.147-.1 24.807 24.807 0 014.425 4.425c-.109.119-.2.226-.3.324q-4.162 4.164-8.329 8.323a1.189 1.189 0 01-.5.321c-1.827.476-3.659.933-5.49 1.394-.05.019-.108.025-.236.042zm2.212-5.636a22.107 22.107 0 01-.607 2.3 1.268 1.268 0 00.513 1.707.9.9 0 00.6.165c.883-.19 1.756-.426 2.632-.65a.636.636 0 00.178-.079c-.349-.269-.843-.481-1.046-.852a3.838 3.838 0 01-.183-1.379c-1.086.334-1.465.136-2.087-1.207z"/><path data-name="Path 11463" d="M21.852 6.641l-4.469-4.462c.631-.631 1.33-1.323 2.02-2.024.273-.277.555-.128.76.03a27.615 27.615 0 012.331 1.938 12.9 12.9 0 011.346 1.733.619.619 0 01-.126.934c-.664.609-1.283 1.271-1.862 1.851z"/></g></svg>