<svg xmlns="http://www.w3.org/2000/svg" width="20.681" height="21"><g fill="#2fcba7"><path data-name="Path 11031" d="M10.341 14.429A3.929 3.929 0 1114.27 10.5a3.934 3.934 0 01-3.929 3.929zm0-6.6a2.675 2.675 0 102.675 2.675 2.678 2.678 0 00-2.675-2.679z"/><path data-name="Path 11032" d="M18.1 10.5a7.772 7.772 0 00-.067-1.016l2.648-2.11L18.11 3l-3.136 1.285a7.742 7.742 0 00-1.616-.928L12.884 0H7.806l-.479 3.352a7.739 7.739 0 00-1.616.928L2.57 3 0 7.379l2.648 2.11a7.778 7.778 0 000 2.032L0 13.631l2.57 4.379 3.136-1.285a7.761 7.761 0 001.616.928l.479 3.352h5.083l.479-3.352a7.764 7.764 0 001.616-.928L18.11 18l2.57-4.379-2.648-2.11A7.778 7.778 0 0018.1 10.5zm-.372 2.376l1.321 1.053-1.469 2.5-1.568-.642-1.258-.515a6.542 6.542 0 01-1.18.869 6.482 6.482 0 01-1.347.582l-.192 1.347-.239 1.672h-2.9l-.239-1.672-.192-1.347a6.483 6.483 0 01-1.347-.582 6.543 6.543 0 01-1.18-.869l-1.258.515-1.568.642-1.469-2.5 1.321-1.053 1.064-.847a6.518 6.518 0 01-.181-1.46v-.138a6.513 6.513 0 01.181-1.46l-1.064-.848-1.321-1.052 1.469-2.5 1.568.642 1.258.516a6.516 6.516 0 011.18-.869 6.455 6.455 0 011.347-.581l.192-1.347.239-1.672h2.9l.239 1.672.192 1.347a6.455 6.455 0 011.347.581 6.516 6.516 0 011.18.869l1.258-.516 1.568-.642 1.469 2.5-1.321 1.052-1.064.848a6.513 6.513 0 01.181 1.46v.138a6.518 6.518 0 01-.181 1.46z"/></g></svg>