<svg xmlns="http://www.w3.org/2000/svg" width="26.147" height="16.428" viewBox="0 0 36.147 26.428"><g fill="#f2f2f2"><path data-name="Path 11045" d="M0 0v23.486a2.941 2.941 0 002.941 2.941h30.265a2.941 2.941 0 002.941-2.941V0zm34.139 14.539h-1.848v2.169h1.848v6.394a1.358 1.358 0 01-1.358 1.358H3.366a1.358 1.358 0 01-1.358-1.358v-6.394h13.254v-2.169H2.008v-10.2h32.131z"/><g data-name="Group 7587"><path data-name="Path 11046" d="M4.84 10.507c-.324 0-.467 0-.673.014a4.282 4.282 0 00.039-.684V7.203a4.662 4.662 0 00-.039-.655c.245.015.3.015.668.015h1.223c.781 0 1.223.349 1.223.975a.866.866 0 01-.28.694.956.956 0 01-.368.2 1.036 1.036 0 01.476.228.957.957 0 01.309.757c0 .7-.466 1.087-1.306 1.087zM5.95 8.13c.324 0 .516-.175.516-.456s-.182-.441-.521-.441h-.933v.9zm-.938 1.7h.977c.373 0 .589-.194.589-.529s-.216-.519-.6-.519h-.967z"/><path data-name="Path 11047" d="M10.732 10.507a3.449 3.449 0 00-.128-.514l-.167-.471H8.959l-.167.471a2.41 2.41 0 00-.133.514h-.972a4.5 4.5 0 00.25-.582l1.07-2.857a3.681 3.681 0 00.157-.5h1.056a3.235 3.235 0 00.167.5l1.08 2.857c.093.247.182.461.241.582zm-.967-3.042c-.015-.044-.035-.092-.074-.223-.029.1-.034.126-.069.223L9.16 8.838h1.071z"/><path data-name="Path 11048" d="M14.441 8.785a5.967 5.967 0 01.334.553 7.957 7.957 0 01-.03-.606v-1.47a3.936 3.936 0 00-.044-.7h.879a4.608 4.608 0 00-.04.7v2.566a4.2 4.2 0 00.04.674h-.923a4.646 4.646 0 00-.334-.568l-1.129-1.659a5.447 5.447 0 01-.314-.543l.02.228c0 .082.015.286.015.383V9.76a4.892 4.892 0 00.039.742h-.874a4.745 4.745 0 00.039-.747V7.232a4.676 4.676 0 00-.039-.674h.913a2.649 2.649 0 00.319.558z"/><path data-name="Path 11049" d="M19.366 9.842a6.118 6.118 0 00.506.665H18.79a4.776 4.776 0 00-.324-.558l-.876-1.29-.511.5v.674a3.891 3.891 0 00.044.67h-.89a4.716 4.716 0 00.039-.67v-2.6a4.585 4.585 0 00-.039-.669h.889a4.076 4.076 0 00-.044.669v1l1.112-1.166a2.665 2.665 0 00.4-.5h1.124a25.71 25.71 0 00-.525.524l-1.041 1.058z"/></g><g data-name="Group 7588"><path data-name="Path 11050" d="M16.26 20.574l4.224 2.356v-8.632l-4.224-2.249z"/><path data-name="Path 11051" d="M21.849 22.609l4.1-4.209V9.758l-4.1 4.425z"/><path data-name="Path 11052" d="M27.312 9.549v8.481l4.1 1.49v-8.527z"/></g></g></svg>