<svg xmlns="http://www.w3.org/2000/svg" width="14.968" height="16.841"><path d="M11.226 0c.277.067.559.116.828.2a3.743 3.743 0 011.455 6.261c-1.449 1.479-2.926 2.93-4.391 4.393-.706.7-1.394 1.43-2.126 2.107A2.2 2.2 0 114.073 9.68q2.732-2.719 5.453-5.448c.06-.06.124-.116.174-.162l.948.96c-.347.339-.715.692-1.076 1.053C8.054 7.599 6.53 9.109 5.03 10.642a1.347 1.347 0 00-.347.777.735.735 0 00.544.727.818.818 0 00.922-.221q1.128-1.12 2.25-2.248c1.4-1.4 2.814-2.795 4.2-4.21a2.394 2.394 0 00-.991-4 2.231 2.231 0 00-2.352.552C6.948 4.296 4.628 6.564 2.385 8.905a3.63 3.63 0 00-.657 4.268 3.934 3.934 0 006.4 1.117q2.8-2.806 5.607-5.611A3.688 3.688 0 0014 8.346l.961.994c-.073.077-.156.168-.243.255l-5.527 5.532a5.329 5.329 0 01-3.267 1.646.7.7 0 00-.171.066h-.9a1.168 1.168 0 00-.207-.07 5.058 5.058 0 01-4.32-3.493 4.99 4.99 0 011.2-5.423C3.753 5.565 6.034 3.33 8.294 1.074a3.636 3.636 0 011.747-.958l.5-.119z" fill="#9b9999"/></svg>