<svg xmlns="http://www.w3.org/2000/svg" width="27.483" height="31.9"><path data-name="Path 10894" d="M26.982 29.749l-9.193 1.647L.5 29.886V4.502L17.789.523l9.193 3.7z" fill="#777" stroke="#777"/><path data-name="Path 10895" d="M15.799 3.198L2.763 6.491v21.406l4.185.352v-4.537h3.293v4.814l5.557.469zM5.507 21.173H3.723v-2.607l1.783-.138zm0-5.625l-1.783.137v-2.612l1.783-.274zm0-5.489l-1.783.274V7.589l1.783-.412zM9.83 21.036H7.566v-2.744l2.264-.138zm0-5.9l-2.264.138v-2.882l2.264-.274zm0-5.9l-2.264.411V6.766l2.264-.549zm2.263 11.663V17.88l2.608-.137.069 3.155zm0-5.9v-3.156l2.608-.411.069 3.293zm0-6.175V5.668l2.608-.549.069 3.293z" fill="#f7f7f7"/></svg>