<svg xmlns="http://www.w3.org/2000/svg" width="32" height="32"><g transform="translate(6.067)"><circle data-name="Ellipse 1746" cx="16" cy="16" r="16" transform="translate(-6.067)" fill="#00be85"/><path data-name="Path 10633" d="M18.917 14.659h-6.994V7.665A1.665 1.665 0 0010.257 6a1.665 1.665 0 00-1.665 1.665v6.994H1.598a1.665 1.665 0 00-1.665 1.665 1.665 1.665 0 001.665 1.665h6.994v6.994a1.665 1.665 0 001.665 1.665 1.665 1.665 0 001.665-1.665v-6.994h6.994a1.665 1.665 0 001.665-1.665 1.665 1.665 0 00-1.664-1.665z" fill="#343434"/></g></svg>