<svg xmlns="http://www.w3.org/2000/svg" width="68.467" height="48"><g data-name="Ellipse 1745" transform="translate(25.467 4)" fill="none" stroke="#5c5c5c"><ellipse cx="21.5" cy="22" rx="21.5" ry="22" stroke="none"/><ellipse cx="21.5" cy="22" rx="21" ry="21.5"/></g><path data-name="Path 2600" d="M47.381 37.776c-3.283 0-6.138-.811-7.594-2l.269 2.305a6.276 6.276 0 00.779.569 12.763 12.763 0 006.566 1.611 14.175 14.175 0 005.173-.914 8.375 8.375 0 001.724-.915l.637-2.622c-1.468 1.171-4.295 1.966-7.554 1.966z" fill="#b3b3b3"/><path data-name="Path 2601" d="M47.648 13.032a38.3 38.3 0 00-11.33 1.489l.361 2.539 2.291 16.068.176 1.231.129.91a3.645 3.645 0 00.512.5c1.456 1.194 4.311 2 7.594 2 3.254 0 6.086-.8 7.554-1.971a3.641 3.641 0 00.6-.6l.121-.846.167-1.167 2.252-15.8.4-2.8a35.245 35.245 0 00-10.827-1.553z" fill="#e6e6e6"/><path data-name="Path 2602" d="M36.474 14.511a5.868 5.868 0 00.579.263c2.008.792 5.875 1.328 10.318 1.328s8.31-.536 10.317-1.328a5.7 5.7 0 00.579-.263c-1.577-1.024-5.86-1.758-10.9-1.758s-9.315.734-10.893 1.758z" fill="none"/><path data-name="Path 2603" d="M47.371 12.753c-5.331 0-9.817.823-11.146 1.94a4.794 4.794 0 00.828.435c1.9-.921 5.807-1.552 10.318-1.552s8.418.631 10.317 1.552a4.732 4.732 0 00.828-.435c-1.329-1.117-5.815-1.94-11.145-1.94z" fill="#999"/><path data-name="Path 2604" d="M36.225 14.368c.077.049.16.1.249.144 1.578-1.024 5.86-1.758 10.9-1.758s9.32.734 10.9 1.758c.089-.047.172-.095.249-.144l.009.008v-.009c-1.581-1.085-5.978-1.866-11.154-1.866-5.192 0-9.6.786-11.168 1.876v.009z" fill="#b3b3b3"/><path data-name="Path 2605" d="M58.515 14.368c-.076.049-.159.1-.249.144a5.676 5.676 0 01-.579.263c-2.008.792-5.875 1.328-10.317 1.328s-8.311-.536-10.318-1.328a5.871 5.871 0 01-.579-.263 3.81 3.81 0 01-.249-.144l-.021.017.049.286.205 1.191a12.117 12.117 0 003.281.987 42.082 42.082 0 006.991.608h1.279A42.076 42.076 0 0055 16.849l.188-.036a10.908 10.908 0 003.231-1.029l.081-1.1.023-.306z" fill="#b3b3b3"/><g transform="translate(6.067)"><circle data-name="Ellipse 1746" cx="16" cy="16" r="16" transform="translate(-6.067)" fill="red"/><path data-name="Path 10633" d="M17.558 21.27l-4.945-4.945 4.945-4.946a1.665 1.665 0 000-2.355 1.665 1.665 0 00-2.355 0l-4.946 4.945-4.945-4.945a1.665 1.665 0 00-2.355 0 1.665 1.665 0 000 2.354l4.946 4.946-4.946 4.945a1.665 1.665 0 000 2.355 1.665 1.665 0 002.355 0l4.945-4.945 4.946 4.945a1.665 1.665 0 002.355 0 1.665 1.665 0 000-2.354z" fill="#fff"/></g><g transform="translate(6.067)"><circle data-name="Ellipse 1746" cx="16" cy="16" r="16" transform="translate(-6.067)" fill="#525252"/><path data-name="Path 10633" d="M17.558 21.27l-4.945-4.945 4.945-4.946a1.665 1.665 0 000-2.355 1.665 1.665 0 00-2.355 0l-4.946 4.945-4.945-4.945a1.665 1.665 0 00-2.355 0 1.665 1.665 0 000 2.354l4.946 4.946-4.946 4.945a1.665 1.665 0 000 2.355 1.665 1.665 0 002.355 0l4.945-4.945 4.946 4.945a1.665 1.665 0 002.355 0 1.665 1.665 0 000-2.354z" fill="#dedddd"/></g></svg>