<svg xmlns="http://www.w3.org/2000/svg" width="20.803" height="25.659"><g fill="#fff"><path data-name="Path 6508" d="M15.458 5.058L10.401.001 5.344 5.058l.969.97 3.4-3.4v14.347h1.371V2.626l3.4 3.4z"/><path data-name="Path 6509" d="M16.879 7.143h-3.048v1.372h3.048a2.556 2.556 0 012.552 2.552v10.669a2.556 2.556 0 01-2.552 2.552H3.924a2.556 2.556 0 01-2.552-2.552V11.067a2.556 2.556 0 012.552-2.552h3.048V7.143H3.924A3.928 3.928 0 000 11.067v10.669a3.928 3.928 0 003.924 3.924h12.955a3.928 3.928 0 003.924-3.924V11.067a3.928 3.928 0 00-3.924-3.924z"/></g></svg>