<svg xmlns="http://www.w3.org/2000/svg" width="24.457" height="16.788"><g fill="#939393"><path data-name="Path 11505" d="M4.2.408L0 5.508l3.893 3.2 4.2-5.1zm-.277 6.82a.685.685 0 11.693-.678.685.685 0 01-.696.678z"/><path data-name="Path 11506" d="M19.844 0l-3.608 3.522 4.613 4.726 3.608-3.522zm1.206 7.078a.685.685 0 11.762-.6.685.685 0 01-.762.6z"/><path data-name="Path 11507" d="M10.327 6.853a5.528 5.528 0 01-.372 1.368c-.171.262-.709.368-.959.456l-.026.009a.352.352 0 01-.462-.35c.042-.971.084-1.832.126-2.819a.352.352 0 01.247-.321l.172-.053.174-.049-.81-.553a.243.243 0 00-.324.046l-3.1 3.75a.243.243 0 00.03.34l.348.294a.243.243 0 01.015.356l-.242.243a.243.243 0 00.017.358l1.263 1.043 1.573-1.337a.854.854 0 011.2.1.854.854 0 01-.1 1.2l-1.341 1.14.189.156 1.679-1.427a.946.946 0 111.226 1.442l-1.422 1.209.022.018 1.006-.856a.947.947 0 111.226 1.443l-.75.637.075.062.6-.512a.947.947 0 011.226 1.442l-.346.293.19.156.021.019c.054.057.13.135.224.224a1.661 1.661 0 00.44.348.864.864 0 00.6 0 .888.888 0 00.506-.581 1.8 1.8 0 00.047-.331.242.242 0 01.317-.216l.069.025a.86.86 0 00.6 0 .887.887 0 00.506-.581 1.384 1.384 0 00.013-.439.243.243 0 01.315-.258c.055.017.1.032.127.043a.855.855 0 00.6 0 .885.885 0 00.506-.581 1.476 1.476 0 00.007-.5.242.242 0 01.327-.257.86.86 0 00.6 0 .886.886 0 00.506-.581.876.876 0 00-.074-.6.226.226 0 00-.048-.062l-.434-.413a.293.293 0 00-.03-.025l-7.032-4.8-.214-.146a5.628 5.628 0 00-.614.144.351.351 0 00-.235.284z"/><path data-name="Path 11508" d="M8.999 5.793c-.039.834-.078 1.344-.118 2.164a.323.323 0 00.179.3c.15.122.381-.031.539-.252a3.764 3.764 0 00.315-1.081c.022-.111.114-.538.219-.6.348-.215.244-.151.4-.2a2.03 2.03 0 01.755-.119l1.448.955 2.065 1.384 3.23 2.212c.129.086.308-.036.422-.138l.4-.427c.009-.009.235-.235.244-.242a1.169 1.169 0 00.313-.419c.078-.274-.178-.623-.267-.736a.276.276 0 01-.059-.171.289.289 0 01.128-.236l.157-.11a.28.28 0 00.047-.431l-2.882-3a.35.35 0 00-.463-.027l-.157.127a.353.353 0 01-.479-.034 1 1 0 00-.239-.2 1.144 1.144 0 00-.651-.142 42.014 42.014 0 00-5.155 1.1l-.159.045a.3.3 0 00-.232.278z"/><path data-name="Path 11509" d="M12.493 15.35l-.935.821a.47.47 0 01-.652-.03.47.47 0 01.031-.677l.935-.821a.471.471 0 01.652.03.47.47 0 01-.031.677z"/><path data-name="Path 11510" d="M11.332 13.778l-1.44 1.255a.507.507 0 01-.69.01.5.5 0 01.07-.718l1.44-1.254a.506.506 0 01.69-.01.5.5 0 01-.07.717z"/><path data-name="Path 11511" d="M10.44 11.999l-2.141 1.854a.5.5 0 01-.668.005.487.487 0 01.051-.716l2.141-1.854a.5.5 0 01.669-.005.487.487 0 01-.052.716z"/><path data-name="Path 11512" d="M8.826 10.684L6.953 12.31a.47.47 0 01-.639-.021.471.471 0 01.023-.69L8.21 9.973a.471.471 0 01.64.021.47.47 0 01-.024.69z"/></g></svg>