<svg xmlns="http://www.w3.org/2000/svg" width="25.059" height="22.022"><path data-name="Path 11632" d="M7.395 22.023H7.14a20.621 20.621 0 01-4.5-.5 4.387 4.387 0 01-2.18-1.146L.4 20.3a2.393 2.393 0 01-.351-.878 3.55 3.55 0 01-.037-.309A1.971 1.971 0 010 18.885c0-2.636 3.356-4.78 7.481-4.78s7.482 2.144 7.483 4.778l-.013.223a2.393 2.393 0 01-1.688 2.046 20.146 20.146 0 01-5.868.871m-.15-.874a19.159 19.159 0 005.764-.833 1.521 1.521 0 001.074-1.3l.445-.116h-.438c0-2.168-2.966-3.92-6.609-3.92S.874 16.732.874 18.885a1.063 1.063 0 00.005.14c.008.1.015.172.027.247a1.523 1.523 0 00.2.511 3.517 3.517 0 001.714.888 20.7 20.7 0 004.424.479" fill="#fff"/><path data-name="Path 11633" d="M7.716 12.616a6.308 6.308 0 116.307-6.308 6.314 6.314 0 01-6.307 6.308m0-11.741a5.434 5.434 0 105.432 5.433A5.439 5.439 0 007.716.874" fill="#fff"/><g data-name="Group 7810" fill="#fff"><path data-name="Path 11634" d="M24.372 12.019h-8.709a.688.688 0 110-1.376h8.709a.688.688 0 010 1.376"/><path data-name="Path 11635" d="M20.017 16.372a.687.687 0 01-.687-.687V6.974a.688.688 0 011.375 0v8.71a.687.687 0 01-.687.687"/></g></svg>