<svg xmlns="http://www.w3.org/2000/svg" width="21.293" height="21.287"><g fill="#fff"><path data-name="Path 11518" d="M10.504.001a10.627 10.627 0 0110.787 10.614 10.1 10.1 0 01-2.148 6.449 10.394 10.394 0 01-8.5 4.224 10.1 10.1 0 01-6.408-2.143 10.433 10.433 0 01-4.231-8.5 9.989 9.989 0 01.733-3.931 10.627 10.627 0 013.676-4.71A10.3 10.3 0 0110.504.001zm.163 2.224a8.391 8.391 0 00-8.435 8.391 8.2 8.2 0 003.671 6.98 8.1 8.1 0 004.773 1.467 8.419 8.419 0 00-.009-16.838z"/><path data-name="Path 11520" d="M10.669 12.164a1.64 1.64 0 01-1.136-.522 1.81 1.81 0 01-.36-.728 1.392 1.392 0 01.078-.829 1.215 1.215 0 01.382-.546.24.24 0 00.076-.156c.015-.39.019-.781.032-1.171q.05-1.527.105-3.054c.013-.351.034-.7.067-1.051.035-.378.241-.479.535-.529a.563.563 0 01.447.277 1.075 1.075 0 01.105.479c0 .416.015.831.029 1.246.039 1.185.083 2.371.12 3.556 0 .12.1.134.165.166a1.5 1.5 0 01.666.658.17.17 0 00.122.074c.385.021.772.032 1.157.051.778.039 1.558.058 2.333.133a.525.525 0 01.483.748.444.444 0 01-.4.3c-.263.033-.528.061-.793.074-.549.026-1.1.037-1.648.061-.426.019-.852.041-1.277.081-.075.007-.152.1-.21.163a1.35 1.35 0 01-.782.456c-.102.023-.21.045-.296.063z"/></g></svg>