<svg xmlns="http://www.w3.org/2000/svg" width="26.492" height="18.38"><g fill="#9a9a9a"><path data-name="Path 11546" d="M26.476 6.453h-15.9c0-.511-.031-1 .018-1.482a.774.774 0 01.37-.447q3.6-2.242 7.229-4.449a.773.773 0 01.668 0q3.631 2.2 7.226 4.454a1.028 1.028 0 01.373.657 8.651 8.651 0 01.016 1.267z"/><path data-name="Path 11547" d="M26.45 15.868v2.512H10.629v-2.512z"/><path data-name="Path 11548" d="M3.948 15.738v-2.59H0V9.19h3.911v-2.7l5.308 4.638z"/><path data-name="Path 11549" d="M11.928 7.849h2.569v6.555h-2.569z"/><path data-name="Path 11550" d="M25.117 14.41h-2.584V7.856h2.584z"/><path data-name="Path 11551" d="M19.81 7.852v6.547h-2.523V7.851z"/></g></svg>