<svg xmlns="http://www.w3.org/2000/svg" width="23.983" height="23.57"><path data-name="Path 11628" d="M0 2.024V23.57h21.546V8.69l-1.071 1.071v12.737H1.071V3.095h12.738l1.071-1.071z" fill="#00be85"/><g data-name="Group 7807"><path data-name="Path 11629" d="M17.1 3.728l3.147 3.177-9.712 9.75-3.137-3.194z" fill="#00be85"/><path data-name="Path 11630" d="M17.918 2.847l.7-.774C19.126 1.514 19.64.959 20.14.395a1.1 1.1 0 011.164-.347 1.463 1.463 0 01.717.4c.534.541 1.081 1.068 1.623 1.6a1.089 1.089 0 01.04 1.539.907.907 0 01-.063.061q-1.236 1.171-2.479 2.335c-.018.017-.037.031-.046.039z" fill="#00be85"/><path data-name="Path 11631" d="M9.431 17.547l-4.071.951c.368-1.364.734-2.705 1.1-4.071l2.973 3.12" fill="#00be85"/><path data-name="Rectangle 6319" fill="none" d="M0 0h23.983v23.57H0z"/></g></svg>