<svg xmlns="http://www.w3.org/2000/svg" width="24.754" height="24.753"><path d="M12.377 0a12.377 12.377 0 1012.377 12.377A12.377 12.377 0 0012.377 0m-.752 3.581a2.346 2.346 0 011.886-.849v-.006a2 2 0 012.12 1.674v.006a2.473 2.473 0 01.02.256c0 .085.013.169.01.252a2.424 2.424 0 01-.032.258c-.01.065-.016.13-.031.193a2.4 2.4 0 01-.1.29c-.017.044-.03.09-.05.133a2.293 2.293 0 01-.17.3c-.018.028-.032.058-.051.085a2.368 2.368 0 01-.248.291c-.015.016-.028.033-.044.048a2.345 2.345 0 01-.325.26c-.01.007-.018.015-.028.021a2.378 2.378 0 01-.4.206l-.012.006a2.346 2.346 0 01-.456.129l-.08.013a2.3 2.3 0 01-1.809-.447 2.208 2.208 0 01-.2-3.121m4.191 17.114a.473.473 0 01-.311.476 11.878 11.878 0 01-3.449.941 7.1 7.1 0 01-.837.046 7.334 7.334 0 01-.838-.051 2.025 2.025 0 01-1.687-2.015 11.634 11.634 0 01.346-2.717c.368-1.88.748-3.756 1.123-5.635a.54.54 0 00-.016-.113l-1.132-.182c-.139-.022-.282-.027-.417-.062a.453.453 0 01-.392-.463v-.875a.446.446 0 01.4-.48c1.021-.227 2.044-.445 3.061-.688a8 8 0 012.345-.275c.438.027.612.2.532.633q-.486 2.609-.976 5.209c-.237 1.262-.484 2.521-.709 3.784a2.814 2.814 0 00-.007.767.685.685 0 00.013.079.675.675 0 00.069.152c.006.011.009.024.016.035a.649.649 0 00.135.16c.014.012.025.026.04.038a.681.681 0 00.158.083.606.606 0 00.084.032.628.628 0 00.144.013.523.523 0 00.1.009.722.722 0 00.079-.013 13.62 13.62 0 001.338-.289 1.268 1.268 0 01.361-.053c.3.01.43.211.43.653z" fill="#f2f2f2"/></svg>