<svg data-name="Group 3176" xmlns="http://www.w3.org/2000/svg" width="20.471" height="21.715"><path data-name="Path 3988" d="M5.066 16.196v-4.057c0-.459.007-.425.434-.5a1.41 1.41 0 00.772-.33 7.992 7.992 0 001.154-1.515A28.542 28.542 0 008.65 7.187a3.413 3.413 0 011.124-1.522 4.255 4.255 0 001.745-2.984c.113-.728.2-1.46.281-2.191.045-.385.1-.442.48-.481a2.292 2.292 0 012.472 1.908 5.04 5.04 0 01-.352 3.319c-.276.589-.583 1.164-.828 1.766a5.019 5.019 0 00-.3 1.17c-.051.35.066.407.421.411 1.575.018 3.151.017 4.724.089a2.466 2.466 0 012.054 2.208 1.324 1.324 0 01-.329.906c-.375.476-.379.616-.067 1.143.053.089.109.176.161.265a1.106 1.106 0 01-.174 1.558 1.013 1.013 0 00-.261 1.3c.067.134.1.285.162.422a1.062 1.062 0 01-.218 1.252c-.2.211-.4.417-.611.624a.783.783 0 00-.27.685 2.111 2.111 0 01-1.012 2.06 2.652 2.652 0 01-1.729.621c-1.893-.019-3.789.021-5.677-.078a28.238 28.238 0 01-3.256-.519c-.588-.1-1.171-.229-1.76-.325-.277-.045-.366-.178-.364-.455.005-1.38-.001-2.762 0-4.143z" fill="#ddd"/><path data-name="Path 3989" d="M.013 16.303v-4.056a.849.849 0 01.875-.922q1.245-.012 2.489 0a.829.829 0 01.9.918c.012.463.005.929.005 1.39v6.58c0 .8-.29 1.087-1.085 1.089-.709 0-1.418-.015-2.126.008A.961.961 0 010 20.243c.034-1.315.013-2.631.013-3.94z" fill="#ddd"/></svg>