<svg xmlns="http://www.w3.org/2000/svg" width="26.506" height="26.506"><path data-name="パス 10957" d="M25.709 26.506H.809a.8.8 0 01-.8-.8V.806a.8.8 0 01.8-.8h24.9a.8.8 0 01.8.8v24.9a.8.8 0 01-.8.8zM2.19 24.32h22.129V2.185H2.185z" fill="#00be85"/><path data-name="パス 10958" d="M14.048 15.888H6.886a1.078 1.078 0 01-1.093-1.059 1.078 1.078 0 011.093-1.059h7.162a1.076 1.076 0 011.094 1.058 1.077 1.077 0 01-1.094 1.059z" fill="#00be85"/><path data-name="パス 10959" d="M19.457 20.67H6.892a1.079 1.079 0 01-1.093-1.059 1.078 1.078 0 011.093-1.059h12.57a1.076 1.076 0 011.094 1.058 1.076 1.076 0 01-1.093 1.059z" fill="#00be85"/><g data-name="Group 7569" fill="#00be85"><path data-name="Path 11040" d="M10.139 10.627a7.488 7.488 0 00-1.1-.054H6.747c-.433 0-.7.008-.982.023a6.151 6.151 0 00.062-1.022V5.557a7.554 7.554 0 00-.062-1.145h1.169a7.042 7.042 0 00-.063 1.138v4.077h2.168a8.341 8.341 0 001.1-.053z"/><path data-name="Path 11041" d="M11.813 4.408v.983h-1.137v-.983zm-.008 1.718a6.961 6.961 0 00-.054 1.014v2.414a7.78 7.78 0 00.054 1.014h-1.129a6.954 6.954 0 00.062-1.006v-2.43a6.365 6.365 0 00-.062-1.007z"/><path data-name="Path 11042" d="M13.642 9.174c.131.527.417.735 1.02.735.573 0 .929-.225.929-.588a.472.472 0 00-.2-.386c-.147-.1-.194-.108-.813-.248a4.685 4.685 0 01-1.114-.333 1.109 1.109 0 01-.68-1.029 1.152 1.152 0 01.24-.72 1.864 1.864 0 011.548-.6 2.107 2.107 0 011.454.449 1.5 1.5 0 01.418.767l-1.021.132c-.084-.426-.348-.612-.851-.612-.48 0-.8.217-.8.542a.416.416 0 00.239.364 3.277 3.277 0 00.773.231 3.329 3.329 0 011.363.472 1.1 1.1 0 01.448.959 1.246 1.246 0 01-.378.875 2.285 2.285 0 01-1.6.5 2.045 2.045 0 01-1.727-.689 1.756 1.756 0 01-.3-.689z"/><path data-name="Path 11043" d="M18.99 4.934a8.555 8.555 0 00-.054.952v.239h.325a4.438 4.438 0 00.781-.046v.914a4.258 4.258 0 00-.758-.046h-.348v2.4c0 .38.139.519.511.519a1.016 1.016 0 00.565-.17l.138.821a2.422 2.422 0 01-.967.163c-.89 0-1.246-.317-1.246-1.13v-2.6h-.3a3.9 3.9 0 00-.688.046v-.914a3.553 3.553 0 00.7.046h.286v-.239a8.645 8.645 0 00-.055-.952z"/></g></svg>