<svg xmlns="http://www.w3.org/2000/svg" width="28.543" height="22.176"><g fill="#00be85"><path data-name="Path 10704" d="M11.087 20.176a9.1 9.1 0 01-9.084-9.356 9.19 9.19 0 019.236-8.818 9.036 9.036 0 016.072 2.483.984.984 0 001.278.053 1 1 0 00.073-1.525A11.053 11.053 0 009.224.154a11.111 11.111 0 00-9.148 9.6 11.1 11.1 0 0011.009 12.421 11.021 11.021 0 007.49-2.934 1 1 0 00-.034-1.5.984.984 0 00-1.3.013 9.027 9.027 0 01-6.154 2.422z"/><path data-name="Path 10705" d="M21.847 7.809h-11.8v6.593h11.8v3.168l6.7-6.465-6.7-6.465z"/></g></svg>