<svg xmlns="http://www.w3.org/2000/svg" width="24.182" height="26.411"><g transform="translate(-718.009 -339.967)" fill="#f1f1f1"><path data-name="パス 4328" d="M736.7 362.92v1.589a.246.246 0 01-.245.245H719.88a.246.246 0 01-.245-.245v-22.671a.245.245 0 01.245-.245h16.576a.245.245 0 01.245.245v11.2l1.626-4.668v-6.532a1.873 1.873 0 00-1.871-1.871H719.88a1.873 1.873 0 00-1.871 1.871v22.671a1.872 1.872 0 001.871 1.87h16.576a1.872 1.872 0 001.871-1.87v-6.255z"/><path data-name="パス 4329" d="M730.632 363.905a.253.253 0 01-.1-.019c-.216-.082-.214-.345-.211-.6a3.9 3.9 0 01.037-.478c.019-.148.046-.565.045-.6-.008.01-.107.205-.15.293a4.027 4.027 0 01-.552.923.715.715 0 01-.585.31.625.625 0 01-.367-.227.882.882 0 01-.21-.426 1.026 1.026 0 01.076-.552l.012-.038c.072-.217.139-.445.2-.683 0-.01.2-.708.488-2.1a.876.876 0 000-.327 1.274 1.274 0 00-.036-.149l-.062.039a.317.317 0 00-.1.1 2.592 2.592 0 01-.25.305 8.515 8.515 0 00-.967 1.317 5.189 5.189 0 00-.626 1.329.534.534 0 00-.008.355.58.58 0 00.354.287.637.637 0 00.244 0 .2.2 0 01.228.148.2.2 0 01-.146.249h-.019a1.042 1.042 0 01-.415-.006.982.982 0 01-.622-.527.927.927 0 01-.007-.618 5.624 5.624 0 01.673-1.435 8.784 8.784 0 011.01-1.366 3.364 3.364 0 01.435-.48.623.623 0 01.415-.1c.22.071.268.317.3.48a1.275 1.275 0 010 .488c-.293 1.411-.483 2.1-.488 2.127-.062.239-.132.475-.207.7l-.012.037a.669.669 0 00-.063.35.49.49 0 00.113.225c.029.032.085.093.121.1.063.009.186-.131.227-.177a3.812 3.812 0 00.488-.832c.045-.092.088-.181.132-.265a.511.511 0 01.271-.259.409.409 0 01.328.009c.2.106.2.36.2.512-.007.219-.028.39-.046.538s-.036.488-.035.517c.015-.016.352-.456.5-.668a5.148 5.148 0 01.536-.7.419.419 0 01.325-.139c.268.025.377.343.418.462a2.989 2.989 0 01.092.958v.011a1.01 1.01 0 00.006.137.229.229 0 00.054-.015.634.634 0 00.268-.212l.051-.058a1.68 1.68 0 01.553-.454 1.1 1.1 0 01.6-.1 1.054 1.054 0 01.278.075.2.2 0 01.112.266.2.2 0 01-.023.043.2.2 0 01-.24.069.633.633 0 00-.178-.048.692.692 0 00-.377.063 1.343 1.343 0 00-.423.359l-.047.053a.987.987 0 01-.446.329.476.476 0 01-.422-.027.528.528 0 01-.169-.479v-.011a2.68 2.68 0 00-.07-.83.109.109 0 00-.187-.032 7.282 7.282 0 00-.372.512c-.152.221-.309.451-.475.646-.162.159-.312.316-.477.316z"/><rect data-name="長方形 3315" width="6.989" height="1.707" rx=".853" transform="translate(724.633 343.745)"/><path data-name="長方形 3316" d="M722.033 347.078h12.271a.569.569 0 01.569.569.569.569 0 01-.569.569h-12.271a.569.569 0 01-.569-.569.569.569 0 01.569-.569z"/><path data-name="長方形 3317" d="M722.033 349.462h12.271a.569.569 0 01.569.569.569.569 0 01-.569.569h-12.271a.569.569 0 01-.569-.569.569.569 0 01.569-.569z"/><path data-name="長方形 3318" d="M722.033 354.229h12.271a.569.569 0 01.569.569.569.569 0 01-.569.569h-12.271a.569.569 0 01-.569-.569.569.569 0 01.569-.569z"/><path data-name="長方形 3319" d="M722.033 356.671h9.833a.569.569 0 01.569.569.569.569 0 01-.569.569h-9.833a.569.569 0 01-.569-.569.569.569 0 01.569-.569z"/><path data-name="長方形 3320" d="M722.033 351.846h12.271a.569.569 0 01.569.569.569.569 0 01-.569.569h-12.271a.569.569 0 01-.569-.569.569.569 0 01.569-.569z"/><path data-name="パス 4330" d="M740.418 353.635a.165.165 0 01-.214-.092v-.012a2.577 2.577 0 01-.126-.762 3.473 3.473 0 01.488-1.615l.115-.235c.2-.424.334-.683.42-.858a3.169 3.169 0 00.216-.488c.155-.464.35-1.043.133-1.323a.636.636 0 00-.381-.206l.139-.635a1.261 1.261 0 01.756.443c.429.555.175 1.316-.029 1.928a3.715 3.715 0 01-.25.569c-.086.172-.214.43-.416.85l-.12.243a2.889 2.889 0 00-.417 1.319 1.889 1.889 0 00.089.552.166.166 0 01-.1.2z"/><path data-name="パス 4331" d="M735.128 360.753l1.1.357a.2.2 0 00.245-.121l2.122-6.092a.2.2 0 00-.12-.248l-1.1-.357a.2.2 0 00-.245.122l-2.122 6.091a.2.2 0 00.12.248z"/><path data-name="パス 4332" d="M741.366 346.651l-1.285-.448a.377.377 0 00-.479.231l-2.425 6.964a.377.377 0 00.233.479h.006l1.3.422a.376.376 0 00.471-.234l2.415-6.937a.376.376 0 00-.236-.477z"/><path data-name="パス 4333" d="M735.127 362.673l1.073-1.044a.064.064 0 000-.091.061.061 0 00-.026-.016l-1.269-.414a.064.064 0 00-.081.041.071.071 0 000 .029l.2 1.457a.064.064 0 00.072.056.064.064 0 00.031-.018z"/></g></svg>