<svg xmlns="http://www.w3.org/2000/svg" width="21.181" height="26.061"><g fill="#a5a5a5"><path data-name="Path 11654" d="M6.592 6.881a3.969 3.969 0 117.937 0v4.078h2.644a6.59 6.59 0 00.018-.488V6.63a6.63 6.63 0 00-13.26 0v3.84c0 .164.007.326.018.488h2.643z"/><path data-name="Path 11655" d="M19.957 9.288H1.225A1.225 1.225 0 000 10.509v14.326a1.225 1.225 0 001.225 1.225h18.732a1.225 1.225 0 001.224-1.225V10.509a1.225 1.225 0 00-1.224-1.221m-8.031 12.221H9.194l.782-3.584a1.543 1.543 0 111.127.017z"/></g></svg>