<svg xmlns="http://www.w3.org/2000/svg" width="26.764" height="27.533"><g fill="#f2f2f2"><path data-name="Path 11513" d="M9.355 24.737c-.489-.5-1.039-1.062-1.6-1.62q-2.029-2.034-4.062-4.063a1.31 1.31 0 01-.007-2.1q5.022-5.025 10.047-10.047l2.4-2.4a1.346 1.346 0 012.178-.024l5.416 5.414c.09.09.174.185.228.241zm-2.867-5.83l4.821-4.8-.505-.653-4.893 4.872z"/><path data-name="Path 11514" d="M25.782 11.908c.169.184.347.384.531.578a1.307 1.307 0 01-.021 1.994l-4.6 4.6-6.162 6.164c-.635.635-1.274 1.268-1.908 1.9a1.259 1.259 0 01-1.645.138 9.579 9.579 0 01-.8-.749z"/><path data-name="Path 11515" d="M.001 10.219A10.18 10.18 0 0110.222.003v1.8c-.632.095-1.254.151-1.859.285A8.342 8.342 0 001.895 9.54c-.055.678-.055.679-.77.681l-1.124-.002z"/><path data-name="Path 11516" d="M4.721 10.238H2.893a7.273 7.273 0 017.326-7.358v1.831a5.648 5.648 0 00-3.857 1.631 5.591 5.591 0 00-1.641 3.896z"/><path data-name="Path 11517" d="M7.566 10.221H5.794c-.6-1.9 2.057-4.619 4.418-4.486v1.839a2.769 2.769 0 00-2.646 2.647z"/></g></svg>