<svg xmlns="http://www.w3.org/2000/svg" width="23.01" height="23.01"><path d="M11.5 0a11.451 11.451 0 00-7.353 2.664 11.624 11.624 0 00-1.256 1.22A11.455 11.455 0 000 11.5 11.518 11.518 0 0011.5 23a11.455 11.455 0 007.621-2.9 11.621 11.621 0 001.22-1.256 11.451 11.451 0 002.664-7.353A11.518 11.518 0 0011.5 0zm0 21.259a9.765 9.765 0 01-9.754-9.754 9.711 9.711 0 012.386-6.381l13.749 13.749a9.712 9.712 0 01-6.381 2.386zm7.6-3.646L5.4 3.908a9.706 9.706 0 016.109-2.157 9.765 9.765 0 019.754 9.754 9.706 9.706 0 01-2.163 6.108z" fill="#f2f2f2"/></svg>