<svg xmlns="http://www.w3.org/2000/svg" width="29.52" height="24.38" viewBox="0 0 39.52 34.38"><g transform="translate(-606.995 -118.12)"><g fill="#f2f2f2"><path data-name="Path 11821" d="M643.984 121h-13.453a2.531 2.531 0 00-2.531 2.531v26.438a2.531 2.531 0 002.531 2.531h13.453a2.531 2.531 0 002.531-2.531v-26.438a2.531 2.531 0 00-2.531-2.531m-9.6 1.76a.228.228 0 01.228-.228h5.288a.228.228 0 01.228.228v.529a.228.228 0 01-.228.228h-5.288a.228.228 0 01-.228-.228zm2.874 28.658a1.152 1.152 0 111.152-1.152 1.152 1.152 0 01-1.152 1.152m7.279-3.618h-14.558v-22.778h14.558z"/><path data-name="Path 11822" d="M632.121 138.815h10.272a.227.227 0 00.227-.227v-6.633a.227.227 0 00-.227-.227h-10.272a.227.227 0 00-.227.227v6.633a.227.227 0 00.227.227m.823-5.953h8.62v1.038h-8.62zm0 2.378h8.62v2.436h-8.62z"/></g><circle data-name="Ellipse 1901" cx="11.975" cy="11.975" r="11.975" transform="translate(606.995 118.12)" fill="#00be85"/><g data-name="Group 7908" fill="#fff"><path data-name="Path 11757" d="M610.459 133.329a8.365 8.365 0 00.063-1.158v-4.232a8.721 8.721 0 00-.063-1.142c.368.016.65.024 1.15.024h1.713c1.549 0 2.4.743 2.4 2.1a2.128 2.128 0 01-2.41 2.222h-1.234v1a10.173 10.173 0 00.063 1.181zm2.785-3.512a.78.78 0 00.868-.845.757.757 0 00-.868-.821h-1.166v1.666z"/><path data-name="Path 11758" d="M620.393 133.326a6.332 6.332 0 00-.188-.845l-.211-.665h-2.23l-.211.665a4.513 4.513 0 00-.2.845h-1.83a7.721 7.721 0 00.376-.954l1.69-4.709a4.781 4.781 0 00.25-.845h2.042a6.257 6.257 0 00.266.845l1.7 4.709c.149.415.274.736.376.954zm-1.525-5.171l-.728 2.347h1.471z"/><path data-name="Path 11759" d="M625.477 132.172a9.6 9.6 0 00.063 1.158h-1.705a10.364 10.364 0 00.063-1.158v-1.447l-1.8-2.957c-.141-.242-.313-.5-.626-.946h1.979a3.775 3.775 0 00.368.821l.868 1.588.868-1.58a3.513 3.513 0 00.36-.829h1.979c-.227.329-.524.775-.626.946l-1.791 2.957z"/></g></g></svg>