<svg xmlns="http://www.w3.org/2000/svg" width="43" height="27" viewBox="0 0 53 37"><g data-name="Ellipse 1745" transform="translate(19 3)" fill="none" stroke="#5c5c5c"><circle cx="17" cy="17" r="17" stroke="none"/><circle cx="17" cy="17" r="16.5"/></g><g fill="#a7a7a7"><path data-name="Path 3471" d="M43.043 17.101a1.453 1.453 0 01-.425 1.637 2.915 2.915 0 01-1.8.765 4.2 4.2 0 01-.487 0c.3 1.517-.155 2.3-1.359 2.355-.279.014-.406.155-.524.453-.519 1.318-1.056 2.625-1.585 3.936-.156.386-.369.679-.727.441a.789.789 0 01-.206-1.016c1.521-3.766 2.877-7.659 4.928-11.031a14.769 14.769 0 011.713-2.235 2.349 2.349 0 012.455-.823c1.068.3 1.552 1.641 1.183 3.162a2.874 2.874 0 01-3.166 2.356z"/><path data-name="Rectangle 2468" d="M27.499 18.254h7.436v1.158h-7.436z"/><path data-name="Rectangle 2469" d="M27.499 21.936h8.111v1.158h-8.111z"/><path data-name="Rectangle 2470" d="M27.499 25.619h9.036v1.158h-9.036z"/></g><g data-name="Group 6629" transform="translate(-.001)"><circle data-name="Ellipse 1746" cx="12.5" cy="12.5" r="12.5" transform="translate(.001)" fill="#00be85"/><path data-name="Path 10633" d="M19.258 11.3h-5.391V5.909a1.284 1.284 0 00-1.284-1.284 1.284 1.284 0 00-1.284 1.284V11.3H5.908a1.284 1.284 0 00-1.283 1.283 1.284 1.284 0 001.284 1.284H11.3v5.391a1.284 1.284 0 001.284 1.284 1.284 1.284 0 001.284-1.284v-5.391h5.391a1.284 1.284 0 001.284-1.284 1.284 1.284 0 00-1.285-1.283z" fill="#343434"/></g></svg>