<svg xmlns="http://www.w3.org/2000/svg" width="43" height="27" viewBox="0 0 53 37"><defs><filter id="a" x="23.211" y="10.76" width="26.686" height="21.256" filterUnits="userSpaceOnUse"><feOffset dy="1"/><feGaussianBlur stdDeviation="1.5" result="blur"/><feFlood flood-opacity=".161"/><feComposite operator="in" in2="blur"/><feComposite in="SourceGraphic"/></filter></defs><g data-name="Ellipse 1745" transform="translate(19 3)" fill="none" stroke="#5c5c5c"><circle cx="17" cy="17" r="17" stroke="none"/><circle cx="17" cy="17" r="16.5"/></g><g transform="translate(.001)" filter="url(#a)"><path data-name="Rectangle 5524" fill="#fff" stroke="#bababa" stroke-width=".5" d="M27.96 14.51h17.186v11.756H27.96z"/></g><path data-name="Path 10638" d="M29.045 15.483v1.152l7.509 4.811 7.509-4.811v-1.152z" fill="#b7b7b7"/><g data-name="Group 6629" transform="translate(-.001)"><circle data-name="Ellipse 1746" cx="12.5" cy="12.5" r="12.5" transform="translate(.001)" fill="#00be85"/><path data-name="Path 10633" d="M19.258 11.3h-5.391V5.909a1.284 1.284 0 00-1.284-1.284 1.284 1.284 0 00-1.284 1.284V11.3H5.908a1.284 1.284 0 00-1.283 1.283 1.284 1.284 0 001.284 1.284H11.3v5.391a1.284 1.284 0 001.284 1.284 1.284 1.284 0 001.284-1.284v-5.391h5.391a1.284 1.284 0 001.284-1.284 1.284 1.284 0 00-1.285-1.283z" fill="#343434"/></g></svg>