<svg xmlns="http://www.w3.org/2000/svg" width="21.067" height="25.096"><g fill="#f2f2f2"><path data-name="パス 5485" d="M14.36 0a8.83 8.83 0 014.476 2.09 5.879 5.879 0 012.231 4.623c-.046 1.745 0 3.492-.026 5.238a.836.836 0 01-.351.638c-2.983 1.732-5.99 3.441-8.99 5.152-.077.035-.156.065-.237.1-.016-.181-.041-.336-.041-.49 0-1.393-.054-2.788.01-4.178a7.214 7.214 0 00-4.074-6.585 25.963 25.963 0 00-3.327-1.453c.079-.046.262-.167.452-.278C6.692 3.595 8.89 2.32 11.116 1.081c.731-.407 1.535-.72 2.307-1.077z"/><path data-name="パス 5486" d="M11.003 25.097a21.142 21.142 0 01-2.422-.371 12.246 12.246 0 01-2.6-.975c-.878-.471-.826-1.093-.01-1.637A8.436 8.436 0 019.5 20.996v1.167a1.932 1.932 0 001.95 1.915h.277a2.249 2.249 0 002.493-1.86v-.027c.015-.388 0-.776 0-1.227a8.589 8.589 0 013.715 1.2.809.809 0 01.494 1.032.83.83 0 01-.081.166.99.99 0 01-.412.342 9.094 9.094 0 01-4.219 1.265c-.283.033-.565.082-.847.124z"/><path data-name="パス 5487" d="M10.25 17.987a8.182 8.182 0 01-1.053-.165c-2.886-.888-5.761-1.8-8.651-2.684a.589.589 0 01-.541-.633q.037-2.816.006-5.63A2.619 2.619 0 012.097 6.28a4.547 4.547 0 012.154.039c2.946.628 6.163 3.449 6.009 6.521-.073 1.466-.012 2.936-.012 4.4zm-2.446-3.319a3.768 3.768 0 01.007-.682c.109-.538-.185-.775-.786-.941-1.372-.383-2.716-.831-4.072-1.248-.2-.061-.4-.108-.614-.166-.175 1.281-.175 1.281 1.141 1.7.5.158 1 .321 1.5.477.917.281 1.827.557 2.826.864z"/><path data-name="パス 5488" d="M13.153 20.459c0 .574.011 1.148 0 1.723a1.08 1.08 0 01-1.109 1.048h-.015a1.389 1.389 0 01-.2 0c-.851.014-1.252-.277-1.271-.982a28.049 28.049 0 01.013-2.444.949.949 0 01.416-.612 13.746 13.746 0 011.423-.825c.511-.273.733-.177.746.319.006.587-.003 1.179-.003 1.773z"/><path data-name="パス 5531" d="M6.334 5.232a9.632 9.632 0 011.755.73 8.38 8.38 0 012.633 2.187l8.213-4.55a6.56 6.56 0 00-1.067-1.182A8.483 8.483 0 0014.31.643z"/></g></svg>