<svg xmlns="http://www.w3.org/2000/svg" width="26.177" height="26.542"><g fill="#fff"><path data-name="Path 5808" d="M0 2.718C3.3-.693 9.432-1.688 12.9 4.471l1.9-.846-2.075 5.919-5.27-2.449 2.071-1.022a6.044 6.044 0 00-3.788-4.06C3.822 1.377 1.987 1.932 0 2.718z"/><path data-name="Path 5809" d="M21.186 9.695c1.667-1 1.89-.985 2.638.192 1.145 1.8 1.141 1.823-.616 3 .811 1.288 1.627 2.58 2.437 3.876a2.611 2.611 0 01.524.956c.037.381-.068 1.026-.294 1.122a1.336 1.336 0 01-1.235-.2 22.639 22.639 0 01-1.644-2.484q-3.045-4.815-6.085-9.634c-.079-.125-.158-.25-.234-.377-.322-.543-.369-1.074.229-1.437a.939.939 0 011.4.413z"/><path data-name="Path 5810" d="M20.937 10.418H6.66a.926.926 0 00-.917 1.053l1.968 14.271a.926.926 0 00.917.8h10.34a.926.926 0 00.917-.8l1.969-14.271a.926.926 0 00-.917-1.053zM10.368 24.41a.973.973 0 01-1.087-.843l-1.235-9.791a.973.973 0 111.931-.243l1.235 9.791a.972.972 0 01-.844 1.086zm4.4-1.066a.973.973 0 11-1.946 0v-9.73a.973.973 0 111.946 0zm4.78-9.569l-1.235 9.791a.973.973 0 01-1.931-.243l1.235-9.791a.973.973 0 111.931.243z"/></g></svg>