<svg xmlns="http://www.w3.org/2000/svg" width="25.036" height="24.947"><g transform="translate(-35.482 -1299.467)" fill="#f2f2f2"><path data-name="Path 4124" d="M60.518 1312.424v-.967l-1.3-.243c-.01-.167-.023-.334-.041-.5l1.308-.467-.151-.955-1.406-.038.018.114q-.066-.283-.147-.561l1.154-.638-.3-.917-1.346.182c-.064-.147-.13-.292-.2-.436l1.042-.859-.468-.846-1.3.432a10.678 10.678 0 00-.333-.477l.107.113.831-1.135-.662-.705-1.12.717q-.2-.215-.412-.417l.616-1.135-.75-.61-.96.815a10.917 10.917 0 00-.373-.265l.409-1.245-.848-.465-.8.978c-.157-.08-.316-.156-.477-.229l.195-1.247-.911-.323-.618 1.066a12.67 12.67 0 00-.445-.126l-.1-1.263-.961-.1-.324 1.1a10.578 10.578 0 00-.716-.07l-.231-1.233h-.966l-.23 1.229c-.242.014-.481.038-.719.067l-.322-1.089-.961.1-.1 1.249c-.153.039-.3.083-.454.128l-.61-1.054-.911.323.192 1.226q-.247.109-.489.231l-.787-.959-.848.465.4 1.216a9.65 9.65 0 00-.387.275l-.937-.8-.75.61.6 1.1a12.28 12.28 0 00-.426.428l-1.088-.7-.662.705.818 1.118c-.087.121-.173.242-.256.367l-1.261-.418-.468.846 1.006.829c-.075.152-.145.305-.213.46l-1.3-.176-.3.917 1.11.614q-.069.234-.128.472l-1.363.037-.151.955 1.26.449c-.02.174-.034.35-.045.527l-1.248.233v.967l1.247.233c.012.177.026.353.045.527l-1.259.449.151.955 1.362.037q.059.239.128.473l-1.109.613.3.918 1.3-.176c.068.155.138.309.213.46l-1 .828.468.847 1.259-.418c.083.125.169.247.257.369l-.817 1.115.662.7 1.086-.694q.207.22.426.429l-.6 1.1.75.61.934-.793q.19.142.388.276l-.4 1.212.848.465.784-.956c.162.082.325.159.491.233l-.191 1.221.911.323.608-1.05c.151.046.3.089.457.129l.1 1.244.961.1.321-1.085c.238.03.478.054.721.068l.229 1.224h.966l.23-1.228c.242-.015.481-.039.718-.07l.323 1.091.961-.1.1-1.258c.151-.039.3-.082.449-.127l.615 1.062.911-.323-.194-1.243c.162-.072.321-.149.479-.229l.8.974.848-.465-.408-1.241q.19-.129.375-.267l.957.813.75-.61-.614-1.132q.211-.2.413-.418l1.117.715.662-.7-.831-1.135-.093.1q.167-.227.322-.462l1.3.432.468-.847-1.04-.857q.1-.216.2-.438l1.344.183.3-.918-1.153-.637c.053-.181.1-.363.143-.547l-.015.1 1.406-.039.151-.955-1.308-.466c.018-.166.031-.332.042-.5zm-12.491 9.7A10.118 10.118 0 1158.145 1312a10.118 10.118 0 01-10.118 10.121z"/><path data-name="Path 4125" d="M56.263 1307.764a8.903 8.903 0 00-.468-.8 9.252 9.252 0 00-7.17-4.2 9.25 9.25 0 00-.6-.021c-.112 0-.222 0-.333.008a9.26 9.26 0 00-7.919 13.461 8.918 8.918 0 00.464.807 9.256 9.256 0 007.455 4.242c.111 0 .221.008.333.008.2 0 .4-.009.6-.021a9.257 9.257 0 007.261-4.341q.246-.395.454-.813a9.266 9.266 0 00-.077-8.327zm-7.638-4.168a8.42 8.42 0 016.449 3.781l-3.734 2.155a3.966 3.966 0 00-2.715-1.57zm-.931-.015v4.381a3.966 3.966 0 00-2.715 1.57l-3.926-2.266a8.419 8.419 0 016.641-3.685zM39.6 1312a8.391 8.391 0 01.978-3.94l3.936 2.273a3.966 3.966 0 000 3.14l-4.013 2.317a8.392 8.392 0 01-.901-3.79zm8.1 8.422a8.421 8.421 0 01-6.733-3.826l4.018-2.32a3.962 3.962 0 002.715 1.57zm.466-5.834a2.685 2.685 0 112.685-2.685 2.685 2.685 0 01-2.691 2.688zm.465 5.819v-4.561a3.96 3.96 0 002.715-1.57l3.825 2.208a8.424 8.424 0 01-6.546 3.926zm6.993-4.735l-3.809-2.2a3.966 3.966 0 000-3.14l3.732-2.155a8.434 8.434 0 01.077 7.494z"/><circle data-name="Ellipse 1311" cx="1.573" cy="1.573" r="1.573" transform="translate(46.587 1310.333)"/></g></svg>