<svg xmlns="http://www.w3.org/2000/svg" width="20.628" height="20.567" viewBox="0 0 23.628 23.567"><g fill="#aaa9a9"><path data-name="パス 11484" d="M15.738 13.454a3.941 3.941 0 00.835-4.341l-2.466 2.466-2.121-2.121 2.443-2.443a3.941 3.941 0 00-5.261 4.748l-8.62 8.622a1.864 1.864 0 000 2.636 1.864 1.864 0 002.636 0l8.593-8.593a3.938 3.938 0 003.961-.974z"/><path data-name="パス 11485" d="M21.306 17.018l-1.369-1.369a8.723 8.723 0 00.906-2.19h1.936a.852.852 0 00.849-.849V9.869a.851.851 0 00-.849-.848h-1.937a8.684 8.684 0 00-.912-2.2l1.359-1.358a.852.852 0 000-1.2l-1.938-1.937a.832.832 0 00-1.193 0l-1.369 1.369a8.693 8.693 0 00-2.189-.9V.858a.851.851 0 00-.848-.849h-2.741a.85.85 0 00-.848.849v1.937a8.684 8.684 0 00-2.19.9L6.601 2.324a.849.849 0 00-1.2 0L3.462 4.262a.851.851 0 000 1.2l1.369 1.369a8.7 8.7 0 00-.9 2.19H1.995a.851.851 0 00-.849.849v2.741a.851.851 0 00.849.848h1.936a6.349 6.349 0 00.392 1.4l1.958-1.958a5.956 5.956 0 011.731-6.047 6.2 6.2 0 018.768 8.768 6 6 0 01-6.151 1.671L8.68 19.242a6.7 6.7 0 001.5.456v1.938a.852.852 0 00.849.849h2.74a.852.852 0 00.849-.849V19.7a8.687 8.687 0 002.19-.906l1.369 1.369a.85.85 0 001.2 0l1.938-1.938a.85.85 0 000-1.2z"/></g></svg>