<svg xmlns="http://www.w3.org/2000/svg" width="69" height="48"><defs><filter id="a" x="31.525" y="15.074" width="31.795" height="24.75" filterUnits="userSpaceOnUse"><feOffset dy="1"/><feGaussianBlur stdDeviation="1.5" result="blur"/><feFlood flood-opacity=".161"/><feComposite operator="in" in2="blur"/><feComposite in="SourceGraphic"/></filter></defs><g data-name="Ellipse 1745" transform="translate(25 4)" fill="none" stroke="#5c5c5c"><circle cx="22" cy="22" r="22" stroke="none"/><circle cx="22" cy="22" r="21.5"/></g><g transform="translate(-.005 .004)" filter="url(#a)"><path data-name="Rectangle 5524" fill="#fff" stroke="#bababa" stroke-width=".5" d="M36.28 18.82h22.295v15.25H36.28z"/></g><path data-name="Path 10638" d="M37.681 20.086v1.494l9.741 6.241 9.741-6.241v-1.494z" fill="#b7b7b7"/><g transform="translate(-288.594 -675.176)"><circle data-name="Ellipse 1746" cx="16" cy="16" r="16" transform="translate(288.594 675.176)" fill="#2e2d2d"/><path data-name="パス 3608" d="M304.384 687.941a2.941 2.941 0 11-.05 0z" fill="#aaa9a9"/><path data-name="パス 3609" d="M302.954 678.176h2.838a1.609 1.609 0 01.714 1.156c.111.631.275 1.253.428 1.878a3.6 3.6 0 002.283 1.177 2.139 2.139 0 00.286-.172c.61-.374 1.224-.744 1.831-1.123a.982.982 0 011.336.12q.724.714 1.441 1.441a.985.985 0 01.124 1.336c-.328.53-.628 1.079-.992 1.583a1.1 1.1 0 00-.1 1.377c.177.285.217.649.383.942a1.081 1.081 0 00.531.484 15.171 15.171 0 001.927.452 1.6 1.6 0 011.158.706v2.838a1.535 1.535 0 01-1.159.706c-.372.05-.732.2-1.1.236a1.563 1.563 0 00-1.627 1.385c-.033.216-.2.409-.248.628a.975.975 0 00.023.6c.377.675.8 1.325 1.2 1.985a.966.966 0 01-.086 1.291q-.746.776-1.52 1.523a.942.942 0 01-1.243.114c-.518-.31-1.049-.605-1.541-.957a1.188 1.188 0 00-1.524-.143 2.729 2.729 0 01-.842.328.7.7 0 00-.562.614c-.124.629-.313 1.246-.42 1.878a1.594 1.594 0 01-.713 1.157h-2.832a1.586 1.586 0 01-.7-1.158c-.107-.631-.286-1.252-.428-1.877a3.63 3.63 0 00-2.284-1.177 2.062 2.062 0 00-.244.143c-.626.387-1.255.771-1.884 1.158a.98.98 0 01-1.336-.121q-.727-.714-1.443-1.442a.987.987 0 01-.125-1.336c.309-.5.587-1.016.93-1.487a1.184 1.184 0 00.143-1.522 2.759 2.759 0 01-.328-.842.706.706 0 00-.616-.564c-.629-.124-1.245-.312-1.878-.419a1.589 1.589 0 01-1.157-.713v-2.837a1.527 1.527 0 011.157-.706c.372-.05.734-.2 1.106-.237a1.559 1.559 0 001.627-1.384c.036-.217.2-.41.248-.628a.94.94 0 00-.022-.6c-.376-.677-.791-1.33-1.2-1.987a.981.981 0 01.12-1.335q.713-.727 1.441-1.443a.985.985 0 011.337-.123c.514.319 1.043.614 1.535.961a1.13 1.13 0 001.427.127c.277-.181.647-.216.942-.383a1.071 1.071 0 00.485-.531 15.507 15.507 0 00.453-1.928 1.594 1.594 0 01.7-1.149zm1.4 19.845a7.077 7.077 0 10-7.06-7.093 7.1 7.1 0 007.06 7.09z" fill="#aaa9a9"/></g></svg>