<svg xmlns="http://www.w3.org/2000/svg" width="25.788" height="25.704" viewBox="0 0 32.788 32.704"><g fill="#aaa9a9"><path data-name="パス 11484" d="M21.839 18.669a5.469 5.469 0 001.159-6.024l-3.422 3.422-2.943-2.943 3.39-3.39a5.468 5.468 0 00-7.3 6.589L.757 28.283a2.587 2.587 0 000 3.658 2.586 2.586 0 003.658 0l11.924-11.924a5.465 5.465 0 005.5-1.348z"/><path data-name="パス 11485" d="M29.566 23.616l-1.9-1.9a12.107 12.107 0 001.257-3.039h2.687a1.183 1.183 0 001.178-1.178v-3.8a1.18 1.18 0 00-1.178-1.177h-2.688a12.053 12.053 0 00-1.266-3.053l1.886-1.884a1.183 1.183 0 000-1.671l-2.689-2.688a1.155 1.155 0 00-1.656 0l-1.9 1.9a12.066 12.066 0 00-3.038-1.256V1.175a1.181 1.181 0 00-1.177-1.178h-3.8a1.179 1.179 0 00-1.177 1.178v2.688a12.055 12.055 0 00-3.039 1.256l-1.9-1.9a1.178 1.178 0 00-1.669 0L4.806 5.908a1.181 1.181 0 000 1.669l1.9 1.9a12.07 12.07 0 00-1.256 3.039H2.763a1.181 1.181 0 00-1.178 1.178v3.8a1.18 1.18 0 001.178 1.177H5.45a8.814 8.814 0 00.544 1.941l2.717-2.717a8.266 8.266 0 012.4-8.391 8.603 8.603 0 0112.162 12.171 8.326 8.326 0 01-8.536 2.319l-2.7 2.7a9.3 9.3 0 002.079.633v2.689a1.182 1.182 0 001.178 1.178h3.8a1.183 1.183 0 001.178-1.178v-2.687a12.058 12.058 0 003.039-1.257l1.9 1.9a1.18 1.18 0 001.669 0l2.689-2.689a1.18 1.18 0 000-1.669z"/></g></svg>