<svg xmlns="http://www.w3.org/2000/svg" width="25.322" height="25.171"><path data-name="Path 5588" d="M24.873 12.61l-2.857-6.9a1.595 1.595 0 10-2.315-2.173L13.046.781 4.682 4.246 1.91 10.938a1.6 1.6 0 10-.307 3.171 1.545 1.545 0 00.227-.023l2.853 6.888 8.113 3.36.251.1.031-.013 6.75-2.8a1.6 1.6 0 102.252-2.272zm-3.918-8.928a.84.84 0 01.839.839.824.824 0 01-.106.4.833.833 0 01-.647.432.8.8 0 01-.087.009.832.832 0 01-.452-.134l-.025-.016a.837.837 0 01-.36-.674v-.015a.847.847 0 01.839-.839zM1.602 13.346a.779.779 0 01-.083-.008.836.836 0 01.083-1.669.838.838 0 010 1.677zm20.192 7.148a.84.84 0 01-.839.839.823.823 0 01-.286-.054.837.837 0 01.286-1.624.823.823 0 01.141.014h.026a.847.847 0 01.672.822zm-.839-1.6c-.027 0-.052.007-.079.008l-1.064-3.724-.072.02-1.748-3.495-.681.342 1.419 2.838-6.942 2.37.247.721 7.091-2.421 1.019 3.567a1.557 1.557 0 00-.714 1.846l-5.519 2.287 4.766-6.673-.62-.443-5.028 7.039-1.86-3.412-.67.365 1.712 3.139-6.948-2.878.1-.091-.065-3.767-.762.013.037 2.172-2.035-4.914a1.656 1.656 0 00.182-.151l1.977 1.4.441-.622-2.019-1.433a1.549 1.549 0 00-.518-1.735l2.666-6.436 6.928-2.87-2.105 4.473.69.325 2.4-5.1 6.206 2.571a1.557 1.557 0 00-.029.289 1.594 1.594 0 00.459 1.12l-2.124 3.338.643.409 2.132-3.351a1.455 1.455 0 00.875.033l2.449 5.914-6.6-1.649-3.335-7.882-.7.3 3.111 7.353-5.077-1.269v-.012a1.6 1.6 0 00-1.6-1.6 1.586 1.586 0 00-.852.251l-2.473-2.5-.542.536 2.488 2.517a1.586 1.586 0 00-.222.8 1.631 1.631 0 00.018.182l-4.51 2.168.33.687L8.27 9.724a1.6 1.6 0 00.958.653l.332 5.644.761-.044-.33-5.612a1.6 1.6 0 001.005-.794l5.171 1.292-5.312 5.713a1.576 1.576 0 00-1.864.428L5.82 14.886l2.824-4.237-.635-.423-2.87 4.3.483.322-.377.565 3.4 2.27a1.6 1.6 0 00-.04.348 1.639 1.639 0 00.023.234l-2.436 1.151.325.689 2.4-1.133a1.595 1.595 0 102.541-1.927l5.557-5.975 6.124 1.531-2.8 1.629.382.659 3.144-1.826-2.444 5.9a1.586 1.586 0 00-.467-.073zM10.428 8.822a.844.844 0 11-.021-.184.863.863 0 01.02.185zm-.224 8.377a.839.839 0 11-.839.839.84.84 0 01.837-.839z" fill="#f2f2f2"/><g data-name="Group 4926" transform="translate(4.065)" fill="#f2f2f2"><circle data-name="Ellipse 1679" cx="1.22" cy="1.22" transform="translate(7.759)" r="1.22"/><circle data-name="Ellipse 1680" cx="1.22" cy="1.22" transform="translate(11.752 9.216)" r="1.22"/><circle data-name="Ellipse 1681" cx="1.067" cy="1.067" transform="translate(14.055 13.976)" r="1.067"/><circle data-name="Ellipse 1682" cx="1.006" cy="1.006" transform="translate(.292 14.037)" r="1.006"/><circle data-name="Ellipse 1683" cx="1.22" cy="1.22" transform="translate(7.759 22.732)" r="1.22"/><circle data-name="Ellipse 1684" cx="1.22" cy="1.22" transform="translate(18.817 11.366)" r="1.22"/><circle data-name="Ellipse 1685" cx=".915" cy=".915" transform="translate(0 19.581)" r=".915"/><circle data-name="Ellipse 1686" cx=".915" cy=".915" transform="translate(0 3.607)" r=".915"/></g></svg>