<svg xmlns="http://www.w3.org/2000/svg" width="36.106" height="35.626"><defs><linearGradient id="a" x1=".5" x2=".5" y2="1" gradientUnits="objectBoundingBox"><stop offset="0" stop-color="#51adf7"/><stop offset="1" stop-color="#357ff2"/></linearGradient></defs><g data-name="Group 4834"><path data-name="パス 5069" d="M183.054 690.268c-.494.641-.522.84-.224 1.673h-.913a1.224 1.224 0 00-.865.316 2.915 2.915 0 00-.879 1.6h31.012a2.829 2.829 0 01.615.055 1.135 1.135 0 01.837 1.155v7.893a.387.387 0 00.26.423 2.424 2.424 0 011.5 2.171 22.309 22.309 0 010 2.491 2.44 2.44 0 01-1.5 2.177.388.388 0 00-.26.419v7c0 .935-.425 1.364-1.353 1.364h-31.6a1.178 1.178 0 01-1.343-1.341v-22.453a5.783 5.783 0 01.5-2.768 3.56 3.56 0 012.468-2.157 10.471 10.471 0 011.745-.018zm23.933 19.551h5.081a1.515 1.515 0 00.956-.326 1.976 1.976 0 00.806-1.663v-1.987a2.019 2.019 0 00-1.879-2.151 1.976 1.976 0 00-.27 0h-9.72a3.454 3.454 0 00-1.724.437 3.1 3.1 0 00-1.169 3.98 3.022 3.022 0 002.823 1.7c1.709.016 3.401.01 5.097.01z" transform="translate(-178.323 -683.399)" opacity=".981" fill="url(#a)" style="isolation:isolate"/><path data-name="パス 5070" d="M27.626 6.826h4.508a.856.856 0 01.936.764.861.861 0 01-.839.94c-1.294.014-2.587 0-3.883 0a.262.262 0 01-.2-.117c-.178-.505-.338-1.022-.522-1.587z" fill="#51adf7"/></g><g data-name="Group 4845" fill="#51adf7"><path data-name="パス 5071" d="M25.563 3.068c-.52.2-1.011.4-1.508.592L8.79 9.57a1.2 1.2 0 01-.431.085c-.809 0-1.639 0-2.46.01a.321.321 0 01-.362-.255c-.125-.364-.275-.718-.4-1.077a.961.961 0 01.623-1.429q3.253-1.267 6.513-2.525L23.202.135c.778-.3 1.2-.109 1.5.671.275.75.564 1.494.861 2.262z" style="isolation:isolate"/><path data-name="パス 5072" d="M16.407 9.598l10.159-3.937 1.546 3.984h-11.7z" style="isolation:isolate"/></g><path data-name="パス 5073" d="M28.645 26.42h-5.1a3.033 3.033 0 01-2.83-1.7 3.092 3.092 0 011.172-3.976 3.473 3.473 0 011.728-.437h9.745a2.023 2.023 0 012.155 1.88 1.981 1.981 0 010 .269v1.985a1.972 1.972 0 01-.809 1.661 1.522 1.522 0 01-.958.326c-1.703-.015-3.403-.008-5.103-.008zm-4.465-1.973a1.188 1.188 0 10-1.148-1.229 1.188 1.188 0 001.148 1.229z" fill="none"/><path data-name="パス 5074" d="M24.21 24.445a1.188 1.188 0 111.231-1.148 1.188 1.188 0 01-1.231 1.148z" fill="#357ff2" stroke="#357ff2"/></svg>