<svg xmlns="http://www.w3.org/2000/svg" width="44.149" height="26.8"><g data-name="Wallet"><g data-name="Group 4834" fill="#fff"><path data-name="パス 5069" d="M21.428 5.973c-.358.464-.378.608-.162 1.212h-.661a.885.885 0 00-.626.229 2.111 2.111 0 00-.637 1.162h22.459a2.049 2.049 0 01.445.039.822.822 0 01.606.837v5.716a.28.28 0 00.188.306 1.756 1.756 0 011.085 1.572 16.16 16.16 0 010 1.8 1.767 1.767 0 01-1.085 1.576.281.281 0 00-.188.3v5.071c0 .677-.308.988-.98.988H18.983a.853.853 0 01-.972-.971V9.553a4.189 4.189 0 01.365-2 2.579 2.579 0 011.787-1.562 7.581 7.581 0 011.265-.018zM38.76 20.132h3.679a1.1 1.1 0 00.692-.236 1.431 1.431 0 00.584-1.2v-1.443a1.462 1.462 0 00-1.361-1.558 1.433 1.433 0 00-.2 0h-7.039a2.5 2.5 0 00-1.248.317 2.245 2.245 0 00-.847 2.882 2.189 2.189 0 002.044 1.231c1.242.011 2.468.007 3.696.007z" opacity=".981" style="isolation:isolate"/><path data-name="パス 5070" d="M38.008 5.943h3.263a.62.62 0 01.678.553.623.623 0 01-.607.681c-.937.01-1.874 0-2.812 0a.19.19 0 01-.146-.085c-.127-.366-.243-.739-.376-1.149z"/></g><g data-name="Group 4845" fill="#fff"><path data-name="パス 5071" d="M36.514 3.222c-.376.146-.732.293-1.092.429l-11.055 4.28a.874.874 0 01-.312.061c-.586 0-1.187 0-1.782.007a.233.233 0 01-.262-.184c-.091-.264-.2-.52-.293-.78A.7.7 0 0122.169 6q2.356-.918 4.717-1.828l7.915-3.074c.564-.218.87-.079 1.088.486.201.543.41 1.082.625 1.638z" style="isolation:isolate"/><path data-name="パス 5072" d="M29.883 7.951L37.24 5.1l1.12 2.885h-8.471z" style="isolation:isolate"/></g><path data-name="パス 5073" d="M38.746 20.133h-3.69a2.2 2.2 0 01-2.049-1.229 2.239 2.239 0 01.849-2.879 2.513 2.513 0 011.252-.316h7.057a1.465 1.465 0 011.56 1.361 1.436 1.436 0 010 .195v1.438a1.428 1.428 0 01-.586 1.2 1.1 1.1 0 01-.694.236c-1.24-.01-2.469-.006-3.699-.006zm-3.234-1.429a.861.861 0 10-.831-.89.861.861 0 00.835.891z" fill="none"/><path data-name="パス 5074" d="M35.534 18.703a.861.861 0 11.892-.831.861.861 0 01-.892.831z" fill="#fff" stroke="#fff"/></g><path data-name="Path 10763" d="M10.6 0a10.6 10.6 0 1010.6 10.6A10.6 10.6 0 0010.6 0zm5.675 11.718h-4.556v4.556a1.085 1.085 0 01-2.171 0v-4.556H4.993a1.085 1.085 0 110-2.169h4.555V4.993a1.085 1.085 0 012.171 0v4.56h4.556a1.085 1.085 0 110 2.169z" fill="#fff"/></svg>