<svg xmlns="http://www.w3.org/2000/svg" width="25.784" height="21.368"><g transform="translate(-237.58 -243.402)" fill="#a5a5a5"><path data-name="Path 6112" d="M240.424 263.107v-4.293l-1.724-10.561a.555.555 0 01.457-.636l1.531-.25a1.66 1.66 0 011.4-.773h3.323l12.687-2.077a.594.594 0 01.09-.007.555.555 0 01.546.465l.265 1.619h1.124l-.294-1.8a1.666 1.666 0 00-1.91-1.372l-18.943 3.1a1.666 1.666 0 00-1.372 1.909l2.4 14.657a1.662 1.662 0 00.978 1.253 1.653 1.653 0 01-.558-1.234z"/><path data-name="Path 6113" d="M261.703 264.769h-19.618a1.665 1.665 0 01-1.661-1.663v-14.851a1.664 1.664 0 011.661-1.661h19.617a1.664 1.664 0 011.661 1.661v14.851a1.665 1.665 0 01-1.66 1.663zm-19.618-17.067a.554.554 0 00-.553.553v14.851a.554.554 0 00.553.553h19.617a.554.554 0 00.553-.553v-14.851a.554.554 0 00-.553-.553z"/><path data-name="Path 6114" d="M243.305 259.56l3.934-3.934 1.884 1.884 6.206-6.206 5.1 5.1v5.486h-17.124z"/><circle data-name="Ellipse 1723" cx="2.161" cy="2.161" r="2.161" transform="translate(243.527 249.697)"/></g></svg>