<svg xmlns="http://www.w3.org/2000/svg" width="26.913" height="27.413"><g fill="#2fcba7"><path data-name="Path 10737" d="M23.631 27.413H3.279a1.531 1.531 0 00-.27-.119 3.7 3.7 0 01-3.006-3.747q-.006-8.952 0-17.9a3.489 3.489 0 012.508-3.434 22.142 22.142 0 013.444-.337 16.292 16.292 0 00.174 2.293 2.541 2.541 0 004.982-.565c.023-.537 0-1.076 0-1.606h4.825V3.36a2.532 2.532 0 002.51 2.648 2.566 2.566 0 002.623-2.614c.011-.46 0-.92 0-1.431h2.009a3.72 3.72 0 013.822 3.8q.015 8.951 0 17.9a3.7 3.7 0 01-2.945 3.621 2.407 2.407 0 00-.324.129zM1.787 8.066v15.325a1.969 1.969 0 002.212 2.21h18.886a1.987 1.987 0 002.238-2.248V8.735c0-.215-.02-.43-.032-.669z"/><path data-name="Path 10738" d="M18.756 0a1.646 1.646 0 011.072 1.826c-.033.525.011 1.054-.011 1.58a1.315 1.315 0 11-2.629-.028c-.011-.527.034-1.057-.011-1.58a1.573 1.573 0 011.092-1.8z"/><path data-name="Path 10739" d="M8.885 0a1.629 1.629 0 01.992 1.809c-.056.562 0 1.135-.018 1.7a1.228 1.228 0 01-1.29 1.24A1.2 1.2 0 017.297 3.56c-.032-.769-.008-1.54-.009-2.311 0-.678.5-.958.988-1.251z"/><path data-name="Path 10740" d="M9.175 23.823v-3.286h3.275v3.286z"/><path data-name="Path 10741" d="M17.726 23.833h-3.284v-3.279h3.284z"/><path data-name="Path 10742" d="M9.165 18.506V15.28h3.3v3.226z"/><path data-name="Path 10743" d="M9.175 13.246v-3.229h3.278v3.229z"/><path data-name="Path 10744" d="M17.732 10.031v3.2h-3.285v-3.2z"/><path data-name="Path 10745" d="M7.137 23.839H3.925v-3.3h3.212z"/><path data-name="Path 10746" d="M3.912 18.519v-3.23h3.232v3.23z"/><path data-name="Path 10747" d="M22.987 18.54h-3.23v-3.26h3.23z"/><path data-name="Path 10748" d="M19.774 10h3.2v3.24h-3.2z"/><path data-name="Path 10749" d="M15.841 19.049l-2.051-1.642.751-.951 1.1.864 1.846-2.359.955.747z"/></g></svg>