<svg xmlns="http://www.w3.org/2000/svg" width="24.556" height="32.941" viewBox="0 0 24.556 32.941">
  <g id="Group_7886" data-name="Group 7886" transform="translate(0 0)">
    <g id="Group_7887" data-name="Group 7887" transform="translate(0 0)">
      <path id="Path_11739" data-name="Path 11739" d="M53.55,344.586a1.194,1.194,0,1,1-1.195-1.194,1.195,1.195,0,0,1,1.195,1.194" transform="translate(-46.609 -312.839)" fill="#2d81f3"/>
      <path id="Path_11740" data-name="Path 11740" d="M102.217,344.586a1.194,1.194,0,1,1-1.195-1.194,1.195,1.195,0,0,1,1.195,1.194" transform="translate(-90.946 -312.839)" fill="#2d81f3"/>
      <path id="Path_11741" data-name="Path 11741" d="M150.883,344.586a1.194,1.194,0,1,1-1.195-1.194,1.195,1.195,0,0,1,1.195,1.194" transform="translate(-135.282 -312.839)" fill="#2d81f3"/>
      <path id="Path_11742" data-name="Path 11742" d="M199.55,344.586a1.194,1.194,0,1,1-1.195-1.194,1.195,1.195,0,0,1,1.195,1.194" transform="translate(-179.619 -312.839)" fill="#2d81f3"/>
      <path id="Path_11743" data-name="Path 11743" d="M21.647,9.425h-.461V8.112A8.12,8.12,0,0,0,13.075,0H11.481A8.12,8.12,0,0,0,3.37,8.112V9.425H2.909A2.909,2.909,0,0,0,0,12.334V25.2a2.909,2.909,0,0,0,2.909,2.909H21.647A2.909,2.909,0,0,0,24.556,25.2V12.334a2.909,2.909,0,0,0-2.909-2.909m-15.608,0V8.112A5.448,5.448,0,0,1,11.481,2.67h1.594a5.448,5.448,0,0,1,5.442,5.442V9.425Z" transform="translate(0 -0.001)" fill="#2d81f3"/>
    </g>
    <path id="Path_11744" data-name="Path 11744" d="M38.767,171.552a7.7,7.7,0,0,0-1.117.046,4.062,4.062,0,0,1,1.485-2.89,13.075,13.075,0,0,1,1.46-1.071c.868-.585,1.124-.923,1.124-1.481,0-.631-.521-1.023-1.344-1.023a1.407,1.407,0,0,0-1.244.566,1.9,1.9,0,0,0-.292.879l-1.088-.146a2.672,2.672,0,0,1,.609-1.409,2.509,2.509,0,0,1,1.985-.768c1.517,0,2.459.74,2.459,1.93a1.952,1.952,0,0,1-.923,1.682c-.283.21-.406.3-1.226.85a3.7,3.7,0,0,0-1.712,1.921h2.725a8.94,8.94,0,0,0,1.243-.064v1.033c-.406-.035-.75-.055-1.28-.055Z" transform="translate(-34.3 -149.635)" fill="#fff"/>
    <path id="Path_11745" data-name="Path 11745" d="M111.422,171.239a7.135,7.135,0,0,0,.073,1.219h-1.161a6.837,6.837,0,0,0,.073-1.207V166.4a6.765,6.765,0,0,0-.073-1.124c.329.018.585.027,1.1.027h2.515a8.164,8.164,0,0,0,1.161-.064v1.042a7.683,7.683,0,0,0-1.161-.063h-2.524v2.121h2.039a7.9,7.9,0,0,0,1.161-.064v1.042a7.848,7.848,0,0,0-1.161-.063h-2.039Z" transform="translate(-100.517 -150.538)" fill="#fff"/>
    <path id="Path_11746" data-name="Path 11746" d="M165.934,173.111a6.883,6.883,0,0,0-.265-.952l-.406-1.069h-3.041l-.411,1.069a4.432,4.432,0,0,0-.275.952h-1.28a7.813,7.813,0,0,0,.484-1.07l2.031-5.186a5.263,5.263,0,0,0,.287-.9h1.32a5.6,5.6,0,0,0,.312.9l2.039,5.186a9.471,9.471,0,0,0,.474,1.07Zm-2.021-5.734c-.036-.091-.036-.091-.183-.549-.155.475-.155.475-.181.549l-1.044,2.835h2.46Z" transform="translate(-145.997 -151.194)" fill="#fff"/>
  </g>
</svg>
