<svg xmlns="http://www.w3.org/2000/svg" width="45.128" height="36.106" viewBox="0 0 45.128 36.106">
  <g id="Active" transform="translate(-600.206 342.055)">
    <path id="Path_11057" data-name="Path 11057" d="M635.1-326.445l-10.233-10.9a2.821,2.821,0,0,0-.2-3.984,2.82,2.82,0,0,0-3.983.2,2.821,2.821,0,0,0,.161,3.946l-10.4,10.735H600.206v20.5h45.128v-20.5Zm-24,15.142-.434-1.782h-2.845l-.435,1.782h-1.158l2.155-8.847H610.2l2.154,8.847Zm7.2-5.915h-1.19v-.846a1.154,1.154,0,0,0-1.319-1.277,1.16,1.16,0,0,0-1.318,1.277v4.675a1.16,1.16,0,0,0,1.318,1.277,1.154,1.154,0,0,0,1.319-1.277v-1.149h1.19v1.1c0,1.339-.8,2.223-2.54,2.223-1.72,0-2.525-.884-2.525-2.223v-4.576c0-1.339.8-2.224,2.525-2.224,1.737,0,2.54.885,2.54,2.224Zm6.078-2.034h-2.074v7.949h-1.239v-7.949h-2.074v-.9h5.387Zm2.106,7.949H625.23v-8.847h1.255Zm4.936,0h-1.85l-2.123-8.847h1.271l1.832,7.7,1.816-7.7h1.158Zm-19.4-15.138,9.81-10.136a2.793,2.793,0,0,0,2.123-.09l9.6,10.226Zm27.107,7.189h-3.376v3.02H638.5v.884h-2.748v3.148h3.376v.9h-4.631v-8.847h4.631Z" transform="translate(0 0)" fill="#fff"/>
    <path id="Path_11058" data-name="Path 11058" d="M608.822-311.436h2.508l-1.27-5.1Z" transform="translate(-0.843 -2.496)" fill="#fff"/>
  </g>
</svg>
