<svg xmlns="http://www.w3.org/2000/svg" width="50.022" height="40.021" viewBox="0 0 50.022 40.021">
  <g id="Active" transform="translate(-600.206 342.055)">
    <path id="Path_11057" data-name="Path 11057" d="M638.881-324.752l-11.343-12.081a3.126,3.126,0,0,0-.223-4.416,3.126,3.126,0,0,0-4.415.224,3.126,3.126,0,0,0,.178,4.374l-11.523,11.9H600.206v22.718h50.022v-22.718Zm-26.6,16.784-.481-1.975h-3.154l-.482,1.975H606.88l2.389-9.806h2.013l2.388,9.806Zm7.984-6.556h-1.319v-.938a1.279,1.279,0,0,0-1.462-1.415,1.286,1.286,0,0,0-1.461,1.415v5.182a1.286,1.286,0,0,0,1.461,1.415,1.279,1.279,0,0,0,1.462-1.415v-1.274h1.319v1.219c0,1.484-.891,2.464-2.816,2.464-1.907,0-2.8-.98-2.8-2.464v-5.072c0-1.484.892-2.465,2.8-2.465,1.925,0,2.816.981,2.816,2.465ZM627-316.779h-2.3v8.811h-1.373v-8.811h-2.3v-.995H627Zm2.334,8.811h-1.391v-9.806h1.391Zm5.471,0h-2.05l-2.353-9.806h1.409l2.031,8.531,2.013-8.531h1.284ZM613.3-324.747l10.874-11.235a3.1,3.1,0,0,0,2.353-.1l10.642,11.335Zm30.046,7.968H639.6v3.348h3.046v.98H639.6v3.489h3.742v.994H638.21v-9.806h5.133Z" fill="#00be85"/>
    <path id="Path_11058" data-name="Path 11058" d="M608.822-310.882h2.78l-1.408-5.658Z" fill="#00be85"/>
  </g>
</svg>
