<svg xmlns="http://www.w3.org/2000/svg" width="52.001" height="34.876" viewBox="0 0 52.001 34.876">
  <g id="icon" transform="translate(19.001 1.876)">
    <path id="Path_6506" data-name="Path 6506" d="M1389.5,322a16.491,16.491,0,1,0,16.5,16.5A16.519,16.519,0,0,0,1389.5,322Zm10.344,27.806a15.324,15.324,0,1,1,4.989-11.306A15.271,15.271,0,0,1,1399.844,349.806Z" transform="translate(-1373 -322)" fill="#777"/>
    <g id="会社" transform="translate(-57.223 -151.824)">
      <path id="Path_10894" data-name="Path 10894" d="M81.819,177.236,75.89,178.3l-11.15-.973V160.954l11.15-2.566,5.929,2.389Z" transform="translate(0 0)" fill="#777" stroke="#777" stroke-width="1"/>
      <path id="Path_10895" data-name="Path 10895" d="M75.547,161.225l-8.407,2.124v13.8l2.7.227v-2.926h2.124v3.1l3.584.3ZM68.91,172.817H67.76v-1.681l1.15-.089Zm0-3.628-1.15.088V167.6l1.15-.177Zm0-3.54-1.15.177v-1.77l1.15-.266Zm2.788,7.079h-1.46v-1.77l1.46-.089Zm0-3.805-1.46.089v-1.859l1.46-.177Zm0-3.8-1.46.265v-1.858l1.46-.354Zm1.46,7.522v-1.947l1.682-.088.044,2.035Zm0-3.8V166.8l1.682-.265.044,2.124Zm0-3.982v-2.035l1.682-.354.044,2.124Z" transform="translate(-0.94 -1.112)" fill="#f7f7f7"/>
    </g>
    <path id="Path_10763" data-name="Path 10763" d="M897.142,716.247a11.973,11.973,0,1,0,11.973,11.973A11.973,11.973,0,0,0,897.142,716.247Zm6.41,13.236h-5.146v5.146a1.226,1.226,0,0,1-2.452,0v-5.146H890.81a1.225,1.225,0,1,1,0-2.45h5.145v-5.146a1.226,1.226,0,0,1,2.452,0v5.146h5.146a1.225,1.225,0,1,1,0,2.45Z" transform="translate(-904.17 -718.123)" fill="#00be85"/>
  </g>
</svg>
