<svg xmlns="http://www.w3.org/2000/svg" width="52.466" height="34.876" viewBox="0 0 52.466 34.876">
  <g id="Group_7589" data-name="Group 7589" transform="translate(-1395.001 -52)">
    <g id="list" transform="translate(1415.497 54.906)">
      <path id="パス_10957" data-name="パス 10957" d="M506.595,416.3H476.558a.967.967,0,0,1-.967-.967h0V385.294a.966.966,0,0,1,.967-.967h30.037a.966.966,0,0,1,.967.967h0v30.037a.967.967,0,0,1-.967.967Zm-28.368-2.637h26.7v-26.7h-26.7Z" transform="translate(-475.591 -384.327)" fill="#777"/>
      <path id="パス_10958" data-name="パス 10958" d="M491.533,401.108h-8.639a1.3,1.3,0,0,1-1.318-1.277h0a1.3,1.3,0,0,1,1.318-1.277h8.639a1.3,1.3,0,0,1,1.319,1.276h0a1.3,1.3,0,0,1-1.319,1.277Z" transform="translate(-474.589 -381.946)" fill="#777"/>
      <path id="パス_10959" data-name="パス 10959" d="M498.057,406.049H482.9a1.3,1.3,0,0,1-1.318-1.277h0a1.3,1.3,0,0,1,1.318-1.277h15.161a1.3,1.3,0,0,1,1.319,1.276h0a1.3,1.3,0,0,1-1.318,1.277Z" transform="translate(-474.588 -381.118)" fill="#777"/>
      <g id="Group_7569" data-name="Group 7569" transform="translate(6.955 5.316)">
        <path id="Path_11040" data-name="Path 11040" d="M486.822,396.377a9.03,9.03,0,0,0-1.324-.065h-2.764c-.522,0-.849.009-1.185.028a7.416,7.416,0,0,0,.075-1.233v-4.845a9.108,9.108,0,0,0-.075-1.381h1.41a8.5,8.5,0,0,0-.076,1.373v4.928H485.5a10.062,10.062,0,0,0,1.324-.064Z" transform="translate(-481.549 -388.881)" fill="#777"/>
        <path id="Path_11041" data-name="Path 11041" d="M487.993,388.881v1.186h-1.372v-1.186Zm-.009,2.072a8.394,8.394,0,0,0-.065,1.223v2.911a9.382,9.382,0,0,0,.065,1.223h-1.362a8.388,8.388,0,0,0,.075-1.213v-2.931a7.676,7.676,0,0,0-.075-1.214Z" transform="translate(-480.7 -388.881)" fill="#777"/>
        <path id="Path_11042" data-name="Path 11042" d="M489.868,394.356c.158.635.5.886,1.23.886.691,0,1.121-.271,1.121-.71a.569.569,0,0,0-.243-.466c-.177-.121-.234-.131-.981-.3a5.651,5.651,0,0,1-1.344-.4,1.338,1.338,0,0,1-.821-1.241,1.39,1.39,0,0,1,.289-.869,2.248,2.248,0,0,1,1.867-.728,2.541,2.541,0,0,1,1.753.542,1.81,1.81,0,0,1,.5.925l-1.232.159c-.1-.514-.42-.738-1.026-.738-.579,0-.97.262-.97.654a.5.5,0,0,0,.288.439,3.953,3.953,0,0,0,.933.279,4.015,4.015,0,0,1,1.644.57,1.329,1.329,0,0,1,.541,1.157,1.5,1.5,0,0,1-.456,1.055,2.756,2.756,0,0,1-1.932.607,2.467,2.467,0,0,1-2.083-.831,2.119,2.119,0,0,1-.363-.831Z" transform="translate(-480.371 -388.605)" fill="#777"/>
        <path id="Path_11043" data-name="Path 11043" d="M495.564,389.425a10.315,10.315,0,0,0-.065,1.149v.288h.392a5.356,5.356,0,0,0,.942-.056v1.1a5.135,5.135,0,0,0-.914-.056h-.42v2.893c0,.459.168.626.616.626a1.226,1.226,0,0,0,.682-.205l.167.99a2.921,2.921,0,0,1-1.166.2c-1.074,0-1.5-.383-1.5-1.364v-3.136h-.356a4.7,4.7,0,0,0-.83.056v-1.1a4.287,4.287,0,0,0,.841.056h.346v-.288a10.424,10.424,0,0,0-.067-1.149Z" transform="translate(-479.614 -388.79)" fill="#777"/>
      </g>
    </g>
    <path id="Path_10763" data-name="Path 10763" d="M897.142,716.247a11.973,11.973,0,1,0,11.973,11.973A11.973,11.973,0,0,0,897.142,716.247Zm6.41,13.236h-5.146v5.146a1.226,1.226,0,0,1-2.452,0v-5.146H890.81a1.225,1.225,0,1,1,0-2.45h5.145v-5.146a1.226,1.226,0,0,1,2.452,0v5.146h5.146a1.225,1.225,0,1,1,0,2.45Z" transform="translate(509.832 -664.247)" fill="#00be85"/>
  </g>
</svg>
