<svg xmlns="http://www.w3.org/2000/svg" width="46.417" height="28.177" viewBox="0 0 46.417 28.177">
  <g id="Group_7386" data-name="Group 7386" transform="translate(-461.224 -531.152)">
    <g id="Wallet" transform="translate(480.149 532.203)">
      <g id="Group_4834" data-name="Group 4834" transform="translate(0 5.194)">
        <path id="パス_5069" data-name="パス 5069" d="M181.926,690.261c-.376.488-.4.639-.17,1.274h-.7a.931.931,0,0,0-.659.24,2.219,2.219,0,0,0-.669,1.222h23.612a2.151,2.151,0,0,1,.468.042.864.864,0,0,1,.637.88v6.01a.3.3,0,0,0,.2.322,1.846,1.846,0,0,1,1.141,1.653,16.99,16.99,0,0,1,0,1.9,1.858,1.858,0,0,1-1.141,1.657.3.3,0,0,0-.2.319v5.332c0,.712-.324,1.038-1.03,1.038H179.356a.9.9,0,0,1-1.022-1.021v-17.1a4.4,4.4,0,0,1,.384-2.108,2.711,2.711,0,0,1,1.879-1.642A7.972,7.972,0,0,1,181.926,690.261Zm18.223,14.886h3.868a1.153,1.153,0,0,0,.728-.248,1.5,1.5,0,0,0,.614-1.266V702.12a1.537,1.537,0,0,0-1.431-1.638,1.5,1.5,0,0,0-.206,0h-7.4a2.629,2.629,0,0,0-1.313.333,2.361,2.361,0,0,0-.89,3.03,2.3,2.3,0,0,0,2.149,1.294C197.568,705.152,198.857,705.147,200.148,705.147Z" transform="translate(-178.323 -690.226)" fill="#fff" opacity="0.981" style="isolation: isolate"/>
        <path id="パス_5070" data-name="パス 5070" d="M192.037,690.234h3.432a.652.652,0,0,1,.713.582.655.655,0,0,1-.639.716c-.985.011-1.97,0-2.957,0a.2.2,0,0,1-.154-.089C192.3,691.058,192.177,690.665,192.037,690.234Z" transform="translate(-171.002 -690.231)" fill="#fff"/>
      </g>
      <g id="Group_4845" data-name="Group 4845" transform="translate(3.805)">
        <path id="パス_5071" data-name="パス 5071" d="M196.454,689.192c-.4.154-.77.308-1.148.451l-11.623,4.5a.92.92,0,0,1-.328.065c-.616,0-1.248,0-1.873.008a.245.245,0,0,1-.275-.194c-.1-.277-.209-.547-.308-.82a.731.731,0,0,1,.474-1.088q2.477-.965,4.959-1.922l8.322-3.232c.593-.229.914-.083,1.144.511C196.008,688.041,196.228,688.607,196.454,689.192Z" transform="translate(-180.796 -686.856)" fill="#fff" style="isolation: isolate"/>
        <path id="パス_5072" data-name="パス 5072" d="M186.44,692.654l7.735-3,1.177,3.033h-8.907Z" transform="translate(-177.753 -685.347)" fill="#fff" style="isolation: isolate"/>
      </g>
      <path id="パス_5073" data-name="パス 5073" d="M194.736,701.548h-3.88a2.309,2.309,0,0,1-2.155-1.293,2.354,2.354,0,0,1,.893-3.027,2.643,2.643,0,0,1,1.316-.333h7.42a1.54,1.54,0,0,1,1.641,1.431,1.509,1.509,0,0,1,0,.2v1.511a1.5,1.5,0,0,1-.616,1.265,1.159,1.159,0,0,1-.73.248C197.322,701.543,196.029,701.548,194.736,701.548Zm-3.4-1.5a.9.9,0,1,0-.874-.936A.9.9,0,0,0,191.336,700.046Z" transform="translate(-172.926 -681.432)" fill="none"/>
      <path id="パス_5074" data-name="パス 5074" d="M190.637,699.575a.9.9,0,1,1,.937-.874A.9.9,0,0,1,190.637,699.575Z" transform="translate(-172.204 -680.962)" fill="#fff" stroke="#fff" stroke-width="1"/>
    </g>
    <path id="Path_10763" data-name="Path 10763" d="M896.314,716.247a11.145,11.145,0,1,0,11.145,11.145A11.144,11.144,0,0,0,896.314,716.247Zm5.966,12.32h-4.79v4.79a1.141,1.141,0,0,1-2.282,0v-4.79h-4.789a1.14,1.14,0,1,1,0-2.281h4.789V721.5a1.141,1.141,0,0,1,2.282,0v4.79h4.79a1.14,1.14,0,1,1,0,2.281Z" transform="translate(-423.945 -185.095)" fill="#fff"/>
  </g>
</svg>
