<svg id="Group_4245" data-name="Group 4245" xmlns="http://www.w3.org/2000/svg" width="35.375" height="25.005" viewBox="0 0 35.375 25.005">
  <path id="Path_5095" data-name="Path 5095" d="M920.9,160.168H891.558a3.037,3.037,0,0,0-3.016,3.06v18.888a3.036,3.036,0,0,0,3.016,3.057H920.9a3.036,3.036,0,0,0,3.016-3.057V163.228A3.037,3.037,0,0,0,920.9,160.168Zm-18.007,21.876a8.462,8.462,0,1,1,8.345-8.461A8.406,8.406,0,0,1,902.894,182.044Zm16.787-13.54h-3.735v-3.79h3.735Z" transform="translate(-888.542 -160.168)" fill="#777"/>
  <ellipse id="Ellipse_1575" data-name="Ellipse 1575" cx="4.912" cy="4.98" rx="4.912" ry="4.98" transform="translate(9.439 8.434)" fill="#777"/>
</svg>
