<svg xmlns="http://www.w3.org/2000/svg" width="42.882" height="35.829" viewBox="0 0 42.882 35.829">
  <g id="Group_8009" data-name="Group 8009" transform="translate(-520.446 -182.188)">
    <g id="token_3" transform="translate(532.958 187.826)">
      <path id="Path_5588" data-name="Path 5588" d="M273.992,563.979l-3.427-8.274a1.913,1.913,0,1,0-2.777-2.607l-7.982-3.306-10.031,4.155-3.325,8.026a1.92,1.92,0,1,0-.369,3.8,1.853,1.853,0,0,0,.272-.028l3.422,8.261,9.731,4.03.3.125.037-.015,8.1-3.354a1.918,1.918,0,1,0,2.7-2.725Zm-4.7-10.708a1.007,1.007,0,0,1,1.006,1.006.989.989,0,0,1-.127.478,1,1,0,0,1-.775.518.948.948,0,0,1-.1.01,1,1,0,0,1-.542-.161l-.03-.019a1,1,0,0,1-.432-.808c0-.006,0-.012,0-.018a1.016,1.016,0,0,1,1.006-1.006ZM246.08,564.862a.931.931,0,0,1-.1-.01,1,1,0,0,1,.1-2h.005a1.006,1.006,0,0,1-.005,2.011Zm24.218,8.574a1.007,1.007,0,0,1-1.006,1.006.987.987,0,0,1-.343-.065,1,1,0,0,1,.512-1.931c.01,0,.021,0,.031,0a1.016,1.016,0,0,1,.806.986Zm-1.006-1.92c-.032,0-.062.008-.094.01l-1.276-4.466-.086.024-2.1-4.191-.817.41,1.7,3.4-8.326,2.843.3.865,8.505-2.9,1.222,4.278a1.868,1.868,0,0,0-.856,2.214l-6.619,2.743,5.717-8-.744-.532-6.03,8.442-2.231-4.093-.8.438,2.054,3.765-8.334-3.452.116-.109-.078-4.518-.914.016.045,2.605-2.441-5.894a1.992,1.992,0,0,0,.218-.181l2.371,1.683.529-.746-2.422-1.718a1.858,1.858,0,0,0-.622-2.081l3.2-7.719,8.309-3.442-2.525,5.365.828.389,2.877-6.112,7.444,3.084a1.869,1.869,0,0,0-.035.347,1.912,1.912,0,0,0,.551,1.343l-2.547,4,.772.491L268.7,556.1a1.744,1.744,0,0,0,1.049.039l2.937,7.093-7.913-1.978-4-9.453-.841.357,3.731,8.819-6.089-1.522v-.015a1.923,1.923,0,0,0-1.92-1.92,1.9,1.9,0,0,0-1.022.3l-2.966-3-.65.643,2.984,3.019a1.9,1.9,0,0,0-.266.959,1.956,1.956,0,0,0,.022.219l-5.409,2.6.4.824,5.328-2.56a1.925,1.925,0,0,0,1.149.784l.4,6.769.913-.053-.4-6.73a1.917,1.917,0,0,0,1.206-.953l6.2,1.55-6.371,6.852a1.891,1.891,0,0,0-2.236.514l-3.8-2.54,3.387-5.082-.762-.507-3.442,5.163.579.386-.452.678,4.076,2.722a1.913,1.913,0,0,0-.048.417,1.966,1.966,0,0,0,.028.28l-2.922,1.38.39.827,2.878-1.359a1.913,1.913,0,1,0,3.047-2.311l6.665-7.167,7.345,1.836-3.364,1.953.459.791,3.771-2.19-2.931,7.077A1.9,1.9,0,0,0,269.292,571.516Zm-12.626-12.08a1.012,1.012,0,1,1-.026-.22A1.034,1.034,0,0,1,256.666,559.436Zm-.269,10.047a1.006,1.006,0,1,1-1.006,1.006A1.007,1.007,0,0,1,256.4,569.482Z" transform="translate(-244.16 -548.854)" fill="#2fcba7"/>
      <g id="Group_4926" data-name="Group 4926" transform="translate(4.876)">
        <ellipse id="Ellipse_1679" data-name="Ellipse 1679" cx="1.463" cy="1.463" rx="1.463" ry="1.463" transform="translate(9.306)" fill="#2fcba7"/>
        <ellipse id="Ellipse_1680" data-name="Ellipse 1680" cx="1.463" cy="1.463" rx="1.463" ry="1.463" transform="translate(14.095 11.053)" fill="#2fcba7"/>
        <ellipse id="Ellipse_1681" data-name="Ellipse 1681" cx="1.28" cy="1.28" rx="1.28" ry="1.28" transform="translate(16.857 16.762)" fill="#2fcba7"/>
        <ellipse id="Ellipse_1682" data-name="Ellipse 1682" cx="1.207" cy="1.207" rx="1.207" ry="1.207" transform="translate(0.351 16.835)" fill="#2fcba7"/>
        <ellipse id="Ellipse_1683" data-name="Ellipse 1683" cx="1.463" cy="1.463" rx="1.463" ry="1.463" transform="translate(9.306 27.264)" fill="#2fcba7"/>
        <ellipse id="Ellipse_1684" data-name="Ellipse 1684" cx="1.463" cy="1.463" rx="1.463" ry="1.463" transform="translate(22.569 13.632)" fill="#2fcba7"/>
        <ellipse id="Ellipse_1685" data-name="Ellipse 1685" cx="1.097" cy="1.097" rx="1.097" ry="1.097" transform="translate(0 23.485)" fill="#2fcba7"/>
        <ellipse id="Ellipse_1686" data-name="Ellipse 1686" cx="1.097" cy="1.097" rx="1.097" ry="1.097" transform="translate(0 4.326)" fill="#2fcba7"/>
      </g>
    </g>
    <g id="Group_8025" data-name="Group 8025" transform="translate(494.76 380.641) rotate(-45)">
      <path id="Path_10602" data-name="Path 10602" d="M167.28-109.619,166-108.411a10.43,10.43,0,0,0-7.474-3.185,10.5,10.5,0,0,0-7.571,3.058l-1.249-1.225A12.325,12.325,0,0,1,167.28-109.619Z" fill="#2fcba7"/>
      <path id="Path_10603" data-name="Path 10603" d="M174.7-92.135l-1.236,1.264a6.942,6.942,0,0,0-4.985-2.053,6.952,6.952,0,0,0-4.95,2.019l-1.251-1.23A8.771,8.771,0,0,1,174.7-92.135Z" transform="translate(-10.042 -14.905)" fill="#2fcba7"/>
      <path id="Path_10604" data-name="Path 10604" d="M182.115-75.649l-1.233,1.216a3.6,3.6,0,0,0-4.974-.019l-1.236-1.212A5.249,5.249,0,0,1,182.115-75.649Z" transform="translate(-19.942 -28.888)" fill="#2fcba7"/>
    </g>
  </g>
</svg>
