<svg xmlns="http://www.w3.org/2000/svg" width="69" height="48" viewBox="0 0 69 48">
  <g id="icon" transform="translate(1 4)">
    <path id="Path_6506" data-name="Path 6506" d="M1395,322a21.988,21.988,0,1,0,22,22A22.025,22.025,0,0,0,1395,322Zm13.791,37.075A20.432,20.432,0,1,1,1415.443,344,20.361,20.361,0,0,1,1408.791,359.075Z" transform="translate(-1349 -322)" fill="#777"/>
    <g id="Group_7627" data-name="Group 7627">
      <path id="Path_6507" data-name="Path 6507" d="M1413.829,373.889a13.821,13.821,0,0,0-13.791-12.933h0a13.821,13.821,0,0,0-13.791,12.933,20.4,20.4,0,0,0,27.583,0Z" transform="translate(-1354.037 -336.814)" fill="#777"/>
      <circle id="Ellipse_1" data-name="Ellipse 1" cx="7.009" cy="7.009" r="7.009" transform="translate(38.991 8.372)" fill="#777"/>
    </g>
    <circle id="Ellipse_1746" data-name="Ellipse 1746" cx="16" cy="16" r="16" transform="translate(-1 -4)" fill="red"/>
    <path id="Path_10633" data-name="Path 10633" d="M-140.016-238.341h-6.994v-6.994A1.665,1.665,0,0,0-148.676-247a1.665,1.665,0,0,0-1.665,1.665v6.994h-6.994A1.665,1.665,0,0,0-159-236.676a1.665,1.665,0,0,0,1.665,1.665h6.994v6.994a1.665,1.665,0,0,0,1.665,1.665,1.665,1.665,0,0,0,1.665-1.665v-6.994h6.994a1.665,1.665,0,0,0,1.665-1.665A1.665,1.665,0,0,0-140.016-238.341Z" transform="translate(-46.9 284.809) rotate(45)" fill="#fff"/>
  </g>
</svg>
