<svg xmlns="http://www.w3.org/2000/svg" width="20" height="20" viewBox="0 0 20 20">
  <g id="icon" transform="translate(284.657 -207.355)">
    <path id="Path_147" data-name="Path 147" d="M-272.284,210.649h0a.565.565,0,0,0-.8.026l-3.409,3.642a1.464,1.464,0,0,0-.66-.157,1.47,1.47,0,0,0-1.034.423l-2.252-1.672a.564.564,0,0,0-.792.117h0a.567.567,0,0,0,.117.792l2.491,1.849a1.472,1.472,0,0,0,1.471,1.435,1.473,1.473,0,0,0,1.472-1.472,1.508,1.508,0,0,0-.071-.451l3.5-3.732A.566.566,0,0,0-272.284,210.649Z" transform="translate(2.635 2.318)" fill="#666"/>
    <path id="Path_148" data-name="Path 148" d="M-274.657,227.355a10.011,10.011,0,0,1-10-10,10.012,10.012,0,0,1,10-10,10.012,10.012,0,0,1,10,10A10.011,10.011,0,0,1-274.657,227.355Zm0-18.772a8.782,8.782,0,0,0-8.773,8.772,8.783,8.783,0,0,0,8.773,8.774,8.784,8.784,0,0,0,8.774-8.774A8.783,8.783,0,0,0-274.657,208.583Z" fill="#666"/>
  </g>
</svg>
