<svg xmlns="http://www.w3.org/2000/svg" width="68.467" height="48" viewBox="0 0 68.467 48">
  <g id="icon" transform="translate(1 4)">
    <g id="Group_6655" data-name="Group 6655">
      <g id="Ellipse_1745" data-name="Ellipse 1745" transform="translate(24.467)" fill="#fff" stroke="#cbcbcb" stroke-width="1">
        <ellipse cx="21.5" cy="22" rx="21.5" ry="22" stroke="none"/>
        <ellipse cx="21.5" cy="22" rx="21" ry="21.5" fill="none"/>
      </g>
      <g id="ごみ箱" transform="translate(-1754.5 -248.5)">
        <path id="Path_2600" data-name="Path 2600" d="M1801.841,288.505c-3.283,0-6.138-.811-7.594-2l.269,2.305a6.276,6.276,0,0,0,.779.569,12.763,12.763,0,0,0,6.566,1.611,14.175,14.175,0,0,0,5.173-.914,8.375,8.375,0,0,0,1.724-.915l.637-2.622C1807.927,287.71,1805.1,288.505,1801.841,288.505Z" transform="translate(-0.96 -6.229)" fill="#b3b3b3"/>
        <path id="Path_2601" data-name="Path 2601" d="M1801.179,257.674a38.3,38.3,0,0,0-11.33,1.489l.361,2.539,2.291,16.068.176,1.231.129.91a3.645,3.645,0,0,0,.512.5c1.456,1.194,4.311,2,7.594,2,3.254,0,6.086-.8,7.554-1.971a3.641,3.641,0,0,0,.6-.6l.121-.846.167-1.167,2.252-15.8.4-2.8A35.245,35.245,0,0,0,1801.179,257.674Z" transform="translate(-0.031 -0.142)" fill="#e6e6e6"/>
        <path id="Path_2602" data-name="Path 2602" d="M1790.046,259.079a5.868,5.868,0,0,0,.579.263c2.008.792,5.875,1.328,10.318,1.328s8.31-.536,10.317-1.328a5.7,5.7,0,0,0,.579-.263c-1.577-1.024-5.86-1.758-10.9-1.758S1791.624,258.055,1790.046,259.079Z" transform="translate(-0.072 -0.068)" fill="none"/>
        <path id="Path_2603" data-name="Path 2603" d="M1800.877,257.321c-5.331,0-9.817.823-11.146,1.94a4.794,4.794,0,0,0,.828.435c1.9-.921,5.807-1.552,10.318-1.552s8.418.631,10.317,1.552a4.732,4.732,0,0,0,.828-.435C1810.693,258.144,1806.207,257.321,1800.877,257.321Z" transform="translate(-0.006 -0.068)" fill="#999"/>
        <path id="Path_2604" data-name="Path 2604" d="M1789.725,258.868c.077.049.16.1.249.144,1.578-1.024,5.86-1.758,10.9-1.758s9.32.734,10.9,1.758c.089-.047.172-.095.249-.144l.009.008v-.009c-1.581-1.085-5.978-1.866-11.154-1.866-5.192,0-9.6.786-11.168,1.876l0,.009Z" fill="#b3b3b3"/>
        <path id="Path_2605" data-name="Path 2605" d="M1812.016,259.368c-.076.049-.159.1-.249.144a5.676,5.676,0,0,1-.579.263c-2.008.792-5.875,1.328-10.317,1.328s-8.311-.536-10.318-1.328a5.871,5.871,0,0,1-.579-.263c-.088-.047-.172-.095-.249-.144l-.021.017.049.286.205,1.191a12.117,12.117,0,0,0,3.281.987,42.082,42.082,0,0,0,6.991.608h.036l.254,0h.7l.254,0h.035a42.076,42.076,0,0,0,6.992-.608l.188-.036a10.908,10.908,0,0,0,3.231-1.029l.081-1.1.023-.306Z" transform="translate(-0.001 -0.5)" fill="#b3b3b3"/>
      </g>
      <g id="ON" transform="translate(5.067 -4)">
        <circle id="Ellipse_1746" data-name="Ellipse 1746" cx="16" cy="16" r="16" transform="translate(-6.067)" fill="red"/>
        <path id="Path_10633" data-name="Path 10633" d="M-140.016-238.341h-6.994v-6.994A1.665,1.665,0,0,0-148.676-247a1.665,1.665,0,0,0-1.665,1.665v6.994h-6.994A1.665,1.665,0,0,0-159-236.676a1.665,1.665,0,0,0,1.665,1.665h6.994v6.994a1.665,1.665,0,0,0,1.665,1.665,1.665,1.665,0,0,0,1.665-1.665v-6.994h6.994a1.665,1.665,0,0,0,1.665-1.665A1.665,1.665,0,0,0-140.016-238.341Z" transform="translate(-51.968 288.809) rotate(45)" fill="#fff"/>
      </g>
    </g>
  </g>
</svg>
