<svg xmlns="http://www.w3.org/2000/svg" width="57.041" height="39.139" viewBox="0 0 57.041 39.139">
  <g id="icon" transform="translate(1 4)">
    <g id="Group_7434" data-name="Group 7434" transform="translate(20.494 -0.408)">
      <path id="Path_10957" data-name="Path 10957" d="M396.9-286.643H363.5a1.074,1.074,0,0,1-1.074-1.074v-33.4a1.074,1.074,0,0,1,1.074-1.074h33.4a1.074,1.074,0,0,1,1.074,1.074v33.4A1.074,1.074,0,0,1,396.9-286.643Zm-31.541-2.932h29.684v-29.683H365.362Z" transform="translate(-362.431 322.19)" fill="#777"/>
      <path id="Path_10958" data-name="Path 10958" d="M387.178-286.843h-9.6a1.443,1.443,0,0,1-1.466-1.42h0a1.443,1.443,0,0,1,1.466-1.42h9.6a1.444,1.444,0,0,1,1.466,1.42h0A1.444,1.444,0,0,1,387.178-286.843Z" transform="translate(-368.339 308.151)" fill="#777"/>
      <path id="Path_10959" data-name="Path 10959" d="M394.434-275.555H377.577a1.443,1.443,0,0,1-1.466-1.42h0a1.443,1.443,0,0,1,1.466-1.42h16.857a1.444,1.444,0,0,1,1.466,1.42h0A1.444,1.444,0,0,1,394.434-275.555Z" transform="translate(-368.339 303.276)" fill="#777"/>
      <g id="Group_7433" data-name="Group 7433" transform="translate(6.666 6.556)">
        <path id="Path_10960" data-name="Path 10960" d="M375.1-304.018h-.938v-6.517h1.327l2.171,4.711v-4.711h.924v6.517H377.5l-2.4-5.269Z" transform="translate(-374.164 310.6)" fill="#777"/>
        <path id="Path_10961" data-name="Path 10961" d="M387.171-307.649V-307h-2.291v2.319h2.814v.661h-3.859v-6.517h3.859v.661h-2.814v2.225Z" transform="translate(-378.34 310.6)" fill="#777"/>
        <path id="Path_10962" data-name="Path 10962" d="M394.644-304.018H393.21l-1.286-6.517h1.018l1.1,5.549,1.045-5.54h1.032l1.032,5.549,1.058-5.558h.911l-1.273,6.517h-1.38l-.9-4.422Z" transform="translate(-381.834 310.6)" fill="#777"/>
        <path id="Path_10963" data-name="Path 10963" d="M410.022-309.021v.177h-.991v-.214c0-.587-.322-.931-1.072-.931s-1.072.344-1.072.921c0,1.462,3.149,1.6,3.149,3.435,0,.987-.683,1.629-2.117,1.629s-2.1-.643-2.1-1.629V-306h.978v.41c0,.586.348.931,1.1.931s1.1-.345,1.1-.931c0-1.453-3.135-1.592-3.135-3.426,0-1.006.67-1.629,2.077-1.629S410.022-310.007,410.022-309.021Z" transform="translate(-387.833 310.65)" fill="#777"/>
      </g>
    </g>
    <circle id="Ellipse_1746" data-name="Ellipse 1746" cx="13" cy="13" r="13" transform="translate(-1 -4)" fill="red"/>
    <path id="Path_10633" data-name="Path 10633" d="M15.693,7.158H9.912V1.377a1.377,1.377,0,1,0-2.753,0V7.158H1.377a1.377,1.377,0,0,0,0,2.753H7.158v5.782a1.377,1.377,0,0,0,2.753,0V9.912h5.782a1.377,1.377,0,1,0,0-2.753Z" transform="translate(12.495 -2.575) rotate(45)" fill="#fff"/>
  </g>
</svg>
