<svg xmlns="http://www.w3.org/2000/svg" width="32" height="32" viewBox="0 0 32 32">
  <path id="Path_11934" data-name="Path 11934" d="M16,0A16,16,0,1,1,5.844,28.364,15.82,15.82,0,0,1,0,16,16.131,16.131,0,0,1,4.069,5.339,15.8,15.8,0,0,1,16,0Z" fill="red"/>
  <path id="Path_10633" data-name="Path 10633" d="M-140.016-238.341h-6.994v-6.994A1.665,1.665,0,0,0-148.676-247a1.665,1.665,0,0,0-1.665,1.665v6.994h-6.994A1.665,1.665,0,0,0-159-236.676a1.665,1.665,0,0,0,1.665,1.665h6.994v6.994a1.665,1.665,0,0,0,1.665,1.665,1.665,1.665,0,0,0,1.665-1.665v-6.994h6.994a1.665,1.665,0,0,0,1.665-1.665A1.665,1.665,0,0,0-140.016-238.341Z" transform="translate(-47.624 287.085) rotate(45)" fill="#fff"/>
</svg>

