<svg xmlns="http://www.w3.org/2000/svg" width="45.132" height="36.105" viewBox="0 0 45.132 36.105">
  <g id="Close" transform="translate(-1083.953 -905)">
    <path id="Path_10952" data-name="Path 10952" d="M1197.133,1025.881a1.224,1.224,0,0,0-1.393,1.331v4.876a1.395,1.395,0,0,0,2.787,0v-4.876A1.216,1.216,0,0,0,1197.133,1025.881Z" transform="translate(-90.766 -98.149)" fill="#fff"/>
    <path id="Path_10953" data-name="Path 10953" d="M1118.846,920.608l-10.234-10.9a2.82,2.82,0,1,0-4.024.164l-10.4,10.736h-10.239v20.5h45.132v-20.5Zm-13.272-10.133a2.788,2.788,0,0,0,2.123-.094l9.6,10.227h-21.535Zm-8.641,19.47h-1.243v-.883a1.377,1.377,0,0,0-2.753,0v4.876a1.377,1.377,0,0,0,2.753,0v-1.2h1.243v1.147c0,1.4-.839,2.32-2.653,2.32-1.8,0-2.636-.923-2.636-2.32v-4.771c0-1.4.839-2.32,2.636-2.32,1.813,0,2.653.923,2.653,2.32Zm5.859,6.168h-4.667v-9.225h1.31v8.29h3.358Zm6.279-2.227c0,1.4-.89,2.32-2.7,2.32-1.8,0-2.686-.923-2.686-2.32v-4.771c0-1.41.89-2.32,2.686-2.32,1.813,0,2.7.909,2.7,2.32Zm3.694,2.32c-1.8,0-2.636-.909-2.636-2.306v-.527h1.226v.58a1.378,1.378,0,0,0,2.753,0c0-2.056-3.928-2.254-3.928-4.85,0-1.423.84-2.306,2.6-2.306,1.78,0,2.619.909,2.619,2.306v.25h-1.242v-.3a1.343,1.343,0,0,0-2.686-.013c0,2.069,3.945,2.267,3.945,4.863C1115.417,935.3,1114.561,936.206,1112.765,936.206Zm8.63-8.382h-3.526v3.15h2.871v.922h-2.871v3.282h3.526v.936h-4.835v-9.225h4.835Z" fill="#fff"/>
  </g>
</svg>
