<svg xmlns="http://www.w3.org/2000/svg" width="50.022" height="40.018" viewBox="0 0 50.022 40.018">
  <g id="Close" transform="translate(-1083.953 -905)">
    <path id="Path_10952" data-name="Path 10952" d="M1197.284,1025.881a1.356,1.356,0,0,0-1.544,1.475v5.4a1.546,1.546,0,0,0,3.089,0v-5.4A1.348,1.348,0,0,0,1197.284,1025.881Z" transform="translate(-88.488 -95.686)" fill="red"/>
    <path id="Path_10953" data-name="Path 10953" d="M1122.626,922.3l-11.343-12.081a3.126,3.126,0,1,0-4.46.182L1095.3,922.3h-11.349v22.718h50.022V922.3Zm-14.71-11.23a3.091,3.091,0,0,0,2.353-.1l10.642,11.335h-23.869Zm-9.578,21.58h-1.377v-.979a1.527,1.527,0,0,0-3.052,0v5.4a1.527,1.527,0,0,0,3.052,0v-1.329h1.377v1.271c0,1.548-.93,2.571-2.94,2.571-1.991,0-2.922-1.023-2.922-2.571v-5.288c0-1.548.93-2.571,2.922-2.571,2.01,0,2.94,1.023,2.94,2.571Zm6.495,6.836h-5.173V929.26h1.451v9.188h3.722Zm6.96-2.469c0,1.548-.986,2.571-3,2.571-1.991,0-2.977-1.023-2.977-2.571v-5.288c0-1.563.987-2.571,2.977-2.571,2.01,0,3,1.008,3,2.571Zm4.094,2.571c-1.991,0-2.922-1.008-2.922-2.556v-.584h1.359v.643a1.527,1.527,0,0,0,3.052,0c0-2.279-4.354-2.5-4.354-5.375,0-1.577.931-2.556,2.884-2.556,1.973,0,2.9,1.008,2.9,2.556v.278h-1.377v-.336a1.489,1.489,0,0,0-2.977-.015c0,2.293,4.373,2.513,4.373,5.39C1118.827,938.579,1117.878,939.587,1115.887,939.587Zm9.565-9.29h-3.908v3.491h3.182v1.022h-3.182v3.637h3.908v1.037h-5.359V929.26h5.359Z" fill="red"/>
  </g>
</svg>
