<svg xmlns="http://www.w3.org/2000/svg" width="19.962" height="19.925" viewBox="0 0 19.962 19.925">
  <g id="コピーボタン" transform="translate(-1179.642 -527.011)" opacity="0.942">
    <path id="Path_5383" data-name="Path 5383" d="M1191.047,530.752a33.094,33.094,0,0,1,2.4-2.532,4.747,4.747,0,0,1,6.5.15,4.673,4.673,0,0,1,.092,6.4,75.428,75.428,0,0,1-5.38,5.408,4.753,4.753,0,0,1-6.154.247c-.654-.537-1.013-1.185-.435-1.918.528-.669,1.231-.557,1.873-.068a2.183,2.183,0,0,0,3.008-.052c1.81-1.671,3.556-3.418,5.238-5.219a2.176,2.176,0,0,0-.015-3.085,2.068,2.068,0,0,0-2.97-.1c-.982.967-1.9,1.407-3.216.825A2.794,2.794,0,0,0,1191.047,530.752Z" transform="translate(-1.647 0)" fill="#9a9a9a"/>
    <path id="Path_5384" data-name="Path 5384" d="M1189.6,545.085c-1.267,1.344-2.375,2.736-4.187,3.189a4.615,4.615,0,0,1-4.7-7.43,64.97,64.97,0,0,1,5.385-5.412,4.754,4.754,0,0,1,5.887-.162c.674.511,1.071,1.14.566,1.9s-1.212.646-1.939.148a2.24,2.24,0,0,0-3.107.116q-2.445,2.289-4.735,4.741a2.192,2.192,0,0,0-.037,3.176,2.125,2.125,0,0,0,3.07-.007,2.063,2.063,0,0,1,2.461-.5A9.73,9.73,0,0,0,1189.6,545.085Z" transform="translate(0 -1.483)" fill="#9a9a9a"/>
  </g>
</svg>
