<svg xmlns="http://www.w3.org/2000/svg" width="77" height="78" viewBox="0 0 77 78">
  <g id="Group_4686" data-name="Group 4686" transform="translate(-0.225 -0.183)">
    <rect id="Rectangle_3912" data-name="Rectangle 3912" width="77" height="78" transform="translate(0.225 0.183)" fill="#777"/>
    <g id="icon" transform="translate(15.149 21.542)">
      <path id="Path_6112" data-name="Path 6112" d="M242.595,278.145v-7.569l-3.048-18.62a.978.978,0,0,1,.806-1.122l2.7-.44a2.926,2.926,0,0,1,2.472-1.363h5.859l22.369-3.662a1.051,1.051,0,0,1,.159-.013.978.978,0,0,1,.963.819l.468,2.855h1.981l-.519-3.171a2.938,2.938,0,0,0-3.368-2.419l-33.4,5.465a2.937,2.937,0,0,0-2.419,3.366l4.229,25.843a2.93,2.93,0,0,0,1.725,2.21A2.914,2.914,0,0,1,242.595,278.145Z" transform="translate(-237.58 -243.402)" fill="#f2f2f2"/>
      <path id="Path_6113" data-name="Path 6113" d="M277.467,278.107H242.878a2.935,2.935,0,0,1-2.929-2.932V248.99a2.933,2.933,0,0,1,2.929-2.929h34.589a2.933,2.933,0,0,1,2.929,2.929v26.186A2.935,2.935,0,0,1,277.467,278.107Zm-34.589-30.093a.977.977,0,0,0-.976.976v26.186a.977.977,0,0,0,.976.976h34.589a.977.977,0,0,0,.976-.976V248.99a.977.977,0,0,0-.976-.976Z" transform="translate(-234.934 -240.432)" fill="#f2f2f2"/>
      <path id="Path_6114" data-name="Path 6114" d="M242.349,264.542l6.937-6.937,3.322,3.322,10.943-10.943,8.989,8.989v9.673h-30.19Z" transform="translate(-232.254 -236.051)" fill="#f2f2f2"/>
      <ellipse id="Ellipse_1723" data-name="Ellipse 1723" cx="3.81" cy="3.81" rx="3.81" ry="3.81" transform="translate(10.486 11.099)" fill="#f2f2f2"/>
    </g>
  </g>
</svg>
