<svg xmlns="http://www.w3.org/2000/svg" width="150.339" height="124.588" viewBox="0 0 150.339 124.588">
  <g id="icon" transform="translate(0 0)">
    <path id="Path_6112" data-name="Path 6112" d="M254.163,358.3V333.264l-10.079-61.576a3.236,3.236,0,0,1,2.667-3.71l8.924-1.456a9.676,9.676,0,0,1,8.175-4.508h19.375L357.2,249.906a3.463,3.463,0,0,1,.525-.042,3.234,3.234,0,0,1,3.185,2.709l1.547,9.442h6.552l-1.715-10.485a9.715,9.715,0,0,0-11.136-8L245.708,261.6a9.712,9.712,0,0,0-8,11.129l13.985,85.458a9.688,9.688,0,0,0,5.7,7.308A9.638,9.638,0,0,1,254.163,358.3Z" transform="translate(-237.58 -243.402)" fill="#f2f2f2"/>
    <path id="Path_6113" data-name="Path 6113" d="M364.017,352.035H249.636a9.706,9.706,0,0,1-9.687-9.694V255.748a9.7,9.7,0,0,1,9.687-9.688H364.017a9.7,9.7,0,0,1,9.687,9.688v86.592A9.706,9.706,0,0,1,364.017,352.035ZM249.636,252.522a3.232,3.232,0,0,0-3.227,3.227v86.592a3.232,3.232,0,0,0,3.227,3.227H364.017a3.232,3.232,0,0,0,3.227-3.227V255.748a3.232,3.232,0,0,0-3.227-3.227Z" transform="translate(-223.365 -227.447)" fill="#f2f2f2"/>
    <path id="Path_6114" data-name="Path 6114" d="M242.349,298.125l22.94-22.94,10.985,10.985,36.186-36.186,29.725,29.725v31.986H242.349Z" transform="translate(-208.966 -203.911)" fill="#f2f2f2"/>
    <ellipse id="Ellipse_1723" data-name="Ellipse 1723" cx="12.601" cy="12.601" rx="12.601" ry="12.601" transform="translate(34.675 36.704)" fill="#f2f2f2"/>
  </g>
</svg>
