<svg xmlns="http://www.w3.org/2000/svg" width="29.453" height="29.863" viewBox="0 0 29.453 29.863">
  <g id="ゴミ箱" transform="translate(-106.678 -520.155)">
    <path id="Path_5808" data-name="Path 5808" d="M108.678,525.214c3.712-3.838,10.612-4.958,14.519,1.972l2.143-.952-2.334,6.659-5.93-2.755,2.331-1.15a6.8,6.8,0,0,0-4.262-4.568C112.98,523.7,110.914,524.329,108.678,525.214Z" transform="translate(-2 -2)" fill="#fff"/>
    <path id="Path_5809" data-name="Path 5809" d="M174.528,534.975c1.876-1.13,2.126-1.109,2.968.216,1.288,2.028,1.284,2.051-.693,3.379.912,1.449,1.831,2.9,2.742,4.361a2.936,2.936,0,0,1,.59,1.075c.041.428-.076,1.155-.331,1.262a1.5,1.5,0,0,1-1.39-.223,25.477,25.477,0,0,1-1.85-2.8q-3.426-5.418-6.847-10.84c-.089-.141-.178-.281-.263-.424-.363-.611-.415-1.208.258-1.617a1.056,1.056,0,0,1,1.578.465Z" transform="translate(-44.012 -3.911)" fill="#fff"/>
    <path id="Path_5810" data-name="Path 5810" d="M141.6,561.158H125.532a1.042,1.042,0,0,0-1.032,1.185l2.215,16.057a1.042,1.042,0,0,0,1.032.9h11.634a1.042,1.042,0,0,0,1.032-.9l2.215-16.057A1.042,1.042,0,0,0,141.6,561.158ZM129.7,576.9a1.1,1.1,0,0,1-1.223-.949l-1.389-11.016a1.095,1.095,0,1,1,2.172-.274l1.389,11.017A1.094,1.094,0,0,1,129.7,576.9Zm4.955-1.2a1.095,1.095,0,1,1-2.189,0V564.755a1.095,1.095,0,1,1,2.189,0Zm5.378-10.767-1.389,11.016a1.095,1.095,0,0,1-2.172-.274l1.389-11.017a1.095,1.095,0,1,1,2.172.274Z" transform="translate(-11.361 -29.281)" fill="#fff"/>
  </g>
</svg>
