<svg xmlns="http://www.w3.org/2000/svg" width="35" height="35" viewBox="0 0 35 35">
  <g id="Null" transform="translate(-525.891 -522.08)">
    <circle id="楕円形_1706" data-name="楕円形 1706" cx="17.5" cy="17.5" r="17.5" transform="translate(525.891 522.08)" fill="#65696f"/>
    <path id="パス_5738" data-name="パス 5738" d="M-335.209,512.988c-1.857,1.817-4.214,2.7-6,2a7.328,7.328,0,0,1-3-3,10.723,10.723,0,0,1-.8-1.518.8.8,0,0,0-.738-.477h-3.8a8.3,8.3,0,0,1,1.349-5,7.2,7.2,0,0,1,4-3,10.862,10.862,0,0,0-4-1,11.665,11.665,0,0,0-10,5,11.444,11.444,0,0,0-2,7c.019.339.065.652.11.963l2.58-.861a2.732,2.732,0,0,1,.636-.134,13.566,13.566,0,0,1,6.682,1.031,9.649,9.649,0,0,1,3,2c.8.805,2.479,2.483,2,4-.425,1.344-2.307,1.823-3,2a6.118,6.118,0,0,1-2.367.121,1.057,1.057,0,0,0-1.025.468l-1.41,2.113a.318.318,0,0,0,.089.441l.032.019a12.872,12.872,0,0,0,11.68-.159,12.355,12.355,0,0,0,6-9A11.53,11.53,0,0,0-335.209,512.988Z" transform="translate(891.061 25.844)" fill="#fff"/>
  </g>
</svg>
