<svg xmlns="http://www.w3.org/2000/svg" width="56.474" height="20.985" viewBox="0 0 56.474 20.985">
  <g id="再生中" transform="translate(-265 -131.999)">
    <path id="Path_11486" data-name="Path 11486" d="M1384.51-1153.017l-16.964-9.794a.7.7,0,0,0-1.047.6v19.587a.7.7,0,0,0,1.047.6l16.964-9.794A.7.7,0,0,0,1384.51-1153.017Z" transform="translate(-1063.386 1294.904)" fill="#00be85"/>
    <path id="Path_11485" data-name="Path 11485" d="M1351.011-1153.017l-16.964-9.794a.7.7,0,0,0-1.047.6v19.587a.7.7,0,0,0,1.047.6l16.964-9.794A.7.7,0,0,0,1351.011-1153.017Z" transform="translate(-1048.943 1294.904)" fill="#00be85" opacity="0.701"/>
    <path id="Path_11484" data-name="Path 11484" d="M1317.51-1153.017l-16.964-9.794a.7.7,0,0,0-1.047.6v19.587a.7.7,0,0,0,1.047.6l16.964-9.794A.7.7,0,0,0,1317.51-1153.017Z" transform="translate(-1034.5 1294.904)" fill="#00be85" opacity="0.546"/>
  </g>
</svg>
