<svg xmlns="http://www.w3.org/2000/svg" width="33.844" height="46.64" viewBox="0 0 33.844 46.64">
  <path id="Path_11431" data-name="Path 11431" d="M81.6,158.451c-.051,3.077.3,6.023,2.018,8.645a7.644,7.644,0,0,0,1.741,1.936l.156-.045a3.727,3.727,0,0,0-.013-.925,29.239,29.239,0,0,1-.564-7.379c-.016-6.581,2.908-11.655,8.042-15.577.673-.513,1.406-.944,2.114-1.413a1.011,1.011,0,0,1,.191-.07c-.195.845-.44,1.658-.564,2.487a8.391,8.391,0,0,0,1.84,6.409,23.54,23.54,0,0,0,4.907,4.525,27.5,27.5,0,0,1,5.057,4.6,16.207,16.207,0,0,1,3.689,11.077,18.126,18.126,0,0,1-.937,6.438c-2.519,6.023-6.98,9.812-13.45,10.886-9.518,1.578-18.23-5.727-19.253-14.843a21.486,21.486,0,0,1,1.11-10.488,19.626,19.626,0,0,1,3.342-5.772q.206-.234.421-.459C81.468,158.467,81.51,158.471,81.6,158.451Zm3.026,22.477c3.979,4.018,9.273,5.335,14.595,2.784a12.381,12.381,0,0,0,6.655-13.421c-1.132-4.847-5.06-8.638-8.46-9.215,1.833,3.077,3.173,6.186,2.487,9.805-.628,3.31-3.46,7.624-5.574,8.323.7-2.417,1.5-4.809.944-7.407A13.1,13.1,0,0,1,84.628,180.928Z" transform="translate(-76.386 -143.624)" fill="red"/>
</svg>
