<svg xmlns="http://www.w3.org/2000/svg" width="22.574" height="31.109" viewBox="0 0 22.574 31.109">
  <path id="Path_10570" data-name="Path 10570" d="M79.865,153.514a9.834,9.834,0,0,0,1.346,5.766,5.1,5.1,0,0,0,1.161,1.291l.1-.03a2.486,2.486,0,0,0-.009-.617A19.5,19.5,0,0,1,82.092,155a12.514,12.514,0,0,1,5.364-10.39c.449-.342.938-.63,1.41-.942a.675.675,0,0,1,.128-.047c-.13.564-.294,1.106-.376,1.659a5.6,5.6,0,0,0,1.227,4.275,15.7,15.7,0,0,0,3.273,3.018,18.344,18.344,0,0,1,3.373,3.069,10.811,10.811,0,0,1,2.461,7.389,12.09,12.09,0,0,1-.625,4.294,11.293,11.293,0,0,1-21.814-2.639,14.331,14.331,0,0,1,.74-7,13.091,13.091,0,0,1,2.229-3.85q.137-.156.281-.306C79.776,153.525,79.8,153.527,79.865,153.514Zm2.018,14.993a8.16,8.16,0,0,0,9.735,1.857,8.258,8.258,0,0,0,4.439-8.952c-.755-3.233-3.375-5.762-5.643-6.147,1.223,2.052,2.116,4.126,1.659,6.54-.419,2.208-2.308,5.085-3.718,5.551a9.926,9.926,0,0,0,.63-4.941A8.739,8.739,0,0,1,81.884,168.507Z" transform="translate(-76.386 -143.624)" fill="#fff"/>
</svg>
