<svg xmlns="http://www.w3.org/2000/svg" width="24.863" height="24.872" viewBox="0 0 24.863 24.872">
  <path id="Path_11059" data-name="Path 11059" d="M93.913,200.817a12.372,12.372,0,0,0-2.375-6.7,12.709,12.709,0,0,0-.832-1.024,12.416,12.416,0,0,0-8.51-4.074c-.235-.012-.836-.021-.707-.021q-.315,0-.625.016A12.417,12.417,0,0,0,72.27,193.1a12.7,12.7,0,0,0-.831,1.024,12.365,12.365,0,0,0-2.376,6.7c-.011.207-.008,1.1.006,1.331a12.37,12.37,0,0,0,2.37,6.615,12.432,12.432,0,0,0,9.425,5.1c.207.011,1.1.008,1.332-.006a12.412,12.412,0,0,0,8.51-4.074,12.542,12.542,0,0,0,.832-1.024,12.37,12.37,0,0,0,2.37-6.615C93.921,201.914,93.924,201.024,93.913,200.817Zm-17.329-9.34a10.49,10.49,0,0,0-.953,1.281,13.031,13.031,0,0,0-.993,1.9,11.1,11.1,0,0,1-1.312-.743A11.176,11.176,0,0,1,76.584,191.476Zm-4.094,3.462c.1.071.207.142.315.211a12.726,12.726,0,0,0,1.371.755,17.823,17.823,0,0,0-.833,4.913H70.4A11.04,11.04,0,0,1,72.49,194.938Zm0,13.006a11.04,11.04,0,0,1-2.085-5.8h2.943a17.837,17.837,0,0,0,.829,4.83,12.726,12.726,0,0,0-1.371.755C72.7,207.8,72.593,207.873,72.49,207.944Zm.837,1.024a10.967,10.967,0,0,1,1.312-.744,13.043,13.043,0,0,0,.993,1.9,10.638,10.638,0,0,0,.953,1.281A11.176,11.176,0,0,1,73.327,208.968Zm7.538,3.534c-2.075-.309-3.884-2.134-5-4.791a16.416,16.416,0,0,1,5-.933Zm0-7.057a17.588,17.588,0,0,0-5.458,1.021,16.627,16.627,0,0,1-.725-4.318h6.183Zm0-4.629H74.676a16.733,16.733,0,0,1,.73-4.4,17.617,17.617,0,0,0,5.458,1.021Zm0-4.713a16.416,16.416,0,0,1-5-.933c1.12-2.657,2.93-4.483,5-4.791Zm8.786-2.189a11.023,11.023,0,0,1-1.312.743,13.027,13.027,0,0,0-.992-1.9,10.591,10.591,0,0,0-.953-1.281A11.159,11.159,0,0,1,89.651,193.915Zm-7.454,6.9v-3.384a17.606,17.606,0,0,0,5.376-1.017,16.694,16.694,0,0,1,.729,4.4Zm6.1,1.331a16.708,16.708,0,0,1-.725,4.318A17.577,17.577,0,0,0,82.2,205.45v-3.3Zm-1.18-6.977a16.384,16.384,0,0,1-4.921.929v-5.708C84.237,190.735,86.013,192.55,87.118,195.171ZM82.2,212.491v-5.709a16.384,16.384,0,0,1,4.921.93C86.013,210.332,84.237,212.147,82.2,212.491Zm4.2-1.085a10.741,10.741,0,0,0,.953-1.281,13.039,13.039,0,0,0,.992-1.9,10.893,10.893,0,0,1,1.312.744A11.159,11.159,0,0,1,86.394,211.406Zm4.094-3.462c-.1-.071-.208-.143-.316-.211a12.635,12.635,0,0,0-1.371-.755,17.8,17.8,0,0,0,.829-4.83h2.944A11.048,11.048,0,0,1,90.488,207.944Zm-.854-7.127A17.859,17.859,0,0,0,88.8,195.9a12.635,12.635,0,0,0,1.371-.755c.108-.069.212-.14.316-.211a11.039,11.039,0,0,1,2.091,5.879Z" transform="translate(-69.057 -189)" fill="#919191"/>
</svg>
