<svg xmlns="http://www.w3.org/2000/svg" width="26.706" height="25.802" viewBox="0 0 26.706 25.802">
  <g id="Group_6600" data-name="Group 6600" transform="translate(82.188 227.72)">
    <path id="Path_10634" data-name="Path 10634" d="M-78.826-178.8c-.232-.064-.467-.117-.7-.193a3.384,3.384,0,0,1-2.571-2.881,31.667,31.667,0,0,1-.011-4.742,3.053,3.053,0,0,1,1.27-2.15c1.494-1.228,3.014-2.425,4.474-3.691A5.657,5.657,0,0,1-72-193.58a.818.818,0,0,1,.429.289c.368.38.7.8,1.079,1.164a2.319,2.319,0,0,0,3.252.008,1.635,1.635,0,0,0,.334-.355c.814-1.434,2.149-1.284,3.413-1a5.617,5.617,0,0,1,2.1,1.043c1.553,1.184,3.036,2.459,4.543,3.7a3.389,3.389,0,0,1,1.3,2.47,28,28,0,0,1,0,4.025,3.61,3.61,0,0,1-3.136,3.33.945.945,0,0,0-.214.1Zm9.95-8.718c-3.134,0-6.268,0-9.4,0a1.635,1.635,0,0,0-1.815,1.811c-.009,1-.014,1.994,0,2.991a1.609,1.609,0,0,0,1.741,1.757q9.494.009,18.988,0a1.606,1.606,0,0,0,1.722-1.714c.019-.956.009-1.913,0-2.869-.006-1.385-.59-1.976-1.96-1.977Q-64.236-187.523-68.876-187.519Z" transform="translate(0 -23.116)" fill="#fff"/>
    <path id="Path_10635" data-name="Path 10635" d="M-51.825-227.72a1.435,1.435,0,0,1,.733,1.468c-.033,1.888-.012,2.08-.012,4.058.59,0,1.131.011,1.672,0a1,1,0,0,1,1.045.58.992.992,0,0,1-.256,1.165c-1.215,1.342-2.42,2.694-3.639,4.032a.975.975,0,0,1-1.66-.006c-1.234-1.353-2.453-2.718-3.678-4.079a.958.958,0,0,1-.206-1.121.965.965,0,0,1,.987-.571c.546.007,1.092,0,1.728,0v-.755c0-1.689.026-1.681-.013-3.37a1.4,1.4,0,0,1,.734-1.4Z" transform="translate(-15.757 0)" fill="#fff"/>
    <path id="Path_10636" data-name="Path 10636" d="M-24.274-167.467a1.181,1.181,0,0,1-1.169-1.215,1.164,1.164,0,0,1,1.194-1.124,1.164,1.164,0,0,1,1.2,1.18A1.166,1.166,0,0,1-24.274-167.467Z" transform="translate(-36.854 -38.609)" fill="#fff"/>
    <path id="Path_10637" data-name="Path 10637" d="M-34.713-168.635a1.117,1.117,0,0,1-1.2,1.164,1.117,1.117,0,0,1-1.128-1.175,1.115,1.115,0,0,1,1.2-1.164A1.11,1.11,0,0,1-34.713-168.635Z" transform="translate(-29.322 -38.606)" fill="#fff"/>
  </g>
</svg>
