<svg xmlns="http://www.w3.org/2000/svg" width="60.983" height="41.377" viewBox="0 0 60.983 41.377">
  <g id="icon" transform="translate(1 4)">
    <g id="会社" transform="translate(-31.739 -152.387)">
      <path id="Path_10894" data-name="Path 10894" d="M91.222,187.614l-9.193,1.647L64.74,187.751V162.367l17.289-3.979,9.193,3.7Z" transform="translate(0 0)" fill="#777" stroke="#777" stroke-width="1"/>
      <path id="Path_10895" data-name="Path 10895" d="M80.176,161.225,67.14,164.518v21.406l4.185.352v-4.537h3.293v4.814l5.557.469ZM69.884,179.2H68.1v-2.607l1.783-.138Zm0-5.625-1.783.137V171.1l1.783-.274Zm0-5.489-1.783.274v-2.744l1.783-.412Zm4.323,10.977H71.943v-2.744l2.264-.138Zm0-5.9-2.264.138v-2.882l2.264-.274Zm0-5.9-2.264.411v-2.881l2.264-.549Zm2.263,11.663v-3.019l2.608-.137.069,3.155Zm0-5.9v-3.156l2.608-.411.069,3.293Zm0-6.175v-3.156l2.608-.549.069,3.293Z" transform="translate(-0.137 -0.162)" fill="#f7f7f7"/>
    </g>
    <circle id="Ellipse_1746" data-name="Ellipse 1746" cx="16" cy="16" r="16" transform="translate(-1 -4)" fill="red"/>
    <g id="clear_icon" transform="translate(-2.5 91.5)">
      <path id="Path_11027" data-name="Path 11027" d="M17.5-63.5a16.018,16.018,0,0,1-16-16,16.018,16.018,0,0,1,16-16,16.018,16.018,0,0,1,16,16A16.018,16.018,0,0,1,17.5-63.5Zm0-30.41A14.427,14.427,0,0,0,3.09-79.5,14.427,14.427,0,0,0,17.5-65.09,14.427,14.427,0,0,0,31.91-79.5,14.427,14.427,0,0,0,17.5-93.91Z" transform="translate(0 0)" fill="#fff"/>
      <g id="Group_7565" data-name="Group 7565" transform="translate(8.668 -88.533)">
        <path id="Path_11028" data-name="Path 11028" d="M40.647-72.5l-8.019-6.186-2.579,1.99,6.984,6.984Z" transform="translate(-23.682 79.689)" fill="#fff"/>
        <path id="Path_11029" data-name="Path 11029" d="M49-56.551l1.009-.8L49.022-58.6l-1.156.913Z" transform="translate(-33.053 69.124)" fill="#fff"/>
        <path id="Path_11030" data-name="Path 11030" d="M34.656-63.891,28.7-69.846,21.717-76.83,17.743-80.8,16.619-79.68l3.829,3.829-2.97,2.291L25.5-67.374l1.936-1.493,1.489,1.489-3.25,2.568-6.964-5.467-.981,1.25,7.948,6.24,4.378-3.46,3.48,3.48Z" transform="translate(-16.619 80.804)" fill="#fff"/>
      </g>
    </g>
  </g>
</svg>
