<svg xmlns="http://www.w3.org/2000/svg" width="35.414" height="28.691" viewBox="0 0 35.414 28.691">
  <g id="icon" transform="translate(-22 -8)">
    <path id="Path_10625" data-name="Path 10625" d="M643-164.211l6.08,4.128L643-155.376Z" transform="translate(-612.523 192.067)" fill="#5f9eff"/>
    <path id="Path_10626" data-name="Path 10626" d="M659.755-207.918l-12.2,28.471c-4.233-3.069-7.61-5.427-11.876-8.519,6.806-5.234,12.764-11.084,19.511-16.271l-.084-.141c-.234.143-.471.281-.7.428q-10.393,6.645-20.776,13.3a1.2,1.2,0,0,1-1.62-.048c-2.309-1.734-4.666-3.406-7-5.1-.184-.134-.361-.278-.661-.511Z" transform="translate(-602.341 215.918)" fill="#5f9eff"/>
  </g>
</svg>
