<svg xmlns="http://www.w3.org/2000/svg" width="21.83" height="27.999" viewBox="0 0 21.83 27.999">
  <g id="Group_8019" data-name="Group 8019" transform="translate(-76.456 980.187)">
    <path id="Path_10965" data-name="Path 10965" d="M84.883-972.594a4.434,4.434,0,0,1,4.429-4.429,4.434,4.434,0,0,1,4.429,4.429v2.373h3.164v-2.373a7.6,7.6,0,0,0-7.593-7.593,7.6,7.6,0,0,0-7.593,7.593v2.373h3.164Z" transform="translate(-1.941)" fill="#fff"/>
    <path id="Path_10966" data-name="Path 10966" d="M94.937-962.893H79.805a3.349,3.349,0,0,0-3.349,3.349v10.386a3.349,3.349,0,0,0,3.349,3.349H94.937a3.349,3.349,0,0,0,3.349-3.349v-10.386A3.349,3.349,0,0,0,94.937-962.893Zm-6.459,9.55v2.314a1.107,1.107,0,0,1-1.107,1.107,1.107,1.107,0,0,1-1.107-1.107v-2.314a2.528,2.528,0,0,1-1.424-2.273,2.531,2.531,0,0,1,2.531-2.531,2.531,2.531,0,0,1,2.531,2.531A2.528,2.528,0,0,1,88.478-953.343Z" transform="translate(0 -6.379)" fill="#fff"/>
  </g>
</svg>
