<svg xmlns="http://www.w3.org/2000/svg" width="24.543" height="44.505" viewBox="0 0 24.543 44.505">
  <path id="Path_10945" data-name="Path 10945" d="M1558.952-294.438l-17.621,0a3.464,3.464,0,0,0-3.461,3.461v37.578a3.465,3.465,0,0,0,3.461,3.461h17.621a3.467,3.467,0,0,0,3.461-3.461v-37.583A3.464,3.464,0,0,0,1558.952-294.438Zm-8.809.842a.336.336,0,0,1,.336.336.337.337,0,0,1-.336.336.336.336,0,0,1-.336-.336A.335.335,0,0,1,1550.143-293.6Zm-1.887,1.819h3.776a.2.2,0,0,1,.2.2.2.2,0,0,1-.2.2h-3.776a.2.2,0,0,1-.2-.2A.2.2,0,0,1,1548.256-291.777Zm-2.152-.288a.453.453,0,0,1,.451.455h-.005a.452.452,0,0,1-.45.45.452.452,0,0,1-.451-.455A.452.452,0,0,1,1546.1-292.065Zm15.37,36.715h-22.659v-33.672h22.659Z" transform="translate(-1537.87 294.438)" fill="#fff"/>
</svg>
