<svg xmlns="http://www.w3.org/2000/svg" width="18.353" height="18.353" viewBox="0 0 18.353 18.353">
  <g id="鉛筆icon" transform="translate(-1344.499 -348)">
    <path id="Path_5725" data-name="Path 5725" d="M108.892,711.637l-9.881,9.881-7.448,1.907a.512.512,0,0,1-.624-.624l1.907-7.448,9.881-9.881a1.317,1.317,0,0,1,1.859,0l4.305,4.305A1.317,1.317,0,0,1,108.892,711.637Zm-10.328,9.1,9.712-9.711a.444.444,0,0,0,0-.626l-4.306-4.306a.443.443,0,0,0-.626,0L93.632,715.8l-1.7,6.63Z" transform="translate(1253.577 -357.089)" fill="#5a9bff"/>
    <path id="Path_5726" data-name="Path 5726" d="M102.76,710.179l2.465,2.465,1.732-1.73a.444.444,0,0,0,0-.626l-4.306-4.306a.443.443,0,0,0-.626,0l-1.73,1.73,2.466,2.466Z" transform="translate(1254.896 -356.981)" fill="none"/>
    <path id="Path_5727" data-name="Path 5727" d="M95.385,717.71l2.416,2.416.134-.034,7.981-7.981-2.466-2.466Z" transform="translate(1254.205 -356.447)" fill="#86b6ff"/>
    <path id="Path_5728" data-name="Path 5728" d="M93.268,715.6l2.416,2.416,8.065-8.065-2.466-2.466L93.3,715.464Z" transform="translate(1253.907 -356.751)" fill="#bad5ff"/>
    <path id="Path_5729" data-name="Path 5729" d="M95.889,717.013,93.473,714.6l-1.664,6.5,6.5-1.664-2.416-2.416Z" transform="translate(1253.701 -355.75)" fill="none"/>
    <path id="Path_5730" data-name="Path 5730" d="M91.809,720.536l1.981-.508-1.474-1.474Z" transform="translate(1253.701 -355.193)" fill="#5a9bff"/>
  </g>
</svg>
