<svg xmlns="http://www.w3.org/2000/svg" width="27.725" height="27.725" viewBox="0 0 27.725 27.725">
  <path id="stop" d="M336.862-200A13.8,13.8,0,0,0,328-196.79a14.006,14.006,0,0,0-1.513,1.47,13.8,13.8,0,0,0-3.49,9.182,13.878,13.878,0,0,0,13.862,13.862,13.8,13.8,0,0,0,9.182-3.49,14,14,0,0,0,1.47-1.513,13.8,13.8,0,0,0,3.21-8.859A13.878,13.878,0,0,0,336.862-200Zm0,25.615a11.766,11.766,0,0,1-11.753-11.753,11.7,11.7,0,0,1,2.874-7.688l16.567,16.567A11.7,11.7,0,0,1,336.862-174.385Zm9.153-4.393L329.5-195.291a11.694,11.694,0,0,1,7.36-2.6,11.766,11.766,0,0,1,11.753,11.753A11.694,11.694,0,0,1,346.016-178.777Z" transform="translate(350.725 -172.275) rotate(180)" fill="red"/>
</svg>
