<svg xmlns="http://www.w3.org/2000/svg" width="32" height="32" viewBox="0 0 32 32">
  <g id="完了icon" transform="translate(-692.576 384.46)">
    <circle id="Ellipse_1829" data-name="Ellipse 1829" cx="16" cy="16" r="16" transform="translate(692.576 -384.46)" fill="#00be85"/>
    <path id="Path_11430" data-name="Path 11430" d="M718.493-371.823l-9.409,9.409-3.871-3.871a1.159,1.159,0,0,0-1.638,0L701.79-364.5a1.159,1.159,0,0,0,0,1.638l6.475,6.474a1.158,1.158,0,0,0,1.638,0L721.914-368.4a1.158,1.158,0,0,0,0-1.638l-1.784-1.784A1.159,1.159,0,0,0,718.493-371.823Z" transform="translate(-2.701 -3.743)" fill="#fff"/>
  </g>
</svg>
