<svg xmlns="http://www.w3.org/2000/svg" width="26.29" height="26.29" viewBox="0 0 26.29 26.29">
  <g id="編集icon" transform="translate(156.709 305.023)">
    <path id="Path_10639" data-name="Path 10639" d="M-156.709-295.9a10.387,10.387,0,0,1,.82-1.571,2.716,2.716,0,0,1,2.231-1.089c4.026-.014,8.053-.006,12.079-.005.067,0,.133.011.2.017.007.042.028.088.016.1-.941.947-1.876,1.9-2.84,2.824a.975.975,0,0,1-.617.144c-2.707.009-5.414.018-8.121,0-.5,0-.681.111-.678.65q.029,7.813,0,15.626c0,.454.105.614.6.613,5.243-.019,10.486-.012,15.729-.012h.572v-.647c0-2.656.006-5.312-.007-7.968a1.082,1.082,0,0,1,.35-.856c.906-.883,1.79-1.788,2.755-2.757.014.256.03.415.03.573q0,5.706,0,11.411a3.2,3.2,0,0,1-2.683,3.324.848.848,0,0,0-.179.089h-17.379c-.127-.04-.253-.087-.382-.119a3.189,3.189,0,0,1-2.161-1.715c-.136-.268-.226-.559-.337-.84Z" transform="translate(0 -3.292)" fill="#fff"/>
    <path id="Path_10640" data-name="Path 10640" d="M-143.56-281.382c.2-.773.378-1.5.561-2.22.336-1.326.669-2.652,1.014-3.975a1.1,1.1,0,0,1,.244-.488q4.714-4.733,9.443-9.45a1.214,1.214,0,0,1,.161-.109,27.173,27.173,0,0,1,4.847,4.847c-.119.131-.218.247-.326.354q-4.559,4.561-9.123,9.116a1.3,1.3,0,0,1-.543.352c-2,.521-4.008,1.022-6.013,1.527C-143.356-281.411-143.42-281.4-143.56-281.382Zm2.423-6.173a24.218,24.218,0,0,1-.665,2.523,1.388,1.388,0,0,0,.562,1.87.987.987,0,0,0,.659.181c.967-.208,1.924-.466,2.883-.712a.7.7,0,0,0,.195-.087c-.382-.294-.924-.527-1.145-.933a4.2,4.2,0,0,1-.2-1.511C-140.041-285.867-140.456-286.083-141.137-287.555Z" transform="translate(-6.713 -3.777)" fill="#fff"/>
    <path id="Path_10641" data-name="Path 10641" d="M-112.916-297.749l-4.9-4.887c.691-.691,1.457-1.449,2.213-2.217.3-.3.608-.141.832.033a30.233,30.233,0,0,1,2.558,2.121,14.124,14.124,0,0,1,1.474,1.9.678.678,0,0,1-.138,1.023C-111.6-299.109-112.281-298.384-112.916-297.749Z" transform="translate(-19.858)" fill="#fff"/>
  </g>
</svg>
