<svg xmlns="http://www.w3.org/2000/svg" width="33.999" height="33.999" viewBox="0 0 33.999 33.999">
  <g id="編集icon" transform="translate(156.709 305.023)">
    <path id="Path_10639" data-name="Path 10639" d="M-156.709-295.122a13.432,13.432,0,0,1,1.061-2.032,3.512,3.512,0,0,1,2.885-1.408c5.207-.018,10.414-.008,15.621-.007.086,0,.172.015.257.022.009.054.037.114.02.13-1.217,1.225-2.426,2.458-3.672,3.653a1.261,1.261,0,0,1-.8.187c-3.5.012-7,.023-10.5-.006-.651-.006-.881.144-.877.841q.038,10.1,0,20.208c0,.588.136.794.772.793,6.78-.024,13.561-.015,20.341-.015h.739v-.836c0-3.435.008-6.869-.009-10.3a1.4,1.4,0,0,1,.453-1.107c1.172-1.141,2.315-2.312,3.563-3.566.018.33.039.536.039.741q0,7.379,0,14.757a4.136,4.136,0,0,1-3.47,4.3,1.094,1.094,0,0,0-.231.115h-22.475c-.165-.052-.327-.112-.494-.154a4.124,4.124,0,0,1-2.794-2.217c-.175-.347-.292-.723-.435-1.086Z" transform="translate(0 -2.367)" fill="#959494"/>
    <path id="Path_10640" data-name="Path 10640" d="M-143.56-276.619c.253-1,.489-1.936.726-2.871.434-1.714.865-3.43,1.312-5.141a1.422,1.422,0,0,1,.316-.631q6.1-6.121,12.212-12.221a1.561,1.561,0,0,1,.208-.141,35.139,35.139,0,0,1,6.268,6.269c-.154.169-.282.32-.421.458q-5.9,5.9-11.8,11.79a1.685,1.685,0,0,1-.7.455c-2.588.674-5.183,1.321-7.777,1.975C-143.3-276.657-143.379-276.649-143.56-276.619Zm3.134-7.983a31.32,31.32,0,0,1-.86,3.263,1.8,1.8,0,0,0,.727,2.418,1.277,1.277,0,0,0,.853.234c1.251-.269,2.488-.6,3.728-.921a.9.9,0,0,0,.252-.112c-.494-.38-1.194-.681-1.481-1.207a5.436,5.436,0,0,1-.259-1.954C-139.009-282.419-139.546-282.7-140.426-284.6Z" transform="translate(-4.825 -2.715)" fill="#959494"/>
    <path id="Path_10641" data-name="Path 10641" d="M-111.48-295.616l-6.331-6.32c.894-.894,1.884-1.874,2.861-2.867.387-.393.786-.182,1.076.043a39.121,39.121,0,0,1,3.308,2.744,18.269,18.269,0,0,1,1.906,2.456.877.877,0,0,1-.178,1.322C-109.783-297.375-110.66-296.438-111.48-295.616Z" transform="translate(-14.274 0)" fill="#959494"/>
  </g>
</svg>
