<svg xmlns="http://www.w3.org/2000/svg" width="66.78" height="41.78" viewBox="0 0 66.78 41.78">
  <g id="icon" transform="translate(27 2)">
    <path id="Path_6506" data-name="Path 6506" d="M1392.89,322a19.88,19.88,0,1,0,19.89,19.89A19.913,19.913,0,0,0,1392.89,322Zm12.469,33.519a18.473,18.473,0,1,1,6.013-13.629A18.409,18.409,0,0,1,1405.359,355.519Z" transform="translate(-1373 -322)" fill="#777"/>
    <path id="Path_6507" data-name="Path 6507" d="M1411.183,372.649a12.5,12.5,0,0,0-12.469-11.693h0a12.5,12.5,0,0,0-12.469,11.693,18.443,18.443,0,0,0,24.937,0Z" transform="translate(-1378.824 -339.13)" fill="#777"/>
    <circle id="Ellipse_1" data-name="Ellipse 1" cx="6.337" cy="6.337" r="6.337" transform="translate(13.553 7.569)" fill="#777"/>
    <path id="Path_10763" data-name="Path 10763" d="M901.3,716.247a16.13,16.13,0,1,0,16.13,16.13A16.129,16.129,0,0,0,901.3,716.247Zm8.635,17.831H903v6.932a1.651,1.651,0,0,1-3.3,0v-6.932h-6.93a1.651,1.651,0,1,1,0-3.3h6.93v-6.932a1.651,1.651,0,0,1,3.3,0v6.932h6.932a1.651,1.651,0,1,1,0,3.3Z" transform="translate(-911.17 -718.247)" fill="#2e80ff"/>
    <circle id="Ellipse_1810" data-name="Ellipse 1810" cx="17" cy="17" r="17" transform="translate(-27 -2)" fill="#2e80ff"/>
    <g id="Wallet" transform="translate(-19.609 4)">
      <g id="Group_4834" data-name="Group 4834" transform="translate(0 3.704)">
        <path id="パス_5069" data-name="パス 5069" d="M180.893,690.255c-.268.348-.284.456-.122.909h-.5a.664.664,0,0,0-.47.171,1.583,1.583,0,0,0-.477.871h16.843a1.531,1.531,0,0,1,.334.03.616.616,0,0,1,.454.627v4.286a.21.21,0,0,0,.141.23,1.317,1.317,0,0,1,.814,1.179,12.124,12.124,0,0,1,0,1.353,1.325,1.325,0,0,1-.814,1.182.211.211,0,0,0-.141.227v3.8c0,.508-.231.741-.735.741H179.06a.64.64,0,0,1-.729-.728v-12.2a3.141,3.141,0,0,1,.274-1.5,1.933,1.933,0,0,1,1.34-1.171A5.682,5.682,0,0,1,180.893,690.255Zm13,10.618h2.759a.822.822,0,0,0,.519-.177,1.073,1.073,0,0,0,.438-.9v-1.079a1.1,1.1,0,0,0-1.02-1.168,1.07,1.07,0,0,0-.147,0h-5.279a1.876,1.876,0,0,0-.936.237,1.684,1.684,0,0,0-.635,2.161,1.641,1.641,0,0,0,1.533.923C192.051,700.877,192.97,700.873,193.891,700.873Z" transform="translate(-178.323 -690.23)" fill="#fff" opacity="0.981" style="isolation: isolate"/>
        <path id="パス_5070" data-name="パス 5070" d="M192.037,690.233h2.448a.465.465,0,0,1,.508.415.467.467,0,0,1-.456.51c-.7.008-1.405,0-2.109,0a.142.142,0,0,1-.11-.064C192.224,690.821,192.137,690.541,192.037,690.233Z" transform="translate(-177.033 -690.231)" fill="#fff"/>
      </g>
      <g id="Group_4845" data-name="Group 4845" transform="translate(2.714 0)">
        <path id="パス_5071" data-name="パス 5071" d="M191.965,688.522c-.282.11-.549.22-.819.322l-8.291,3.21a.657.657,0,0,1-.234.046c-.439,0-.89,0-1.336.005a.174.174,0,0,1-.2-.138c-.068-.2-.149-.39-.22-.585a.522.522,0,0,1,.338-.776q1.767-.688,3.537-1.371l5.936-2.305c.423-.164.652-.059.816.365C191.647,687.7,191.8,688.105,191.965,688.522Z" transform="translate(-180.796 -686.856)" fill="#fff" style="isolation: isolate"/>
        <path id="パス_5072" data-name="パス 5072" d="M186.44,691.794l5.518-2.138.84,2.164h-6.353Z" transform="translate(-180.244 -686.582)" fill="#fff" style="isolation: isolate"/>
      </g>
      <path id="パス_5073" data-name="パス 5073" d="M192.939,700.213h-2.768a1.648,1.648,0,0,1-1.537-.922,1.679,1.679,0,0,1,.637-2.159,1.885,1.885,0,0,1,.939-.237H195.5a1.1,1.1,0,0,1,1.17,1.021,1.076,1.076,0,0,1,0,.146v1.078a1.071,1.071,0,0,1-.439.9.827.827,0,0,1-.52.177C194.784,700.21,193.861,700.213,192.939,700.213Zm-2.425-1.072a.645.645,0,1,0-.624-.667A.645.645,0,0,0,190.514,699.141Z" transform="translate(-177.382 -685.865)" fill="none"/>
      <path id="パス_5074" data-name="パス 5074" d="M190.387,699.056a.645.645,0,1,1,.669-.624A.645.645,0,0,1,190.387,699.056Z" transform="translate(-177.239 -685.78)" fill="#fff" stroke="#fff" stroke-width="1"/>
    </g>
  </g>
</svg>
