<svg xmlns="http://www.w3.org/2000/svg" width="55.907" height="46.639" viewBox="0 0 55.907 46.639">
  <g id="Group_5466" data-name="Group 5466" transform="translate(-123.634 -434.708)">
    <g id="Group_5464" data-name="Group 5464" transform="translate(123.634 434.708)">
      <path id="Path_6002" data-name="Path 6002" d="M179.128,476.686l-24.089-40.2a4.237,4.237,0,0,0-6.9,0l-24.089,40.2c-1.284,2.141.584,4.661,3.453,4.661h48.175C178.546,481.347,180.412,478.827,179.128,476.686Zm-6.841,1.143h-41.4c-1.119,0-1.848-.984-1.347-1.82l20.7-34.635a1.654,1.654,0,0,1,2.7,0l20.7,34.635C174.134,476.845,173.406,477.829,172.287,477.829Z" transform="translate(-123.634 -434.708)" fill="#df1f1c"/>
      <path id="Path_6003" data-name="Path 6003" d="M149.659,437.97a1.654,1.654,0,0,0-2.7,0l-20.7,34.635c-.5.835.228,1.82,1.347,1.82h41.4c1.119,0,1.848-.984,1.35-1.82Z" transform="translate(-120.357 -431.303)" fill="none"/>
    </g>
    <g id="Group_5465" data-name="Group 5465" transform="translate(148.241 451.369)">
      <path id="Path_6004" data-name="Path 6004" d="M140.9,445.086c-.654,4.4-1.194,8.379-1.9,12.335-.1.556-1.073,1.389-1.552,1.333a2.245,2.245,0,0,1-1.457-1.522c-.691-3.858-1.34-7.735-1.759-11.63a3.118,3.118,0,0,1,3.253-3.735A3.169,3.169,0,0,1,140.9,445.086Z" transform="translate(-134.208 -441.868)" fill="#df1f1c"/>
      <circle id="Ellipse_1720" data-name="Ellipse 1720" cx="2.351" cy="2.351" r="2.351" transform="translate(0.996 18.41)" fill="#df1f1c"/>
    </g>
  </g>
</svg>
