<svg xmlns="http://www.w3.org/2000/svg" width="21" height="21" viewBox="0 0 21 21">
  <g id="注意icon" transform="translate(-125.588 -436.527)">
    <g id="Ellipse_1830" data-name="Ellipse 1830" transform="translate(125.588 436.527)" fill="none" stroke="red" stroke-width="1">
      <circle cx="10.5" cy="10.5" r="10.5" stroke="none"/>
      <circle cx="10.5" cy="10.5" r="10" fill="none"/>
    </g>
    <g id="Group_5465" data-name="Group 5465" transform="translate(134.642 441.702)">
      <path id="Path_6004" data-name="Path 6004" d="M137.4,443.4c-.312,2.1-.569,4-.906,5.883-.048.265-.512.662-.74.636a1.071,1.071,0,0,1-.695-.726c-.33-1.84-.639-3.689-.839-5.547a1.487,1.487,0,0,1,1.551-1.781A1.511,1.511,0,0,1,137.4,443.4Z" transform="translate(-134.208 -441.868)" fill="red"/>
      <circle id="Ellipse_1720" data-name="Ellipse 1720" cx="1.121" cy="1.121" r="1.121" transform="translate(0.475 8.78)" fill="red"/>
    </g>
  </g>
</svg>
