<svg xmlns="http://www.w3.org/2000/svg" width="66.523" height="41.165" viewBox="0 0 66.523 41.165">
  <g id="icon" transform="translate(1 4)">
    <g id="銀行口座icon" transform="translate(129 944)">
      <path id="Path_11045" data-name="Path 11045" d="M-102-935v25.03a3.135,3.135,0,0,0,3.135,3.135h32.254a3.135,3.135,0,0,0,3.135-3.135V-935Zm36.383,15.495h-1.969v2.312h1.969v6.814a1.447,1.447,0,0,1-1.447,1.447h-31.35a1.447,1.447,0,0,1-1.447-1.447v-6.814h14.125v-2.312H-99.86v-10.872h34.243Z" fill="red"/>
      <g id="Group_7587" data-name="Group 7587" transform="translate(-97.559 -928.022)">
        <path id="Path_11046" data-name="Path 11046" d="M-75.346-890.025c-.346,0-.5.005-.717.015a4.564,4.564,0,0,0,.042-.729v-2.807a4.968,4.968,0,0,0-.042-.7c.262.016.319.016.712.016h1.3c.832,0,1.3.372,1.3,1.039a.923.923,0,0,1-.3.739,1.019,1.019,0,0,1-.392.217,1.1,1.1,0,0,1,.508.243,1.02,1.02,0,0,1,.33.807c0,.745-.5,1.158-1.392,1.158Zm1.183-2.533c.345,0,.549-.186.549-.486s-.194-.47-.555-.47h-.994v.956Zm-1,1.815h1.041c.4,0,.628-.207.628-.563s-.23-.553-.638-.553h-1.031Z" transform="translate(76.063 894.244)" fill="red"/>
        <path id="Path_11047" data-name="Path 11047" d="M-50.926-889.95a3.677,3.677,0,0,0-.136-.548l-.178-.5h-1.58l-.178.5a2.567,2.567,0,0,0-.141.548h-1.036a4.791,4.791,0,0,0,.267-.62l1.141-3.045a3.914,3.914,0,0,0,.167-.538h1.125a3.446,3.446,0,0,0,.178.538l1.151,3.045c.1.264.194.491.256.62Zm-1.031-3.242c-.016-.047-.037-.1-.079-.238-.031.108-.037.134-.073.238l-.492,1.463h1.141Z" transform="translate(57.923 894.169)" fill="red"/>
        <path id="Path_11048" data-name="Path 11048" d="M-24.3-891.785a6.359,6.359,0,0,1,.356.589c-.016-.181-.032-.455-.032-.646v-1.567a4.2,4.2,0,0,0-.047-.745h.937a4.911,4.911,0,0,0-.042.75v2.735a4.482,4.482,0,0,0,.042.719h-.984a4.947,4.947,0,0,0-.356-.6l-1.2-1.768a5.788,5.788,0,0,1-.335-.579l.021.243c.005.088.016.3.016.408v1.51a5.213,5.213,0,0,0,.042.791h-.931a5.057,5.057,0,0,0,.042-.8v-2.689a4.985,4.985,0,0,0-.042-.719h.973a2.821,2.821,0,0,0,.34.594Z" transform="translate(35.249 894.169)" fill="red"/>
        <path id="Path_11049" data-name="Path 11049" d="M2.382-890.658a6.516,6.516,0,0,0,.539.708H1.764a5.078,5.078,0,0,0-.345-.595l-.931-1.375-.544.538v.719a4.146,4.146,0,0,0,.047.714H-.957a5.027,5.027,0,0,0,.042-.714v-2.776a4.887,4.887,0,0,0-.042-.714H-.01a4.346,4.346,0,0,0-.047.714v1.065l1.188-1.241a2.835,2.835,0,0,0,.429-.538H2.753c-.136.129-.392.388-.56.558l-1.109,1.132Z" transform="translate(13.816 894.169)" fill="red"/>
      </g>
      <g id="Group_7588" data-name="Group 7588" transform="translate(-84.671 -924.823)">
        <path id="Path_11050" data-name="Path 11050" d="M-.79-850.915l4.5,2.51v-9.2L-.79-860Z" transform="translate(0.79 862.664)" fill="red"/>
        <path id="Path_11051" data-name="Path 11051" d="M34-860.564l4.366-4.485v-9.21L34-869.544Z" transform="translate(-28.043 874.483)" fill="red"/>
        <path id="Path_11052" data-name="Path 11052" d="M68-875.562v9.039l4.366,1.587v-9.088Z" transform="translate(-56.222 875.562)" fill="red"/>
      </g>
    </g>
    <circle id="Ellipse_1746" data-name="Ellipse 1746" cx="16" cy="16" r="16" transform="translate(-1 -4)" fill="red"/>
    <path id="Path_10633" data-name="Path 10633" d="M-140.016-238.341h-6.994v-6.994A1.665,1.665,0,0,0-148.676-247a1.665,1.665,0,0,0-1.665,1.665v6.994h-6.994A1.665,1.665,0,0,0-159-236.676a1.665,1.665,0,0,0,1.665,1.665h6.994v6.994a1.665,1.665,0,0,0,1.665,1.665,1.665,1.665,0,0,0,1.665-1.665v-6.994h6.994a1.665,1.665,0,0,0,1.665-1.665A1.665,1.665,0,0,0-140.016-238.341Z" transform="translate(-46.9 284.809) rotate(45)" fill="#fff"/>
  </g>
</svg>
