<svg xmlns="http://www.w3.org/2000/svg" width="50.669" height="41.165" viewBox="0 0 50.669 41.165">
  <g id="icon" transform="translate(30 6)">
    <path id="Path_11750" data-name="Path 11750" d="M17.844,35.165H2.825A2.825,2.825,0,0,1,0,32.34V2.825A2.825,2.825,0,0,1,2.825,0H17.844a2.825,2.825,0,0,1,2.825,2.825V32.34a2.825,2.825,0,0,1-2.825,2.825" fill="red"/>
    <path id="Path_11751" data-name="Path 11751" d="M38.848,8.986h-5.29a.228.228,0,0,1-.228-.228V8.228A.228.228,0,0,1,33.558,8h5.29a.228.228,0,0,1,.228.228v.529a.228.228,0,0,1-.228.228" transform="translate(-25.869 -6.468)" fill="#fff"/>
    <path id="Path_11753" data-name="Path 11753" d="M44.619,147.924a1.152,1.152,0,1,1-1.152-1.152,1.152,1.152,0,0,1,1.152,1.152" transform="translate(-33.132 -114.993)" fill="#fff"/>
    <rect id="Rectangle_6432" data-name="Rectangle 6432" width="16.712" height="26.443" transform="translate(1.979 4.022)" fill="#fff"/>
    <path id="Path_11752" data-name="Path 11752" d="M20.33,45.793v6.633a.253.253,0,0,0,.273.227H32.938a.253.253,0,0,0,.273-.227V45.793a.253.253,0,0,0-.273-.227H20.6a.253.253,0,0,0-.273.227m11.616,5.721H21.6V49.078H31.946Zm0-3.777H21.6V46.7H31.946Z" transform="translate(-16.436 -33.227)" fill="red"/>
    <circle id="Ellipse_1746" data-name="Ellipse 1746" cx="16" cy="16" r="16" transform="translate(-30 -6)" fill="red"/>
    <path id="Path_10633" data-name="Path 10633" d="M-140.016-238.341h-6.994v-6.994A1.665,1.665,0,0,0-148.676-247a1.665,1.665,0,0,0-1.665,1.665v6.994h-6.994A1.665,1.665,0,0,0-159-236.676a1.665,1.665,0,0,0,1.665,1.665h6.994v6.994a1.665,1.665,0,0,0,1.665,1.665,1.665,1.665,0,0,0,1.665-1.665v-6.994h6.994a1.665,1.665,0,0,0,1.665-1.665A1.665,1.665,0,0,0-140.016-238.341Z" transform="translate(-75.9 282.809) rotate(45)" fill="#fff"/>
  </g>
</svg>
