<svg xmlns="http://www.w3.org/2000/svg" width="25.784" height="21.368" viewBox="0 0 25.784 21.368">
  <g id="icon" transform="translate(-237.58 -243.402)">
    <path id="Path_6112" data-name="Path 6112" d="M240.424,263.107v-4.293L238.7,248.253a.555.555,0,0,1,.457-.636l1.531-.25a1.66,1.66,0,0,1,1.4-.773h3.323l12.687-2.077a.594.594,0,0,1,.09-.007.555.555,0,0,1,.546.465l.265,1.619h1.124l-.294-1.8a1.666,1.666,0,0,0-1.91-1.372l-18.943,3.1a1.666,1.666,0,0,0-1.372,1.909l2.4,14.657a1.662,1.662,0,0,0,.978,1.253A1.653,1.653,0,0,1,240.424,263.107Z" transform="translate(0 0)" fill="#a5a5a5"/>
    <path id="Path_6113" data-name="Path 6113" d="M261.228,264.236H241.61a1.665,1.665,0,0,1-1.661-1.663V247.722a1.664,1.664,0,0,1,1.661-1.661h19.617a1.664,1.664,0,0,1,1.661,1.661v14.851A1.665,1.665,0,0,1,261.228,264.236ZM241.61,247.169a.554.554,0,0,0-.553.553v14.851a.554.554,0,0,0,.553.553h19.617a.554.554,0,0,0,.553-.553V247.722a.554.554,0,0,0-.553-.553Z" transform="translate(0.475 0.533)" fill="#a5a5a5"/>
    <path id="Path_6114" data-name="Path 6114" d="M242.349,258.24l3.934-3.934,1.884,1.884,6.206-6.206,5.1,5.1v5.486H242.349Z" transform="translate(0.956 1.32)" fill="#a5a5a5"/>
    <circle id="Ellipse_1723" data-name="Ellipse 1723" cx="2.161" cy="2.161" r="2.161" transform="translate(243.527 249.697)" fill="#a5a5a5"/>
  </g>
</svg>
