<svg xmlns="http://www.w3.org/2000/svg" width="32.788" height="32.704" viewBox="0 0 32.788 32.704">
              <g id="settings" transform="translate(-802.952 -146.025)">
                <path id="パス_11484" data-name="パス 11484" d="M824.791,162.086a5.469,5.469,0,0,0,1.159-6.024l-3.422,3.422-2.943-2.943,3.39-3.39a5.468,5.468,0,0,0-7.3,6.589L803.709,171.7a2.587,2.587,0,0,0,0,3.658h0a2.586,2.586,0,0,0,3.658,0h0l11.924-11.924A5.465,5.465,0,0,0,824.791,162.086Z" transform="translate(0 2.608)" fill="#aaa9a9"/>
                <path id="パス_11485" data-name="パス 11485" d="M832.077,169.641l-1.9-1.9a12.107,12.107,0,0,0,1.257-3.039h2.687a1.183,1.183,0,0,0,1.178-1.178v-3.8a1.18,1.18,0,0,0-1.178-1.177h-2.688a12.053,12.053,0,0,0-1.266-3.053l1.886-1.884a1.183,1.183,0,0,0,0-1.671h0l-2.689-2.688a1.155,1.155,0,0,0-1.656,0l-1.9,1.9a12.066,12.066,0,0,0-3.038-1.256V147.2a1.181,1.181,0,0,0-1.177-1.178h-3.8a1.179,1.179,0,0,0-1.177,1.178v2.688a12.055,12.055,0,0,0-3.039,1.256l-1.9-1.9a1.178,1.178,0,0,0-1.669,0h0l-2.691,2.689a1.181,1.181,0,0,0,0,1.669h0l1.9,1.9a12.07,12.07,0,0,0-1.256,3.039h-2.687a1.181,1.181,0,0,0-1.178,1.178v3.8a1.18,1.18,0,0,0,1.178,1.177h2.687a8.814,8.814,0,0,0,.544,1.941l2.717-2.717a8.266,8.266,0,0,1,2.4-8.391A8.6,8.6,0,0,1,825.784,167.7a8.326,8.326,0,0,1-8.536,2.319l-2.7,2.7a9.3,9.3,0,0,0,2.079.633v2.689a1.182,1.182,0,0,0,1.178,1.178h3.8a1.183,1.183,0,0,0,1.178-1.178v-2.687a12.058,12.058,0,0,0,3.039-1.257l1.9,1.9a1.18,1.18,0,0,0,1.669,0h0l2.689-2.689a1.18,1.18,0,0,0,0-1.669Z" transform="translate(0.441 0)" fill="#aaa9a9"/>
              </g>
            </svg>