<svg xmlns="http://www.w3.org/2000/svg" width="206.564" height="31.083"><g data-name="J-STO Admin"><g data-name="Group 7996"><path data-name="Path 11835" d="M202.741 1.813v16.341l-4.407-16.341h-5.377v27.3h3.861V9.34l5.339 19.774h4.408V1.813z" fill="#a5a5a5"/><path data-name="Path 11834" d="M176.496 1.813L173.571 21.2l-3.16-19.387h-5.967v27.3h3.744V9.808l3.2 19.306h4.057l2.963-19.58v19.58h4.057V1.813z" fill="#a5a5a5"/><path data-name="Path 11833" d="M152.862 5.713h2.418c1.364 0 2.183.7 2.183 2.651v14.2c0 1.95-.819 2.652-2.183 2.652h-2.418zm-4.291-3.9v27.3h6.786c4.29 0 6.4-2.379 6.4-6.748V8.559c0-4.367-2.107-6.746-6.4-6.746z" fill="#a5a5a5"/><path data-name="Path 11832" d="M138.857 6.649l2.067 13.807h-4.13zm-2.921-4.836l-4.369 27.3h3.94l.741-4.954h5.265l.741 4.954h4.329l-4.368-27.3z" fill="#a5a5a5"/><path data-name="Path 11831" d="M115.149 22.834V8.092c0-1.95.858-2.691 2.223-2.691s2.223.741 2.223 2.691v14.742c0 1.951-.858 2.691-2.223 2.691s-2.223-.74-2.223-2.691M117.372 1.5c-4.215 0-6.515 2.5-6.515 6.864v14.2c0 4.369 2.3 6.865 6.514 6.865s6.513-2.5 6.513-6.865v-14.2C123.885 4 121.585 1.5 117.372 1.5z" fill="#a5a5a5"/><path data-name="Path 11830" d="M96.078 1.813v3.9h4.485v23.4h4.294v-23.4h4.484v-3.9z" fill="#a5a5a5"/><path data-name="Path 11829" d="M88.513 1.5c-4.173 0-6.319 2.5-6.319 6.864 0 7.8 8.386 8.854 8.386 14.47 0 1.951-.858 2.653-2.223 2.653s-2.223-.7-2.223-2.653v-1.95h-4.057v1.677c0 4.369 2.185 6.865 6.4 6.865s6.4-2.5 6.4-6.865c0-7.8-8.385-8.853-8.385-14.469 0-1.95.78-2.691 2.144-2.691s2.146.741 2.146 2.691v1.131h4.056v-.859C94.831 4 92.686 1.5 88.513 1.5z" fill="#a5a5a5"/><path data-name="Rectangle 6501" fill="#a5a5a5" d="M185.58 1.813h4.29v27.301h-4.29z"/><path data-name="Rectangle 6493" fill="#a5a5a5" d="M72.016 13.514h7.8v3.901h-7.8z"/><path data-name="Path 11828" d="M64.996 1.813v20.826c0 2.106-1.091 2.613-2.457 2.613-.468 0-1.014 0-1.482-.039v3.9a17.634 17.634 0 002.067.078c3.238 0 6.162-1.4 6.162-6.864V1.813z" fill="#00be85"/></g><g data-name="Group 7995"><g data-name="Group 7993" fill="none" stroke="#b2b2b2" stroke-linecap="round" stroke-linejoin="round" stroke-width=".2"><path data-name="Path 11836" d="M8.306 4.376l-2.362 2.87 1.425 1.757z"/><path data-name="Path 11837" d="M4.648 21.24l1.7 4.153 1.167-2.3z"/><path data-name="Path 11838" d="M11.566 26.051L9.54 27.707l-1.561-1.443z"/><path data-name="Path 11839" d="M24.983 29.548l3.369-1.964-3.52-2.386z"/><path data-name="Path 11840" d="M30.794 21.429l.718 2.674-1.3 1.668z"/><path data-name="Path 11841" d="M34.154 15.503l-.535 4.147-2.175-2.668z"/><path data-name="Path 11842" d="M23.049.728l1.822.651 1.215 3.346z"/><path data-name="Path 11843" d="M13.889.999l4.8-.9-1.617 2.3z"/><path data-name="Path 11844" d="M3.836 12.117l-.355 3.082 2.981-2.006z"/><path data-name="Path 11845" d="M3.625 17.025l.782 3.54 1.271-4.445z"/><path data-name="Path 11846" d="M9.459 11.94l-.677 3.136 2.807.919z"/><path data-name="Path 11847" d="M29.014 3.997l2.649 2.7-4.029.845z"/><path data-name="Path 11848" d="M32.844 9.154l1 2.785-1.072.222z"/><path data-name="Path 11849" d="M5.679 16.116l-1.843-4-.355 3.082z"/><path data-name="Path 11850" d="M25.483 24.506l6.029-.4-1.3 1.668z"/><path data-name="Path 11851" d="M23.496 23.839l1.987.668-.65.693z"/><path data-name="Path 11852" d="M3.135 18.682l1.3-1.034-.58 1.334z"/><path data-name="Path 11853" d="M2.027 16.25l-.873.772.375-1.47z"/><path data-name="Path 11854" d="M.51 14.09l1.554-.138-1.687.978z"/><path data-name="Path 11855" d="M1.528 15.552L.51 14.088l-.132.84z"/><path data-name="Path 11856" d="M4.383 10.475l.471-.36 1.247.165z"/><path data-name="Path 11857" d="M6.462 13.193l-1.609-3.078 1.247.165z"/><path data-name="Path 11858" d="M8.782 15.076l-2.32-1.883 5.127 2.8z"/><path data-name="Path 11859" d="M1.468 11.917l-.238-.614-1.13.478z"/><path data-name="Path 11860" d="M34.004 13.342l.142 1.229 1.644-1.628z"/><path data-name="Path 11861" d="M35.45 9.32l-1.028.278.7 1.605z"/><path data-name="Path 11862" d="M32.768 12.162l.077-3.007 1.577.443z"/><path data-name="Path 11863" d="M36.82 14.758L34 13.343l1.785-.4z"/><path data-name="Path 11864" d="M27.989 11.376l1.025 2.8-3.623-.209z"/><path data-name="Path 11865" d="M30.794 21.43l3.36-5.929-.535 4.147z"/><path data-name="Path 11866" d="M30.211 25.774l-1.859 1.812 2.441-6.154z"/><path data-name="Path 11867" d="M19.58 21.132l-1.34-2.926-2.809.59z"/><path data-name="Path 11868" d="M20.631 15.553l-1.051 5.58-1.34-2.926z"/><path data-name="Path 11869" d="M8.382 19.386l-2.7-3.271 3.1-1.039z"/><path data-name="Path 11870" d="M4.648 21.241l3.732-1.854-2.032 6.007z"/><path data-name="Path 11871" d="M8.382 19.386l-.863 3.708 4.324.214z"/><path data-name="Path 11872" d="M27.626 19.74l-1.067-1.276-4.413-.569z"/><path data-name="Path 11873" d="M25.483 24.506l1.076-6.042 1.067 1.275z"/><path data-name="Path 11874" d="M31.445 16.981l-2.426-2.808-2.46 4.291z"/><path data-name="Path 11875" d="M14.932 24.326l-.641.1.852-1.6z"/><path data-name="Path 11876" d="M14.647 30.237l-1.892.432 1.674.314z"/><path data-name="Path 11877" d="M13.924 25.552l-.578.325-.468-.733z"/><path data-name="Path 11878" d="M20.733 25.715l.634.585-.372-1.846z"/><path data-name="Path 11879" d="M23.496 23.839l-2.13 2.462.65.553z"/><path data-name="Path 11880" d="M20.631 15.553l-4.612-2.157-4.43 2.6z"/><path data-name="Path 11881" d="M8.382 19.387l-4.757-2.365 1.025 4.22z"/><path data-name="Path 11882" d="M33.619 19.649l-2.107 4.456-.067-7.122z"/><path data-name="Path 11883" d="M23.012 16.061l-.175 1.321-1.114-.742z"/><path data-name="Path 11884" d="M24.807 9.558l.372 1.846-1.818-1.631z"/><path data-name="Path 11885" d="M22.484 6.536l.468.733.578-.325z"/><path data-name="Path 11886" d="M24.871 1.379l1.215 3.346-2.556 2.214z"/><path data-name="Path 11887" d="M9.138 6.373l1.228 2.664 1.951-1.123z"/><path data-name="Path 11888" d="M10.822 2.444l.474.838-1.753-.025z"/><path data-name="Path 11889" d="M15.459 5.273l1.16 2.714.732-2.284z"/><path data-name="Path 11890" d="M20.426.235l1.437.2-.573.251z"/><path data-name="Path 11891" d="M19.142 10.95l1.934.123-.486.826z"/><path data-name="Path 11892" d="M11.487 10.636l1.284.871 1.258-1.35z"/><path data-name="Path 11893" d="M10.984 11.737l-2.2 3.34.677-3.136z"/><path data-name="Path 11894" d="M22.147 17.896l.691-.514.175-1.321z"/><path data-name="Path 11895" d="M18.549 8.744l-1.93-.758-1.157-2.714z"/><path data-name="Path 11896" d="M10.984 11.737l3.049-1.579-2.541.478z"/><path data-name="Path 11897" d="M12.316 7.914l.454 3.593 1.258-1.35z"/><path data-name="Path 11898" d="M17.348 5.702l-5.032 2.212 3.142-2.642z"/><path data-name="Path 11899" d="M18.845 3.082l-.46 1.658 1.6.081z"/><path data-name="Path 11900" d="M11.299 28.903l-.4-.329.339-.8z"/><path data-name="Path 11901" d="M7.98 26.265l-3.332-5.024 2.869 1.854z"/><path data-name="Path 11902" d="M29.851 21.558l-3.293-3.093 1.067 1.275z"/><path data-name="Path 11903" d="M31.511 24.104l-.718-2.674-.942.128z"/><path data-name="Path 11904" d="M9.137 6.373l-3.193.873 2.362-2.87z"/><path data-name="Path 11905" d="M24.832 25.2l-4.1.515.262-1.261z"/><path data-name="Path 11906" d="M18.24 18.208l-2.222-4.812 4.61 2.157z"/><path data-name="Path 11907" d="M21.723 16.64l-3.483 1.567 2.391-2.655z"/><path data-name="Path 11908" d="M34.144 14.572l.007.929-2.707 1.481z"/><path data-name="Path 11909" d="M33.616 19.647l.528-5.076.007.929z"/><path data-name="Path 11910" d="M7.519 23.094l-3.116-2.533.243.68z"/><path data-name="Path 11911" d="M3.836 12.115l1.02-2-.471.358z"/><path data-name="Path 11912" d="M6.101 10.281l-.157-3.035 2.362-2.87z"/><path data-name="Path 11913" d="M32.845 9.155l-3.831-5.158 2.649 2.7z"/><path data-name="Path 11914" d="M9.541 27.707l-3.186-2.312 1.627.87z"/><path data-name="Path 11915" d="M24.983 29.548l5.228-3.776-1.859 1.812z"/><path data-name="Path 11916" d="M8.382 19.386l3.207-3.391 4.43-2.6z"/><path data-name="Path 11917" d="M16.018 13.396l-4.531-2.76 2.541-.478z"/><path data-name="Path 11918" d="M18.55 8.744l-1.2-3.042-3.32 4.455z"/><path data-name="Path 11919" d="M22.484 6.531l-5.869 1.455.732-2.284z"/><path data-name="Path 11920" d="M14.028 10.158l2.588-2.172-.6 5.41z"/><path data-name="Path 11921" d="M14.028 10.158L9.137 6.374l3.18 1.541z"/><path data-name="Path 11922" d="M10.823 2.444l-1.686 3.93.406-3.115z"/><path data-name="Path 11923" d="M20.43.233L18.69.1l-4.8.9z"/><path data-name="Path 11924" d="M7.365 9.004l-.9 4.189-.518-5.947z"/><path data-name="Path 11925" d="M26.086 4.726l5.577 1.97-2.649-2.7z"/><path data-name="Path 11926" d="M24.751 12.072l.057-2.514.372 1.846z"/><path data-name="Path 11927" d="M27.634 7.541l-2.827 2.017-.057 2.514z"/><path data-name="Path 11928" d="M27.994 11.376l-2.825.018 3.85 2.78z"/></g><g data-name="Group 7994" opacity=".15" fill="#fff"><path data-name="Path 11836" d="M8.306 4.376l-2.362 2.87 1.425 1.757z"/><path data-name="Path 11837" d="M4.648 21.24l1.7 4.153 1.167-2.3z"/><path data-name="Path 11838" d="M11.566 26.051L9.54 27.707l-1.561-1.443z"/><path data-name="Path 11839" d="M24.983 29.548l3.369-1.964-3.52-2.386z"/><path data-name="Path 11840" d="M30.794 21.429l.718 2.674-1.3 1.668z"/><path data-name="Path 11841" d="M34.154 15.503l-.535 4.147-2.175-2.668z"/><path data-name="Path 11842" d="M23.049.728l1.822.651 1.215 3.346z"/><path data-name="Path 11843" d="M13.889.999l4.8-.9-1.617 2.3z"/><path data-name="Path 11844" d="M3.836 12.117l-.355 3.082 2.981-2.006z"/><path data-name="Path 11845" d="M3.625 17.025l.782 3.54 1.271-4.445z"/><path data-name="Path 11846" d="M9.459 11.94l-.677 3.136 2.807.919z"/><path data-name="Path 11847" d="M29.014 3.997l2.649 2.7-4.029.845z"/><path data-name="Path 11848" d="M32.844 9.154l1 2.785-1.072.222z"/><path data-name="Path 11849" d="M5.679 16.116l-1.843-4-.355 3.082z"/><path data-name="Path 11850" d="M25.483 24.506l6.029-.4-1.3 1.668z"/><path data-name="Path 11851" d="M23.496 23.839l1.987.668-.65.693z"/><path data-name="Path 11852" d="M3.135 18.682l1.3-1.034-.58 1.334z"/><path data-name="Path 11853" d="M2.027 16.25l-.873.772.375-1.47z"/><path data-name="Path 11854" d="M.51 14.09l1.554-.138-1.687.978z"/><path data-name="Path 11855" d="M1.528 15.552L.51 14.088l-.132.84z"/><path data-name="Path 11856" d="M4.383 10.475l.471-.36 1.247.165z"/><path data-name="Path 11857" d="M6.462 13.193l-1.609-3.078 1.247.165z"/><path data-name="Path 11858" d="M8.782 15.076l-2.32-1.883 5.127 2.8z"/><path data-name="Path 11859" d="M1.468 11.917l-.238-.614-1.13.478z"/><path data-name="Path 11860" d="M34.004 13.342l.142 1.229 1.644-1.628z"/><path data-name="Path 11861" d="M35.45 9.32l-1.028.278.7 1.605z"/><path data-name="Path 11862" d="M32.768 12.162l.077-3.007 1.577.443z"/><path data-name="Path 11863" d="M36.82 14.758L34 13.343l1.785-.4z"/><path data-name="Path 11864" d="M27.989 11.376l1.025 2.8-3.623-.209z"/><path data-name="Path 11865" d="M30.794 21.43l3.36-5.929-.535 4.147z"/><path data-name="Path 11866" d="M30.211 25.774l-1.859 1.812 2.441-6.154z"/><path data-name="Path 11867" d="M19.58 21.132l-1.34-2.926-2.809.59z"/><path data-name="Path 11868" d="M20.631 15.553l-1.051 5.58-1.34-2.926z"/><path data-name="Path 11869" d="M8.382 19.386l-2.7-3.271 3.1-1.039z"/><path data-name="Path 11870" d="M4.648 21.241l3.732-1.854-2.032 6.007z"/><path data-name="Path 11871" d="M8.382 19.386l-.863 3.708 4.324.214z"/><path data-name="Path 11872" d="M27.626 19.74l-1.067-1.276-4.413-.569z"/><path data-name="Path 11873" d="M25.483 24.506l1.076-6.042 1.067 1.275z"/><path data-name="Path 11874" d="M31.445 16.981l-2.426-2.808-2.46 4.291z"/><path data-name="Path 11875" d="M14.932 24.326l-.641.1.852-1.6z"/><path data-name="Path 11876" d="M14.647 30.237l-1.892.432 1.674.314z"/><path data-name="Path 11877" d="M13.924 25.552l-.578.325-.468-.733z"/><path data-name="Path 11878" d="M20.733 25.715l.634.585-.372-1.846z"/><path data-name="Path 11879" d="M23.496 23.839l-2.13 2.462.65.553z"/><path data-name="Path 11880" d="M20.631 15.553l-4.612-2.157-4.43 2.6z"/><path data-name="Path 11881" d="M8.382 19.387l-4.757-2.365 1.025 4.22z"/><path data-name="Path 11882" d="M33.619 19.649l-2.107 4.456-.067-7.122z"/><path data-name="Path 11883" d="M23.012 16.061l-.175 1.321-1.114-.742z"/><path data-name="Path 11884" d="M24.807 9.558l.372 1.846-1.818-1.631z"/><path data-name="Path 11885" d="M22.484 6.536l.468.733.578-.325z"/><path data-name="Path 11886" d="M24.871 1.379l1.215 3.346-2.556 2.214z"/><path data-name="Path 11887" d="M9.138 6.373l1.228 2.664 1.951-1.123z"/><path data-name="Path 11888" d="M10.822 2.444l.474.838-1.753-.025z"/><path data-name="Path 11889" d="M15.459 5.273l1.16 2.714.732-2.284z"/><path data-name="Path 11890" d="M20.426.235l1.437.2-.573.251z"/><path data-name="Path 11891" d="M19.142 10.95l1.934.123-.486.826z"/><path data-name="Path 11892" d="M11.487 10.636l1.284.871 1.258-1.35z"/><path data-name="Path 11893" d="M10.984 11.737l-2.2 3.34.677-3.136z"/><path data-name="Path 11894" d="M22.147 17.896l.691-.514.175-1.321z"/><path data-name="Path 11895" d="M18.549 8.744l-1.93-.758-1.157-2.714z"/><path data-name="Path 11896" d="M10.984 11.737l3.049-1.579-2.541.478z"/><path data-name="Path 11897" d="M12.316 7.914l.454 3.593 1.258-1.35z"/><path data-name="Path 11898" d="M17.348 5.702l-5.032 2.212 3.142-2.642z"/><path data-name="Path 11899" d="M18.845 3.082l-.46 1.658 1.6.081z"/><path data-name="Path 11900" d="M11.299 28.903l-.4-.329.339-.8z"/><path data-name="Path 11901" d="M7.98 26.265l-3.332-5.024 2.869 1.854z"/><path data-name="Path 11902" d="M29.851 21.558l-3.293-3.093 1.067 1.275z"/><path data-name="Path 11903" d="M31.511 24.104l-.718-2.674-.942.128z"/><path data-name="Path 11904" d="M9.137 6.373l-3.193.873 2.362-2.87z"/><path data-name="Path 11905" d="M24.832 25.2l-4.1.515.262-1.261z"/><path data-name="Path 11906" d="M18.24 18.208l-2.222-4.812 4.61 2.157z"/><path data-name="Path 11907" d="M21.723 16.64l-3.483 1.567 2.391-2.655z"/><path data-name="Path 11908" d="M34.144 14.572l.007.929-2.707 1.481z"/><path data-name="Path 11909" d="M33.616 19.647l.528-5.076.007.929z"/><path data-name="Path 11910" d="M7.519 23.094l-3.116-2.533.243.68z"/><path data-name="Path 11911" d="M3.836 12.115l1.02-2-.471.358z"/><path data-name="Path 11912" d="M6.101 10.281l-.157-3.035 2.362-2.87z"/><path data-name="Path 11913" d="M32.845 9.155l-3.831-5.158 2.649 2.7z"/><path data-name="Path 11914" d="M9.541 27.707l-3.186-2.312 1.627.87z"/><path data-name="Path 11915" d="M24.983 29.548l5.228-3.776-1.859 1.812z"/><path data-name="Path 11916" d="M8.382 19.386l3.207-3.391 4.43-2.6z"/><path data-name="Path 11917" d="M16.018 13.396l-4.531-2.76 2.541-.478z"/><path data-name="Path 11918" d="M18.55 8.744l-1.2-3.042-3.32 4.455z"/><path data-name="Path 11919" d="M22.484 6.531l-5.869 1.455.732-2.284z"/><path data-name="Path 11920" d="M14.028 10.158l2.588-2.172-.6 5.41z"/><path data-name="Path 11921" d="M14.028 10.158L9.137 6.374l3.18 1.541z"/><path data-name="Path 11922" d="M10.823 2.444l-1.686 3.93.406-3.115z"/><path data-name="Path 11923" d="M20.43.233L18.69.1l-4.8.9z"/><path data-name="Path 11924" d="M7.365 9.004l-.9 4.189-.518-5.947z"/><path data-name="Path 11925" d="M26.086 4.726l5.577 1.97-2.649-2.7z"/><path data-name="Path 11926" d="M24.751 12.072l.057-2.514.372 1.846z"/><path data-name="Path 11927" d="M27.634 7.541l-2.827 2.017-.057 2.514z"/><path data-name="Path 11928" d="M27.994 11.376l-2.825.018 3.85 2.78z"/></g></g></g></svg>