<svg xmlns="http://www.w3.org/2000/svg" width="18.353" height="18.353"><g fill="#2fcba7"><path data-name="Path 5725" d="M17.969 6.549L8.088 16.43.64 18.337a.512.512 0 01-.624-.624l1.907-7.448L11.804.384a1.317 1.317 0 011.859 0l4.305 4.305a1.317 1.317 0 01.001 1.86zm-10.328 9.1l9.712-9.711a.444.444 0 000-.626l-4.306-4.306a.443.443 0 00-.626 0l-9.712 9.706-1.7 6.63z"/><path data-name="Path 5727" d="M5.091 13.263l2.416 2.416.134-.034 7.981-7.981-2.466-2.466z" opacity=".85"/><path data-name="Path 5728" d="M2.675 10.849l2.416 2.416L13.156 5.2 10.69 2.734l-7.983 7.979z" opacity=".653"/><path data-name="Path 5730" d="M1.011 17.343l1.981-.508-1.474-1.474z"/></g></svg>