<svg xmlns="http://www.w3.org/2000/svg" width="23.005" height="18.78"><g data-name="Group 6578" fill="#909090"><path data-name="Path 10602" d="M23.005 4.917l-1.679 1.581a13.65 13.65 0 00-9.782-4.168 13.743 13.743 0 00-9.909 4L.001 4.73a16.13 16.13 0 0123.004.187z"/><path data-name="Path 10603" d="M19.57 8.292l-1.617 1.655a9.085 9.085 0 00-6.524-2.687A9.1 9.1 0 004.95 9.902l-1.637-1.61a11.478 11.478 0 0116.257 0z"/><path data-name="Path 10604" d="M16.321 11.567l-1.613 1.591a4.712 4.712 0 00-6.509-.025l-1.618-1.586a6.87 6.87 0 019.74.02z"/><path data-name="Path 10605" d="M9.125 16.441a2.306 2.306 0 012.326-2.3 2.312 2.312 0 012.3 2.321 2.322 2.322 0 01-2.341 2.313 2.316 2.316 0 01-2.285-2.334z"/></g></svg>