<svg xmlns="http://www.w3.org/2000/svg" width="37.43" height="29.629" viewBox="0 0 37.43 29.629">
                    <path id="Path_4512" data-name="Path 4512" d="M1252.951,1113.378c0,1.25.05,2.5-.011,3.749a13.64,13.64,0,0,1-7.556,11.283,18.83,18.83,0,0,1-1.969.715.675.675,0,0,1-.368-.014,12.158,12.158,0,0,1-6.163-3.966,13.588,13.588,0,0,1-3.168-6.794,14.914,14.914,0,0,1-.181-2.193c-.024-2.07-.006-4.14-.013-6.21a.323.323,0,0,1,.233-.35q4.627-2.048,9.247-4.113a.576.576,0,0,1,.522,0q4.631,2.07,9.271,4.122a.29.29,0,0,1,.2.32c-.007,1.149,0,2.3,0,3.447Zm-9.705,3.912c.005.135.015.269.015.4q0,3.84,0,7.68c0,.506,0,1.012,0,1.553a10.284,10.284,0,0,0,5.113-3.678,12.4,12.4,0,0,0,2.45-5.968c-.083-.005-.124-.01-.166-.01q-3.611,0-7.222,0a1.4,1.4,0,0,0-.2.027,1.845,1.845,0,0,0,.021-.2q0-4.344,0-8.688c0-.207,0-.414,0-.647-.081.029-.129.043-.173.063q-3.6,1.6-7.211,3.2a.277.277,0,0,0-.181.309q0,2.571,0,5.142v.8H1236q2.254,0,4.508,0C1241.422,1117.275,1242.333,1117.285,1243.245,1117.29Z" transform="translate(-1215.566 -1099.516)" fill="#2fcba7"/>
                    <g id="settings">
                      <ellipse id="Ellipse_1746" data-name="Ellipse 1746" cx="11.49" cy="11.49" rx="11.49" ry="11.49" transform="translate(0 0)" fill="#343434"/>
                      <path id="パス_3608" data-name="パス 3608" d="M305.2,689.581a2.112,2.112,0,1,1-.036,0Z" transform="translate(-293.858 -680.413)" fill="#2fcba7"/>
                      <path id="パス_3609" data-name="パス 3609" d="M299.752,678.176h2.038a1.155,1.155,0,0,1,.513.83c.08.453.2.9.307,1.348a2.585,2.585,0,0,0,1.639.846,1.534,1.534,0,0,0,.205-.123c.438-.268.879-.534,1.315-.807a.7.7,0,0,1,.959.086q.52.513,1.035,1.035a.707.707,0,0,1,.089.959c-.236.381-.451.775-.712,1.137a.792.792,0,0,0-.069.989c.127.2.156.466.275.676a.776.776,0,0,0,.381.347,10.9,10.9,0,0,0,1.384.325,1.148,1.148,0,0,1,.831.507v2.038a1.1,1.1,0,0,1-.832.507c-.267.036-.526.146-.793.17a1.123,1.123,0,0,0-1.168.994c-.024.155-.144.294-.178.451a.7.7,0,0,0,.017.43c.27.484.572.952.861,1.425a.693.693,0,0,1-.061.927q-.536.557-1.091,1.094a.676.676,0,0,1-.893.082c-.372-.223-.753-.435-1.107-.687a.853.853,0,0,0-1.095-.1,1.96,1.96,0,0,1-.6.235.506.506,0,0,0-.4.441c-.089.452-.224.895-.3,1.348a1.145,1.145,0,0,1-.512.831h-2.033a1.139,1.139,0,0,1-.506-.832c-.077-.453-.205-.9-.307-1.348a2.607,2.607,0,0,0-1.64-.845,1.48,1.48,0,0,0-.175.1c-.449.278-.9.553-1.353.832a.7.7,0,0,1-.959-.087q-.522-.513-1.036-1.036a.709.709,0,0,1-.09-.96c.222-.358.422-.73.668-1.068a.85.85,0,0,0,.1-1.093,1.981,1.981,0,0,1-.236-.6.507.507,0,0,0-.442-.405c-.452-.089-.894-.224-1.348-.3a1.141,1.141,0,0,1-.831-.512v-2.037a1.1,1.1,0,0,1,.831-.507c.267-.036.527-.146.794-.17a1.12,1.12,0,0,0,1.168-.994c.026-.156.146-.295.178-.451a.675.675,0,0,0-.016-.43c-.27-.486-.568-.955-.861-1.427a.7.7,0,0,1,.086-.959q.512-.522,1.035-1.036a.707.707,0,0,1,.96-.088c.369.229.749.441,1.1.69a.812.812,0,0,0,1.025.091c.2-.13.465-.155.676-.275a.769.769,0,0,0,.348-.381,11.14,11.14,0,0,0,.325-1.384A1.145,1.145,0,0,1,299.752,678.176Zm1.008,14.252a5.082,5.082,0,1,0-5.07-5.094h0a5.1,5.1,0,0,0,5.07,5.092Z" transform="translate(-289.439 -676.021)" fill="#2fcba7"/>
                    </g>
                    </svg>