<svg xmlns="http://www.w3.org/2000/svg" width="23" height="19.286" viewBox="0 0 23 19.286">
                    <g id="未接続icon" transform="translate(-16.329 116.82)">
                      <g id="Group_6581" data-name="Group 6581" transform="translate(25.429 -102.213)">
                      <path id="Path_10612" data-name="Path 10612" d="M50.955-59.6A2.329,2.329,0,0,1,53.3-61.917a2.334,2.334,0,0,1,2.326,2.343,2.344,2.344,0,0,1-2.364,2.336A2.338,2.338,0,0,1,50.955-59.6Z" transform="translate(-50.955 61.917)" fill="#b0b0b0"/>
                      </g>
                      <path id="Path_10613" data-name="Path 10613" d="M16.329-110.288l1.65,1.618a14.021,14.021,0,0,1,7.521-3.852l-.179-2.347A15.765,15.765,0,0,0,16.329-110.288Z" transform="translate(0 -1.433)" fill="#b0b0b0"/>
                      <path id="Path_10614" data-name="Path 10614" d="M76.627-108.408l1.7-1.6a15.92,15.92,0,0,0-8.994-4.736l-.179,2.346A13.882,13.882,0,0,1,76.627-108.408Z" transform="translate(-38.993 -1.527)" fill="#b0b0b0"/>
                      <path id="Path_10615" data-name="Path 10615" d="M72.17-91.224,73.8-92.9A11.338,11.338,0,0,0,67.9-96.072l-.181,2.37A9.327,9.327,0,0,1,72.17-91.224Z" transform="translate(-37.941 -15.228)" fill="#b0b0b0"/>
                      <path id="Path_10616" data-name="Path 10616" d="M28.9-92.967l1.653,1.626A9.274,9.274,0,0,1,35.11-93.8l-.181-2.366A11.188,11.188,0,0,0,28.9-92.967Z" transform="translate(-9.229 -15.156)" fill="#b0b0b0"/>
                      <path id="Path_10617" data-name="Path 10617" d="M41.3-76.741l1.634,1.6a6.489,6.489,0,0,1,1.638-.979l-.185-2.421A6.577,6.577,0,0,0,41.3-76.741Z" transform="translate(-18.402 -28.096)" fill="#b0b0b0"/>
                      <path id="Path_10618" data-name="Path 10618" d="M67.888-75.009l1.629-1.606a6.742,6.742,0,0,0-2.985-1.78l-.186,2.438A6.619,6.619,0,0,1,67.888-75.009Z" transform="translate(-36.86 -28.201)" fill="#b0b0b0"/>
                      <path id="Path_10619" data-name="Path 10619" d="M54.1-57.513a1.485,1.485,0,0,1,1.591-1.465,1.447,1.447,0,0,1,1.564,1.465,1.448,1.448,0,0,1-1.591,1.419A1.434,1.434,0,0,1,54.1-57.513Z" transform="translate(-27.835 -42.453)" fill="#f2f2f2"/>
                      <path id="Path_10620" data-name="Path 10620" d="M55.961-103.629H53.72l-.742-13.192H56.7Z" transform="translate(-27.011 0)" fill="#f2f2f2"/>
                    </g>
                    </svg>