<svg xmlns="http://www.w3.org/2000/svg" width="21.181" height="26.061" viewBox="0 0 21.181 26.061">
                    <g id="pass_icon" transform="translate(0.395 1.998)">
                      <path id="Path_11654" data-name="Path 11654" d="M6.867,6.881a3.968,3.968,0,1,1,7.937,0v4.078h2.644c.012-.162.018-.324.018-.488V6.63a6.63,6.63,0,0,0-13.26,0v3.84c0,.164.007.326.018.488H6.867Z" transform="translate(-0.67 -1.998)" fill="#2fcba7"/>
                      <path id="Path_11655" data-name="Path 11655" d="M19.957,10.9H1.225A1.225,1.225,0,0,0,0,12.121V26.447a1.225,1.225,0,0,0,1.225,1.225H19.957a1.225,1.225,0,0,0,1.224-1.225V12.121A1.225,1.225,0,0,0,19.957,10.9M11.926,23.121H9.194l.782-3.584a1.543,1.543,0,1,1,1.127.017Z" transform="translate(-0.395 -3.61)" fill="#2fcba7"/>
                    </g>
                    </svg>