<svg class="edit-icont" id="鉛筆icon" xmlns="http://www.w3.org/2000/svg" width="18.353" height="18.353" viewBox="0 0 18.353 18.353">
                        <path id="Path_5725" data-name="Path 5725" d="M108.892,711.637l-9.881,9.881-7.448,1.907a.512.512,0,0,1-.624-.624l1.907-7.448,9.881-9.881a1.317,1.317,0,0,1,1.859,0l4.305,4.305A1.317,1.317,0,0,1,108.892,711.637Zm-10.328,9.1,9.712-9.711a.444.444,0,0,0,0-.626l-4.306-4.306a.443.443,0,0,0-.626,0L93.632,715.8l-1.7,6.63Z" transform="translate(-90.923 -705.088)" fill="#2fcba7"/>
                        <path id="Path_5727" data-name="Path 5727" d="M95.385,717.71l2.416,2.416.134-.034,7.981-7.981-2.466-2.466Z" transform="translate(-90.294 -704.447)" fill="#2fcba7" opacity="0.85"/>
                        <path id="Path_5728" data-name="Path 5728" d="M93.268,715.6l2.416,2.416,8.065-8.065-2.466-2.466L93.3,715.464Z" transform="translate(-90.593 -704.751)" fill="#2fcba7" opacity="0.65"/>
                        <path id="Path_5730" data-name="Path 5730" d="M91.809,720.536l1.981-.508-1.474-1.474Z" transform="translate(-90.798 -703.193)" fill="#2fcba7"/>
                      </svg>