<svg id="XLS" xmlns="http://www.w3.org/2000/svg" width="30.824" height="30.824" viewBox="0 0 30.824 30.824">
  <circle id="Ellipse_31" data-name="Ellipse 31" cx="15.412" cy="15.412" r="15.412" transform="translate(0)" fill="#3e3a39"/>
  <g id="Group_317" data-name="Group 317" transform="translate(5.865 5.86)">
    <path id="Path_412" data-name="Path 412" d="M408.822,2590.984l-7.71,7.71-7.71-7.71-1.837,1.837,7.71,7.71,1.837,1.837,1.837-1.837,7.71-7.71Z" transform="translate(-391.565 -2583.241)" fill="#22897b"/>
    <path id="Path_413" data-name="Path 413" d="M407.172,2585.543l-.92-.92-1.669-1.668-1.669,1.668-3.221,3.221-.92-.92,4.89-4.89-1.669-1.669-4.89,4.89-1.669,1.668,2.589,2.589,1.669,1.668,1.669-1.668,3.221-3.221.92.92-4.89,4.89,1.669,1.669,4.89-4.89,1.669-1.669Z" transform="translate(-392.613 -2580.366)" fill="#fff"/>
  </g>
</svg>
