<svg xmlns="http://www.w3.org/2000/svg" width="31" height="31" viewBox="0 0 31 31">
  <g id="JS1" transform="translate(0 0.428)">
    <circle id="楕円形_1706" data-name="楕円形 1706" cx="15.5" cy="15.5" r="15.5" transform="translate(0 -0.428)" fill="#fff"/>
    <g id="Group_6328" data-name="Group 6328" transform="translate(3.597 7.807)">
      <path id="Path_10567" data-name="Path 10567" d="M17.189,146.92v-4.154h10.17l2.172-3.679H13.792v7.833a4.21,4.21,0,0,1-.172,1.289,1.86,1.86,0,0,1-.572.867,2.443,2.443,0,0,1-1.061.486,7.587,7.587,0,0,1-1.625.148H8.484l-2.2,3.636h4.082Q17.188,153.347,17.189,146.92Z" transform="translate(-6.28 -139.087)" fill="#00a5a8"/>
      <path id="Path_10568" data-name="Path 10568" d="M36.417,149.87a4.357,4.357,0,0,0-3.053-.962H29.754a1.414,1.414,0,0,1-.874-.222.922.922,0,0,1-.286-.771,1.572,1.572,0,0,1,.026-.29H25.329c0,.012,0,.024,0,.036a5.32,5.32,0,0,0,.245,1.66,3.3,3.3,0,0,0,.751,1.279,3.453,3.453,0,0,0,1.274.825,5.076,5.076,0,0,0,1.829.3h3.609a1.363,1.363,0,0,1,.882.233.971.971,0,0,1,.277.782,1,1,0,0,1-.277.793,1.322,1.322,0,0,1-.882.243H24.953a4.991,4.991,0,0,1-3.06,3.636H32.775a6.379,6.379,0,0,0,2.131-.317,3.731,3.731,0,0,0,1.462-.909,3.529,3.529,0,0,0,.833-1.459,6.746,6.746,0,0,0,.261-1.945A3.761,3.761,0,0,0,36.417,149.87Z" transform="translate(-13.917 -143.263)" fill="#3e3a39"/>
    </g>
  </g>
</svg>
